<?xml version="1.0" encoding="UTF-8" standalone="no"?>
<!DOCTYPE svg PUBLIC "-//W3C//DTD SVG 1.1//EN"
 "http://www.w3.org/Graphics/SVG/1.1/DTD/svg11.dtd">
<!-- Generated by graphviz version 2.43.0 (0)
 -->
<!-- Title: Kyoo.Controllers.PluginManager.PluginDependencyLoader Pages: 1 -->
<svg width="183pt" height="193pt"
 viewBox="0.00 0.00 183.00 193.00" xmlns="http://www.w3.org/2000/svg" xmlns:xlink="http://www.w3.org/1999/xlink">
<g id="graph0" class="graph" transform="scale(1 1) rotate(0) translate(4 189)">
<title>Kyoo.Controllers.PluginManager.PluginDependencyLoader</title>
<polygon fill="white" stroke="transparent" points="-4,4 -4,-189 179,-189 179,4 -4,4"/>
<!-- Node1 -->
<g id="node1" class="node">
<title>Node1</title>
<g id="a_node1"><a xlink:title="A custom AssemblyLoadContext to load plugin&#39;s dependency if they are on the same folder.">
<polygon fill="#bfbfbf" stroke="black" points="0,-0.5 0,-90.5 175,-90.5 175,-0.5 0,-0.5"/>
<text text-anchor="start" x="8" y="-78.5" font-family="Helvetica,sans-Serif" font-size="10.00">Kyoo.Controllers.PluginManager.</text>
<text text-anchor="middle" x="87.5" y="-67.5" font-family="Helvetica,sans-Serif" font-size="10.00">PluginDependencyLoader</text>
<polyline fill="none" stroke="black" points="0,-60.5 175,-60.5 "/>
<text text-anchor="start" x="8" y="-48.5" font-family="Helvetica,sans-Serif" font-size="10.00">&#45; _resolver</text>
<polyline fill="none" stroke="black" points="0,-41.5 175,-41.5 "/>
<text text-anchor="start" x="8" y="-29.5" font-family="Helvetica,sans-Serif" font-size="10.00">+ PluginDependencyLoader()</text>
<text text-anchor="start" x="8" y="-18.5" font-family="Helvetica,sans-Serif" font-size="10.00"># Load()</text>
<text text-anchor="start" x="8" y="-7.5" font-family="Helvetica,sans-Serif" font-size="10.00"># LoadUnmanagedDll()</text>
</a>
</g>
</g>
<!-- Node2 -->
<g id="node2" class="node">
<title>Node2</title>
<g id="a_node2"><a xlink:title=" ">
<polygon fill="white" stroke="#bfbfbf" points="24.5,-127.5 24.5,-184.5 150.5,-184.5 150.5,-127.5 24.5,-127.5"/>
<text text-anchor="middle" x="87.5" y="-172.5" font-family="Helvetica,sans-Serif" font-size="10.00">AssemblyLoadContext</text>
<polyline fill="none" stroke="#bfbfbf" points="24.5,-165.5 150.5,-165.5 "/>
<text text-anchor="middle" x="87.5" y="-153.5" font-family="Helvetica,sans-Serif" font-size="10.00"> </text>
<polyline fill="none" stroke="#bfbfbf" points="24.5,-146.5 150.5,-146.5 "/>
<text text-anchor="middle" x="87.5" y="-134.5" font-family="Helvetica,sans-Serif" font-size="10.00"> </text>
</a>
</g>
</g>
<!-- Node2&#45;&gt;Node1 -->
<g id="edge1" class="edge">
<title>Node2&#45;&gt;Node1</title>
<path fill="none" stroke="midnightblue" d="M87.5,-117.21C87.5,-108.61 87.5,-99.39 87.5,-90.55"/>
<polygon fill="none" stroke="midnightblue" points="84,-117.34 87.5,-127.34 91,-117.34 84,-117.34"/>
</g>
</g>
</svg>
