<?xml version="1.0" encoding="UTF-8" standalone="no"?>
<!DOCTYPE svg PUBLIC "-//W3C//DTD SVG 1.1//EN"
 "http://www.w3.org/Graphics/SVG/1.1/DTD/svg11.dtd">
<!-- Generated by graphviz version 2.43.0 (0)
 -->
<!-- Title: Kyoo.Api.ProviderApi Pages: 1 -->
<svg width="127pt" height="347pt"
 viewBox="0.00 0.00 127.00 347.00" xmlns="http://www.w3.org/2000/svg" xmlns:xlink="http://www.w3.org/1999/xlink">
<g id="graph0" class="graph" transform="scale(1 1) rotate(0) translate(4 343)">
<title>Kyoo.Api.ProviderApi</title>
<polygon fill="white" stroke="transparent" points="-4,4 -4,-343 123,-343 123,4 -4,4"/>
<!-- Node1 -->
<g id="node1" class="node">
<title>Node1</title>
<g id="a_node1"><a xlink:title=" ">
<polygon fill="#bfbfbf" stroke="black" points="0,-0.5 0,-101.5 119,-101.5 119,-0.5 0,-0.5"/>
<text text-anchor="middle" x="59.5" y="-89.5" font-family="Helvetica,sans-Serif" font-size="10.00">Kyoo.Api.ProviderApi</text>
<polyline fill="none" stroke="black" points="0,-82.5 119,-82.5 "/>
<text text-anchor="start" x="8" y="-70.5" font-family="Helvetica,sans-Serif" font-size="10.00">&#45; _thumbnails</text>
<text text-anchor="start" x="8" y="-59.5" font-family="Helvetica,sans-Serif" font-size="10.00">&#45; _libraryManager</text>
<text text-anchor="start" x="8" y="-48.5" font-family="Helvetica,sans-Serif" font-size="10.00">&#45; _files</text>
<polyline fill="none" stroke="black" points="0,-41.5 119,-41.5 "/>
<text text-anchor="start" x="8" y="-29.5" font-family="Helvetica,sans-Serif" font-size="10.00">+ ProviderApi()</text>
<text text-anchor="start" x="8" y="-18.5" font-family="Helvetica,sans-Serif" font-size="10.00">+ GetLogo()</text>
<text text-anchor="start" x="8" y="-7.5" font-family="Helvetica,sans-Serif" font-size="10.00">+ GetLogo()</text>
</a>
</g>
</g>
<!-- Node2 -->
<g id="node2" class="node">
<title>Node2</title>
<g id="a_node2"><a xlink:href="classKyoo_1_1CommonApi_1_1CrudApi.html" target="_top" xlink:title=" ">
<polygon fill="white" stroke="black" points="0.5,-138.5 0.5,-338.5 118.5,-338.5 118.5,-138.5 0.5,-138.5"/>
<text text-anchor="middle" x="59.5" y="-326.5" font-family="Helvetica,sans-Serif" font-size="10.00">CrudApi&lt; Provider &gt;</text>
<polyline fill="none" stroke="black" points="0.5,-319.5 118.5,-319.5 "/>
<text text-anchor="start" x="8.5" y="-307.5" font-family="Helvetica,sans-Serif" font-size="10.00"># BaseURL</text>
<text text-anchor="start" x="8.5" y="-296.5" font-family="Helvetica,sans-Serif" font-size="10.00">&#45; _repository</text>
<polyline fill="none" stroke="black" points="0.5,-289.5 118.5,-289.5 "/>
<text text-anchor="start" x="8.5" y="-277.5" font-family="Helvetica,sans-Serif" font-size="10.00">+ CrudApi()</text>
<text text-anchor="start" x="8.5" y="-266.5" font-family="Helvetica,sans-Serif" font-size="10.00">+ Get()</text>
<text text-anchor="start" x="8.5" y="-255.5" font-family="Helvetica,sans-Serif" font-size="10.00">+ Get()</text>
<text text-anchor="start" x="8.5" y="-244.5" font-family="Helvetica,sans-Serif" font-size="10.00">+ GetCount()</text>
<text text-anchor="start" x="8.5" y="-233.5" font-family="Helvetica,sans-Serif" font-size="10.00">+ GetAll()</text>
<text text-anchor="start" x="8.5" y="-222.5" font-family="Helvetica,sans-Serif" font-size="10.00">+ Create()</text>
<text text-anchor="start" x="8.5" y="-211.5" font-family="Helvetica,sans-Serif" font-size="10.00">+ Edit()</text>
<text text-anchor="start" x="8.5" y="-200.5" font-family="Helvetica,sans-Serif" font-size="10.00">+ Edit()</text>
<text text-anchor="start" x="8.5" y="-189.5" font-family="Helvetica,sans-Serif" font-size="10.00">+ Edit()</text>
<text text-anchor="start" x="8.5" y="-178.5" font-family="Helvetica,sans-Serif" font-size="10.00">+ Delete()</text>
<text text-anchor="start" x="8.5" y="-167.5" font-family="Helvetica,sans-Serif" font-size="10.00">+ Delete()</text>
<text text-anchor="start" x="8.5" y="-156.5" font-family="Helvetica,sans-Serif" font-size="10.00">+ Delete()</text>
<text text-anchor="start" x="8.5" y="-145.5" font-family="Helvetica,sans-Serif" font-size="10.00"># Page&lt; TResult &gt;()</text>
</a>
</g>
</g>
<!-- Node2&#45;&gt;Node1 -->
<g id="edge1" class="edge">
<title>Node2&#45;&gt;Node1</title>
<path fill="none" stroke="midnightblue" d="M59.5,-127.97C59.5,-118.95 59.5,-110.14 59.5,-101.92"/>
<polygon fill="none" stroke="midnightblue" points="56,-128.23 59.5,-138.23 63,-128.23 56,-128.23"/>
</g>
</g>
</svg>
