<?xml version="1.0" encoding="UTF-8" standalone="no"?>
<!DOCTYPE svg PUBLIC "-//W3C//DTD SVG 1.1//EN"
 "http://www.w3.org/Graphics/SVG/1.1/DTD/svg11.dtd">
<!-- Generated by graphviz version 2.43.0 (0)
 -->
<!-- Title: Kyoo.Models.Permissions.PermissionAttribute Pages: 1 -->
<svg width="166pt" height="226pt"
 viewBox="0.00 0.00 165.50 226.00" xmlns="http://www.w3.org/2000/svg" xmlns:xlink="http://www.w3.org/1999/xlink">
<g id="graph0" class="graph" transform="scale(1 1) rotate(0) translate(4 222)">
<title>Kyoo.Models.Permissions.PermissionAttribute</title>
<polygon fill="white" stroke="transparent" points="-4,4 -4,-222 161.5,-222 161.5,4 -4,4"/>
<!-- Node1 -->
<g id="node1" class="node">
<title>Node1</title>
<g id="a_node1"><a xlink:title="Specify permissions needed for the API.">
<polygon fill="#bfbfbf" stroke="black" points="1.5,-0.5 1.5,-123.5 145.5,-123.5 145.5,-0.5 1.5,-0.5"/>
<text text-anchor="start" x="9.5" y="-111.5" font-family="Helvetica,sans-Serif" font-size="10.00">Kyoo.Models.Permissions.</text>
<text text-anchor="middle" x="73.5" y="-100.5" font-family="Helvetica,sans-Serif" font-size="10.00">PermissionAttribute</text>
<polyline fill="none" stroke="black" points="1.5,-93.5 145.5,-93.5 "/>
<text text-anchor="start" x="9.5" y="-81.5" font-family="Helvetica,sans-Serif" font-size="10.00">+ IsReusable</text>
<text text-anchor="start" x="9.5" y="-70.5" font-family="Helvetica,sans-Serif" font-size="10.00">+ Type</text>
<text text-anchor="start" x="9.5" y="-59.5" font-family="Helvetica,sans-Serif" font-size="10.00">+ Kind</text>
<text text-anchor="start" x="9.5" y="-48.5" font-family="Helvetica,sans-Serif" font-size="10.00">+ Group</text>
<polyline fill="none" stroke="black" points="1.5,-41.5 145.5,-41.5 "/>
<text text-anchor="start" x="9.5" y="-29.5" font-family="Helvetica,sans-Serif" font-size="10.00">+ PermissionAttribute()</text>
<text text-anchor="start" x="9.5" y="-18.5" font-family="Helvetica,sans-Serif" font-size="10.00">+ CreateInstance()</text>
<text text-anchor="start" x="9.5" y="-7.5" font-family="Helvetica,sans-Serif" font-size="10.00">+ AsPermissionString()</text>
</a>
</g>
</g>
<!-- Node2 -->
<g id="node2" class="node">
<title>Node2</title>
<g id="a_node2"><a xlink:title=" ">
<polygon fill="white" stroke="#bfbfbf" points="0,-160.5 0,-217.5 59,-217.5 59,-160.5 0,-160.5"/>
<text text-anchor="middle" x="29.5" y="-205.5" font-family="Helvetica,sans-Serif" font-size="10.00">Attribute</text>
<polyline fill="none" stroke="#bfbfbf" points="0,-198.5 59,-198.5 "/>
<text text-anchor="middle" x="29.5" y="-186.5" font-family="Helvetica,sans-Serif" font-size="10.00"> </text>
<polyline fill="none" stroke="#bfbfbf" points="0,-179.5 59,-179.5 "/>
<text text-anchor="middle" x="29.5" y="-167.5" font-family="Helvetica,sans-Serif" font-size="10.00"> </text>
</a>
</g>
</g>
<!-- Node2&#45;&gt;Node1 -->
<g id="edge1" class="edge">
<title>Node2&#45;&gt;Node1</title>
<path fill="none" stroke="midnightblue" d="M42.65,-150.66C45.64,-142.14 48.9,-132.88 52.14,-123.67"/>
<polygon fill="none" stroke="midnightblue" points="39.28,-149.66 39.27,-160.26 45.89,-151.99 39.28,-149.66"/>
</g>
<!-- Node3 -->
<g id="node3" class="node">
<title>Node3</title>
<g id="a_node3"><a xlink:title=" ">
<polygon fill="white" stroke="#bfbfbf" points="77.5,-160.5 77.5,-217.5 157.5,-217.5 157.5,-160.5 77.5,-160.5"/>
<text text-anchor="middle" x="117.5" y="-205.5" font-family="Helvetica,sans-Serif" font-size="10.00">IFilterFactory</text>
<polyline fill="none" stroke="#bfbfbf" points="77.5,-198.5 157.5,-198.5 "/>
<text text-anchor="middle" x="117.5" y="-186.5" font-family="Helvetica,sans-Serif" font-size="10.00"> </text>
<polyline fill="none" stroke="#bfbfbf" points="77.5,-179.5 157.5,-179.5 "/>
<text text-anchor="middle" x="117.5" y="-167.5" font-family="Helvetica,sans-Serif" font-size="10.00"> </text>
</a>
</g>
</g>
<!-- Node3&#45;&gt;Node1 -->
<g id="edge2" class="edge">
<title>Node3&#45;&gt;Node1</title>
<path fill="none" stroke="midnightblue" d="M104.35,-150.66C101.36,-142.14 98.1,-132.88 94.86,-123.67"/>
<polygon fill="none" stroke="midnightblue" points="101.11,-151.99 107.73,-160.26 107.72,-149.66 101.11,-151.99"/>
</g>
</g>
</svg>
