<?xml version="1.0" encoding="UTF-8" standalone="no"?>
<!DOCTYPE svg PUBLIC "-//W3C//DTD SVG 1.1//EN"
 "http://www.w3.org/Graphics/SVG/1.1/DTD/svg11.dtd">
<!-- Generated by graphviz version 2.43.0 (0)
 -->
<!-- Title: Kyoo.Controllers.ProviderRepository Pages: 1 -->
<svg width="309pt" height="628pt"
 viewBox="0.00 0.00 308.50 628.00" xmlns="http://www.w3.org/2000/svg" xmlns:xlink="http://www.w3.org/1999/xlink">
<g id="graph0" class="graph" transform="scale(1 1) rotate(0) translate(4 624)">
<title>Kyoo.Controllers.ProviderRepository</title>
<polygon fill="white" stroke="transparent" points="-4,4 -4,-624 304.5,-624 304.5,4 -4,4"/>
<!-- Node1 -->
<g id="node1" class="node">
<title>Node1</title>
<g id="a_node1"><a xlink:title="A local repository to handle providers.">
<polygon fill="#bfbfbf" stroke="black" points="86,-0.5 86,-123.5 226,-123.5 226,-0.5 86,-0.5"/>
<text text-anchor="start" x="94" y="-111.5" font-family="Helvetica,sans-Serif" font-size="10.00">Kyoo.Controllers.Provider</text>
<text text-anchor="middle" x="156" y="-100.5" font-family="Helvetica,sans-Serif" font-size="10.00">Repository</text>
<polyline fill="none" stroke="black" points="86,-93.5 226,-93.5 "/>
<text text-anchor="start" x="94" y="-81.5" font-family="Helvetica,sans-Serif" font-size="10.00"># DefaultSort</text>
<text text-anchor="start" x="94" y="-70.5" font-family="Helvetica,sans-Serif" font-size="10.00">&#45; _database</text>
<polyline fill="none" stroke="black" points="86,-63.5 226,-63.5 "/>
<text text-anchor="start" x="94" y="-51.5" font-family="Helvetica,sans-Serif" font-size="10.00">+ ProviderRepository()</text>
<text text-anchor="start" x="94" y="-40.5" font-family="Helvetica,sans-Serif" font-size="10.00">+ Search()</text>
<text text-anchor="start" x="94" y="-29.5" font-family="Helvetica,sans-Serif" font-size="10.00">+ Create()</text>
<text text-anchor="start" x="94" y="-18.5" font-family="Helvetica,sans-Serif" font-size="10.00">+ Delete()</text>
<text text-anchor="start" x="94" y="-7.5" font-family="Helvetica,sans-Serif" font-size="10.00">+ GetMetadataID()</text>
</a>
</g>
</g>
<!-- Node2 -->
<g id="node2" class="node">
<title>Node2</title>
<g id="a_node2"><a xlink:href="classKyoo_1_1Controllers_1_1LocalRepository.html" target="_top" xlink:title=" ">
<polygon fill="white" stroke="black" points="0,-160.5 0,-415.5 158,-415.5 158,-160.5 0,-160.5"/>
<text text-anchor="middle" x="79" y="-403.5" font-family="Helvetica,sans-Serif" font-size="10.00">LocalRepository&lt; Provider &gt;</text>
<polyline fill="none" stroke="black" points="0,-396.5 158,-396.5 "/>
<text text-anchor="start" x="8" y="-384.5" font-family="Helvetica,sans-Serif" font-size="10.00">+ RepositoryType</text>
<text text-anchor="start" x="8" y="-373.5" font-family="Helvetica,sans-Serif" font-size="10.00">+ DefaultSort</text>
<text text-anchor="start" x="8" y="-362.5" font-family="Helvetica,sans-Serif" font-size="10.00"># Database</text>
<polyline fill="none" stroke="black" points="0,-355.5 158,-355.5 "/>
<text text-anchor="start" x="8" y="-343.5" font-family="Helvetica,sans-Serif" font-size="10.00">+ Get()</text>
<text text-anchor="start" x="8" y="-332.5" font-family="Helvetica,sans-Serif" font-size="10.00">+ Get()</text>
<text text-anchor="start" x="8" y="-321.5" font-family="Helvetica,sans-Serif" font-size="10.00">+ Get()</text>
<text text-anchor="start" x="8" y="-310.5" font-family="Helvetica,sans-Serif" font-size="10.00">+ GetOrDefault()</text>
<text text-anchor="start" x="8" y="-299.5" font-family="Helvetica,sans-Serif" font-size="10.00">+ GetOrDefault()</text>
<text text-anchor="start" x="8" y="-288.5" font-family="Helvetica,sans-Serif" font-size="10.00">+ GetOrDefault()</text>
<text text-anchor="start" x="8" y="-277.5" font-family="Helvetica,sans-Serif" font-size="10.00">+ Search()</text>
<text text-anchor="start" x="8" y="-266.5" font-family="Helvetica,sans-Serif" font-size="10.00">+ GetAll()</text>
<text text-anchor="start" x="8" y="-255.5" font-family="Helvetica,sans-Serif" font-size="10.00">+ GetCount()</text>
<text text-anchor="start" x="8" y="-244.5" font-family="Helvetica,sans-Serif" font-size="10.00">+ Create()</text>
<text text-anchor="start" x="8" y="-233.5" font-family="Helvetica,sans-Serif" font-size="10.00">and 9 more...</text>
<text text-anchor="start" x="8" y="-222.5" font-family="Helvetica,sans-Serif" font-size="10.00"># LocalRepository()</text>
<text text-anchor="start" x="8" y="-211.5" font-family="Helvetica,sans-Serif" font-size="10.00"># GetWithTracking()</text>
<text text-anchor="start" x="8" y="-200.5" font-family="Helvetica,sans-Serif" font-size="10.00"># ApplyFilters()</text>
<text text-anchor="start" x="8" y="-189.5" font-family="Helvetica,sans-Serif" font-size="10.00"># ApplyFilters&lt; TValue &gt;()</text>
<text text-anchor="start" x="8" y="-178.5" font-family="Helvetica,sans-Serif" font-size="10.00"># EditRelations()</text>
<text text-anchor="start" x="8" y="-167.5" font-family="Helvetica,sans-Serif" font-size="10.00"># Validate()</text>
</a>
</g>
</g>
<!-- Node2&#45;&gt;Node1 -->
<g id="edge1" class="edge">
<title>Node2&#45;&gt;Node1</title>
<path fill="none" stroke="midnightblue" d="M125.91,-150.53C129.1,-141.26 132.2,-132.22 135.14,-123.69"/>
<polygon fill="none" stroke="midnightblue" points="122.5,-149.68 122.56,-160.27 129.12,-151.95 122.5,-149.68"/>
</g>
<!-- Node3 -->
<g id="node3" class="node">
<title>Node3</title>
<g id="a_node3"><a xlink:href="interfaceKyoo_1_1Controllers_1_1IProviderRepository.html" target="_top" xlink:title="A repository to handle providers.">
<polygon fill="white" stroke="black" points="176.5,-254 176.5,-322 289.5,-322 289.5,-254 176.5,-254"/>
<text text-anchor="middle" x="233" y="-310" font-family="Helvetica,sans-Serif" font-size="10.00">IProviderRepository</text>
<polyline fill="none" stroke="black" points="176.5,-303 289.5,-303 "/>
<text text-anchor="middle" x="233" y="-291" font-family="Helvetica,sans-Serif" font-size="10.00"> </text>
<polyline fill="none" stroke="black" points="176.5,-284 289.5,-284 "/>
<text text-anchor="start" x="184.5" y="-272" font-family="Helvetica,sans-Serif" font-size="10.00">+ GetMetadataID()</text>
<text text-anchor="start" x="184.5" y="-261" font-family="Helvetica,sans-Serif" font-size="10.00">+ GetMetadataID()</text>
</a>
</g>
</g>
<!-- Node3&#45;&gt;Node1 -->
<g id="edge2" class="edge">
<title>Node3&#45;&gt;Node1</title>
<path fill="none" stroke="midnightblue" d="M218.31,-244.27C206.57,-210.11 189.97,-161.81 176.85,-123.65"/>
<polygon fill="none" stroke="midnightblue" points="215.08,-245.63 221.64,-253.95 221.7,-243.35 215.08,-245.63"/>
</g>
<!-- Node4 -->
<g id="node4" class="node">
<title>Node4</title>
<g id="a_node4"><a xlink:href="interfaceKyoo_1_1Controllers_1_1IRepository.html" target="_top" xlink:title=" ">
<polygon fill="white" stroke="black" points="165.5,-452.5 165.5,-619.5 300.5,-619.5 300.5,-452.5 165.5,-452.5"/>
<text text-anchor="middle" x="233" y="-607.5" font-family="Helvetica,sans-Serif" font-size="10.00">IRepository&lt; Provider &gt;</text>
<polyline fill="none" stroke="black" points="165.5,-600.5 300.5,-600.5 "/>
<text text-anchor="middle" x="233" y="-588.5" font-family="Helvetica,sans-Serif" font-size="10.00"> </text>
<polyline fill="none" stroke="black" points="165.5,-581.5 300.5,-581.5 "/>
<text text-anchor="start" x="173.5" y="-569.5" font-family="Helvetica,sans-Serif" font-size="10.00">+ Get()</text>
<text text-anchor="start" x="173.5" y="-558.5" font-family="Helvetica,sans-Serif" font-size="10.00">+ Get()</text>
<text text-anchor="start" x="173.5" y="-547.5" font-family="Helvetica,sans-Serif" font-size="10.00">+ Get()</text>
<text text-anchor="start" x="173.5" y="-536.5" font-family="Helvetica,sans-Serif" font-size="10.00">+ GetOrDefault()</text>
<text text-anchor="start" x="173.5" y="-525.5" font-family="Helvetica,sans-Serif" font-size="10.00">+ GetOrDefault()</text>
<text text-anchor="start" x="173.5" y="-514.5" font-family="Helvetica,sans-Serif" font-size="10.00">+ GetOrDefault()</text>
<text text-anchor="start" x="173.5" y="-503.5" font-family="Helvetica,sans-Serif" font-size="10.00">+ Search()</text>
<text text-anchor="start" x="173.5" y="-492.5" font-family="Helvetica,sans-Serif" font-size="10.00">+ GetAll()</text>
<text text-anchor="start" x="173.5" y="-481.5" font-family="Helvetica,sans-Serif" font-size="10.00">+ GetAll()</text>
<text text-anchor="start" x="173.5" y="-470.5" font-family="Helvetica,sans-Serif" font-size="10.00">+ GetCount()</text>
<text text-anchor="start" x="173.5" y="-459.5" font-family="Helvetica,sans-Serif" font-size="10.00">and 13 more...</text>
</a>
</g>
</g>
<!-- Node4&#45;&gt;Node3 -->
<g id="edge3" class="edge">
<title>Node4&#45;&gt;Node3</title>
<path fill="none" stroke="midnightblue" d="M233,-442.37C233,-400.19 233,-352.94 233,-322.17"/>
<polygon fill="none" stroke="midnightblue" points="229.5,-442.4 233,-452.4 236.5,-442.4 229.5,-442.4"/>
</g>
</g>
</svg>
