<?xml version="1.0" encoding="UTF-8" standalone="no"?>
<!DOCTYPE svg PUBLIC "-//W3C//DTD SVG 1.1//EN"
 "http://www.w3.org/Graphics/SVG/1.1/DTD/svg11.dtd">
<!-- Generated by graphviz version 2.43.0 (0)
 -->
<!-- Title: Kyoo.Controllers.PassthroughPermissionValidator Pages: 1 -->
<svg width="200pt" height="204pt"
 viewBox="0.00 0.00 200.00 204.00" xmlns="http://www.w3.org/2000/svg" xmlns:xlink="http://www.w3.org/1999/xlink">
<g id="graph0" class="graph" transform="scale(1 1) rotate(0) translate(4 200)">
<title>Kyoo.Controllers.PassthroughPermissionValidator</title>
<polygon fill="white" stroke="transparent" points="-4,4 -4,-200 196,-200 196,4 -4,4"/>
<!-- Node1 -->
<g id="node1" class="node">
<title>Node1</title>
<g id="a_node1"><a xlink:title="A permission validator that always validate permissions. This effectively disable the permission syst...">
<polygon fill="#bfbfbf" stroke="black" points="0,-0.5 0,-90.5 192,-90.5 192,-0.5 0,-0.5"/>
<text text-anchor="start" x="8" y="-78.5" font-family="Helvetica,sans-Serif" font-size="10.00">Kyoo.Controllers.Passthrough</text>
<text text-anchor="middle" x="96" y="-67.5" font-family="Helvetica,sans-Serif" font-size="10.00">PermissionValidator</text>
<polyline fill="none" stroke="black" points="0,-60.5 192,-60.5 "/>
<text text-anchor="middle" x="96" y="-48.5" font-family="Helvetica,sans-Serif" font-size="10.00"> </text>
<polyline fill="none" stroke="black" points="0,-41.5 192,-41.5 "/>
<text text-anchor="start" x="8" y="-29.5" font-family="Helvetica,sans-Serif" font-size="10.00">+ PassthroughPermissionValidator()</text>
<text text-anchor="start" x="8" y="-18.5" font-family="Helvetica,sans-Serif" font-size="10.00">+ Create()</text>
<text text-anchor="start" x="8" y="-7.5" font-family="Helvetica,sans-Serif" font-size="10.00">+ Create()</text>
</a>
</g>
</g>
<!-- Node2 -->
<g id="node2" class="node">
<title>Node2</title>
<g id="a_node2"><a xlink:href="interfaceKyoo_1_1Models_1_1Permissions_1_1IPermissionValidator.html" target="_top" xlink:title="A service to validate permissions">
<polygon fill="white" stroke="black" points="37.5,-127.5 37.5,-195.5 154.5,-195.5 154.5,-127.5 37.5,-127.5"/>
<text text-anchor="middle" x="96" y="-183.5" font-family="Helvetica,sans-Serif" font-size="10.00">IPermissionValidator</text>
<polyline fill="none" stroke="black" points="37.5,-176.5 154.5,-176.5 "/>
<text text-anchor="middle" x="96" y="-164.5" font-family="Helvetica,sans-Serif" font-size="10.00"> </text>
<polyline fill="none" stroke="black" points="37.5,-157.5 154.5,-157.5 "/>
<text text-anchor="start" x="45.5" y="-145.5" font-family="Helvetica,sans-Serif" font-size="10.00">+ Create()</text>
<text text-anchor="start" x="45.5" y="-134.5" font-family="Helvetica,sans-Serif" font-size="10.00">+ Create()</text>
</a>
</g>
</g>
<!-- Node2&#45;&gt;Node1 -->
<g id="edge1" class="edge">
<title>Node2&#45;&gt;Node1</title>
<path fill="none" stroke="midnightblue" d="M96,-116.97C96,-108.35 96,-99.28 96,-90.64"/>
<polygon fill="none" stroke="midnightblue" points="92.5,-117.22 96,-127.22 99.5,-117.22 92.5,-117.22"/>
</g>
</g>
</svg>
