<?xml version="1.0" encoding="UTF-8" standalone="no"?>
<!DOCTYPE svg PUBLIC "-//W3C//DTD SVG 1.1//EN"
 "http://www.w3.org/Graphics/SVG/1.1/DTD/svg11.dtd">
<!-- Generated by graphviz version 2.43.0 (0)
 -->
<!-- Title: Kyoo.Api.SearchApi Pages: 1 -->
<svg width="252pt" height="479pt"
 viewBox="0.00 0.00 252.00 479.00" xmlns="http://www.w3.org/2000/svg" xmlns:xlink="http://www.w3.org/1999/xlink">
<g id="graph0" class="graph" transform="scale(1 1) rotate(0) translate(4 475)">
<title>Kyoo.Api.SearchApi</title>
<polygon fill="white" stroke="transparent" points="-4,4 -4,-475 248,-475 248,4 -4,4"/>
<!-- Node1 -->
<g id="node1" class="node">
<title>Node1</title>
<g id="a_node1"><a xlink:title=" ">
<polygon fill="#bfbfbf" stroke="black" points="48.5,-0.5 48.5,-134.5 170.5,-134.5 170.5,-0.5 48.5,-0.5"/>
<text text-anchor="middle" x="109.5" y="-122.5" font-family="Helvetica,sans-Serif" font-size="10.00">Kyoo.Api.SearchApi</text>
<polyline fill="none" stroke="black" points="48.5,-115.5 170.5,-115.5 "/>
<text text-anchor="middle" x="109.5" y="-103.5" font-family="Helvetica,sans-Serif" font-size="10.00"> </text>
<polyline fill="none" stroke="black" points="48.5,-96.5 170.5,-96.5 "/>
<text text-anchor="start" x="56.5" y="-84.5" font-family="Helvetica,sans-Serif" font-size="10.00">+ SearchApi()</text>
<text text-anchor="start" x="56.5" y="-73.5" font-family="Helvetica,sans-Serif" font-size="10.00">+ Search()</text>
<text text-anchor="start" x="56.5" y="-62.5" font-family="Helvetica,sans-Serif" font-size="10.00">+ SearchCollections()</text>
<text text-anchor="start" x="56.5" y="-51.5" font-family="Helvetica,sans-Serif" font-size="10.00">+ SearchShows()</text>
<text text-anchor="start" x="56.5" y="-40.5" font-family="Helvetica,sans-Serif" font-size="10.00">+ SearchEpisodes()</text>
<text text-anchor="start" x="56.5" y="-29.5" font-family="Helvetica,sans-Serif" font-size="10.00">+ SearchPeople()</text>
<text text-anchor="start" x="56.5" y="-18.5" font-family="Helvetica,sans-Serif" font-size="10.00">+ SearchGenres()</text>
<text text-anchor="start" x="56.5" y="-7.5" font-family="Helvetica,sans-Serif" font-size="10.00">+ SearchStudios()</text>
</a>
</g>
</g>
<!-- Node2 -->
<g id="node2" class="node">
<title>Node2</title>
<g id="a_node2"><a xlink:title=" ">
<polygon fill="white" stroke="#bfbfbf" points="0,-298 0,-355 89,-355 89,-298 0,-298"/>
<text text-anchor="middle" x="44.5" y="-343" font-family="Helvetica,sans-Serif" font-size="10.00">ControllerBase</text>
<polyline fill="none" stroke="#bfbfbf" points="0,-336 89,-336 "/>
<text text-anchor="middle" x="44.5" y="-324" font-family="Helvetica,sans-Serif" font-size="10.00"> </text>
<polyline fill="none" stroke="#bfbfbf" points="0,-317 89,-317 "/>
<text text-anchor="middle" x="44.5" y="-305" font-family="Helvetica,sans-Serif" font-size="10.00"> </text>
</a>
</g>
</g>
<!-- Node2&#45;&gt;Node1 -->
<g id="edge1" class="edge">
<title>Node2&#45;&gt;Node1</title>
<path fill="none" stroke="midnightblue" d="M53.96,-288.09C64.12,-247.91 80.47,-183.27 92.81,-134.51"/>
<polygon fill="none" stroke="midnightblue" points="50.52,-287.44 51.46,-298 57.3,-289.16 50.52,-287.44"/>
</g>
<!-- Node3 -->
<g id="node3" class="node">
<title>Node3</title>
<g id="a_node3"><a xlink:href="interfaceKyoo_1_1Controllers_1_1ILibraryManager.html" target="_top" xlink:title="An interface to interract with the database. Every repository is mapped through here.">
<polygon fill="white" stroke="black" points="107,-182.5 107,-470.5 244,-470.5 244,-182.5 107,-182.5"/>
<text text-anchor="start" x="115" y="-458.5" font-family="Helvetica,sans-Serif" font-size="10.00">Kyoo.Controllers.ILibrary</text>
<text text-anchor="middle" x="175.5" y="-447.5" font-family="Helvetica,sans-Serif" font-size="10.00">Manager</text>
<polyline fill="none" stroke="black" points="107,-440.5 244,-440.5 "/>
<text text-anchor="start" x="115" y="-428.5" font-family="Helvetica,sans-Serif" font-size="10.00">+ LibraryRepository</text>
<text text-anchor="start" x="115" y="-417.5" font-family="Helvetica,sans-Serif" font-size="10.00">+ LibraryItemRepository</text>
<text text-anchor="start" x="115" y="-406.5" font-family="Helvetica,sans-Serif" font-size="10.00">+ CollectionRepository</text>
<text text-anchor="start" x="115" y="-395.5" font-family="Helvetica,sans-Serif" font-size="10.00">+ ShowRepository</text>
<text text-anchor="start" x="115" y="-384.5" font-family="Helvetica,sans-Serif" font-size="10.00">+ SeasonRepository</text>
<text text-anchor="start" x="115" y="-373.5" font-family="Helvetica,sans-Serif" font-size="10.00">+ EpisodeRepository</text>
<text text-anchor="start" x="115" y="-362.5" font-family="Helvetica,sans-Serif" font-size="10.00">+ TrackRepository</text>
<text text-anchor="start" x="115" y="-351.5" font-family="Helvetica,sans-Serif" font-size="10.00">+ PeopleRepository</text>
<text text-anchor="start" x="115" y="-340.5" font-family="Helvetica,sans-Serif" font-size="10.00">+ StudioRepository</text>
<text text-anchor="start" x="115" y="-329.5" font-family="Helvetica,sans-Serif" font-size="10.00">+ GenreRepository</text>
<text text-anchor="start" x="115" y="-318.5" font-family="Helvetica,sans-Serif" font-size="10.00">+ ProviderRepository</text>
<polyline fill="none" stroke="black" points="107,-311.5 244,-311.5 "/>
<text text-anchor="start" x="115" y="-299.5" font-family="Helvetica,sans-Serif" font-size="10.00">+ GetRepository&lt; T &gt;()</text>
<text text-anchor="start" x="115" y="-288.5" font-family="Helvetica,sans-Serif" font-size="10.00">+ Get&lt; T &gt;()</text>
<text text-anchor="start" x="115" y="-277.5" font-family="Helvetica,sans-Serif" font-size="10.00">+ Get&lt; T &gt;()</text>
<text text-anchor="start" x="115" y="-266.5" font-family="Helvetica,sans-Serif" font-size="10.00">+ Get&lt; T &gt;()</text>
<text text-anchor="start" x="115" y="-255.5" font-family="Helvetica,sans-Serif" font-size="10.00">+ Get()</text>
<text text-anchor="start" x="115" y="-244.5" font-family="Helvetica,sans-Serif" font-size="10.00">+ Get()</text>
<text text-anchor="start" x="115" y="-233.5" font-family="Helvetica,sans-Serif" font-size="10.00">+ Get()</text>
<text text-anchor="start" x="115" y="-222.5" font-family="Helvetica,sans-Serif" font-size="10.00">+ Get()</text>
<text text-anchor="start" x="115" y="-211.5" font-family="Helvetica,sans-Serif" font-size="10.00">+ Get()</text>
<text text-anchor="start" x="115" y="-200.5" font-family="Helvetica,sans-Serif" font-size="10.00">+ GetOrDefault&lt; T &gt;()</text>
<text text-anchor="start" x="115" y="-189.5" font-family="Helvetica,sans-Serif" font-size="10.00">and 35 more...</text>
</a>
</g>
</g>
<!-- Node3&#45;&gt;Node1 -->
<g id="edge2" class="edge">
<title>Node3&#45;&gt;Node1</title>
<path fill="none" stroke="#404040" d="M138.74,-182.35C135.57,-170.03 132.46,-157.89 129.51,-146.4"/>
<polygon fill="none" stroke="#404040" points="129.48,-146.3 124.11,-141.48 126.49,-134.67 131.86,-139.49 129.48,-146.3"/>
<text text-anchor="middle" x="177" y="-156" font-family="Helvetica,sans-Serif" font-size="10.00"> &#45;_libraryManager</text>
</g>
</g>
</svg>
