<?xml version="1.0" encoding="UTF-8" standalone="no"?>
<!DOCTYPE svg PUBLIC "-//W3C//DTD SVG 1.1//EN"
 "http://www.w3.org/Graphics/SVG/1.1/DTD/svg11.dtd">
<!-- Generated by graphviz version 2.43.0 (0)
 -->
<!-- Title: Kyoo.Authentication.Views.AccountApi Pages: 1 -->
<svg width="178pt" height="303pt"
 viewBox="0.00 0.00 177.50 303.00" xmlns="http://www.w3.org/2000/svg" xmlns:xlink="http://www.w3.org/1999/xlink">
<g id="graph0" class="graph" transform="scale(1 1) rotate(0) translate(4 299)">
<title>Kyoo.Authentication.Views.AccountApi</title>
<polygon fill="white" stroke="transparent" points="-4,4 -4,-299 173.5,-299 173.5,4 -4,4"/>
<!-- Node1 -->
<g id="node1" class="node">
<title>Node1</title>
<g id="a_node1"><a xlink:title="The class responsible for login, logout, permissions and claims of a user.">
<polygon fill="#bfbfbf" stroke="black" points="4.5,-0.5 4.5,-200.5 154.5,-200.5 154.5,-0.5 4.5,-0.5"/>
<text text-anchor="start" x="12.5" y="-188.5" font-family="Helvetica,sans-Serif" font-size="10.00">Kyoo.Authentication.Views.</text>
<text text-anchor="middle" x="79.5" y="-177.5" font-family="Helvetica,sans-Serif" font-size="10.00">AccountApi</text>
<polyline fill="none" stroke="black" points="4.5,-170.5 154.5,-170.5 "/>
<text text-anchor="start" x="12.5" y="-158.5" font-family="Helvetica,sans-Serif" font-size="10.00">&#45; _users</text>
<text text-anchor="start" x="12.5" y="-147.5" font-family="Helvetica,sans-Serif" font-size="10.00">&#45; _files</text>
<text text-anchor="start" x="12.5" y="-136.5" font-family="Helvetica,sans-Serif" font-size="10.00">&#45; _options</text>
<polyline fill="none" stroke="black" points="4.5,-129.5 154.5,-129.5 "/>
<text text-anchor="start" x="12.5" y="-117.5" font-family="Helvetica,sans-Serif" font-size="10.00">+ AccountApi()</text>
<text text-anchor="start" x="12.5" y="-106.5" font-family="Helvetica,sans-Serif" font-size="10.00">+ Register()</text>
<text text-anchor="start" x="12.5" y="-95.5" font-family="Helvetica,sans-Serif" font-size="10.00">+ Login()</text>
<text text-anchor="start" x="12.5" y="-84.5" font-family="Helvetica,sans-Serif" font-size="10.00">+ OtacLogin()</text>
<text text-anchor="start" x="12.5" y="-73.5" font-family="Helvetica,sans-Serif" font-size="10.00">+ Logout()</text>
<text text-anchor="start" x="12.5" y="-62.5" font-family="Helvetica,sans-Serif" font-size="10.00">+ GetProfileDataAsync()</text>
<text text-anchor="start" x="12.5" y="-51.5" font-family="Helvetica,sans-Serif" font-size="10.00">+ IsActiveAsync()</text>
<text text-anchor="start" x="12.5" y="-40.5" font-family="Helvetica,sans-Serif" font-size="10.00">+ GetPicture()</text>
<text text-anchor="start" x="12.5" y="-29.5" font-family="Helvetica,sans-Serif" font-size="10.00">+ Update()</text>
<text text-anchor="start" x="12.5" y="-18.5" font-family="Helvetica,sans-Serif" font-size="10.00">+ GetDefaultPermissions()</text>
<text text-anchor="start" x="12.5" y="-7.5" font-family="Helvetica,sans-Serif" font-size="10.00">&#45; StayLogged()</text>
</a>
</g>
</g>
<!-- Node2 -->
<g id="node2" class="node">
<title>Node2</title>
<g id="a_node2"><a xlink:title=" ">
<polygon fill="white" stroke="#bfbfbf" points="0,-237.5 0,-294.5 65,-294.5 65,-237.5 0,-237.5"/>
<text text-anchor="middle" x="32.5" y="-282.5" font-family="Helvetica,sans-Serif" font-size="10.00">Controller</text>
<polyline fill="none" stroke="#bfbfbf" points="0,-275.5 65,-275.5 "/>
<text text-anchor="middle" x="32.5" y="-263.5" font-family="Helvetica,sans-Serif" font-size="10.00"> </text>
<polyline fill="none" stroke="#bfbfbf" points="0,-256.5 65,-256.5 "/>
<text text-anchor="middle" x="32.5" y="-244.5" font-family="Helvetica,sans-Serif" font-size="10.00"> </text>
</a>
</g>
</g>
<!-- Node2&#45;&gt;Node1 -->
<g id="edge1" class="edge">
<title>Node2&#45;&gt;Node1</title>
<path fill="none" stroke="midnightblue" d="M43.25,-227.59C45.65,-219.27 48.29,-210.07 51.03,-200.55"/>
<polygon fill="none" stroke="midnightblue" points="39.87,-226.69 40.47,-237.26 46.6,-228.62 39.87,-226.69"/>
</g>
<!-- Node3 -->
<g id="node3" class="node">
<title>Node3</title>
<g id="a_node3"><a xlink:title=" ">
<polygon fill="white" stroke="#bfbfbf" points="83.5,-237.5 83.5,-294.5 169.5,-294.5 169.5,-237.5 83.5,-237.5"/>
<text text-anchor="middle" x="126.5" y="-282.5" font-family="Helvetica,sans-Serif" font-size="10.00">IProfileService</text>
<polyline fill="none" stroke="#bfbfbf" points="83.5,-275.5 169.5,-275.5 "/>
<text text-anchor="middle" x="126.5" y="-263.5" font-family="Helvetica,sans-Serif" font-size="10.00"> </text>
<polyline fill="none" stroke="#bfbfbf" points="83.5,-256.5 169.5,-256.5 "/>
<text text-anchor="middle" x="126.5" y="-244.5" font-family="Helvetica,sans-Serif" font-size="10.00"> </text>
</a>
</g>
</g>
<!-- Node3&#45;&gt;Node1 -->
<g id="edge2" class="edge">
<title>Node3&#45;&gt;Node1</title>
<path fill="none" stroke="midnightblue" d="M115.75,-227.59C113.35,-219.27 110.71,-210.07 107.97,-200.55"/>
<polygon fill="none" stroke="midnightblue" points="112.4,-228.62 118.53,-237.26 119.13,-226.69 112.4,-228.62"/>
</g>
</g>
</svg>
