<?xml version="1.0" encoding="UTF-8" standalone="no"?>
<!DOCTYPE svg PUBLIC "-//W3C//DTD SVG 1.1//EN"
 "http://www.w3.org/Graphics/SVG/1.1/DTD/svg11.dtd">
<!-- Generated by graphviz version 2.43.0 (0)
 -->
<!-- Title: Kyoo.Controllers.GenreRepository Pages: 1 -->
<svg width="459pt" height="739pt"
 viewBox="0.00 0.00 458.50 739.00" xmlns="http://www.w3.org/2000/svg" xmlns:xlink="http://www.w3.org/1999/xlink">
<g id="graph0" class="graph" transform="scale(1 1) rotate(0) translate(4 735)">
<title>Kyoo.Controllers.GenreRepository</title>
<polygon fill="white" stroke="transparent" points="-4,4 -4,-735 454.5,-735 454.5,4 -4,4"/>
<!-- Node1 -->
<g id="node1" class="node">
<title>Node1</title>
<g id="a_node1"><a xlink:title="A local repository for genres.">
<polygon fill="#bfbfbf" stroke="black" points="126.5,-0.5 126.5,-90.5 308.5,-90.5 308.5,-0.5 126.5,-0.5"/>
<text text-anchor="middle" x="217.5" y="-78.5" font-family="Helvetica,sans-Serif" font-size="10.00">Kyoo.Controllers.GenreRepository</text>
<polyline fill="none" stroke="black" points="126.5,-71.5 308.5,-71.5 "/>
<text text-anchor="start" x="134.5" y="-59.5" font-family="Helvetica,sans-Serif" font-size="10.00"># DefaultSort</text>
<polyline fill="none" stroke="black" points="126.5,-52.5 308.5,-52.5 "/>
<text text-anchor="start" x="134.5" y="-40.5" font-family="Helvetica,sans-Serif" font-size="10.00">+ GenreRepository()</text>
<text text-anchor="start" x="134.5" y="-29.5" font-family="Helvetica,sans-Serif" font-size="10.00">+ Search()</text>
<text text-anchor="start" x="134.5" y="-18.5" font-family="Helvetica,sans-Serif" font-size="10.00">+ Create()</text>
<text text-anchor="start" x="134.5" y="-7.5" font-family="Helvetica,sans-Serif" font-size="10.00">+ Delete()</text>
</a>
</g>
</g>
<!-- Node2 -->
<g id="node2" class="node">
<title>Node2</title>
<g id="a_node2"><a xlink:href="classKyoo_1_1Controllers_1_1LocalRepository.html" target="_top" xlink:title=" ">
<polygon fill="white" stroke="black" points="0,-204.5 0,-459.5 149,-459.5 149,-204.5 0,-204.5"/>
<text text-anchor="middle" x="74.5" y="-447.5" font-family="Helvetica,sans-Serif" font-size="10.00">LocalRepository&lt; Genre &gt;</text>
<polyline fill="none" stroke="black" points="0,-440.5 149,-440.5 "/>
<text text-anchor="start" x="8" y="-428.5" font-family="Helvetica,sans-Serif" font-size="10.00">+ RepositoryType</text>
<text text-anchor="start" x="8" y="-417.5" font-family="Helvetica,sans-Serif" font-size="10.00">+ DefaultSort</text>
<text text-anchor="start" x="8" y="-406.5" font-family="Helvetica,sans-Serif" font-size="10.00"># Database</text>
<polyline fill="none" stroke="black" points="0,-399.5 149,-399.5 "/>
<text text-anchor="start" x="8" y="-387.5" font-family="Helvetica,sans-Serif" font-size="10.00">+ Get()</text>
<text text-anchor="start" x="8" y="-376.5" font-family="Helvetica,sans-Serif" font-size="10.00">+ Get()</text>
<text text-anchor="start" x="8" y="-365.5" font-family="Helvetica,sans-Serif" font-size="10.00">+ Get()</text>
<text text-anchor="start" x="8" y="-354.5" font-family="Helvetica,sans-Serif" font-size="10.00">+ GetOrDefault()</text>
<text text-anchor="start" x="8" y="-343.5" font-family="Helvetica,sans-Serif" font-size="10.00">+ GetOrDefault()</text>
<text text-anchor="start" x="8" y="-332.5" font-family="Helvetica,sans-Serif" font-size="10.00">+ GetOrDefault()</text>
<text text-anchor="start" x="8" y="-321.5" font-family="Helvetica,sans-Serif" font-size="10.00">+ Search()</text>
<text text-anchor="start" x="8" y="-310.5" font-family="Helvetica,sans-Serif" font-size="10.00">+ GetAll()</text>
<text text-anchor="start" x="8" y="-299.5" font-family="Helvetica,sans-Serif" font-size="10.00">+ GetCount()</text>
<text text-anchor="start" x="8" y="-288.5" font-family="Helvetica,sans-Serif" font-size="10.00">+ Create()</text>
<text text-anchor="start" x="8" y="-277.5" font-family="Helvetica,sans-Serif" font-size="10.00">and 9 more...</text>
<text text-anchor="start" x="8" y="-266.5" font-family="Helvetica,sans-Serif" font-size="10.00"># LocalRepository()</text>
<text text-anchor="start" x="8" y="-255.5" font-family="Helvetica,sans-Serif" font-size="10.00"># GetWithTracking()</text>
<text text-anchor="start" x="8" y="-244.5" font-family="Helvetica,sans-Serif" font-size="10.00"># ApplyFilters()</text>
<text text-anchor="start" x="8" y="-233.5" font-family="Helvetica,sans-Serif" font-size="10.00"># ApplyFilters&lt; TValue &gt;()</text>
<text text-anchor="start" x="8" y="-222.5" font-family="Helvetica,sans-Serif" font-size="10.00"># EditRelations()</text>
<text text-anchor="start" x="8" y="-211.5" font-family="Helvetica,sans-Serif" font-size="10.00"># Validate()</text>
</a>
</g>
</g>
<!-- Node2&#45;&gt;Node1 -->
<g id="edge1" class="edge">
<title>Node2&#45;&gt;Node1</title>
<path fill="none" stroke="midnightblue" d="M129.36,-195.17C138.23,-175.72 147.73,-156.17 157.5,-138 166.05,-122.1 176.51,-105.41 186.29,-90.69"/>
<polygon fill="none" stroke="midnightblue" points="126.12,-193.84 125.19,-204.39 132.5,-196.72 126.12,-193.84"/>
</g>
<!-- Node3 -->
<g id="node3" class="node">
<title>Node3</title>
<g id="a_node3"><a xlink:href="interfaceKyoo_1_1Controllers_1_1IGenreRepository.html" target="_top" xlink:title="A repository for genres.">
<polygon fill="white" stroke="black" points="167,-303.5 167,-360.5 268,-360.5 268,-303.5 167,-303.5"/>
<text text-anchor="middle" x="217.5" y="-348.5" font-family="Helvetica,sans-Serif" font-size="10.00">IGenreRepository</text>
<polyline fill="none" stroke="black" points="167,-341.5 268,-341.5 "/>
<text text-anchor="middle" x="217.5" y="-329.5" font-family="Helvetica,sans-Serif" font-size="10.00"> </text>
<polyline fill="none" stroke="black" points="167,-322.5 268,-322.5 "/>
<text text-anchor="middle" x="217.5" y="-310.5" font-family="Helvetica,sans-Serif" font-size="10.00"> </text>
</a>
</g>
</g>
<!-- Node3&#45;&gt;Node1 -->
<g id="edge2" class="edge">
<title>Node3&#45;&gt;Node1</title>
<path fill="none" stroke="midnightblue" d="M217.5,-293.26C217.5,-240.88 217.5,-146.32 217.5,-90.71"/>
<polygon fill="none" stroke="midnightblue" points="214,-293.46 217.5,-303.46 221,-293.46 214,-293.46"/>
</g>
<!-- Node4 -->
<g id="node4" class="node">
<title>Node4</title>
<g id="a_node4"><a xlink:href="interfaceKyoo_1_1Controllers_1_1IRepository.html" target="_top" xlink:title=" ">
<polygon fill="white" stroke="black" points="155.5,-563.5 155.5,-730.5 279.5,-730.5 279.5,-563.5 155.5,-563.5"/>
<text text-anchor="middle" x="217.5" y="-718.5" font-family="Helvetica,sans-Serif" font-size="10.00">IRepository&lt; Genre &gt;</text>
<polyline fill="none" stroke="black" points="155.5,-711.5 279.5,-711.5 "/>
<text text-anchor="middle" x="217.5" y="-699.5" font-family="Helvetica,sans-Serif" font-size="10.00"> </text>
<polyline fill="none" stroke="black" points="155.5,-692.5 279.5,-692.5 "/>
<text text-anchor="start" x="163.5" y="-680.5" font-family="Helvetica,sans-Serif" font-size="10.00">+ Get()</text>
<text text-anchor="start" x="163.5" y="-669.5" font-family="Helvetica,sans-Serif" font-size="10.00">+ Get()</text>
<text text-anchor="start" x="163.5" y="-658.5" font-family="Helvetica,sans-Serif" font-size="10.00">+ Get()</text>
<text text-anchor="start" x="163.5" y="-647.5" font-family="Helvetica,sans-Serif" font-size="10.00">+ GetOrDefault()</text>
<text text-anchor="start" x="163.5" y="-636.5" font-family="Helvetica,sans-Serif" font-size="10.00">+ GetOrDefault()</text>
<text text-anchor="start" x="163.5" y="-625.5" font-family="Helvetica,sans-Serif" font-size="10.00">+ GetOrDefault()</text>
<text text-anchor="start" x="163.5" y="-614.5" font-family="Helvetica,sans-Serif" font-size="10.00">+ Search()</text>
<text text-anchor="start" x="163.5" y="-603.5" font-family="Helvetica,sans-Serif" font-size="10.00">+ GetAll()</text>
<text text-anchor="start" x="163.5" y="-592.5" font-family="Helvetica,sans-Serif" font-size="10.00">+ GetAll()</text>
<text text-anchor="start" x="163.5" y="-581.5" font-family="Helvetica,sans-Serif" font-size="10.00">+ GetCount()</text>
<text text-anchor="start" x="163.5" y="-570.5" font-family="Helvetica,sans-Serif" font-size="10.00">and 13 more...</text>
</a>
</g>
</g>
<!-- Node4&#45;&gt;Node3 -->
<g id="edge3" class="edge">
<title>Node4&#45;&gt;Node3</title>
<path fill="none" stroke="midnightblue" d="M217.5,-552.97C217.5,-487.27 217.5,-403.6 217.5,-360.86"/>
<polygon fill="none" stroke="midnightblue" points="214,-553.35 217.5,-563.35 221,-553.35 214,-553.35"/>
</g>
<!-- Node5 -->
<g id="node5" class="node">
<title>Node5</title>
<g id="a_node5"><a xlink:href="classKyoo_1_1DatabaseContext.html" target="_top" xlink:title="The database handle used for all local repositories. This is an abstract class. It is meant to be imp...">
<polygon fill="white" stroke="black" points="286.5,-138.5 286.5,-525.5 450.5,-525.5 450.5,-138.5 286.5,-138.5"/>
<text text-anchor="middle" x="368.5" y="-513.5" font-family="Helvetica,sans-Serif" font-size="10.00">Kyoo.DatabaseContext</text>
<polyline fill="none" stroke="black" points="286.5,-506.5 450.5,-506.5 "/>
<text text-anchor="start" x="294.5" y="-494.5" font-family="Helvetica,sans-Serif" font-size="10.00">+ Libraries</text>
<text text-anchor="start" x="294.5" y="-483.5" font-family="Helvetica,sans-Serif" font-size="10.00">+ Collections</text>
<text text-anchor="start" x="294.5" y="-472.5" font-family="Helvetica,sans-Serif" font-size="10.00">+ Shows</text>
<text text-anchor="start" x="294.5" y="-461.5" font-family="Helvetica,sans-Serif" font-size="10.00">+ Seasons</text>
<text text-anchor="start" x="294.5" y="-450.5" font-family="Helvetica,sans-Serif" font-size="10.00">+ Episodes</text>
<text text-anchor="start" x="294.5" y="-439.5" font-family="Helvetica,sans-Serif" font-size="10.00">+ Tracks</text>
<text text-anchor="start" x="294.5" y="-428.5" font-family="Helvetica,sans-Serif" font-size="10.00">+ Genres</text>
<text text-anchor="start" x="294.5" y="-417.5" font-family="Helvetica,sans-Serif" font-size="10.00">+ People</text>
<text text-anchor="start" x="294.5" y="-406.5" font-family="Helvetica,sans-Serif" font-size="10.00">+ Studios</text>
<text text-anchor="start" x="294.5" y="-395.5" font-family="Helvetica,sans-Serif" font-size="10.00">+ Providers</text>
<text text-anchor="start" x="294.5" y="-384.5" font-family="Helvetica,sans-Serif" font-size="10.00">+ MetadataIds</text>
<text text-anchor="start" x="294.5" y="-373.5" font-family="Helvetica,sans-Serif" font-size="10.00">+ Users</text>
<text text-anchor="start" x="294.5" y="-362.5" font-family="Helvetica,sans-Serif" font-size="10.00">+ PeopleRoles</text>
<text text-anchor="start" x="294.5" y="-351.5" font-family="Helvetica,sans-Serif" font-size="10.00">+ WatchedEpisodes</text>
<polyline fill="none" stroke="black" points="286.5,-344.5 450.5,-344.5 "/>
<text text-anchor="start" x="294.5" y="-332.5" font-family="Helvetica,sans-Serif" font-size="10.00">+ Links&lt; T1, T2 &gt;()</text>
<text text-anchor="start" x="294.5" y="-321.5" font-family="Helvetica,sans-Serif" font-size="10.00">+ GetTemporaryObject&lt; T &gt;()</text>
<text text-anchor="start" x="294.5" y="-310.5" font-family="Helvetica,sans-Serif" font-size="10.00">+ SaveChanges()</text>
<text text-anchor="start" x="294.5" y="-299.5" font-family="Helvetica,sans-Serif" font-size="10.00">+ SaveChanges()</text>
<text text-anchor="start" x="294.5" y="-288.5" font-family="Helvetica,sans-Serif" font-size="10.00">+ SaveChanges()</text>
<text text-anchor="start" x="294.5" y="-277.5" font-family="Helvetica,sans-Serif" font-size="10.00">+ SaveChangesAsync()</text>
<text text-anchor="start" x="294.5" y="-266.5" font-family="Helvetica,sans-Serif" font-size="10.00">+ SaveChangesAsync()</text>
<text text-anchor="start" x="294.5" y="-255.5" font-family="Helvetica,sans-Serif" font-size="10.00">+ SaveChangesAsync()</text>
<text text-anchor="start" x="294.5" y="-244.5" font-family="Helvetica,sans-Serif" font-size="10.00">+ SaveIfNoDuplicates()</text>
<text text-anchor="start" x="294.5" y="-233.5" font-family="Helvetica,sans-Serif" font-size="10.00">+ SaveOrRetry&lt; T &gt;()</text>
<text text-anchor="start" x="294.5" y="-222.5" font-family="Helvetica,sans-Serif" font-size="10.00">+ Like&lt; T &gt;()</text>
<text text-anchor="start" x="294.5" y="-211.5" font-family="Helvetica,sans-Serif" font-size="10.00"># DatabaseContext()</text>
<text text-anchor="start" x="294.5" y="-200.5" font-family="Helvetica,sans-Serif" font-size="10.00"># DatabaseContext()</text>
<text text-anchor="start" x="294.5" y="-189.5" font-family="Helvetica,sans-Serif" font-size="10.00"># OnConfiguring()</text>
<text text-anchor="start" x="294.5" y="-178.5" font-family="Helvetica,sans-Serif" font-size="10.00"># OnModelCreating()</text>
<text text-anchor="start" x="294.5" y="-167.5" font-family="Helvetica,sans-Serif" font-size="10.00"># IsDuplicateException()</text>
<text text-anchor="start" x="294.5" y="-156.5" font-family="Helvetica,sans-Serif" font-size="10.00">&#45; SaveOrRetry&lt; T &gt;()</text>
<text text-anchor="start" x="294.5" y="-145.5" font-family="Helvetica,sans-Serif" font-size="10.00">&#45; DiscardChanges()</text>
</a>
</g>
</g>
<!-- Node5&#45;&gt;Node1 -->
<g id="edge4" class="edge">
<title>Node5&#45;&gt;Node1</title>
<path fill="none" stroke="#404040" d="M286.37,-156.11C283.1,-149.97 279.8,-143.92 276.5,-138 269.74,-125.87 261.99,-113.17 254.39,-101.22"/>
<polygon fill="none" stroke="#404040" points="254.27,-101.03 247.66,-98.15 247.78,-90.94 254.39,-93.82 254.27,-101.03"/>
<text text-anchor="middle" x="295.5" y="-112" font-family="Helvetica,sans-Serif" font-size="10.00"> &#45;_database</text>
</g>
<!-- Node6 -->
<g id="node6" class="node">
<title>Node6</title>
<g id="a_node6"><a xlink:title=" ">
<polygon fill="white" stroke="#bfbfbf" points="334.5,-618.5 334.5,-675.5 402.5,-675.5 402.5,-618.5 334.5,-618.5"/>
<text text-anchor="middle" x="368.5" y="-663.5" font-family="Helvetica,sans-Serif" font-size="10.00">DbContext</text>
<polyline fill="none" stroke="#bfbfbf" points="334.5,-656.5 402.5,-656.5 "/>
<text text-anchor="middle" x="368.5" y="-644.5" font-family="Helvetica,sans-Serif" font-size="10.00"> </text>
<polyline fill="none" stroke="#bfbfbf" points="334.5,-637.5 402.5,-637.5 "/>
<text text-anchor="middle" x="368.5" y="-625.5" font-family="Helvetica,sans-Serif" font-size="10.00"> </text>
</a>
</g>
</g>
<!-- Node6&#45;&gt;Node5 -->
<g id="edge5" class="edge">
<title>Node6&#45;&gt;Node5</title>
<path fill="none" stroke="midnightblue" d="M368.5,-608.41C368.5,-586.57 368.5,-557.21 368.5,-525.79"/>
<polygon fill="none" stroke="midnightblue" points="365,-608.5 368.5,-618.5 372,-608.5 365,-608.5"/>
</g>
</g>
</svg>
