<?xml version="1.0" encoding="UTF-8" standalone="no"?>
<!DOCTYPE svg PUBLIC "-//W3C//DTD SVG 1.1//EN"
 "http://www.w3.org/Graphics/SVG/1.1/DTD/svg11.dtd">
<!-- Generated by graphviz version 2.43.0 (0)
 -->
<!-- Title: Kyoo.Controllers.LibraryRepository Pages: 1 -->
<svg width="628pt" height="772pt"
 viewBox="0.00 0.00 627.50 772.00" xmlns="http://www.w3.org/2000/svg" xmlns:xlink="http://www.w3.org/1999/xlink">
<g id="graph0" class="graph" transform="scale(1 1) rotate(0) translate(4 768)">
<title>Kyoo.Controllers.LibraryRepository</title>
<polygon fill="white" stroke="transparent" points="-4,4 -4,-768 623.5,-768 623.5,4 -4,4"/>
<!-- Node1 -->
<g id="node1" class="node">
<title>Node1</title>
<g id="a_node1"><a xlink:title="A local repository to handle libraries.">
<polygon fill="#bfbfbf" stroke="black" points="226.5,-0.5 226.5,-123.5 360.5,-123.5 360.5,-0.5 226.5,-0.5"/>
<text text-anchor="start" x="234.5" y="-111.5" font-family="Helvetica,sans-Serif" font-size="10.00">Kyoo.Controllers.Library</text>
<text text-anchor="middle" x="293.5" y="-100.5" font-family="Helvetica,sans-Serif" font-size="10.00">Repository</text>
<polyline fill="none" stroke="black" points="226.5,-93.5 360.5,-93.5 "/>
<text text-anchor="start" x="234.5" y="-81.5" font-family="Helvetica,sans-Serif" font-size="10.00"># DefaultSort</text>
<polyline fill="none" stroke="black" points="226.5,-74.5 360.5,-74.5 "/>
<text text-anchor="start" x="234.5" y="-62.5" font-family="Helvetica,sans-Serif" font-size="10.00">+ LibraryRepository()</text>
<text text-anchor="start" x="234.5" y="-51.5" font-family="Helvetica,sans-Serif" font-size="10.00">+ Search()</text>
<text text-anchor="start" x="234.5" y="-40.5" font-family="Helvetica,sans-Serif" font-size="10.00">+ Create()</text>
<text text-anchor="start" x="234.5" y="-29.5" font-family="Helvetica,sans-Serif" font-size="10.00">+ Delete()</text>
<text text-anchor="start" x="234.5" y="-18.5" font-family="Helvetica,sans-Serif" font-size="10.00"># Validate()</text>
<text text-anchor="start" x="234.5" y="-7.5" font-family="Helvetica,sans-Serif" font-size="10.00"># EditRelations()</text>
</a>
</g>
</g>
<!-- Node2 -->
<g id="node2" class="node">
<title>Node2</title>
<g id="a_node2"><a xlink:href="classKyoo_1_1Controllers_1_1LocalRepository.html" target="_top" xlink:title=" ">
<polygon fill="white" stroke="black" points="0,-237.5 0,-492.5 151,-492.5 151,-237.5 0,-237.5"/>
<text text-anchor="middle" x="75.5" y="-480.5" font-family="Helvetica,sans-Serif" font-size="10.00">LocalRepository&lt; Library &gt;</text>
<polyline fill="none" stroke="black" points="0,-473.5 151,-473.5 "/>
<text text-anchor="start" x="8" y="-461.5" font-family="Helvetica,sans-Serif" font-size="10.00">+ RepositoryType</text>
<text text-anchor="start" x="8" y="-450.5" font-family="Helvetica,sans-Serif" font-size="10.00">+ DefaultSort</text>
<text text-anchor="start" x="8" y="-439.5" font-family="Helvetica,sans-Serif" font-size="10.00"># Database</text>
<polyline fill="none" stroke="black" points="0,-432.5 151,-432.5 "/>
<text text-anchor="start" x="8" y="-420.5" font-family="Helvetica,sans-Serif" font-size="10.00">+ Get()</text>
<text text-anchor="start" x="8" y="-409.5" font-family="Helvetica,sans-Serif" font-size="10.00">+ Get()</text>
<text text-anchor="start" x="8" y="-398.5" font-family="Helvetica,sans-Serif" font-size="10.00">+ Get()</text>
<text text-anchor="start" x="8" y="-387.5" font-family="Helvetica,sans-Serif" font-size="10.00">+ GetOrDefault()</text>
<text text-anchor="start" x="8" y="-376.5" font-family="Helvetica,sans-Serif" font-size="10.00">+ GetOrDefault()</text>
<text text-anchor="start" x="8" y="-365.5" font-family="Helvetica,sans-Serif" font-size="10.00">+ GetOrDefault()</text>
<text text-anchor="start" x="8" y="-354.5" font-family="Helvetica,sans-Serif" font-size="10.00">+ Search()</text>
<text text-anchor="start" x="8" y="-343.5" font-family="Helvetica,sans-Serif" font-size="10.00">+ GetAll()</text>
<text text-anchor="start" x="8" y="-332.5" font-family="Helvetica,sans-Serif" font-size="10.00">+ GetCount()</text>
<text text-anchor="start" x="8" y="-321.5" font-family="Helvetica,sans-Serif" font-size="10.00">+ Create()</text>
<text text-anchor="start" x="8" y="-310.5" font-family="Helvetica,sans-Serif" font-size="10.00">and 9 more...</text>
<text text-anchor="start" x="8" y="-299.5" font-family="Helvetica,sans-Serif" font-size="10.00"># LocalRepository()</text>
<text text-anchor="start" x="8" y="-288.5" font-family="Helvetica,sans-Serif" font-size="10.00"># GetWithTracking()</text>
<text text-anchor="start" x="8" y="-277.5" font-family="Helvetica,sans-Serif" font-size="10.00"># ApplyFilters()</text>
<text text-anchor="start" x="8" y="-266.5" font-family="Helvetica,sans-Serif" font-size="10.00"># ApplyFilters&lt; TValue &gt;()</text>
<text text-anchor="start" x="8" y="-255.5" font-family="Helvetica,sans-Serif" font-size="10.00"># EditRelations()</text>
<text text-anchor="start" x="8" y="-244.5" font-family="Helvetica,sans-Serif" font-size="10.00"># Validate()</text>
</a>
</g>
</g>
<!-- Node2&#45;&gt;Node1 -->
<g id="edge1" class="edge">
<title>Node2&#45;&gt;Node1</title>
<path fill="none" stroke="midnightblue" d="M125.44,-228.16C135.57,-208.09 147.26,-188.35 160.5,-171 178.72,-147.12 203.27,-125.27 226.31,-107.57"/>
<polygon fill="none" stroke="midnightblue" points="122.17,-226.88 120.89,-237.4 128.45,-229.97 122.17,-226.88"/>
</g>
<!-- Node3 -->
<g id="node3" class="node">
<title>Node3</title>
<g id="a_node3"><a xlink:href="interfaceKyoo_1_1Controllers_1_1ILibraryRepository.html" target="_top" xlink:title="A repository to handle libraries.">
<polygon fill="white" stroke="black" points="169.5,-336.5 169.5,-393.5 275.5,-393.5 275.5,-336.5 169.5,-336.5"/>
<text text-anchor="middle" x="222.5" y="-381.5" font-family="Helvetica,sans-Serif" font-size="10.00">ILibraryRepository</text>
<polyline fill="none" stroke="black" points="169.5,-374.5 275.5,-374.5 "/>
<text text-anchor="middle" x="222.5" y="-362.5" font-family="Helvetica,sans-Serif" font-size="10.00"> </text>
<polyline fill="none" stroke="black" points="169.5,-355.5 275.5,-355.5 "/>
<text text-anchor="middle" x="222.5" y="-343.5" font-family="Helvetica,sans-Serif" font-size="10.00"> </text>
</a>
</g>
</g>
<!-- Node3&#45;&gt;Node1 -->
<g id="edge2" class="edge">
<title>Node3&#45;&gt;Node1</title>
<path fill="none" stroke="midnightblue" d="M231.32,-326.59C243.31,-275.78 264.88,-184.34 279.19,-123.66"/>
<polygon fill="none" stroke="midnightblue" points="227.88,-325.95 228.99,-336.49 234.69,-327.56 227.88,-325.95"/>
</g>
<!-- Node4 -->
<g id="node4" class="node">
<title>Node4</title>
<g id="a_node4"><a xlink:href="interfaceKyoo_1_1Controllers_1_1IRepository.html" target="_top" xlink:title=" ">
<polygon fill="white" stroke="black" points="155.5,-596.5 155.5,-763.5 283.5,-763.5 283.5,-596.5 155.5,-596.5"/>
<text text-anchor="middle" x="219.5" y="-751.5" font-family="Helvetica,sans-Serif" font-size="10.00">IRepository&lt; Library &gt;</text>
<polyline fill="none" stroke="black" points="155.5,-744.5 283.5,-744.5 "/>
<text text-anchor="middle" x="219.5" y="-732.5" font-family="Helvetica,sans-Serif" font-size="10.00"> </text>
<polyline fill="none" stroke="black" points="155.5,-725.5 283.5,-725.5 "/>
<text text-anchor="start" x="163.5" y="-713.5" font-family="Helvetica,sans-Serif" font-size="10.00">+ Get()</text>
<text text-anchor="start" x="163.5" y="-702.5" font-family="Helvetica,sans-Serif" font-size="10.00">+ Get()</text>
<text text-anchor="start" x="163.5" y="-691.5" font-family="Helvetica,sans-Serif" font-size="10.00">+ Get()</text>
<text text-anchor="start" x="163.5" y="-680.5" font-family="Helvetica,sans-Serif" font-size="10.00">+ GetOrDefault()</text>
<text text-anchor="start" x="163.5" y="-669.5" font-family="Helvetica,sans-Serif" font-size="10.00">+ GetOrDefault()</text>
<text text-anchor="start" x="163.5" y="-658.5" font-family="Helvetica,sans-Serif" font-size="10.00">+ GetOrDefault()</text>
<text text-anchor="start" x="163.5" y="-647.5" font-family="Helvetica,sans-Serif" font-size="10.00">+ Search()</text>
<text text-anchor="start" x="163.5" y="-636.5" font-family="Helvetica,sans-Serif" font-size="10.00">+ GetAll()</text>
<text text-anchor="start" x="163.5" y="-625.5" font-family="Helvetica,sans-Serif" font-size="10.00">+ GetAll()</text>
<text text-anchor="start" x="163.5" y="-614.5" font-family="Helvetica,sans-Serif" font-size="10.00">+ GetCount()</text>
<text text-anchor="start" x="163.5" y="-603.5" font-family="Helvetica,sans-Serif" font-size="10.00">and 13 more...</text>
</a>
</g>
</g>
<!-- Node4&#45;&gt;Node3 -->
<g id="edge3" class="edge">
<title>Node4&#45;&gt;Node3</title>
<path fill="none" stroke="midnightblue" d="M220.39,-585.97C221.02,-520.27 221.82,-436.6 222.23,-393.86"/>
<polygon fill="none" stroke="midnightblue" points="216.89,-586.32 220.29,-596.35 223.89,-586.39 216.89,-586.32"/>
</g>
<!-- Node5 -->
<g id="node5" class="node">
<title>Node5</title>
<g id="a_node5"><a xlink:href="interfaceKyoo_1_1Controllers_1_1IProviderRepository.html" target="_top" xlink:title="A repository to handle providers.">
<polygon fill="white" stroke="black" points="294,-325.5 294,-404.5 437,-404.5 437,-325.5 294,-325.5"/>
<text text-anchor="start" x="302" y="-392.5" font-family="Helvetica,sans-Serif" font-size="10.00">Kyoo.Controllers.IProvider</text>
<text text-anchor="middle" x="365.5" y="-381.5" font-family="Helvetica,sans-Serif" font-size="10.00">Repository</text>
<polyline fill="none" stroke="black" points="294,-374.5 437,-374.5 "/>
<text text-anchor="middle" x="365.5" y="-362.5" font-family="Helvetica,sans-Serif" font-size="10.00"> </text>
<polyline fill="none" stroke="black" points="294,-355.5 437,-355.5 "/>
<text text-anchor="start" x="302" y="-343.5" font-family="Helvetica,sans-Serif" font-size="10.00">+ GetMetadataID()</text>
<text text-anchor="start" x="302" y="-332.5" font-family="Helvetica,sans-Serif" font-size="10.00">+ GetMetadataID()</text>
</a>
</g>
</g>
<!-- Node5&#45;&gt;Node1 -->
<g id="edge4" class="edge">
<title>Node5&#45;&gt;Node1</title>
<path fill="none" stroke="#404040" d="M356.23,-325.27C344.81,-277.51 325.16,-195.35 310.89,-135.69"/>
<polygon fill="none" stroke="#404040" points="310.81,-135.37 305.53,-130.47 308.02,-123.7 313.31,-128.61 310.81,-135.37"/>
<text text-anchor="middle" x="344.5" y="-145" font-family="Helvetica,sans-Serif" font-size="10.00"> &#45;_providers</text>
</g>
<!-- Node6 -->
<g id="node6" class="node">
<title>Node6</title>
<g id="a_node6"><a xlink:href="interfaceKyoo_1_1Controllers_1_1IRepository.html" target="_top" xlink:title=" ">
<polygon fill="white" stroke="black" points="302,-596.5 302,-763.5 437,-763.5 437,-596.5 302,-596.5"/>
<text text-anchor="middle" x="369.5" y="-751.5" font-family="Helvetica,sans-Serif" font-size="10.00">IRepository&lt; Provider &gt;</text>
<polyline fill="none" stroke="black" points="302,-744.5 437,-744.5 "/>
<text text-anchor="middle" x="369.5" y="-732.5" font-family="Helvetica,sans-Serif" font-size="10.00"> </text>
<polyline fill="none" stroke="black" points="302,-725.5 437,-725.5 "/>
<text text-anchor="start" x="310" y="-713.5" font-family="Helvetica,sans-Serif" font-size="10.00">+ Get()</text>
<text text-anchor="start" x="310" y="-702.5" font-family="Helvetica,sans-Serif" font-size="10.00">+ Get()</text>
<text text-anchor="start" x="310" y="-691.5" font-family="Helvetica,sans-Serif" font-size="10.00">+ Get()</text>
<text text-anchor="start" x="310" y="-680.5" font-family="Helvetica,sans-Serif" font-size="10.00">+ GetOrDefault()</text>
<text text-anchor="start" x="310" y="-669.5" font-family="Helvetica,sans-Serif" font-size="10.00">+ GetOrDefault()</text>
<text text-anchor="start" x="310" y="-658.5" font-family="Helvetica,sans-Serif" font-size="10.00">+ GetOrDefault()</text>
<text text-anchor="start" x="310" y="-647.5" font-family="Helvetica,sans-Serif" font-size="10.00">+ Search()</text>
<text text-anchor="start" x="310" y="-636.5" font-family="Helvetica,sans-Serif" font-size="10.00">+ GetAll()</text>
<text text-anchor="start" x="310" y="-625.5" font-family="Helvetica,sans-Serif" font-size="10.00">+ GetAll()</text>
<text text-anchor="start" x="310" y="-614.5" font-family="Helvetica,sans-Serif" font-size="10.00">+ GetCount()</text>
<text text-anchor="start" x="310" y="-603.5" font-family="Helvetica,sans-Serif" font-size="10.00">and 13 more...</text>
</a>
</g>
</g>
<!-- Node6&#45;&gt;Node5 -->
<g id="edge5" class="edge">
<title>Node6&#45;&gt;Node5</title>
<path fill="none" stroke="midnightblue" d="M368.31,-586.02C367.54,-525.55 366.57,-449.84 366,-404.84"/>
<polygon fill="none" stroke="midnightblue" points="364.82,-586.4 368.44,-596.35 371.82,-586.31 364.82,-586.4"/>
</g>
<!-- Node7 -->
<g id="node7" class="node">
<title>Node7</title>
<g id="a_node7"><a xlink:href="classKyoo_1_1DatabaseContext.html" target="_top" xlink:title="The database handle used for all local repositories. This is an abstract class. It is meant to be imp...">
<polygon fill="white" stroke="black" points="455.5,-171.5 455.5,-558.5 619.5,-558.5 619.5,-171.5 455.5,-171.5"/>
<text text-anchor="middle" x="537.5" y="-546.5" font-family="Helvetica,sans-Serif" font-size="10.00">Kyoo.DatabaseContext</text>
<polyline fill="none" stroke="black" points="455.5,-539.5 619.5,-539.5 "/>
<text text-anchor="start" x="463.5" y="-527.5" font-family="Helvetica,sans-Serif" font-size="10.00">+ Libraries</text>
<text text-anchor="start" x="463.5" y="-516.5" font-family="Helvetica,sans-Serif" font-size="10.00">+ Collections</text>
<text text-anchor="start" x="463.5" y="-505.5" font-family="Helvetica,sans-Serif" font-size="10.00">+ Shows</text>
<text text-anchor="start" x="463.5" y="-494.5" font-family="Helvetica,sans-Serif" font-size="10.00">+ Seasons</text>
<text text-anchor="start" x="463.5" y="-483.5" font-family="Helvetica,sans-Serif" font-size="10.00">+ Episodes</text>
<text text-anchor="start" x="463.5" y="-472.5" font-family="Helvetica,sans-Serif" font-size="10.00">+ Tracks</text>
<text text-anchor="start" x="463.5" y="-461.5" font-family="Helvetica,sans-Serif" font-size="10.00">+ Genres</text>
<text text-anchor="start" x="463.5" y="-450.5" font-family="Helvetica,sans-Serif" font-size="10.00">+ People</text>
<text text-anchor="start" x="463.5" y="-439.5" font-family="Helvetica,sans-Serif" font-size="10.00">+ Studios</text>
<text text-anchor="start" x="463.5" y="-428.5" font-family="Helvetica,sans-Serif" font-size="10.00">+ Providers</text>
<text text-anchor="start" x="463.5" y="-417.5" font-family="Helvetica,sans-Serif" font-size="10.00">+ MetadataIds</text>
<text text-anchor="start" x="463.5" y="-406.5" font-family="Helvetica,sans-Serif" font-size="10.00">+ Users</text>
<text text-anchor="start" x="463.5" y="-395.5" font-family="Helvetica,sans-Serif" font-size="10.00">+ PeopleRoles</text>
<text text-anchor="start" x="463.5" y="-384.5" font-family="Helvetica,sans-Serif" font-size="10.00">+ WatchedEpisodes</text>
<polyline fill="none" stroke="black" points="455.5,-377.5 619.5,-377.5 "/>
<text text-anchor="start" x="463.5" y="-365.5" font-family="Helvetica,sans-Serif" font-size="10.00">+ Links&lt; T1, T2 &gt;()</text>
<text text-anchor="start" x="463.5" y="-354.5" font-family="Helvetica,sans-Serif" font-size="10.00">+ GetTemporaryObject&lt; T &gt;()</text>
<text text-anchor="start" x="463.5" y="-343.5" font-family="Helvetica,sans-Serif" font-size="10.00">+ SaveChanges()</text>
<text text-anchor="start" x="463.5" y="-332.5" font-family="Helvetica,sans-Serif" font-size="10.00">+ SaveChanges()</text>
<text text-anchor="start" x="463.5" y="-321.5" font-family="Helvetica,sans-Serif" font-size="10.00">+ SaveChanges()</text>
<text text-anchor="start" x="463.5" y="-310.5" font-family="Helvetica,sans-Serif" font-size="10.00">+ SaveChangesAsync()</text>
<text text-anchor="start" x="463.5" y="-299.5" font-family="Helvetica,sans-Serif" font-size="10.00">+ SaveChangesAsync()</text>
<text text-anchor="start" x="463.5" y="-288.5" font-family="Helvetica,sans-Serif" font-size="10.00">+ SaveChangesAsync()</text>
<text text-anchor="start" x="463.5" y="-277.5" font-family="Helvetica,sans-Serif" font-size="10.00">+ SaveIfNoDuplicates()</text>
<text text-anchor="start" x="463.5" y="-266.5" font-family="Helvetica,sans-Serif" font-size="10.00">+ SaveOrRetry&lt; T &gt;()</text>
<text text-anchor="start" x="463.5" y="-255.5" font-family="Helvetica,sans-Serif" font-size="10.00">+ Like&lt; T &gt;()</text>
<text text-anchor="start" x="463.5" y="-244.5" font-family="Helvetica,sans-Serif" font-size="10.00"># DatabaseContext()</text>
<text text-anchor="start" x="463.5" y="-233.5" font-family="Helvetica,sans-Serif" font-size="10.00"># DatabaseContext()</text>
<text text-anchor="start" x="463.5" y="-222.5" font-family="Helvetica,sans-Serif" font-size="10.00"># OnConfiguring()</text>
<text text-anchor="start" x="463.5" y="-211.5" font-family="Helvetica,sans-Serif" font-size="10.00"># OnModelCreating()</text>
<text text-anchor="start" x="463.5" y="-200.5" font-family="Helvetica,sans-Serif" font-size="10.00"># IsDuplicateException()</text>
<text text-anchor="start" x="463.5" y="-189.5" font-family="Helvetica,sans-Serif" font-size="10.00">&#45; SaveOrRetry&lt; T &gt;()</text>
<text text-anchor="start" x="463.5" y="-178.5" font-family="Helvetica,sans-Serif" font-size="10.00">&#45; DiscardChanges()</text>
</a>
</g>
</g>
<!-- Node7&#45;&gt;Node1 -->
<g id="edge6" class="edge">
<title>Node7&#45;&gt;Node1</title>
<path fill="none" stroke="#404040" d="M455.26,-183.33C452.1,-179.1 448.84,-174.98 445.5,-171 424.72,-146.28 397.06,-124.42 371.03,-106.96"/>
<polygon fill="none" stroke="#404040" points="370.8,-106.81 363.59,-106.87 360.77,-100.24 367.98,-100.18 370.8,-106.81"/>
<text text-anchor="middle" x="457.5" y="-145" font-family="Helvetica,sans-Serif" font-size="10.00"> &#45;_database</text>
</g>
<!-- Node8 -->
<g id="node8" class="node">
<title>Node8</title>
<g id="a_node8"><a xlink:title=" ">
<polygon fill="white" stroke="#bfbfbf" points="503.5,-651.5 503.5,-708.5 571.5,-708.5 571.5,-651.5 503.5,-651.5"/>
<text text-anchor="middle" x="537.5" y="-696.5" font-family="Helvetica,sans-Serif" font-size="10.00">DbContext</text>
<polyline fill="none" stroke="#bfbfbf" points="503.5,-689.5 571.5,-689.5 "/>
<text text-anchor="middle" x="537.5" y="-677.5" font-family="Helvetica,sans-Serif" font-size="10.00"> </text>
<polyline fill="none" stroke="#bfbfbf" points="503.5,-670.5 571.5,-670.5 "/>
<text text-anchor="middle" x="537.5" y="-658.5" font-family="Helvetica,sans-Serif" font-size="10.00"> </text>
</a>
</g>
</g>
<!-- Node8&#45;&gt;Node7 -->
<g id="edge7" class="edge">
<title>Node8&#45;&gt;Node7</title>
<path fill="none" stroke="midnightblue" d="M537.5,-641.41C537.5,-619.57 537.5,-590.21 537.5,-558.79"/>
<polygon fill="none" stroke="midnightblue" points="534,-641.5 537.5,-651.5 541,-641.5 534,-641.5"/>
</g>
</g>
</svg>
