<?xml version="1.0" encoding="UTF-8" standalone="no"?>
<!DOCTYPE svg PUBLIC "-//W3C//DTD SVG 1.1//EN"
 "http://www.w3.org/Graphics/SVG/1.1/DTD/svg11.dtd">
<!-- Generated by graphviz version 2.43.0 (0)
 -->
<!-- Title: Kyoo.Models.Show Pages: 1 -->
<svg width="172pt" height="292pt"
 viewBox="0.00 0.00 171.50 292.00" xmlns="http://www.w3.org/2000/svg" xmlns:xlink="http://www.w3.org/1999/xlink">
<g id="graph0" class="graph" transform="scale(1 1) rotate(0) translate(4 288)">
<title>Kyoo.Models.Show</title>
<polygon fill="white" stroke="transparent" points="-4,4 -4,-288 167.5,-288 167.5,4 -4,4"/>
<!-- Node1 -->
<g id="node1" class="node">
<title>Node1</title>
<g id="a_node1"><a xlink:title=" ">
<polygon fill="#bfbfbf" stroke="black" points="23.5,-0.5 23.5,-178.5 131.5,-178.5 131.5,-0.5 23.5,-0.5"/>
<text text-anchor="middle" x="77.5" y="-166.5" font-family="Helvetica,sans-Serif" font-size="10.00">Kyoo.Models.Show</text>
<polyline fill="none" stroke="black" points="23.5,-159.5 131.5,-159.5 "/>
<text text-anchor="start" x="31.5" y="-147.5" font-family="Helvetica,sans-Serif" font-size="10.00">+ ID</text>
<text text-anchor="start" x="31.5" y="-136.5" font-family="Helvetica,sans-Serif" font-size="10.00">+ Slug</text>
<text text-anchor="start" x="31.5" y="-125.5" font-family="Helvetica,sans-Serif" font-size="10.00">+ Title</text>
<text text-anchor="start" x="31.5" y="-114.5" font-family="Helvetica,sans-Serif" font-size="10.00">+ Aliases</text>
<text text-anchor="start" x="31.5" y="-103.5" font-family="Helvetica,sans-Serif" font-size="10.00">+ Path</text>
<text text-anchor="start" x="31.5" y="-92.5" font-family="Helvetica,sans-Serif" font-size="10.00">+ Overview</text>
<text text-anchor="start" x="31.5" y="-81.5" font-family="Helvetica,sans-Serif" font-size="10.00">+ Status</text>
<text text-anchor="start" x="31.5" y="-70.5" font-family="Helvetica,sans-Serif" font-size="10.00">+ TrailerUrl</text>
<text text-anchor="start" x="31.5" y="-59.5" font-family="Helvetica,sans-Serif" font-size="10.00">+ StartYear</text>
<text text-anchor="start" x="31.5" y="-48.5" font-family="Helvetica,sans-Serif" font-size="10.00">+ EndYear</text>
<text text-anchor="start" x="31.5" y="-37.5" font-family="Helvetica,sans-Serif" font-size="10.00">and 13 more...</text>
<polyline fill="none" stroke="black" points="23.5,-30.5 131.5,-30.5 "/>
<text text-anchor="start" x="31.5" y="-18.5" font-family="Helvetica,sans-Serif" font-size="10.00">+ GetID()</text>
<text text-anchor="start" x="31.5" y="-7.5" font-family="Helvetica,sans-Serif" font-size="10.00">+ OnMerge()</text>
</a>
</g>
</g>
<!-- Node2 -->
<g id="node2" class="node">
<title>Node2</title>
<g id="a_node2"><a xlink:href="interfaceKyoo_1_1Models_1_1IResource.html" target="_top" xlink:title="An interface to represent a resource that can be retrieved from the database.">
<polygon fill="white" stroke="black" points="0,-215.5 0,-283.5 65,-283.5 65,-215.5 0,-215.5"/>
<text text-anchor="middle" x="32.5" y="-271.5" font-family="Helvetica,sans-Serif" font-size="10.00">IResource</text>
<polyline fill="none" stroke="black" points="0,-264.5 65,-264.5 "/>
<text text-anchor="start" x="8" y="-252.5" font-family="Helvetica,sans-Serif" font-size="10.00">+ ID</text>
<text text-anchor="start" x="8" y="-241.5" font-family="Helvetica,sans-Serif" font-size="10.00">+ Slug</text>
<polyline fill="none" stroke="black" points="0,-234.5 65,-234.5 "/>
<text text-anchor="middle" x="32.5" y="-222.5" font-family="Helvetica,sans-Serif" font-size="10.00"> </text>
</a>
</g>
</g>
<!-- Node2&#45;&gt;Node1 -->
<g id="edge1" class="edge">
<title>Node2&#45;&gt;Node1</title>
<path fill="none" stroke="midnightblue" d="M44.68,-205.75C47.1,-197.23 49.73,-188 52.41,-178.59"/>
<polygon fill="none" stroke="midnightblue" points="41.31,-204.8 41.93,-215.38 48.04,-206.72 41.31,-204.8"/>
</g>
<!-- Node3 -->
<g id="node3" class="node">
<title>Node3</title>
<g id="a_node3"><a xlink:href="interfaceKyoo_1_1Models_1_1Attributes_1_1IOnMerge.html" target="_top" xlink:title="An interface with a method called when this object is merged.">
<polygon fill="white" stroke="black" points="83.5,-221 83.5,-278 163.5,-278 163.5,-221 83.5,-221"/>
<text text-anchor="middle" x="123.5" y="-266" font-family="Helvetica,sans-Serif" font-size="10.00">IOnMerge</text>
<polyline fill="none" stroke="black" points="83.5,-259 163.5,-259 "/>
<text text-anchor="middle" x="123.5" y="-247" font-family="Helvetica,sans-Serif" font-size="10.00"> </text>
<polyline fill="none" stroke="black" points="83.5,-240 163.5,-240 "/>
<text text-anchor="start" x="91.5" y="-228" font-family="Helvetica,sans-Serif" font-size="10.00">+ OnMerge()</text>
</a>
</g>
</g>
<!-- Node3&#45;&gt;Node1 -->
<g id="edge2" class="edge">
<title>Node3&#45;&gt;Node1</title>
<path fill="none" stroke="midnightblue" d="M112.63,-211.16C109.75,-201.27 106.52,-190.16 103.21,-178.8"/>
<polygon fill="none" stroke="midnightblue" points="109.33,-212.36 115.49,-220.98 116.05,-210.4 109.33,-212.36"/>
</g>
</g>
</svg>
