<?xml version="1.0" encoding="UTF-8" standalone="no"?>
<!DOCTYPE svg PUBLIC "-//W3C//DTD SVG 1.1//EN"
 "http://www.w3.org/Graphics/SVG/1.1/DTD/svg11.dtd">
<!-- Generated by graphviz version 2.43.0 (0)
 -->
<!-- Title: Kyoo.Models.LibraryItem Pages: 1 -->
<svg width="146pt" height="325pt"
 viewBox="0.00 0.00 146.00 325.00" xmlns="http://www.w3.org/2000/svg" xmlns:xlink="http://www.w3.org/1999/xlink">
<g id="graph0" class="graph" transform="scale(1 1) rotate(0) translate(4 321)">
<title>Kyoo.Models.LibraryItem</title>
<polygon fill="white" stroke="transparent" points="-4,4 -4,-321 142,-321 142,4 -4,4"/>
<!-- Node1 -->
<g id="node1" class="node">
<title>Node1</title>
<g id="a_node1"><a xlink:title=" ">
<polygon fill="#bfbfbf" stroke="black" points="0,-0.5 0,-211.5 138,-211.5 138,-0.5 0,-0.5"/>
<text text-anchor="middle" x="69" y="-199.5" font-family="Helvetica,sans-Serif" font-size="10.00">Kyoo.Models.LibraryItem</text>
<polyline fill="none" stroke="black" points="0,-192.5 138,-192.5 "/>
<text text-anchor="start" x="8" y="-180.5" font-family="Helvetica,sans-Serif" font-size="10.00">+ FromShow</text>
<text text-anchor="start" x="8" y="-169.5" font-family="Helvetica,sans-Serif" font-size="10.00">+ FromCollection</text>
<text text-anchor="start" x="8" y="-158.5" font-family="Helvetica,sans-Serif" font-size="10.00">+ ID</text>
<text text-anchor="start" x="8" y="-147.5" font-family="Helvetica,sans-Serif" font-size="10.00">+ Slug</text>
<text text-anchor="start" x="8" y="-136.5" font-family="Helvetica,sans-Serif" font-size="10.00">+ Title</text>
<text text-anchor="start" x="8" y="-125.5" font-family="Helvetica,sans-Serif" font-size="10.00">+ Overview</text>
<text text-anchor="start" x="8" y="-114.5" font-family="Helvetica,sans-Serif" font-size="10.00">+ Status</text>
<text text-anchor="start" x="8" y="-103.5" font-family="Helvetica,sans-Serif" font-size="10.00">+ TrailerUrl</text>
<text text-anchor="start" x="8" y="-92.5" font-family="Helvetica,sans-Serif" font-size="10.00">+ StartYear</text>
<text text-anchor="start" x="8" y="-81.5" font-family="Helvetica,sans-Serif" font-size="10.00">+ EndYear</text>
<text text-anchor="start" x="8" y="-70.5" font-family="Helvetica,sans-Serif" font-size="10.00">+ Poster</text>
<text text-anchor="start" x="8" y="-59.5" font-family="Helvetica,sans-Serif" font-size="10.00">+ Type</text>
<text text-anchor="start" x="8" y="-48.5" font-family="Helvetica,sans-Serif" font-size="10.00">&#45; _type</text>
<polyline fill="none" stroke="black" points="0,-41.5 138,-41.5 "/>
<text text-anchor="start" x="8" y="-29.5" font-family="Helvetica,sans-Serif" font-size="10.00">+ LibraryItem()</text>
<text text-anchor="start" x="8" y="-18.5" font-family="Helvetica,sans-Serif" font-size="10.00">+ LibraryItem()</text>
<text text-anchor="start" x="8" y="-7.5" font-family="Helvetica,sans-Serif" font-size="10.00">+ LibraryItem()</text>
</a>
</g>
</g>
<!-- Node2 -->
<g id="node2" class="node">
<title>Node2</title>
<g id="a_node2"><a xlink:href="interfaceKyoo_1_1Models_1_1IResource.html" target="_top" xlink:title="An interface to represent a resource that can be retrieved from the database.">
<polygon fill="white" stroke="black" points="36.5,-248.5 36.5,-316.5 101.5,-316.5 101.5,-248.5 36.5,-248.5"/>
<text text-anchor="middle" x="69" y="-304.5" font-family="Helvetica,sans-Serif" font-size="10.00">IResource</text>
<polyline fill="none" stroke="black" points="36.5,-297.5 101.5,-297.5 "/>
<text text-anchor="start" x="44.5" y="-285.5" font-family="Helvetica,sans-Serif" font-size="10.00">+ ID</text>
<text text-anchor="start" x="44.5" y="-274.5" font-family="Helvetica,sans-Serif" font-size="10.00">+ Slug</text>
<polyline fill="none" stroke="black" points="36.5,-267.5 101.5,-267.5 "/>
<text text-anchor="middle" x="69" y="-255.5" font-family="Helvetica,sans-Serif" font-size="10.00"> </text>
</a>
</g>
</g>
<!-- Node2&#45;&gt;Node1 -->
<g id="edge1" class="edge">
<title>Node2&#45;&gt;Node1</title>
<path fill="none" stroke="midnightblue" d="M69,-238.22C69,-229.96 69,-220.99 69,-211.75"/>
<polygon fill="none" stroke="midnightblue" points="65.5,-238.27 69,-248.27 72.5,-238.27 65.5,-238.27"/>
</g>
</g>
</svg>
