<?xml version="1.0" encoding="UTF-8" standalone="no"?>
<!DOCTYPE svg PUBLIC "-//W3C//DTD SVG 1.1//EN"
 "http://www.w3.org/Graphics/SVG/1.1/DTD/svg11.dtd">
<!-- Generated by graphviz version 2.43.0 (0)
 -->
<!-- Title: Kyoo.Controllers.EpisodeRepository Pages: 1 -->
<svg width="1035pt" height="893pt"
 viewBox="0.00 0.00 1034.50 893.00" xmlns="http://www.w3.org/2000/svg" xmlns:xlink="http://www.w3.org/1999/xlink">
<g id="graph0" class="graph" transform="scale(1 1) rotate(0) translate(4 889)">
<title>Kyoo.Controllers.EpisodeRepository</title>
<polygon fill="white" stroke="transparent" points="-4,4 -4,-889 1030.5,-889 1030.5,4 -4,4"/>
<!-- Node1 -->
<g id="node1" class="node">
<title>Node1</title>
<g id="a_node1"><a xlink:title="A local repository to handle episodes.">
<polygon fill="#bfbfbf" stroke="black" points="422.5,-0.5 422.5,-244.5 560.5,-244.5 560.5,-0.5 422.5,-0.5"/>
<text text-anchor="start" x="430.5" y="-232.5" font-family="Helvetica,sans-Serif" font-size="10.00">Kyoo.Controllers.Episode</text>
<text text-anchor="middle" x="491.5" y="-221.5" font-family="Helvetica,sans-Serif" font-size="10.00">Repository</text>
<polyline fill="none" stroke="black" points="422.5,-214.5 560.5,-214.5 "/>
<text text-anchor="start" x="430.5" y="-202.5" font-family="Helvetica,sans-Serif" font-size="10.00"># DefaultSort</text>
<polyline fill="none" stroke="black" points="422.5,-195.5 560.5,-195.5 "/>
<text text-anchor="start" x="430.5" y="-183.5" font-family="Helvetica,sans-Serif" font-size="10.00">+ EpisodeRepository()</text>
<text text-anchor="start" x="430.5" y="-172.5" font-family="Helvetica,sans-Serif" font-size="10.00">+ GetOrDefault()</text>
<text text-anchor="start" x="430.5" y="-161.5" font-family="Helvetica,sans-Serif" font-size="10.00">+ GetOrDefault()</text>
<text text-anchor="start" x="430.5" y="-150.5" font-family="Helvetica,sans-Serif" font-size="10.00">+ GetOrDefault()</text>
<text text-anchor="start" x="430.5" y="-139.5" font-family="Helvetica,sans-Serif" font-size="10.00">+ GetOrDefault()</text>
<text text-anchor="start" x="430.5" y="-128.5" font-family="Helvetica,sans-Serif" font-size="10.00">+ Get()</text>
<text text-anchor="start" x="430.5" y="-117.5" font-family="Helvetica,sans-Serif" font-size="10.00">+ Get()</text>
<text text-anchor="start" x="430.5" y="-106.5" font-family="Helvetica,sans-Serif" font-size="10.00">+ GetOrDefault()</text>
<text text-anchor="start" x="430.5" y="-95.5" font-family="Helvetica,sans-Serif" font-size="10.00">+ GetAbsolute()</text>
<text text-anchor="start" x="430.5" y="-84.5" font-family="Helvetica,sans-Serif" font-size="10.00">+ GetAbsolute()</text>
<text text-anchor="start" x="430.5" y="-73.5" font-family="Helvetica,sans-Serif" font-size="10.00">+ Search()</text>
<text text-anchor="start" x="430.5" y="-62.5" font-family="Helvetica,sans-Serif" font-size="10.00">+ GetAll()</text>
<text text-anchor="start" x="430.5" y="-51.5" font-family="Helvetica,sans-Serif" font-size="10.00">+ Create()</text>
<text text-anchor="start" x="430.5" y="-40.5" font-family="Helvetica,sans-Serif" font-size="10.00">+ Delete()</text>
<text text-anchor="start" x="430.5" y="-29.5" font-family="Helvetica,sans-Serif" font-size="10.00"># EditRelations()</text>
<text text-anchor="start" x="430.5" y="-18.5" font-family="Helvetica,sans-Serif" font-size="10.00"># Validate()</text>
<text text-anchor="start" x="430.5" y="-7.5" font-family="Helvetica,sans-Serif" font-size="10.00">&#45; ValidateTracks()</text>
</a>
</g>
</g>
<!-- Node2 -->
<g id="node2" class="node">
<title>Node2</title>
<g id="a_node2"><a xlink:href="classKyoo_1_1Controllers_1_1LocalRepository.html" target="_top" xlink:title=" ">
<polygon fill="white" stroke="black" points="0,-358.5 0,-613.5 155,-613.5 155,-358.5 0,-358.5"/>
<text text-anchor="middle" x="77.5" y="-601.5" font-family="Helvetica,sans-Serif" font-size="10.00">LocalRepository&lt; Episode &gt;</text>
<polyline fill="none" stroke="black" points="0,-594.5 155,-594.5 "/>
<text text-anchor="start" x="8" y="-582.5" font-family="Helvetica,sans-Serif" font-size="10.00">+ RepositoryType</text>
<text text-anchor="start" x="8" y="-571.5" font-family="Helvetica,sans-Serif" font-size="10.00">+ DefaultSort</text>
<text text-anchor="start" x="8" y="-560.5" font-family="Helvetica,sans-Serif" font-size="10.00"># Database</text>
<polyline fill="none" stroke="black" points="0,-553.5 155,-553.5 "/>
<text text-anchor="start" x="8" y="-541.5" font-family="Helvetica,sans-Serif" font-size="10.00">+ Get()</text>
<text text-anchor="start" x="8" y="-530.5" font-family="Helvetica,sans-Serif" font-size="10.00">+ Get()</text>
<text text-anchor="start" x="8" y="-519.5" font-family="Helvetica,sans-Serif" font-size="10.00">+ Get()</text>
<text text-anchor="start" x="8" y="-508.5" font-family="Helvetica,sans-Serif" font-size="10.00">+ GetOrDefault()</text>
<text text-anchor="start" x="8" y="-497.5" font-family="Helvetica,sans-Serif" font-size="10.00">+ GetOrDefault()</text>
<text text-anchor="start" x="8" y="-486.5" font-family="Helvetica,sans-Serif" font-size="10.00">+ GetOrDefault()</text>
<text text-anchor="start" x="8" y="-475.5" font-family="Helvetica,sans-Serif" font-size="10.00">+ Search()</text>
<text text-anchor="start" x="8" y="-464.5" font-family="Helvetica,sans-Serif" font-size="10.00">+ GetAll()</text>
<text text-anchor="start" x="8" y="-453.5" font-family="Helvetica,sans-Serif" font-size="10.00">+ GetCount()</text>
<text text-anchor="start" x="8" y="-442.5" font-family="Helvetica,sans-Serif" font-size="10.00">+ Create()</text>
<text text-anchor="start" x="8" y="-431.5" font-family="Helvetica,sans-Serif" font-size="10.00">and 9 more...</text>
<text text-anchor="start" x="8" y="-420.5" font-family="Helvetica,sans-Serif" font-size="10.00"># LocalRepository()</text>
<text text-anchor="start" x="8" y="-409.5" font-family="Helvetica,sans-Serif" font-size="10.00"># GetWithTracking()</text>
<text text-anchor="start" x="8" y="-398.5" font-family="Helvetica,sans-Serif" font-size="10.00"># ApplyFilters()</text>
<text text-anchor="start" x="8" y="-387.5" font-family="Helvetica,sans-Serif" font-size="10.00"># ApplyFilters&lt; TValue &gt;()</text>
<text text-anchor="start" x="8" y="-376.5" font-family="Helvetica,sans-Serif" font-size="10.00"># EditRelations()</text>
<text text-anchor="start" x="8" y="-365.5" font-family="Helvetica,sans-Serif" font-size="10.00"># Validate()</text>
</a>
</g>
</g>
<!-- Node2&#45;&gt;Node1 -->
<g id="edge1" class="edge">
<title>Node2&#45;&gt;Node1</title>
<path fill="none" stroke="midnightblue" d="M124.34,-349.52C135.38,-328.73 148.67,-308.68 164.5,-292 236.38,-216.26 349.83,-168.53 422.43,-143.93"/>
<polygon fill="none" stroke="midnightblue" points="121.2,-347.96 119.74,-358.46 127.43,-351.16 121.2,-347.96"/>
</g>
<!-- Node3 -->
<g id="node3" class="node">
<title>Node3</title>
<g id="a_node3"><a xlink:href="interfaceKyoo_1_1Controllers_1_1IEpisodeRepository.html" target="_top" xlink:title="The repository to handle episodes">
<polygon fill="white" stroke="black" points="173.5,-430 173.5,-542 283.5,-542 283.5,-430 173.5,-430"/>
<text text-anchor="middle" x="228.5" y="-530" font-family="Helvetica,sans-Serif" font-size="10.00">IEpisodeRepository</text>
<polyline fill="none" stroke="black" points="173.5,-523 283.5,-523 "/>
<text text-anchor="middle" x="228.5" y="-511" font-family="Helvetica,sans-Serif" font-size="10.00"> </text>
<polyline fill="none" stroke="black" points="173.5,-504 283.5,-504 "/>
<text text-anchor="start" x="181.5" y="-492" font-family="Helvetica,sans-Serif" font-size="10.00">+ Get()</text>
<text text-anchor="start" x="181.5" y="-481" font-family="Helvetica,sans-Serif" font-size="10.00">+ Get()</text>
<text text-anchor="start" x="181.5" y="-470" font-family="Helvetica,sans-Serif" font-size="10.00">+ GetOrDefault()</text>
<text text-anchor="start" x="181.5" y="-459" font-family="Helvetica,sans-Serif" font-size="10.00">+ GetOrDefault()</text>
<text text-anchor="start" x="181.5" y="-448" font-family="Helvetica,sans-Serif" font-size="10.00">+ GetAbsolute()</text>
<text text-anchor="start" x="181.5" y="-437" font-family="Helvetica,sans-Serif" font-size="10.00">+ GetAbsolute()</text>
</a>
</g>
</g>
<!-- Node3&#45;&gt;Node1 -->
<g id="edge2" class="edge">
<title>Node3&#45;&gt;Node1</title>
<path fill="none" stroke="midnightblue" d="M240.68,-420.04C250.25,-380.59 266.45,-330.56 292.5,-292 326.46,-241.74 379.39,-197.93 422.13,-167.58"/>
<polygon fill="none" stroke="midnightblue" points="237.26,-419.3 238.38,-429.83 244.07,-420.9 237.26,-419.3"/>
</g>
<!-- Node4 -->
<g id="node4" class="node">
<title>Node4</title>
<g id="a_node4"><a xlink:href="interfaceKyoo_1_1Controllers_1_1IRepository.html" target="_top" xlink:title=" ">
<polygon fill="white" stroke="black" points="162,-717.5 162,-884.5 295,-884.5 295,-717.5 162,-717.5"/>
<text text-anchor="middle" x="228.5" y="-872.5" font-family="Helvetica,sans-Serif" font-size="10.00">IRepository&lt; Episode &gt;</text>
<polyline fill="none" stroke="black" points="162,-865.5 295,-865.5 "/>
<text text-anchor="middle" x="228.5" y="-853.5" font-family="Helvetica,sans-Serif" font-size="10.00"> </text>
<polyline fill="none" stroke="black" points="162,-846.5 295,-846.5 "/>
<text text-anchor="start" x="170" y="-834.5" font-family="Helvetica,sans-Serif" font-size="10.00">+ Get()</text>
<text text-anchor="start" x="170" y="-823.5" font-family="Helvetica,sans-Serif" font-size="10.00">+ Get()</text>
<text text-anchor="start" x="170" y="-812.5" font-family="Helvetica,sans-Serif" font-size="10.00">+ Get()</text>
<text text-anchor="start" x="170" y="-801.5" font-family="Helvetica,sans-Serif" font-size="10.00">+ GetOrDefault()</text>
<text text-anchor="start" x="170" y="-790.5" font-family="Helvetica,sans-Serif" font-size="10.00">+ GetOrDefault()</text>
<text text-anchor="start" x="170" y="-779.5" font-family="Helvetica,sans-Serif" font-size="10.00">+ GetOrDefault()</text>
<text text-anchor="start" x="170" y="-768.5" font-family="Helvetica,sans-Serif" font-size="10.00">+ Search()</text>
<text text-anchor="start" x="170" y="-757.5" font-family="Helvetica,sans-Serif" font-size="10.00">+ GetAll()</text>
<text text-anchor="start" x="170" y="-746.5" font-family="Helvetica,sans-Serif" font-size="10.00">+ GetAll()</text>
<text text-anchor="start" x="170" y="-735.5" font-family="Helvetica,sans-Serif" font-size="10.00">+ GetCount()</text>
<text text-anchor="start" x="170" y="-724.5" font-family="Helvetica,sans-Serif" font-size="10.00">and 13 more...</text>
</a>
</g>
</g>
<!-- Node4&#45;&gt;Node3 -->
<g id="edge3" class="edge">
<title>Node4&#45;&gt;Node3</title>
<path fill="none" stroke="midnightblue" d="M228.5,-707.15C228.5,-653.58 228.5,-588 228.5,-542.42"/>
<polygon fill="none" stroke="midnightblue" points="225,-707.35 228.5,-717.35 232,-707.35 225,-707.35"/>
</g>
<!-- Node5 -->
<g id="node5" class="node">
<title>Node5</title>
<g id="a_node5"><a xlink:href="interfaceKyoo_1_1Controllers_1_1IShowRepository.html" target="_top" xlink:title="A repository to handle shows.">
<polygon fill="white" stroke="black" points="301.5,-452 301.5,-520 483.5,-520 483.5,-452 301.5,-452"/>
<text text-anchor="middle" x="392.5" y="-508" font-family="Helvetica,sans-Serif" font-size="10.00">Kyoo.Controllers.IShowRepository</text>
<polyline fill="none" stroke="black" points="301.5,-501 483.5,-501 "/>
<text text-anchor="middle" x="392.5" y="-489" font-family="Helvetica,sans-Serif" font-size="10.00"> </text>
<polyline fill="none" stroke="black" points="301.5,-482 483.5,-482 "/>
<text text-anchor="start" x="309.5" y="-470" font-family="Helvetica,sans-Serif" font-size="10.00">+ AddShowLink()</text>
<text text-anchor="start" x="309.5" y="-459" font-family="Helvetica,sans-Serif" font-size="10.00">+ GetSlug()</text>
</a>
</g>
</g>
<!-- Node5&#45;&gt;Node1 -->
<g id="edge4" class="edge">
<title>Node5&#45;&gt;Node1</title>
<path fill="none" stroke="#404040" d="M401.55,-451.96C413.64,-407.8 435.8,-326.89 455.09,-256.44"/>
<polygon fill="none" stroke="#404040" points="455.12,-256.35 452.85,-249.5 458.29,-244.77 460.56,-251.62 455.12,-256.35"/>
<text text-anchor="middle" x="473" y="-266" font-family="Helvetica,sans-Serif" font-size="10.00"> &#45;_shows</text>
</g>
<!-- Node6 -->
<g id="node6" class="node">
<title>Node6</title>
<g id="a_node6"><a xlink:href="interfaceKyoo_1_1Controllers_1_1IRepository.html" target="_top" xlink:title=" ">
<polygon fill="white" stroke="black" points="332,-717.5 332,-884.5 453,-884.5 453,-717.5 332,-717.5"/>
<text text-anchor="middle" x="392.5" y="-872.5" font-family="Helvetica,sans-Serif" font-size="10.00">IRepository&lt; Show &gt;</text>
<polyline fill="none" stroke="black" points="332,-865.5 453,-865.5 "/>
<text text-anchor="middle" x="392.5" y="-853.5" font-family="Helvetica,sans-Serif" font-size="10.00"> </text>
<polyline fill="none" stroke="black" points="332,-846.5 453,-846.5 "/>
<text text-anchor="start" x="340" y="-834.5" font-family="Helvetica,sans-Serif" font-size="10.00">+ Get()</text>
<text text-anchor="start" x="340" y="-823.5" font-family="Helvetica,sans-Serif" font-size="10.00">+ Get()</text>
<text text-anchor="start" x="340" y="-812.5" font-family="Helvetica,sans-Serif" font-size="10.00">+ Get()</text>
<text text-anchor="start" x="340" y="-801.5" font-family="Helvetica,sans-Serif" font-size="10.00">+ GetOrDefault()</text>
<text text-anchor="start" x="340" y="-790.5" font-family="Helvetica,sans-Serif" font-size="10.00">+ GetOrDefault()</text>
<text text-anchor="start" x="340" y="-779.5" font-family="Helvetica,sans-Serif" font-size="10.00">+ GetOrDefault()</text>
<text text-anchor="start" x="340" y="-768.5" font-family="Helvetica,sans-Serif" font-size="10.00">+ Search()</text>
<text text-anchor="start" x="340" y="-757.5" font-family="Helvetica,sans-Serif" font-size="10.00">+ GetAll()</text>
<text text-anchor="start" x="340" y="-746.5" font-family="Helvetica,sans-Serif" font-size="10.00">+ GetAll()</text>
<text text-anchor="start" x="340" y="-735.5" font-family="Helvetica,sans-Serif" font-size="10.00">+ GetCount()</text>
<text text-anchor="start" x="340" y="-724.5" font-family="Helvetica,sans-Serif" font-size="10.00">and 13 more...</text>
</a>
</g>
</g>
<!-- Node6&#45;&gt;Node5 -->
<g id="edge5" class="edge">
<title>Node6&#45;&gt;Node5</title>
<path fill="none" stroke="midnightblue" d="M392.5,-706.98C392.5,-643.9 392.5,-564.24 392.5,-520.17"/>
<polygon fill="none" stroke="midnightblue" points="389,-707.35 392.5,-717.35 396,-707.35 389,-707.35"/>
</g>
<!-- Node7 -->
<g id="node7" class="node">
<title>Node7</title>
<g id="a_node7"><a xlink:href="interfaceKyoo_1_1Controllers_1_1ITrackRepository.html" target="_top" xlink:title="A repository to handle tracks">
<polygon fill="white" stroke="black" points="502,-452 502,-520 683,-520 683,-452 502,-452"/>
<text text-anchor="middle" x="592.5" y="-508" font-family="Helvetica,sans-Serif" font-size="10.00">Kyoo.Controllers.ITrackRepository</text>
<polyline fill="none" stroke="black" points="502,-501 683,-501 "/>
<text text-anchor="middle" x="592.5" y="-489" font-family="Helvetica,sans-Serif" font-size="10.00"> </text>
<polyline fill="none" stroke="black" points="502,-482 683,-482 "/>
<text text-anchor="start" x="510" y="-470" font-family="Helvetica,sans-Serif" font-size="10.00">+ Get()</text>
<text text-anchor="start" x="510" y="-459" font-family="Helvetica,sans-Serif" font-size="10.00">+ GetOrDefault()</text>
</a>
</g>
</g>
<!-- Node7&#45;&gt;Node1 -->
<g id="edge6" class="edge">
<title>Node7&#45;&gt;Node1</title>
<path fill="none" stroke="#404040" d="M583.27,-451.96C570.93,-407.8 548.33,-326.89 528.64,-256.44"/>
<polygon fill="none" stroke="#404040" points="528.61,-256.33 523.15,-251.63 525.38,-244.77 530.85,-249.48 528.61,-256.33"/>
<text text-anchor="middle" x="555" y="-266" font-family="Helvetica,sans-Serif" font-size="10.00"> &#45;_tracks</text>
</g>
<!-- Node8 -->
<g id="node8" class="node">
<title>Node8</title>
<g id="a_node8"><a xlink:href="interfaceKyoo_1_1Controllers_1_1IRepository.html" target="_top" xlink:title=" ">
<polygon fill="white" stroke="black" points="532.5,-717.5 532.5,-884.5 652.5,-884.5 652.5,-717.5 532.5,-717.5"/>
<text text-anchor="middle" x="592.5" y="-872.5" font-family="Helvetica,sans-Serif" font-size="10.00">IRepository&lt; Track &gt;</text>
<polyline fill="none" stroke="black" points="532.5,-865.5 652.5,-865.5 "/>
<text text-anchor="middle" x="592.5" y="-853.5" font-family="Helvetica,sans-Serif" font-size="10.00"> </text>
<polyline fill="none" stroke="black" points="532.5,-846.5 652.5,-846.5 "/>
<text text-anchor="start" x="540.5" y="-834.5" font-family="Helvetica,sans-Serif" font-size="10.00">+ Get()</text>
<text text-anchor="start" x="540.5" y="-823.5" font-family="Helvetica,sans-Serif" font-size="10.00">+ Get()</text>
<text text-anchor="start" x="540.5" y="-812.5" font-family="Helvetica,sans-Serif" font-size="10.00">+ Get()</text>
<text text-anchor="start" x="540.5" y="-801.5" font-family="Helvetica,sans-Serif" font-size="10.00">+ GetOrDefault()</text>
<text text-anchor="start" x="540.5" y="-790.5" font-family="Helvetica,sans-Serif" font-size="10.00">+ GetOrDefault()</text>
<text text-anchor="start" x="540.5" y="-779.5" font-family="Helvetica,sans-Serif" font-size="10.00">+ GetOrDefault()</text>
<text text-anchor="start" x="540.5" y="-768.5" font-family="Helvetica,sans-Serif" font-size="10.00">+ Search()</text>
<text text-anchor="start" x="540.5" y="-757.5" font-family="Helvetica,sans-Serif" font-size="10.00">+ GetAll()</text>
<text text-anchor="start" x="540.5" y="-746.5" font-family="Helvetica,sans-Serif" font-size="10.00">+ GetAll()</text>
<text text-anchor="start" x="540.5" y="-735.5" font-family="Helvetica,sans-Serif" font-size="10.00">+ GetCount()</text>
<text text-anchor="start" x="540.5" y="-724.5" font-family="Helvetica,sans-Serif" font-size="10.00">and 13 more...</text>
</a>
</g>
</g>
<!-- Node8&#45;&gt;Node7 -->
<g id="edge7" class="edge">
<title>Node8&#45;&gt;Node7</title>
<path fill="none" stroke="midnightblue" d="M592.5,-706.98C592.5,-643.9 592.5,-564.24 592.5,-520.17"/>
<polygon fill="none" stroke="midnightblue" points="589,-707.35 592.5,-717.35 596,-707.35 589,-707.35"/>
</g>
<!-- Node9 -->
<g id="node9" class="node">
<title>Node9</title>
<g id="a_node9"><a xlink:href="interfaceKyoo_1_1Controllers_1_1IProviderRepository.html" target="_top" xlink:title="A repository to handle providers.">
<polygon fill="white" stroke="black" points="701,-446.5 701,-525.5 844,-525.5 844,-446.5 701,-446.5"/>
<text text-anchor="start" x="709" y="-513.5" font-family="Helvetica,sans-Serif" font-size="10.00">Kyoo.Controllers.IProvider</text>
<text text-anchor="middle" x="772.5" y="-502.5" font-family="Helvetica,sans-Serif" font-size="10.00">Repository</text>
<polyline fill="none" stroke="black" points="701,-495.5 844,-495.5 "/>
<text text-anchor="middle" x="772.5" y="-483.5" font-family="Helvetica,sans-Serif" font-size="10.00"> </text>
<polyline fill="none" stroke="black" points="701,-476.5 844,-476.5 "/>
<text text-anchor="start" x="709" y="-464.5" font-family="Helvetica,sans-Serif" font-size="10.00">+ GetMetadataID()</text>
<text text-anchor="start" x="709" y="-453.5" font-family="Helvetica,sans-Serif" font-size="10.00">+ GetMetadataID()</text>
</a>
</g>
</g>
<!-- Node9&#45;&gt;Node1 -->
<g id="edge8" class="edge">
<title>Node9&#45;&gt;Node1</title>
<path fill="none" stroke="#404040" d="M762.2,-446.36C749.97,-405.32 726.7,-339.87 691.5,-292 658.45,-247.06 611.06,-206.44 570.7,-176.35"/>
<polygon fill="none" stroke="#404040" points="570.54,-176.23 563.33,-175.9 560.87,-169.12 568.07,-169.45 570.54,-176.23"/>
<text text-anchor="middle" x="703.5" y="-266" font-family="Helvetica,sans-Serif" font-size="10.00"> &#45;_providers</text>
</g>
<!-- Node10 -->
<g id="node10" class="node">
<title>Node10</title>
<g id="a_node10"><a xlink:href="interfaceKyoo_1_1Controllers_1_1IRepository.html" target="_top" xlink:title=" ">
<polygon fill="white" stroke="black" points="705,-717.5 705,-884.5 840,-884.5 840,-717.5 705,-717.5"/>
<text text-anchor="middle" x="772.5" y="-872.5" font-family="Helvetica,sans-Serif" font-size="10.00">IRepository&lt; Provider &gt;</text>
<polyline fill="none" stroke="black" points="705,-865.5 840,-865.5 "/>
<text text-anchor="middle" x="772.5" y="-853.5" font-family="Helvetica,sans-Serif" font-size="10.00"> </text>
<polyline fill="none" stroke="black" points="705,-846.5 840,-846.5 "/>
<text text-anchor="start" x="713" y="-834.5" font-family="Helvetica,sans-Serif" font-size="10.00">+ Get()</text>
<text text-anchor="start" x="713" y="-823.5" font-family="Helvetica,sans-Serif" font-size="10.00">+ Get()</text>
<text text-anchor="start" x="713" y="-812.5" font-family="Helvetica,sans-Serif" font-size="10.00">+ Get()</text>
<text text-anchor="start" x="713" y="-801.5" font-family="Helvetica,sans-Serif" font-size="10.00">+ GetOrDefault()</text>
<text text-anchor="start" x="713" y="-790.5" font-family="Helvetica,sans-Serif" font-size="10.00">+ GetOrDefault()</text>
<text text-anchor="start" x="713" y="-779.5" font-family="Helvetica,sans-Serif" font-size="10.00">+ GetOrDefault()</text>
<text text-anchor="start" x="713" y="-768.5" font-family="Helvetica,sans-Serif" font-size="10.00">+ Search()</text>
<text text-anchor="start" x="713" y="-757.5" font-family="Helvetica,sans-Serif" font-size="10.00">+ GetAll()</text>
<text text-anchor="start" x="713" y="-746.5" font-family="Helvetica,sans-Serif" font-size="10.00">+ GetAll()</text>
<text text-anchor="start" x="713" y="-735.5" font-family="Helvetica,sans-Serif" font-size="10.00">+ GetCount()</text>
<text text-anchor="start" x="713" y="-724.5" font-family="Helvetica,sans-Serif" font-size="10.00">and 13 more...</text>
</a>
</g>
</g>
<!-- Node10&#45;&gt;Node9 -->
<g id="edge9" class="edge">
<title>Node10&#45;&gt;Node9</title>
<path fill="none" stroke="midnightblue" d="M772.5,-707.02C772.5,-646.55 772.5,-570.84 772.5,-525.84"/>
<polygon fill="none" stroke="midnightblue" points="769,-707.35 772.5,-717.35 776,-707.35 769,-707.35"/>
</g>
<!-- Node11 -->
<g id="node11" class="node">
<title>Node11</title>
<g id="a_node11"><a xlink:href="classKyoo_1_1DatabaseContext.html" target="_top" xlink:title="The database handle used for all local repositories. This is an abstract class. It is meant to be imp...">
<polygon fill="white" stroke="black" points="862.5,-292.5 862.5,-679.5 1026.5,-679.5 1026.5,-292.5 862.5,-292.5"/>
<text text-anchor="middle" x="944.5" y="-667.5" font-family="Helvetica,sans-Serif" font-size="10.00">Kyoo.DatabaseContext</text>
<polyline fill="none" stroke="black" points="862.5,-660.5 1026.5,-660.5 "/>
<text text-anchor="start" x="870.5" y="-648.5" font-family="Helvetica,sans-Serif" font-size="10.00">+ Libraries</text>
<text text-anchor="start" x="870.5" y="-637.5" font-family="Helvetica,sans-Serif" font-size="10.00">+ Collections</text>
<text text-anchor="start" x="870.5" y="-626.5" font-family="Helvetica,sans-Serif" font-size="10.00">+ Shows</text>
<text text-anchor="start" x="870.5" y="-615.5" font-family="Helvetica,sans-Serif" font-size="10.00">+ Seasons</text>
<text text-anchor="start" x="870.5" y="-604.5" font-family="Helvetica,sans-Serif" font-size="10.00">+ Episodes</text>
<text text-anchor="start" x="870.5" y="-593.5" font-family="Helvetica,sans-Serif" font-size="10.00">+ Tracks</text>
<text text-anchor="start" x="870.5" y="-582.5" font-family="Helvetica,sans-Serif" font-size="10.00">+ Genres</text>
<text text-anchor="start" x="870.5" y="-571.5" font-family="Helvetica,sans-Serif" font-size="10.00">+ People</text>
<text text-anchor="start" x="870.5" y="-560.5" font-family="Helvetica,sans-Serif" font-size="10.00">+ Studios</text>
<text text-anchor="start" x="870.5" y="-549.5" font-family="Helvetica,sans-Serif" font-size="10.00">+ Providers</text>
<text text-anchor="start" x="870.5" y="-538.5" font-family="Helvetica,sans-Serif" font-size="10.00">+ MetadataIds</text>
<text text-anchor="start" x="870.5" y="-527.5" font-family="Helvetica,sans-Serif" font-size="10.00">+ Users</text>
<text text-anchor="start" x="870.5" y="-516.5" font-family="Helvetica,sans-Serif" font-size="10.00">+ PeopleRoles</text>
<text text-anchor="start" x="870.5" y="-505.5" font-family="Helvetica,sans-Serif" font-size="10.00">+ WatchedEpisodes</text>
<polyline fill="none" stroke="black" points="862.5,-498.5 1026.5,-498.5 "/>
<text text-anchor="start" x="870.5" y="-486.5" font-family="Helvetica,sans-Serif" font-size="10.00">+ Links&lt; T1, T2 &gt;()</text>
<text text-anchor="start" x="870.5" y="-475.5" font-family="Helvetica,sans-Serif" font-size="10.00">+ GetTemporaryObject&lt; T &gt;()</text>
<text text-anchor="start" x="870.5" y="-464.5" font-family="Helvetica,sans-Serif" font-size="10.00">+ SaveChanges()</text>
<text text-anchor="start" x="870.5" y="-453.5" font-family="Helvetica,sans-Serif" font-size="10.00">+ SaveChanges()</text>
<text text-anchor="start" x="870.5" y="-442.5" font-family="Helvetica,sans-Serif" font-size="10.00">+ SaveChanges()</text>
<text text-anchor="start" x="870.5" y="-431.5" font-family="Helvetica,sans-Serif" font-size="10.00">+ SaveChangesAsync()</text>
<text text-anchor="start" x="870.5" y="-420.5" font-family="Helvetica,sans-Serif" font-size="10.00">+ SaveChangesAsync()</text>
<text text-anchor="start" x="870.5" y="-409.5" font-family="Helvetica,sans-Serif" font-size="10.00">+ SaveChangesAsync()</text>
<text text-anchor="start" x="870.5" y="-398.5" font-family="Helvetica,sans-Serif" font-size="10.00">+ SaveIfNoDuplicates()</text>
<text text-anchor="start" x="870.5" y="-387.5" font-family="Helvetica,sans-Serif" font-size="10.00">+ SaveOrRetry&lt; T &gt;()</text>
<text text-anchor="start" x="870.5" y="-376.5" font-family="Helvetica,sans-Serif" font-size="10.00">+ Like&lt; T &gt;()</text>
<text text-anchor="start" x="870.5" y="-365.5" font-family="Helvetica,sans-Serif" font-size="10.00"># DatabaseContext()</text>
<text text-anchor="start" x="870.5" y="-354.5" font-family="Helvetica,sans-Serif" font-size="10.00"># DatabaseContext()</text>
<text text-anchor="start" x="870.5" y="-343.5" font-family="Helvetica,sans-Serif" font-size="10.00"># OnConfiguring()</text>
<text text-anchor="start" x="870.5" y="-332.5" font-family="Helvetica,sans-Serif" font-size="10.00"># OnModelCreating()</text>
<text text-anchor="start" x="870.5" y="-321.5" font-family="Helvetica,sans-Serif" font-size="10.00"># IsDuplicateException()</text>
<text text-anchor="start" x="870.5" y="-310.5" font-family="Helvetica,sans-Serif" font-size="10.00">&#45; SaveOrRetry&lt; T &gt;()</text>
<text text-anchor="start" x="870.5" y="-299.5" font-family="Helvetica,sans-Serif" font-size="10.00">&#45; DiscardChanges()</text>
</a>
</g>
</g>
<!-- Node11&#45;&gt;Node1 -->
<g id="edge10" class="edge">
<title>Node11&#45;&gt;Node1</title>
<path fill="none" stroke="#404040" d="M862.45,-302.63C859.24,-298.95 855.93,-295.4 852.5,-292 773.92,-214.05 652.51,-167.71 572.52,-143.92"/>
<polygon fill="none" stroke="#404040" points="572.07,-143.79 565.19,-145.95 560.55,-140.43 567.43,-138.27 572.07,-143.79"/>
<text text-anchor="middle" x="858.5" y="-266" font-family="Helvetica,sans-Serif" font-size="10.00"> &#45;_database</text>
</g>
<!-- Node12 -->
<g id="node12" class="node">
<title>Node12</title>
<g id="a_node12"><a xlink:title=" ">
<polygon fill="white" stroke="#bfbfbf" points="910.5,-772.5 910.5,-829.5 978.5,-829.5 978.5,-772.5 910.5,-772.5"/>
<text text-anchor="middle" x="944.5" y="-817.5" font-family="Helvetica,sans-Serif" font-size="10.00">DbContext</text>
<polyline fill="none" stroke="#bfbfbf" points="910.5,-810.5 978.5,-810.5 "/>
<text text-anchor="middle" x="944.5" y="-798.5" font-family="Helvetica,sans-Serif" font-size="10.00"> </text>
<polyline fill="none" stroke="#bfbfbf" points="910.5,-791.5 978.5,-791.5 "/>
<text text-anchor="middle" x="944.5" y="-779.5" font-family="Helvetica,sans-Serif" font-size="10.00"> </text>
</a>
</g>
</g>
<!-- Node12&#45;&gt;Node11 -->
<g id="edge11" class="edge">
<title>Node12&#45;&gt;Node11</title>
<path fill="none" stroke="midnightblue" d="M944.5,-762.41C944.5,-740.57 944.5,-711.21 944.5,-679.79"/>
<polygon fill="none" stroke="midnightblue" points="941,-762.5 944.5,-772.5 948,-762.5 941,-762.5"/>
</g>
</g>
</svg>
