<?xml version="1.0" encoding="UTF-8" standalone="no"?>
<!DOCTYPE svg PUBLIC "-//W3C//DTD SVG 1.1//EN"
 "http://www.w3.org/Graphics/SVG/1.1/DTD/svg11.dtd">
<!-- Generated by graphviz version 2.43.0 (0)
 -->
<!-- Title: Kyoo.Api.ProviderApi Pages: 1 -->
<svg width="641pt" height="424pt"
 viewBox="0.00 0.00 641.00 424.00" xmlns="http://www.w3.org/2000/svg" xmlns:xlink="http://www.w3.org/1999/xlink">
<g id="graph0" class="graph" transform="scale(1 1) rotate(0) translate(4 420)">
<title>Kyoo.Api.ProviderApi</title>
<polygon fill="white" stroke="transparent" points="-4,4 -4,-420 637,-420 637,4 -4,4"/>
<!-- Node1 -->
<g id="node1" class="node">
<title>Node1</title>
<g id="a_node1"><a xlink:title=" ">
<polygon fill="#bfbfbf" stroke="black" points="242.5,-0.5 242.5,-79.5 361.5,-79.5 361.5,-0.5 242.5,-0.5"/>
<text text-anchor="middle" x="302" y="-67.5" font-family="Helvetica,sans-Serif" font-size="10.00">Kyoo.Api.ProviderApi</text>
<polyline fill="none" stroke="black" points="242.5,-60.5 361.5,-60.5 "/>
<text text-anchor="middle" x="302" y="-48.5" font-family="Helvetica,sans-Serif" font-size="10.00"> </text>
<polyline fill="none" stroke="black" points="242.5,-41.5 361.5,-41.5 "/>
<text text-anchor="start" x="250.5" y="-29.5" font-family="Helvetica,sans-Serif" font-size="10.00">+ ProviderApi()</text>
<text text-anchor="start" x="250.5" y="-18.5" font-family="Helvetica,sans-Serif" font-size="10.00">+ GetLogo()</text>
<text text-anchor="start" x="250.5" y="-7.5" font-family="Helvetica,sans-Serif" font-size="10.00">+ GetLogo()</text>
</a>
</g>
</g>
<!-- Node2 -->
<g id="node2" class="node">
<title>Node2</title>
<g id="a_node2"><a xlink:href="classKyoo_1_1CommonApi_1_1CrudApi.html" target="_top" xlink:title=" ">
<polygon fill="white" stroke="black" points="0,-171.5 0,-371.5 118,-371.5 118,-171.5 0,-171.5"/>
<text text-anchor="middle" x="59" y="-359.5" font-family="Helvetica,sans-Serif" font-size="10.00">CrudApi&lt; Provider &gt;</text>
<polyline fill="none" stroke="black" points="0,-352.5 118,-352.5 "/>
<text text-anchor="start" x="8" y="-340.5" font-family="Helvetica,sans-Serif" font-size="10.00"># BaseURL</text>
<text text-anchor="start" x="8" y="-329.5" font-family="Helvetica,sans-Serif" font-size="10.00">&#45; _repository</text>
<polyline fill="none" stroke="black" points="0,-322.5 118,-322.5 "/>
<text text-anchor="start" x="8" y="-310.5" font-family="Helvetica,sans-Serif" font-size="10.00">+ CrudApi()</text>
<text text-anchor="start" x="8" y="-299.5" font-family="Helvetica,sans-Serif" font-size="10.00">+ Get()</text>
<text text-anchor="start" x="8" y="-288.5" font-family="Helvetica,sans-Serif" font-size="10.00">+ Get()</text>
<text text-anchor="start" x="8" y="-277.5" font-family="Helvetica,sans-Serif" font-size="10.00">+ GetCount()</text>
<text text-anchor="start" x="8" y="-266.5" font-family="Helvetica,sans-Serif" font-size="10.00">+ GetAll()</text>
<text text-anchor="start" x="8" y="-255.5" font-family="Helvetica,sans-Serif" font-size="10.00">+ Create()</text>
<text text-anchor="start" x="8" y="-244.5" font-family="Helvetica,sans-Serif" font-size="10.00">+ Edit()</text>
<text text-anchor="start" x="8" y="-233.5" font-family="Helvetica,sans-Serif" font-size="10.00">+ Edit()</text>
<text text-anchor="start" x="8" y="-222.5" font-family="Helvetica,sans-Serif" font-size="10.00">+ Edit()</text>
<text text-anchor="start" x="8" y="-211.5" font-family="Helvetica,sans-Serif" font-size="10.00">+ Delete()</text>
<text text-anchor="start" x="8" y="-200.5" font-family="Helvetica,sans-Serif" font-size="10.00">+ Delete()</text>
<text text-anchor="start" x="8" y="-189.5" font-family="Helvetica,sans-Serif" font-size="10.00">+ Delete()</text>
<text text-anchor="start" x="8" y="-178.5" font-family="Helvetica,sans-Serif" font-size="10.00"># Page&lt; TResult &gt;()</text>
</a>
</g>
</g>
<!-- Node2&#45;&gt;Node1 -->
<g id="edge1" class="edge">
<title>Node2&#45;&gt;Node1</title>
<path fill="none" stroke="midnightblue" d="M100.19,-162.4C107.88,-149.57 116.78,-137.37 127,-127 158.85,-94.7 205.3,-72.65 242.35,-58.97"/>
<polygon fill="none" stroke="midnightblue" points="96.99,-160.95 95.07,-171.37 103.07,-164.42 96.99,-160.95"/>
</g>
<!-- Node3 -->
<g id="node3" class="node">
<title>Node3</title>
<g id="a_node3"><a xlink:href="interfaceKyoo_1_1Controllers_1_1IFileManager.html" target="_top" xlink:title="A service to abstract the file system to allow custom file systems (like distant file systems or exte...">
<polygon fill="white" stroke="black" points="136.5,-204.5 136.5,-338.5 299.5,-338.5 299.5,-204.5 136.5,-204.5"/>
<text text-anchor="middle" x="218" y="-326.5" font-family="Helvetica,sans-Serif" font-size="10.00">Kyoo.Controllers.IFileManager</text>
<polyline fill="none" stroke="black" points="136.5,-319.5 299.5,-319.5 "/>
<text text-anchor="middle" x="218" y="-307.5" font-family="Helvetica,sans-Serif" font-size="10.00"> </text>
<polyline fill="none" stroke="black" points="136.5,-300.5 299.5,-300.5 "/>
<text text-anchor="start" x="144.5" y="-288.5" font-family="Helvetica,sans-Serif" font-size="10.00">+ FileResult()</text>
<text text-anchor="start" x="144.5" y="-277.5" font-family="Helvetica,sans-Serif" font-size="10.00">+ GetReader()</text>
<text text-anchor="start" x="144.5" y="-266.5" font-family="Helvetica,sans-Serif" font-size="10.00">+ NewFile()</text>
<text text-anchor="start" x="144.5" y="-255.5" font-family="Helvetica,sans-Serif" font-size="10.00">+ ListFiles()</text>
<text text-anchor="start" x="144.5" y="-244.5" font-family="Helvetica,sans-Serif" font-size="10.00">+ Exists()</text>
<text text-anchor="start" x="144.5" y="-233.5" font-family="Helvetica,sans-Serif" font-size="10.00">+ GetExtraDirectory()</text>
<text text-anchor="start" x="144.5" y="-222.5" font-family="Helvetica,sans-Serif" font-size="10.00">+ GetExtraDirectory()</text>
<text text-anchor="start" x="144.5" y="-211.5" font-family="Helvetica,sans-Serif" font-size="10.00">+ GetExtraDirectory()</text>
</a>
</g>
</g>
<!-- Node3&#45;&gt;Node1 -->
<g id="edge2" class="edge">
<title>Node3&#45;&gt;Node1</title>
<path fill="none" stroke="#404040" d="M242.18,-204.43C255.41,-168.3 271.52,-124.27 283.69,-91.02"/>
<polygon fill="none" stroke="#404040" points="283.7,-91 282,-83.99 287.82,-79.73 289.52,-86.74 283.7,-91"/>
<text text-anchor="middle" x="296.5" y="-101" font-family="Helvetica,sans-Serif" font-size="10.00"> &#45;_files</text>
</g>
<!-- Node4 -->
<g id="node4" class="node">
<title>Node4</title>
<g id="a_node4"><a xlink:href="interfaceKyoo_1_1Controllers_1_1ILibraryManager.html" target="_top" xlink:title="An interface to interract with the database. Every repository is mapped through here.">
<polygon fill="white" stroke="black" points="317.5,-127.5 317.5,-415.5 454.5,-415.5 454.5,-127.5 317.5,-127.5"/>
<text text-anchor="start" x="325.5" y="-403.5" font-family="Helvetica,sans-Serif" font-size="10.00">Kyoo.Controllers.ILibrary</text>
<text text-anchor="middle" x="386" y="-392.5" font-family="Helvetica,sans-Serif" font-size="10.00">Manager</text>
<polyline fill="none" stroke="black" points="317.5,-385.5 454.5,-385.5 "/>
<text text-anchor="start" x="325.5" y="-373.5" font-family="Helvetica,sans-Serif" font-size="10.00">+ LibraryRepository</text>
<text text-anchor="start" x="325.5" y="-362.5" font-family="Helvetica,sans-Serif" font-size="10.00">+ LibraryItemRepository</text>
<text text-anchor="start" x="325.5" y="-351.5" font-family="Helvetica,sans-Serif" font-size="10.00">+ CollectionRepository</text>
<text text-anchor="start" x="325.5" y="-340.5" font-family="Helvetica,sans-Serif" font-size="10.00">+ ShowRepository</text>
<text text-anchor="start" x="325.5" y="-329.5" font-family="Helvetica,sans-Serif" font-size="10.00">+ SeasonRepository</text>
<text text-anchor="start" x="325.5" y="-318.5" font-family="Helvetica,sans-Serif" font-size="10.00">+ EpisodeRepository</text>
<text text-anchor="start" x="325.5" y="-307.5" font-family="Helvetica,sans-Serif" font-size="10.00">+ TrackRepository</text>
<text text-anchor="start" x="325.5" y="-296.5" font-family="Helvetica,sans-Serif" font-size="10.00">+ PeopleRepository</text>
<text text-anchor="start" x="325.5" y="-285.5" font-family="Helvetica,sans-Serif" font-size="10.00">+ StudioRepository</text>
<text text-anchor="start" x="325.5" y="-274.5" font-family="Helvetica,sans-Serif" font-size="10.00">+ GenreRepository</text>
<text text-anchor="start" x="325.5" y="-263.5" font-family="Helvetica,sans-Serif" font-size="10.00">+ ProviderRepository</text>
<polyline fill="none" stroke="black" points="317.5,-256.5 454.5,-256.5 "/>
<text text-anchor="start" x="325.5" y="-244.5" font-family="Helvetica,sans-Serif" font-size="10.00">+ GetRepository&lt; T &gt;()</text>
<text text-anchor="start" x="325.5" y="-233.5" font-family="Helvetica,sans-Serif" font-size="10.00">+ Get&lt; T &gt;()</text>
<text text-anchor="start" x="325.5" y="-222.5" font-family="Helvetica,sans-Serif" font-size="10.00">+ Get&lt; T &gt;()</text>
<text text-anchor="start" x="325.5" y="-211.5" font-family="Helvetica,sans-Serif" font-size="10.00">+ Get&lt; T &gt;()</text>
<text text-anchor="start" x="325.5" y="-200.5" font-family="Helvetica,sans-Serif" font-size="10.00">+ Get()</text>
<text text-anchor="start" x="325.5" y="-189.5" font-family="Helvetica,sans-Serif" font-size="10.00">+ Get()</text>
<text text-anchor="start" x="325.5" y="-178.5" font-family="Helvetica,sans-Serif" font-size="10.00">+ Get()</text>
<text text-anchor="start" x="325.5" y="-167.5" font-family="Helvetica,sans-Serif" font-size="10.00">+ Get()</text>
<text text-anchor="start" x="325.5" y="-156.5" font-family="Helvetica,sans-Serif" font-size="10.00">+ Get()</text>
<text text-anchor="start" x="325.5" y="-145.5" font-family="Helvetica,sans-Serif" font-size="10.00">+ GetOrDefault&lt; T &gt;()</text>
<text text-anchor="start" x="325.5" y="-134.5" font-family="Helvetica,sans-Serif" font-size="10.00">and 35 more...</text>
</a>
</g>
</g>
<!-- Node4&#45;&gt;Node1 -->
<g id="edge3" class="edge">
<title>Node4&#45;&gt;Node1</title>
<path fill="none" stroke="#404040" d="M333.64,-127.44C328.95,-114.62 324.44,-102.31 320.37,-91.2"/>
<polygon fill="none" stroke="#404040" points="320.27,-90.91 314.45,-86.65 316.14,-79.64 321.96,-83.9 320.27,-90.91"/>
<text text-anchor="middle" x="370.5" y="-101" font-family="Helvetica,sans-Serif" font-size="10.00"> &#45;_libraryManager</text>
</g>
<!-- Node5 -->
<g id="node5" class="node">
<title>Node5</title>
<g id="a_node5"><a xlink:href="interfaceKyoo_1_1Controllers_1_1IThumbnailsManager.html" target="_top" xlink:title=" ">
<polygon fill="white" stroke="black" points="473,-177 473,-366 633,-366 633,-177 473,-177"/>
<text text-anchor="start" x="481" y="-354" font-family="Helvetica,sans-Serif" font-size="10.00">Kyoo.Controllers.IThumbnails</text>
<text text-anchor="middle" x="553" y="-343" font-family="Helvetica,sans-Serif" font-size="10.00">Manager</text>
<polyline fill="none" stroke="black" points="473,-336 633,-336 "/>
<text text-anchor="middle" x="553" y="-324" font-family="Helvetica,sans-Serif" font-size="10.00"> </text>
<polyline fill="none" stroke="black" points="473,-317 633,-317 "/>
<text text-anchor="start" x="481" y="-305" font-family="Helvetica,sans-Serif" font-size="10.00">+ Validate()</text>
<text text-anchor="start" x="481" y="-294" font-family="Helvetica,sans-Serif" font-size="10.00">+ Validate()</text>
<text text-anchor="start" x="481" y="-283" font-family="Helvetica,sans-Serif" font-size="10.00">+ Validate()</text>
<text text-anchor="start" x="481" y="-272" font-family="Helvetica,sans-Serif" font-size="10.00">+ Validate()</text>
<text text-anchor="start" x="481" y="-261" font-family="Helvetica,sans-Serif" font-size="10.00">+ Validate()</text>
<text text-anchor="start" x="481" y="-250" font-family="Helvetica,sans-Serif" font-size="10.00">+ GetShowPoster()</text>
<text text-anchor="start" x="481" y="-239" font-family="Helvetica,sans-Serif" font-size="10.00">+ GetShowLogo()</text>
<text text-anchor="start" x="481" y="-228" font-family="Helvetica,sans-Serif" font-size="10.00">+ GetShowBackdrop()</text>
<text text-anchor="start" x="481" y="-217" font-family="Helvetica,sans-Serif" font-size="10.00">+ GetSeasonPoster()</text>
<text text-anchor="start" x="481" y="-206" font-family="Helvetica,sans-Serif" font-size="10.00">+ GetEpisodeThumb()</text>
<text text-anchor="start" x="481" y="-195" font-family="Helvetica,sans-Serif" font-size="10.00">+ GetPeoplePoster()</text>
<text text-anchor="start" x="481" y="-184" font-family="Helvetica,sans-Serif" font-size="10.00">+ GetProviderLogo()</text>
</a>
</g>
</g>
<!-- Node5&#45;&gt;Node1 -->
<g id="edge4" class="edge">
<title>Node5&#45;&gt;Node1</title>
<path fill="none" stroke="#404040" d="M503.47,-176.76C491.85,-159.14 478.56,-141.67 464,-127 438.53,-101.34 403.78,-81.52 372.99,-67.41"/>
<polygon fill="none" stroke="#404040" points="372.82,-67.34 365.72,-68.56 361.86,-62.47 368.96,-61.25 372.82,-67.34"/>
<text text-anchor="middle" x="474.5" y="-101" font-family="Helvetica,sans-Serif" font-size="10.00"> &#45;_thumbnails</text>
</g>
</g>
</svg>
