<?xml version="1.0" encoding="UTF-8" standalone="no"?>
<!DOCTYPE svg PUBLIC "-//W3C//DTD SVG 1.1//EN"
 "http://www.w3.org/Graphics/SVG/1.1/DTD/svg11.dtd">
<!-- Generated by graphviz version 2.43.0 (0)
 -->
<!-- Title: Kyoo.Postgresql.Migrations.Initial Pages: 1 -->
<svg width="160pt" height="193pt"
 viewBox="0.00 0.00 160.00 193.00" xmlns="http://www.w3.org/2000/svg" xmlns:xlink="http://www.w3.org/1999/xlink">
<g id="graph0" class="graph" transform="scale(1 1) rotate(0) translate(4 189)">
<title>Kyoo.Postgresql.Migrations.Initial</title>
<polygon fill="white" stroke="transparent" points="-4,4 -4,-189 156,-189 156,4 -4,4"/>
<!-- Node1 -->
<g id="node1" class="node">
<title>Node1</title>
<g id="a_node1"><a xlink:title=" ">
<polygon fill="#bfbfbf" stroke="black" points="0,-0.5 0,-90.5 152,-90.5 152,-0.5 0,-0.5"/>
<text text-anchor="start" x="8" y="-78.5" font-family="Helvetica,sans-Serif" font-size="10.00">Kyoo.Postgresql.Migrations.</text>
<text text-anchor="middle" x="76" y="-67.5" font-family="Helvetica,sans-Serif" font-size="10.00">Initial</text>
<polyline fill="none" stroke="black" points="0,-60.5 152,-60.5 "/>
<text text-anchor="middle" x="76" y="-48.5" font-family="Helvetica,sans-Serif" font-size="10.00"> </text>
<polyline fill="none" stroke="black" points="0,-41.5 152,-41.5 "/>
<text text-anchor="start" x="8" y="-29.5" font-family="Helvetica,sans-Serif" font-size="10.00"># Up()</text>
<text text-anchor="start" x="8" y="-18.5" font-family="Helvetica,sans-Serif" font-size="10.00"># Down()</text>
<text text-anchor="start" x="8" y="-7.5" font-family="Helvetica,sans-Serif" font-size="10.00"># BuildTargetModel()</text>
</a>
</g>
</g>
<!-- Node2 -->
<g id="node2" class="node">
<title>Node2</title>
<g id="a_node2"><a xlink:title=" ">
<polygon fill="white" stroke="#bfbfbf" points="44.5,-127.5 44.5,-184.5 107.5,-184.5 107.5,-127.5 44.5,-127.5"/>
<text text-anchor="middle" x="76" y="-172.5" font-family="Helvetica,sans-Serif" font-size="10.00">Migration</text>
<polyline fill="none" stroke="#bfbfbf" points="44.5,-165.5 107.5,-165.5 "/>
<text text-anchor="middle" x="76" y="-153.5" font-family="Helvetica,sans-Serif" font-size="10.00"> </text>
<polyline fill="none" stroke="#bfbfbf" points="44.5,-146.5 107.5,-146.5 "/>
<text text-anchor="middle" x="76" y="-134.5" font-family="Helvetica,sans-Serif" font-size="10.00"> </text>
</a>
</g>
</g>
<!-- Node2&#45;&gt;Node1 -->
<g id="edge1" class="edge">
<title>Node2&#45;&gt;Node1</title>
<path fill="none" stroke="midnightblue" d="M76,-117.21C76,-108.61 76,-99.39 76,-90.55"/>
<polygon fill="none" stroke="midnightblue" points="72.5,-117.34 76,-127.34 79.5,-117.34 72.5,-117.34"/>
</g>
</g>
</svg>
