<?xml version="1.0" encoding="UTF-8" standalone="no"?>
<!DOCTYPE svg PUBLIC "-//W3C//DTD SVG 1.1//EN"
 "http://www.w3.org/Graphics/SVG/1.1/DTD/svg11.dtd">
<!-- Generated by graphviz version 2.43.0 (0)
 -->
<!-- Title: Kyoo.Controllers.StudioRepository Pages: 1 -->
<svg width="289pt" height="606pt"
 viewBox="0.00 0.00 289.00 606.00" xmlns="http://www.w3.org/2000/svg" xmlns:xlink="http://www.w3.org/1999/xlink">
<g id="graph0" class="graph" transform="scale(1 1) rotate(0) translate(4 602)">
<title>Kyoo.Controllers.StudioRepository</title>
<polygon fill="white" stroke="transparent" points="-4,4 -4,-602 285,-602 285,4 -4,4"/>
<!-- Node1 -->
<g id="node1" class="node">
<title>Node1</title>
<g id="a_node1"><a xlink:title="A local repository to handle studios">
<polygon fill="#bfbfbf" stroke="black" points="55,-0.5 55,-101.5 238,-101.5 238,-0.5 55,-0.5"/>
<text text-anchor="middle" x="146.5" y="-89.5" font-family="Helvetica,sans-Serif" font-size="10.00">Kyoo.Controllers.StudioRepository</text>
<polyline fill="none" stroke="black" points="55,-82.5 238,-82.5 "/>
<text text-anchor="start" x="63" y="-70.5" font-family="Helvetica,sans-Serif" font-size="10.00"># DefaultSort</text>
<text text-anchor="start" x="63" y="-59.5" font-family="Helvetica,sans-Serif" font-size="10.00">&#45; _database</text>
<polyline fill="none" stroke="black" points="55,-52.5 238,-52.5 "/>
<text text-anchor="start" x="63" y="-40.5" font-family="Helvetica,sans-Serif" font-size="10.00">+ StudioRepository()</text>
<text text-anchor="start" x="63" y="-29.5" font-family="Helvetica,sans-Serif" font-size="10.00">+ Search()</text>
<text text-anchor="start" x="63" y="-18.5" font-family="Helvetica,sans-Serif" font-size="10.00">+ Create()</text>
<text text-anchor="start" x="63" y="-7.5" font-family="Helvetica,sans-Serif" font-size="10.00">+ Delete()</text>
</a>
</g>
</g>
<!-- Node2 -->
<g id="node2" class="node">
<title>Node2</title>
<g id="a_node2"><a xlink:href="classKyoo_1_1Controllers_1_1LocalRepository.html" target="_top" xlink:title=" ">
<polygon fill="white" stroke="black" points="0,-138.5 0,-393.5 149,-393.5 149,-138.5 0,-138.5"/>
<text text-anchor="middle" x="74.5" y="-381.5" font-family="Helvetica,sans-Serif" font-size="10.00">LocalRepository&lt; Studio &gt;</text>
<polyline fill="none" stroke="black" points="0,-374.5 149,-374.5 "/>
<text text-anchor="start" x="8" y="-362.5" font-family="Helvetica,sans-Serif" font-size="10.00">+ RepositoryType</text>
<text text-anchor="start" x="8" y="-351.5" font-family="Helvetica,sans-Serif" font-size="10.00">+ DefaultSort</text>
<text text-anchor="start" x="8" y="-340.5" font-family="Helvetica,sans-Serif" font-size="10.00"># Database</text>
<polyline fill="none" stroke="black" points="0,-333.5 149,-333.5 "/>
<text text-anchor="start" x="8" y="-321.5" font-family="Helvetica,sans-Serif" font-size="10.00">+ Get()</text>
<text text-anchor="start" x="8" y="-310.5" font-family="Helvetica,sans-Serif" font-size="10.00">+ Get()</text>
<text text-anchor="start" x="8" y="-299.5" font-family="Helvetica,sans-Serif" font-size="10.00">+ Get()</text>
<text text-anchor="start" x="8" y="-288.5" font-family="Helvetica,sans-Serif" font-size="10.00">+ GetOrDefault()</text>
<text text-anchor="start" x="8" y="-277.5" font-family="Helvetica,sans-Serif" font-size="10.00">+ GetOrDefault()</text>
<text text-anchor="start" x="8" y="-266.5" font-family="Helvetica,sans-Serif" font-size="10.00">+ GetOrDefault()</text>
<text text-anchor="start" x="8" y="-255.5" font-family="Helvetica,sans-Serif" font-size="10.00">+ Search()</text>
<text text-anchor="start" x="8" y="-244.5" font-family="Helvetica,sans-Serif" font-size="10.00">+ GetAll()</text>
<text text-anchor="start" x="8" y="-233.5" font-family="Helvetica,sans-Serif" font-size="10.00">+ GetCount()</text>
<text text-anchor="start" x="8" y="-222.5" font-family="Helvetica,sans-Serif" font-size="10.00">+ Create()</text>
<text text-anchor="start" x="8" y="-211.5" font-family="Helvetica,sans-Serif" font-size="10.00">and 9 more...</text>
<text text-anchor="start" x="8" y="-200.5" font-family="Helvetica,sans-Serif" font-size="10.00"># LocalRepository()</text>
<text text-anchor="start" x="8" y="-189.5" font-family="Helvetica,sans-Serif" font-size="10.00"># GetWithTracking()</text>
<text text-anchor="start" x="8" y="-178.5" font-family="Helvetica,sans-Serif" font-size="10.00"># ApplyFilters()</text>
<text text-anchor="start" x="8" y="-167.5" font-family="Helvetica,sans-Serif" font-size="10.00"># ApplyFilters&lt; TValue &gt;()</text>
<text text-anchor="start" x="8" y="-156.5" font-family="Helvetica,sans-Serif" font-size="10.00"># EditRelations()</text>
<text text-anchor="start" x="8" y="-145.5" font-family="Helvetica,sans-Serif" font-size="10.00"># Validate()</text>
</a>
</g>
</g>
<!-- Node2&#45;&gt;Node1 -->
<g id="edge1" class="edge">
<title>Node2&#45;&gt;Node1</title>
<path fill="none" stroke="midnightblue" d="M120.55,-128.77C123.75,-119.31 126.83,-110.19 129.68,-101.75"/>
<polygon fill="none" stroke="midnightblue" points="117.21,-127.73 117.32,-138.33 123.84,-129.98 117.21,-127.73"/>
</g>
<!-- Node3 -->
<g id="node3" class="node">
<title>Node3</title>
<g id="a_node3"><a xlink:href="interfaceKyoo_1_1Controllers_1_1IStudioRepository.html" target="_top" xlink:title="A repository for studios.">
<polygon fill="white" stroke="black" points="167,-237.5 167,-294.5 270,-294.5 270,-237.5 167,-237.5"/>
<text text-anchor="middle" x="218.5" y="-282.5" font-family="Helvetica,sans-Serif" font-size="10.00">IStudioRepository</text>
<polyline fill="none" stroke="black" points="167,-275.5 270,-275.5 "/>
<text text-anchor="middle" x="218.5" y="-263.5" font-family="Helvetica,sans-Serif" font-size="10.00"> </text>
<polyline fill="none" stroke="black" points="167,-256.5 270,-256.5 "/>
<text text-anchor="middle" x="218.5" y="-244.5" font-family="Helvetica,sans-Serif" font-size="10.00"> </text>
</a>
</g>
</g>
<!-- Node3&#45;&gt;Node1 -->
<g id="edge2" class="edge">
<title>Node3&#45;&gt;Node1</title>
<path fill="none" stroke="midnightblue" d="M205.77,-227.35C193.97,-192.43 176.33,-140.24 163.36,-101.87"/>
<polygon fill="none" stroke="midnightblue" points="202.57,-228.8 209.09,-237.15 209.2,-226.56 202.57,-228.8"/>
</g>
<!-- Node4 -->
<g id="node4" class="node">
<title>Node4</title>
<g id="a_node4"><a xlink:href="interfaceKyoo_1_1Controllers_1_1IRepository.html" target="_top" xlink:title=" ">
<polygon fill="white" stroke="black" points="156,-430.5 156,-597.5 281,-597.5 281,-430.5 156,-430.5"/>
<text text-anchor="middle" x="218.5" y="-585.5" font-family="Helvetica,sans-Serif" font-size="10.00">IRepository&lt; Studio &gt;</text>
<polyline fill="none" stroke="black" points="156,-578.5 281,-578.5 "/>
<text text-anchor="middle" x="218.5" y="-566.5" font-family="Helvetica,sans-Serif" font-size="10.00"> </text>
<polyline fill="none" stroke="black" points="156,-559.5 281,-559.5 "/>
<text text-anchor="start" x="164" y="-547.5" font-family="Helvetica,sans-Serif" font-size="10.00">+ Get()</text>
<text text-anchor="start" x="164" y="-536.5" font-family="Helvetica,sans-Serif" font-size="10.00">+ Get()</text>
<text text-anchor="start" x="164" y="-525.5" font-family="Helvetica,sans-Serif" font-size="10.00">+ Get()</text>
<text text-anchor="start" x="164" y="-514.5" font-family="Helvetica,sans-Serif" font-size="10.00">+ GetOrDefault()</text>
<text text-anchor="start" x="164" y="-503.5" font-family="Helvetica,sans-Serif" font-size="10.00">+ GetOrDefault()</text>
<text text-anchor="start" x="164" y="-492.5" font-family="Helvetica,sans-Serif" font-size="10.00">+ GetOrDefault()</text>
<text text-anchor="start" x="164" y="-481.5" font-family="Helvetica,sans-Serif" font-size="10.00">+ Search()</text>
<text text-anchor="start" x="164" y="-470.5" font-family="Helvetica,sans-Serif" font-size="10.00">+ GetAll()</text>
<text text-anchor="start" x="164" y="-459.5" font-family="Helvetica,sans-Serif" font-size="10.00">+ GetAll()</text>
<text text-anchor="start" x="164" y="-448.5" font-family="Helvetica,sans-Serif" font-size="10.00">+ GetCount()</text>
<text text-anchor="start" x="164" y="-437.5" font-family="Helvetica,sans-Serif" font-size="10.00">and 13 more...</text>
</a>
</g>
</g>
<!-- Node4&#45;&gt;Node3 -->
<g id="edge3" class="edge">
<title>Node4&#45;&gt;Node3</title>
<path fill="none" stroke="midnightblue" d="M218.5,-420.36C218.5,-375.62 218.5,-325.15 218.5,-294.73"/>
<polygon fill="none" stroke="midnightblue" points="215,-420.4 218.5,-430.4 222,-420.4 215,-420.4"/>
</g>
</g>
</svg>
