<?xml version="1.0" encoding="UTF-8" standalone="no"?>
<!DOCTYPE svg PUBLIC "-//W3C//DTD SVG 1.1//EN"
 "http://www.w3.org/Graphics/SVG/1.1/DTD/svg11.dtd">
<!-- Generated by graphviz version 2.43.0 (0)
 -->
<!-- Title: Kyoo.Startup Pages: 1 -->
<svg width="141pt" height="259pt"
 viewBox="0.00 0.00 141.00 259.00" xmlns="http://www.w3.org/2000/svg" xmlns:xlink="http://www.w3.org/1999/xlink">
<g id="graph0" class="graph" transform="scale(1 1) rotate(0) translate(4 255)">
<title>Kyoo.Startup</title>
<polygon fill="white" stroke="transparent" points="-4,4 -4,-255 137,-255 137,4 -4,4"/>
<!-- Node1 -->
<g id="node1" class="node">
<title>Node1</title>
<g id="a_node1"><a xlink:title="The Startup class is used to configure the AspNet&#39;s webhost.">
<polygon fill="#bfbfbf" stroke="black" points="5,-0.5 5,-79.5 128,-79.5 128,-0.5 5,-0.5"/>
<text text-anchor="middle" x="66.5" y="-67.5" font-family="Helvetica,sans-Serif" font-size="10.00">Kyoo.Startup</text>
<polyline fill="none" stroke="black" points="5,-60.5 128,-60.5 "/>
<text text-anchor="middle" x="66.5" y="-48.5" font-family="Helvetica,sans-Serif" font-size="10.00"> </text>
<polyline fill="none" stroke="black" points="5,-41.5 128,-41.5 "/>
<text text-anchor="start" x="13" y="-29.5" font-family="Helvetica,sans-Serif" font-size="10.00">+ Startup()</text>
<text text-anchor="start" x="13" y="-18.5" font-family="Helvetica,sans-Serif" font-size="10.00">+ ConfigureServices()</text>
<text text-anchor="start" x="13" y="-7.5" font-family="Helvetica,sans-Serif" font-size="10.00">+ Configure()</text>
</a>
</g>
</g>
<!-- Node2 -->
<g id="node2" class="node">
<title>Node2</title>
<g id="a_node2"><a xlink:href="interfaceKyoo_1_1Controllers_1_1IPluginManager.html" target="_top" xlink:title="A manager to load plugins and retrieve information from them.">
<polygon fill="white" stroke="black" points="0,-127.5 0,-250.5 133,-250.5 133,-127.5 0,-127.5"/>
<text text-anchor="start" x="8" y="-238.5" font-family="Helvetica,sans-Serif" font-size="10.00">Kyoo.Controllers.IPlugin</text>
<text text-anchor="middle" x="66.5" y="-227.5" font-family="Helvetica,sans-Serif" font-size="10.00">Manager</text>
<polyline fill="none" stroke="black" points="0,-220.5 133,-220.5 "/>
<text text-anchor="middle" x="66.5" y="-208.5" font-family="Helvetica,sans-Serif" font-size="10.00"> </text>
<polyline fill="none" stroke="black" points="0,-201.5 133,-201.5 "/>
<text text-anchor="start" x="8" y="-189.5" font-family="Helvetica,sans-Serif" font-size="10.00">+ GetPlugin&lt; T &gt;()</text>
<text text-anchor="start" x="8" y="-178.5" font-family="Helvetica,sans-Serif" font-size="10.00">+ GetPlugins&lt; T &gt;()</text>
<text text-anchor="start" x="8" y="-167.5" font-family="Helvetica,sans-Serif" font-size="10.00">+ GetAllPlugins()</text>
<text text-anchor="start" x="8" y="-156.5" font-family="Helvetica,sans-Serif" font-size="10.00">+ LoadPlugins()</text>
<text text-anchor="start" x="8" y="-145.5" font-family="Helvetica,sans-Serif" font-size="10.00">+ ConfigureServices()</text>
<text text-anchor="start" x="8" y="-134.5" font-family="Helvetica,sans-Serif" font-size="10.00">+ ConfigureAspnet()</text>
</a>
</g>
</g>
<!-- Node2&#45;&gt;Node1 -->
<g id="edge1" class="edge">
<title>Node2&#45;&gt;Node1</title>
<path fill="none" stroke="#404040" d="M66.5,-127.36C66.5,-115.51 66.5,-103.2 66.5,-91.72"/>
<polygon fill="none" stroke="#404040" points="66.5,-91.64 62.5,-85.64 66.5,-79.64 70.5,-85.64 66.5,-91.64"/>
<text text-anchor="middle" x="90.5" y="-101" font-family="Helvetica,sans-Serif" font-size="10.00"> &#45;_plugins</text>
</g>
</g>
</svg>
