<?xml version="1.0" encoding="UTF-8" standalone="no"?>
<!DOCTYPE svg PUBLIC "-//W3C//DTD SVG 1.1//EN"
 "http://www.w3.org/Graphics/SVG/1.1/DTD/svg11.dtd">
<!-- Generated by graphviz version 2.43.0 (0)
 -->
<!-- Title: Kyoo.Api.ShowApi Pages: 1 -->
<svg width="641pt" height="512pt"
 viewBox="0.00 0.00 641.00 512.00" xmlns="http://www.w3.org/2000/svg" xmlns:xlink="http://www.w3.org/1999/xlink">
<g id="graph0" class="graph" transform="scale(1 1) rotate(0) translate(4 508)">
<title>Kyoo.Api.ShowApi</title>
<polygon fill="white" stroke="transparent" points="-4,4 -4,-508 637,-508 637,4 -4,4"/>
<!-- Node1 -->
<g id="node1" class="node">
<title>Node1</title>
<g id="a_node1"><a xlink:title=" ">
<polygon fill="#bfbfbf" stroke="black" points="250,-0.5 250,-167.5 354,-167.5 354,-0.5 250,-0.5"/>
<text text-anchor="middle" x="302" y="-155.5" font-family="Helvetica,sans-Serif" font-size="10.00">Kyoo.Api.ShowApi</text>
<polyline fill="none" stroke="black" points="250,-148.5 354,-148.5 "/>
<text text-anchor="middle" x="302" y="-136.5" font-family="Helvetica,sans-Serif" font-size="10.00"> </text>
<polyline fill="none" stroke="black" points="250,-129.5 354,-129.5 "/>
<text text-anchor="start" x="258" y="-117.5" font-family="Helvetica,sans-Serif" font-size="10.00">+ ShowApi()</text>
<text text-anchor="start" x="258" y="-106.5" font-family="Helvetica,sans-Serif" font-size="10.00">+ GetSeasons()</text>
<text text-anchor="start" x="258" y="-95.5" font-family="Helvetica,sans-Serif" font-size="10.00">+ GetSeasons()</text>
<text text-anchor="start" x="258" y="-84.5" font-family="Helvetica,sans-Serif" font-size="10.00">+ GetEpisodes()</text>
<text text-anchor="start" x="258" y="-73.5" font-family="Helvetica,sans-Serif" font-size="10.00">+ GetEpisodes()</text>
<text text-anchor="start" x="258" y="-62.5" font-family="Helvetica,sans-Serif" font-size="10.00">+ GetPeople()</text>
<text text-anchor="start" x="258" y="-51.5" font-family="Helvetica,sans-Serif" font-size="10.00">+ GetPeople()</text>
<text text-anchor="start" x="258" y="-40.5" font-family="Helvetica,sans-Serif" font-size="10.00">+ GetGenres()</text>
<text text-anchor="start" x="258" y="-29.5" font-family="Helvetica,sans-Serif" font-size="10.00">+ GetGenre()</text>
<text text-anchor="start" x="258" y="-18.5" font-family="Helvetica,sans-Serif" font-size="10.00">+ GetStudio()</text>
<text text-anchor="start" x="258" y="-7.5" font-family="Helvetica,sans-Serif" font-size="10.00">and 10 more...</text>
</a>
</g>
</g>
<!-- Node2 -->
<g id="node2" class="node">
<title>Node2</title>
<g id="a_node2"><a xlink:href="classKyoo_1_1CommonApi_1_1CrudApi.html" target="_top" xlink:title=" ">
<polygon fill="white" stroke="black" points="0,-259.5 0,-459.5 118,-459.5 118,-259.5 0,-259.5"/>
<text text-anchor="middle" x="59" y="-447.5" font-family="Helvetica,sans-Serif" font-size="10.00">CrudApi&lt; Show &gt;</text>
<polyline fill="none" stroke="black" points="0,-440.5 118,-440.5 "/>
<text text-anchor="start" x="8" y="-428.5" font-family="Helvetica,sans-Serif" font-size="10.00"># BaseURL</text>
<text text-anchor="start" x="8" y="-417.5" font-family="Helvetica,sans-Serif" font-size="10.00">&#45; _repository</text>
<polyline fill="none" stroke="black" points="0,-410.5 118,-410.5 "/>
<text text-anchor="start" x="8" y="-398.5" font-family="Helvetica,sans-Serif" font-size="10.00">+ CrudApi()</text>
<text text-anchor="start" x="8" y="-387.5" font-family="Helvetica,sans-Serif" font-size="10.00">+ Get()</text>
<text text-anchor="start" x="8" y="-376.5" font-family="Helvetica,sans-Serif" font-size="10.00">+ Get()</text>
<text text-anchor="start" x="8" y="-365.5" font-family="Helvetica,sans-Serif" font-size="10.00">+ GetCount()</text>
<text text-anchor="start" x="8" y="-354.5" font-family="Helvetica,sans-Serif" font-size="10.00">+ GetAll()</text>
<text text-anchor="start" x="8" y="-343.5" font-family="Helvetica,sans-Serif" font-size="10.00">+ Create()</text>
<text text-anchor="start" x="8" y="-332.5" font-family="Helvetica,sans-Serif" font-size="10.00">+ Edit()</text>
<text text-anchor="start" x="8" y="-321.5" font-family="Helvetica,sans-Serif" font-size="10.00">+ Edit()</text>
<text text-anchor="start" x="8" y="-310.5" font-family="Helvetica,sans-Serif" font-size="10.00">+ Edit()</text>
<text text-anchor="start" x="8" y="-299.5" font-family="Helvetica,sans-Serif" font-size="10.00">+ Delete()</text>
<text text-anchor="start" x="8" y="-288.5" font-family="Helvetica,sans-Serif" font-size="10.00">+ Delete()</text>
<text text-anchor="start" x="8" y="-277.5" font-family="Helvetica,sans-Serif" font-size="10.00">+ Delete()</text>
<text text-anchor="start" x="8" y="-266.5" font-family="Helvetica,sans-Serif" font-size="10.00"># Page&lt; TResult &gt;()</text>
</a>
</g>
</g>
<!-- Node2&#45;&gt;Node1 -->
<g id="edge1" class="edge">
<title>Node2&#45;&gt;Node1</title>
<path fill="none" stroke="midnightblue" d="M103.12,-250.2C110.24,-237.76 118.2,-225.72 127,-215 161.33,-173.16 211.92,-137.5 249.88,-114.17"/>
<polygon fill="none" stroke="midnightblue" points="99.86,-248.87 98.08,-259.31 105.98,-252.25 99.86,-248.87"/>
</g>
<!-- Node3 -->
<g id="node3" class="node">
<title>Node3</title>
<g id="a_node3"><a xlink:href="interfaceKyoo_1_1Controllers_1_1IFileManager.html" target="_top" xlink:title="A service to abstract the file system to allow custom file systems (like distant file systems or exte...">
<polygon fill="white" stroke="black" points="136.5,-292.5 136.5,-426.5 299.5,-426.5 299.5,-292.5 136.5,-292.5"/>
<text text-anchor="middle" x="218" y="-414.5" font-family="Helvetica,sans-Serif" font-size="10.00">Kyoo.Controllers.IFileManager</text>
<polyline fill="none" stroke="black" points="136.5,-407.5 299.5,-407.5 "/>
<text text-anchor="middle" x="218" y="-395.5" font-family="Helvetica,sans-Serif" font-size="10.00"> </text>
<polyline fill="none" stroke="black" points="136.5,-388.5 299.5,-388.5 "/>
<text text-anchor="start" x="144.5" y="-376.5" font-family="Helvetica,sans-Serif" font-size="10.00">+ FileResult()</text>
<text text-anchor="start" x="144.5" y="-365.5" font-family="Helvetica,sans-Serif" font-size="10.00">+ GetReader()</text>
<text text-anchor="start" x="144.5" y="-354.5" font-family="Helvetica,sans-Serif" font-size="10.00">+ NewFile()</text>
<text text-anchor="start" x="144.5" y="-343.5" font-family="Helvetica,sans-Serif" font-size="10.00">+ ListFiles()</text>
<text text-anchor="start" x="144.5" y="-332.5" font-family="Helvetica,sans-Serif" font-size="10.00">+ Exists()</text>
<text text-anchor="start" x="144.5" y="-321.5" font-family="Helvetica,sans-Serif" font-size="10.00">+ GetExtraDirectory()</text>
<text text-anchor="start" x="144.5" y="-310.5" font-family="Helvetica,sans-Serif" font-size="10.00">+ GetExtraDirectory()</text>
<text text-anchor="start" x="144.5" y="-299.5" font-family="Helvetica,sans-Serif" font-size="10.00">+ GetExtraDirectory()</text>
</a>
</g>
</g>
<!-- Node3&#45;&gt;Node1 -->
<g id="edge2" class="edge">
<title>Node3&#45;&gt;Node1</title>
<path fill="none" stroke="#404040" d="M238.33,-292.29C248.72,-258.48 261.53,-216.75 272.94,-179.62"/>
<polygon fill="none" stroke="#404040" points="273.07,-179.21 271,-172.3 276.59,-167.74 278.65,-174.65 273.07,-179.21"/>
<text text-anchor="middle" x="286.5" y="-189" font-family="Helvetica,sans-Serif" font-size="10.00"> &#45;_files</text>
</g>
<!-- Node4 -->
<g id="node4" class="node">
<title>Node4</title>
<g id="a_node4"><a xlink:href="interfaceKyoo_1_1Controllers_1_1ILibraryManager.html" target="_top" xlink:title="An interface to interract with the database. Every repository is mapped through here.">
<polygon fill="white" stroke="black" points="317.5,-215.5 317.5,-503.5 454.5,-503.5 454.5,-215.5 317.5,-215.5"/>
<text text-anchor="start" x="325.5" y="-491.5" font-family="Helvetica,sans-Serif" font-size="10.00">Kyoo.Controllers.ILibrary</text>
<text text-anchor="middle" x="386" y="-480.5" font-family="Helvetica,sans-Serif" font-size="10.00">Manager</text>
<polyline fill="none" stroke="black" points="317.5,-473.5 454.5,-473.5 "/>
<text text-anchor="start" x="325.5" y="-461.5" font-family="Helvetica,sans-Serif" font-size="10.00">+ LibraryRepository</text>
<text text-anchor="start" x="325.5" y="-450.5" font-family="Helvetica,sans-Serif" font-size="10.00">+ LibraryItemRepository</text>
<text text-anchor="start" x="325.5" y="-439.5" font-family="Helvetica,sans-Serif" font-size="10.00">+ CollectionRepository</text>
<text text-anchor="start" x="325.5" y="-428.5" font-family="Helvetica,sans-Serif" font-size="10.00">+ ShowRepository</text>
<text text-anchor="start" x="325.5" y="-417.5" font-family="Helvetica,sans-Serif" font-size="10.00">+ SeasonRepository</text>
<text text-anchor="start" x="325.5" y="-406.5" font-family="Helvetica,sans-Serif" font-size="10.00">+ EpisodeRepository</text>
<text text-anchor="start" x="325.5" y="-395.5" font-family="Helvetica,sans-Serif" font-size="10.00">+ TrackRepository</text>
<text text-anchor="start" x="325.5" y="-384.5" font-family="Helvetica,sans-Serif" font-size="10.00">+ PeopleRepository</text>
<text text-anchor="start" x="325.5" y="-373.5" font-family="Helvetica,sans-Serif" font-size="10.00">+ StudioRepository</text>
<text text-anchor="start" x="325.5" y="-362.5" font-family="Helvetica,sans-Serif" font-size="10.00">+ GenreRepository</text>
<text text-anchor="start" x="325.5" y="-351.5" font-family="Helvetica,sans-Serif" font-size="10.00">+ ProviderRepository</text>
<polyline fill="none" stroke="black" points="317.5,-344.5 454.5,-344.5 "/>
<text text-anchor="start" x="325.5" y="-332.5" font-family="Helvetica,sans-Serif" font-size="10.00">+ GetRepository&lt; T &gt;()</text>
<text text-anchor="start" x="325.5" y="-321.5" font-family="Helvetica,sans-Serif" font-size="10.00">+ Get&lt; T &gt;()</text>
<text text-anchor="start" x="325.5" y="-310.5" font-family="Helvetica,sans-Serif" font-size="10.00">+ Get&lt; T &gt;()</text>
<text text-anchor="start" x="325.5" y="-299.5" font-family="Helvetica,sans-Serif" font-size="10.00">+ Get&lt; T &gt;()</text>
<text text-anchor="start" x="325.5" y="-288.5" font-family="Helvetica,sans-Serif" font-size="10.00">+ Get()</text>
<text text-anchor="start" x="325.5" y="-277.5" font-family="Helvetica,sans-Serif" font-size="10.00">+ Get()</text>
<text text-anchor="start" x="325.5" y="-266.5" font-family="Helvetica,sans-Serif" font-size="10.00">+ Get()</text>
<text text-anchor="start" x="325.5" y="-255.5" font-family="Helvetica,sans-Serif" font-size="10.00">+ Get()</text>
<text text-anchor="start" x="325.5" y="-244.5" font-family="Helvetica,sans-Serif" font-size="10.00">+ Get()</text>
<text text-anchor="start" x="325.5" y="-233.5" font-family="Helvetica,sans-Serif" font-size="10.00">+ GetOrDefault&lt; T &gt;()</text>
<text text-anchor="start" x="325.5" y="-222.5" font-family="Helvetica,sans-Serif" font-size="10.00">and 35 more...</text>
</a>
</g>
</g>
<!-- Node4&#45;&gt;Node1 -->
<g id="edge3" class="edge">
<title>Node4&#45;&gt;Node1</title>
<path fill="none" stroke="#404040" d="M342.03,-215.34C338.28,-203.13 334.55,-190.98 330.96,-179.3"/>
<polygon fill="none" stroke="#404040" points="330.95,-179.25 325.36,-174.69 327.42,-167.78 333.01,-172.34 330.95,-179.25"/>
<text text-anchor="middle" x="378.5" y="-189" font-family="Helvetica,sans-Serif" font-size="10.00"> &#45;_libraryManager</text>
</g>
<!-- Node5 -->
<g id="node5" class="node">
<title>Node5</title>
<g id="a_node5"><a xlink:href="interfaceKyoo_1_1Controllers_1_1IThumbnailsManager.html" target="_top" xlink:title=" ">
<polygon fill="white" stroke="black" points="473,-265 473,-454 633,-454 633,-265 473,-265"/>
<text text-anchor="start" x="481" y="-442" font-family="Helvetica,sans-Serif" font-size="10.00">Kyoo.Controllers.IThumbnails</text>
<text text-anchor="middle" x="553" y="-431" font-family="Helvetica,sans-Serif" font-size="10.00">Manager</text>
<polyline fill="none" stroke="black" points="473,-424 633,-424 "/>
<text text-anchor="middle" x="553" y="-412" font-family="Helvetica,sans-Serif" font-size="10.00"> </text>
<polyline fill="none" stroke="black" points="473,-405 633,-405 "/>
<text text-anchor="start" x="481" y="-393" font-family="Helvetica,sans-Serif" font-size="10.00">+ Validate()</text>
<text text-anchor="start" x="481" y="-382" font-family="Helvetica,sans-Serif" font-size="10.00">+ Validate()</text>
<text text-anchor="start" x="481" y="-371" font-family="Helvetica,sans-Serif" font-size="10.00">+ Validate()</text>
<text text-anchor="start" x="481" y="-360" font-family="Helvetica,sans-Serif" font-size="10.00">+ Validate()</text>
<text text-anchor="start" x="481" y="-349" font-family="Helvetica,sans-Serif" font-size="10.00">+ Validate()</text>
<text text-anchor="start" x="481" y="-338" font-family="Helvetica,sans-Serif" font-size="10.00">+ GetShowPoster()</text>
<text text-anchor="start" x="481" y="-327" font-family="Helvetica,sans-Serif" font-size="10.00">+ GetShowLogo()</text>
<text text-anchor="start" x="481" y="-316" font-family="Helvetica,sans-Serif" font-size="10.00">+ GetShowBackdrop()</text>
<text text-anchor="start" x="481" y="-305" font-family="Helvetica,sans-Serif" font-size="10.00">+ GetSeasonPoster()</text>
<text text-anchor="start" x="481" y="-294" font-family="Helvetica,sans-Serif" font-size="10.00">+ GetEpisodeThumb()</text>
<text text-anchor="start" x="481" y="-283" font-family="Helvetica,sans-Serif" font-size="10.00">+ GetPeoplePoster()</text>
<text text-anchor="start" x="481" y="-272" font-family="Helvetica,sans-Serif" font-size="10.00">+ GetProviderLogo()</text>
</a>
</g>
</g>
<!-- Node5&#45;&gt;Node1 -->
<g id="edge4" class="edge">
<title>Node5&#45;&gt;Node1</title>
<path fill="none" stroke="#404040" d="M501.38,-264.89C490.06,-247.55 477.41,-230.14 464,-215 434.64,-181.85 396.17,-150.59 364.09,-127.04"/>
<polygon fill="none" stroke="#404040" points="364.07,-127.02 356.87,-126.74 354.36,-119.98 361.56,-120.26 364.07,-127.02"/>
<text text-anchor="middle" x="468.5" y="-189" font-family="Helvetica,sans-Serif" font-size="10.00"> &#45;_thumbs</text>
</g>
</g>
</svg>
