<?xml version="1.0" encoding="UTF-8" standalone="no"?>
<!DOCTYPE svg PUBLIC "-//W3C//DTD SVG 1.1//EN"
 "http://www.w3.org/Graphics/SVG/1.1/DTD/svg11.dtd">
<!-- Generated by graphviz version 2.43.0 (0)
 -->
<!-- Title: Kyoo.Controllers.ConditionalProvide Pages: 1 -->
<svg width="188pt" height="204pt"
 viewBox="0.00 0.00 188.00 204.00" xmlns="http://www.w3.org/2000/svg" xmlns:xlink="http://www.w3.org/1999/xlink">
<g id="graph0" class="graph" transform="scale(1 1) rotate(0) translate(4 200)">
<title>Kyoo.Controllers.ConditionalProvide</title>
<polygon fill="white" stroke="transparent" points="-4,4 -4,-200 184,-200 184,4 -4,4"/>
<!-- Node1 -->
<g id="node1" class="node">
<title>Node1</title>
<g id="a_node1"><a xlink:title="A type that will only be provided if a special condition is met. To check that your condition is met,...">
<polygon fill="#bfbfbf" stroke="black" points="4,-0.5 4,-101.5 176,-101.5 176,-0.5 4,-0.5"/>
<text text-anchor="start" x="12" y="-89.5" font-family="Helvetica,sans-Serif" font-size="10.00">Kyoo.Controllers.Conditional</text>
<text text-anchor="middle" x="90" y="-78.5" font-family="Helvetica,sans-Serif" font-size="10.00">Provide</text>
<polyline fill="none" stroke="black" points="4,-71.5 176,-71.5 "/>
<text text-anchor="start" x="12" y="-59.5" font-family="Helvetica,sans-Serif" font-size="10.00">+ Type</text>
<text text-anchor="start" x="12" y="-48.5" font-family="Helvetica,sans-Serif" font-size="10.00">+ Condition</text>
<polyline fill="none" stroke="black" points="4,-41.5 176,-41.5 "/>
<text text-anchor="start" x="12" y="-29.5" font-family="Helvetica,sans-Serif" font-size="10.00">+ ConditionalProvide()</text>
<text text-anchor="start" x="12" y="-18.5" font-family="Helvetica,sans-Serif" font-size="10.00">+ ConditionalProvide()</text>
<text text-anchor="start" x="12" y="-7.5" font-family="Helvetica,sans-Serif" font-size="10.00">+ operator ConditionalProvide()</text>
</a>
</g>
</g>
<!-- Node2 -->
<g id="node2" class="node">
<title>Node2</title>
<g id="a_node2"><a xlink:title=" ">
<polygon fill="white" stroke="#bfbfbf" points="0,-138.5 0,-195.5 180,-195.5 180,-138.5 0,-138.5"/>
<text text-anchor="middle" x="90" y="-183.5" font-family="Helvetica,sans-Serif" font-size="10.00">Tuple&lt; Type, ProviderCondition &gt;</text>
<polyline fill="none" stroke="#bfbfbf" points="0,-176.5 180,-176.5 "/>
<text text-anchor="middle" x="90" y="-164.5" font-family="Helvetica,sans-Serif" font-size="10.00"> </text>
<polyline fill="none" stroke="#bfbfbf" points="0,-157.5 180,-157.5 "/>
<text text-anchor="middle" x="90" y="-145.5" font-family="Helvetica,sans-Serif" font-size="10.00"> </text>
</a>
</g>
</g>
<!-- Node2&#45;&gt;Node1 -->
<g id="edge1" class="edge">
<title>Node2&#45;&gt;Node1</title>
<path fill="none" stroke="midnightblue" d="M90,-128.35C90,-119.8 90,-110.58 90,-101.61"/>
<polygon fill="none" stroke="midnightblue" points="86.5,-128.4 90,-138.4 93.5,-128.4 86.5,-128.4"/>
</g>
</g>
</svg>
