<?xml version="1.0" encoding="UTF-8" standalone="no"?>
<!DOCTYPE svg PUBLIC "-//W3C//DTD SVG 1.1//EN"
 "http://www.w3.org/Graphics/SVG/1.1/DTD/svg11.dtd">
<!-- Generated by graphviz version 2.43.0 (0)
 -->
<!-- Title: Kyoo.Tasks.PluginInitializer Pages: 1 -->
<svg width="157pt" height="336pt"
 viewBox="0.00 0.00 157.00 336.00" xmlns="http://www.w3.org/2000/svg" xmlns:xlink="http://www.w3.org/1999/xlink">
<g id="graph0" class="graph" transform="scale(1 1) rotate(0) translate(4 332)">
<title>Kyoo.Tasks.PluginInitializer</title>
<polygon fill="white" stroke="transparent" points="-4,4 -4,-332 153,-332 153,4 -4,4"/>
<!-- Node1 -->
<g id="node1" class="node">
<title>Node1</title>
<g id="a_node1"><a xlink:title="A task run on Kyoo&#39;s startup to initialize plugins">
<polygon fill="#bfbfbf" stroke="black" points="0,-0.5 0,-156.5 149,-156.5 149,-0.5 0,-0.5"/>
<text text-anchor="middle" x="74.5" y="-144.5" font-family="Helvetica,sans-Serif" font-size="10.00">Kyoo.Tasks.PluginInitializer</text>
<polyline fill="none" stroke="black" points="0,-137.5 149,-137.5 "/>
<text text-anchor="start" x="8" y="-125.5" font-family="Helvetica,sans-Serif" font-size="10.00">+ Slug</text>
<text text-anchor="start" x="8" y="-114.5" font-family="Helvetica,sans-Serif" font-size="10.00">+ Name</text>
<text text-anchor="start" x="8" y="-103.5" font-family="Helvetica,sans-Serif" font-size="10.00">+ Description</text>
<text text-anchor="start" x="8" y="-92.5" font-family="Helvetica,sans-Serif" font-size="10.00">+ HelpMessage</text>
<text text-anchor="start" x="8" y="-81.5" font-family="Helvetica,sans-Serif" font-size="10.00">+ RunOnStartup</text>
<text text-anchor="start" x="8" y="-70.5" font-family="Helvetica,sans-Serif" font-size="10.00">+ Priority</text>
<text text-anchor="start" x="8" y="-59.5" font-family="Helvetica,sans-Serif" font-size="10.00">+ PluginManager</text>
<text text-anchor="start" x="8" y="-48.5" font-family="Helvetica,sans-Serif" font-size="10.00">+ Provider</text>
<polyline fill="none" stroke="black" points="0,-41.5 149,-41.5 "/>
<text text-anchor="start" x="8" y="-29.5" font-family="Helvetica,sans-Serif" font-size="10.00">+ Run()</text>
<text text-anchor="start" x="8" y="-18.5" font-family="Helvetica,sans-Serif" font-size="10.00">+ GetParameters()</text>
<text text-anchor="start" x="8" y="-7.5" font-family="Helvetica,sans-Serif" font-size="10.00">+ Progress()</text>
</a>
</g>
</g>
<!-- Node2 -->
<g id="node2" class="node">
<title>Node2</title>
<g id="a_node2"><a xlink:href="interfaceKyoo_1_1Controllers_1_1ITask.html" target="_top" xlink:title="A common interface that tasks should implement.">
<polygon fill="white" stroke="black" points="20.5,-193.5 20.5,-327.5 128.5,-327.5 128.5,-193.5 20.5,-193.5"/>
<text text-anchor="middle" x="74.5" y="-315.5" font-family="Helvetica,sans-Serif" font-size="10.00">ITask</text>
<polyline fill="none" stroke="black" points="20.5,-308.5 128.5,-308.5 "/>
<text text-anchor="start" x="28.5" y="-296.5" font-family="Helvetica,sans-Serif" font-size="10.00">+ Slug</text>
<text text-anchor="start" x="28.5" y="-285.5" font-family="Helvetica,sans-Serif" font-size="10.00">+ Name</text>
<text text-anchor="start" x="28.5" y="-274.5" font-family="Helvetica,sans-Serif" font-size="10.00">+ Description</text>
<text text-anchor="start" x="28.5" y="-263.5" font-family="Helvetica,sans-Serif" font-size="10.00">+ HelpMessage</text>
<text text-anchor="start" x="28.5" y="-252.5" font-family="Helvetica,sans-Serif" font-size="10.00">+ RunOnStartup</text>
<text text-anchor="start" x="28.5" y="-241.5" font-family="Helvetica,sans-Serif" font-size="10.00">+ Priority</text>
<polyline fill="none" stroke="black" points="20.5,-234.5 128.5,-234.5 "/>
<text text-anchor="start" x="28.5" y="-222.5" font-family="Helvetica,sans-Serif" font-size="10.00">+ Run()</text>
<text text-anchor="start" x="28.5" y="-211.5" font-family="Helvetica,sans-Serif" font-size="10.00">+ GetParameters()</text>
<text text-anchor="start" x="28.5" y="-200.5" font-family="Helvetica,sans-Serif" font-size="10.00">+ Progress()</text>
</a>
</g>
</g>
<!-- Node2&#45;&gt;Node1 -->
<g id="edge1" class="edge">
<title>Node2&#45;&gt;Node1</title>
<path fill="none" stroke="midnightblue" d="M74.5,-183.3C74.5,-174.52 74.5,-165.57 74.5,-156.78"/>
<polygon fill="none" stroke="midnightblue" points="71,-183.5 74.5,-193.5 78,-183.5 71,-183.5"/>
</g>
</g>
</svg>
