<?xml version="1.0" encoding="UTF-8" standalone="no"?>
<!DOCTYPE svg PUBLIC "-//W3C//DTD SVG 1.1//EN"
 "http://www.w3.org/Graphics/SVG/1.1/DTD/svg11.dtd">
<!-- Generated by graphviz version 2.43.0 (0)
 -->
<!-- Title: Kyoo.Controllers.ConfigurationManager Pages: 1 -->
<svg width="173pt" height="270pt"
 viewBox="0.00 0.00 173.00 270.00" xmlns="http://www.w3.org/2000/svg" xmlns:xlink="http://www.w3.org/1999/xlink">
<g id="graph0" class="graph" transform="scale(1 1) rotate(0) translate(4 266)">
<title>Kyoo.Controllers.ConfigurationManager</title>
<polygon fill="white" stroke="transparent" points="-4,4 -4,-266 169,-266 169,4 -4,4"/>
<!-- Node1 -->
<g id="node1" class="node">
<title>Node1</title>
<g id="a_node1"><a xlink:title=" ">
<polygon fill="#bfbfbf" stroke="black" points="0,-0.5 0,-145.5 165,-145.5 165,-0.5 0,-0.5"/>
<text text-anchor="start" x="8" y="-133.5" font-family="Helvetica,sans-Serif" font-size="10.00">Kyoo.Controllers.Configuration</text>
<text text-anchor="middle" x="82.5" y="-122.5" font-family="Helvetica,sans-Serif" font-size="10.00">Manager</text>
<polyline fill="none" stroke="black" points="0,-115.5 165,-115.5 "/>
<text text-anchor="start" x="8" y="-103.5" font-family="Helvetica,sans-Serif" font-size="10.00">&#45; _configuration</text>
<text text-anchor="start" x="8" y="-92.5" font-family="Helvetica,sans-Serif" font-size="10.00">&#45; _references</text>
<polyline fill="none" stroke="black" points="0,-85.5 165,-85.5 "/>
<text text-anchor="start" x="8" y="-73.5" font-family="Helvetica,sans-Serif" font-size="10.00">+ ConfigurationManager()</text>
<text text-anchor="start" x="8" y="-62.5" font-family="Helvetica,sans-Serif" font-size="10.00">+ GetValue()</text>
<text text-anchor="start" x="8" y="-51.5" font-family="Helvetica,sans-Serif" font-size="10.00">+ GetValue&lt; T &gt;()</text>
<text text-anchor="start" x="8" y="-40.5" font-family="Helvetica,sans-Serif" font-size="10.00">+ EditValue()</text>
<text text-anchor="start" x="8" y="-29.5" font-family="Helvetica,sans-Serif" font-size="10.00">&#45; GetType()</text>
<text text-anchor="start" x="8" y="-18.5" font-family="Helvetica,sans-Serif" font-size="10.00">&#45; ToObject()</text>
<text text-anchor="start" x="8" y="-7.5" font-family="Helvetica,sans-Serif" font-size="10.00">&#45; ToUntyped()</text>
</a>
</g>
</g>
<!-- Node2 -->
<g id="node2" class="node">
<title>Node2</title>
<g id="a_node2"><a xlink:href="interfaceKyoo_1_1Controllers_1_1IConfigurationManager.html" target="_top" xlink:title="A class to ease configuration management. This work WITH Microsoft&#39;s package, you can still use IOpti...">
<polygon fill="white" stroke="black" points="18.5,-182.5 18.5,-261.5 146.5,-261.5 146.5,-182.5 18.5,-182.5"/>
<text text-anchor="middle" x="82.5" y="-249.5" font-family="Helvetica,sans-Serif" font-size="10.00">IConfigurationManager</text>
<polyline fill="none" stroke="black" points="18.5,-242.5 146.5,-242.5 "/>
<text text-anchor="middle" x="82.5" y="-230.5" font-family="Helvetica,sans-Serif" font-size="10.00"> </text>
<polyline fill="none" stroke="black" points="18.5,-223.5 146.5,-223.5 "/>
<text text-anchor="start" x="26.5" y="-211.5" font-family="Helvetica,sans-Serif" font-size="10.00">+ GetValue()</text>
<text text-anchor="start" x="26.5" y="-200.5" font-family="Helvetica,sans-Serif" font-size="10.00">+ GetValue&lt; T &gt;()</text>
<text text-anchor="start" x="26.5" y="-189.5" font-family="Helvetica,sans-Serif" font-size="10.00">+ EditValue()</text>
</a>
</g>
</g>
<!-- Node2&#45;&gt;Node1 -->
<g id="edge1" class="edge">
<title>Node2&#45;&gt;Node1</title>
<path fill="none" stroke="midnightblue" d="M82.5,-172.24C82.5,-163.7 82.5,-154.65 82.5,-145.64"/>
<polygon fill="none" stroke="midnightblue" points="79,-172.38 82.5,-182.38 86,-172.38 79,-172.38"/>
</g>
</g>
</svg>
