<?xml version="1.0" encoding="UTF-8" standalone="no"?>
<!DOCTYPE svg PUBLIC "-//W3C//DTD SVG 1.1//EN"
 "http://www.w3.org/Graphics/SVG/1.1/DTD/svg11.dtd">
<!-- Generated by graphviz version 2.43.0 (0)
 -->
<!-- Title: Kyoo.Controllers.PeopleRepository Pages: 1 -->
<svg width="630pt" height="816pt"
 viewBox="0.00 0.00 630.00 816.00" xmlns="http://www.w3.org/2000/svg" xmlns:xlink="http://www.w3.org/1999/xlink">
<g id="graph0" class="graph" transform="scale(1 1) rotate(0) translate(4 812)">
<title>Kyoo.Controllers.PeopleRepository</title>
<polygon fill="white" stroke="transparent" points="-4,4 -4,-812 626,-812 626,4 -4,4"/>
<!-- Node1 -->
<g id="node1" class="node">
<title>Node1</title>
<g id="a_node1"><a xlink:title="A local repository to handle people.">
<polygon fill="#bfbfbf" stroke="black" points="202.5,-0.5 202.5,-167.5 387.5,-167.5 387.5,-0.5 202.5,-0.5"/>
<text text-anchor="middle" x="295" y="-155.5" font-family="Helvetica,sans-Serif" font-size="10.00">Kyoo.Controllers.PeopleRepository</text>
<polyline fill="none" stroke="black" points="202.5,-148.5 387.5,-148.5 "/>
<text text-anchor="start" x="210.5" y="-136.5" font-family="Helvetica,sans-Serif" font-size="10.00"># DefaultSort</text>
<text text-anchor="start" x="210.5" y="-125.5" font-family="Helvetica,sans-Serif" font-size="10.00">&#45; _shows</text>
<polyline fill="none" stroke="black" points="202.5,-118.5 387.5,-118.5 "/>
<text text-anchor="start" x="210.5" y="-106.5" font-family="Helvetica,sans-Serif" font-size="10.00">+ PeopleRepository()</text>
<text text-anchor="start" x="210.5" y="-95.5" font-family="Helvetica,sans-Serif" font-size="10.00">+ Search()</text>
<text text-anchor="start" x="210.5" y="-84.5" font-family="Helvetica,sans-Serif" font-size="10.00">+ Create()</text>
<text text-anchor="start" x="210.5" y="-73.5" font-family="Helvetica,sans-Serif" font-size="10.00">+ Delete()</text>
<text text-anchor="start" x="210.5" y="-62.5" font-family="Helvetica,sans-Serif" font-size="10.00">+ GetFromShow()</text>
<text text-anchor="start" x="210.5" y="-51.5" font-family="Helvetica,sans-Serif" font-size="10.00">+ GetFromShow()</text>
<text text-anchor="start" x="210.5" y="-40.5" font-family="Helvetica,sans-Serif" font-size="10.00">+ GetFromPeople()</text>
<text text-anchor="start" x="210.5" y="-29.5" font-family="Helvetica,sans-Serif" font-size="10.00">+ GetFromPeople()</text>
<text text-anchor="start" x="210.5" y="-18.5" font-family="Helvetica,sans-Serif" font-size="10.00"># Validate()</text>
<text text-anchor="start" x="210.5" y="-7.5" font-family="Helvetica,sans-Serif" font-size="10.00"># EditRelations()</text>
</a>
</g>
</g>
<!-- Node2 -->
<g id="node2" class="node">
<title>Node2</title>
<g id="a_node2"><a xlink:href="classKyoo_1_1Controllers_1_1LocalRepository.html" target="_top" xlink:title=" ">
<polygon fill="white" stroke="black" points="0,-281.5 0,-536.5 150,-536.5 150,-281.5 0,-281.5"/>
<text text-anchor="middle" x="75" y="-524.5" font-family="Helvetica,sans-Serif" font-size="10.00">LocalRepository&lt; People &gt;</text>
<polyline fill="none" stroke="black" points="0,-517.5 150,-517.5 "/>
<text text-anchor="start" x="8" y="-505.5" font-family="Helvetica,sans-Serif" font-size="10.00">+ RepositoryType</text>
<text text-anchor="start" x="8" y="-494.5" font-family="Helvetica,sans-Serif" font-size="10.00">+ DefaultSort</text>
<text text-anchor="start" x="8" y="-483.5" font-family="Helvetica,sans-Serif" font-size="10.00"># Database</text>
<polyline fill="none" stroke="black" points="0,-476.5 150,-476.5 "/>
<text text-anchor="start" x="8" y="-464.5" font-family="Helvetica,sans-Serif" font-size="10.00">+ Get()</text>
<text text-anchor="start" x="8" y="-453.5" font-family="Helvetica,sans-Serif" font-size="10.00">+ Get()</text>
<text text-anchor="start" x="8" y="-442.5" font-family="Helvetica,sans-Serif" font-size="10.00">+ Get()</text>
<text text-anchor="start" x="8" y="-431.5" font-family="Helvetica,sans-Serif" font-size="10.00">+ GetOrDefault()</text>
<text text-anchor="start" x="8" y="-420.5" font-family="Helvetica,sans-Serif" font-size="10.00">+ GetOrDefault()</text>
<text text-anchor="start" x="8" y="-409.5" font-family="Helvetica,sans-Serif" font-size="10.00">+ GetOrDefault()</text>
<text text-anchor="start" x="8" y="-398.5" font-family="Helvetica,sans-Serif" font-size="10.00">+ Search()</text>
<text text-anchor="start" x="8" y="-387.5" font-family="Helvetica,sans-Serif" font-size="10.00">+ GetAll()</text>
<text text-anchor="start" x="8" y="-376.5" font-family="Helvetica,sans-Serif" font-size="10.00">+ GetCount()</text>
<text text-anchor="start" x="8" y="-365.5" font-family="Helvetica,sans-Serif" font-size="10.00">+ Create()</text>
<text text-anchor="start" x="8" y="-354.5" font-family="Helvetica,sans-Serif" font-size="10.00">and 9 more...</text>
<text text-anchor="start" x="8" y="-343.5" font-family="Helvetica,sans-Serif" font-size="10.00"># LocalRepository()</text>
<text text-anchor="start" x="8" y="-332.5" font-family="Helvetica,sans-Serif" font-size="10.00"># GetWithTracking()</text>
<text text-anchor="start" x="8" y="-321.5" font-family="Helvetica,sans-Serif" font-size="10.00"># ApplyFilters()</text>
<text text-anchor="start" x="8" y="-310.5" font-family="Helvetica,sans-Serif" font-size="10.00"># ApplyFilters&lt; TValue &gt;()</text>
<text text-anchor="start" x="8" y="-299.5" font-family="Helvetica,sans-Serif" font-size="10.00"># EditRelations()</text>
<text text-anchor="start" x="8" y="-288.5" font-family="Helvetica,sans-Serif" font-size="10.00"># Validate()</text>
</a>
</g>
</g>
<!-- Node2&#45;&gt;Node1 -->
<g id="edge1" class="edge">
<title>Node2&#45;&gt;Node1</title>
<path fill="none" stroke="midnightblue" d="M125.88,-272.19C135.64,-252.3 146.71,-232.61 159,-215 171.43,-197.19 186.58,-179.86 202.2,-163.96"/>
<polygon fill="none" stroke="midnightblue" points="122.66,-270.81 121.48,-281.33 128.97,-273.84 122.66,-270.81"/>
</g>
<!-- Node3 -->
<g id="node3" class="node">
<title>Node3</title>
<g id="a_node3"><a xlink:href="interfaceKyoo_1_1Controllers_1_1IPeopleRepository.html" target="_top" xlink:title="A repository for people.">
<polygon fill="white" stroke="black" points="168,-342 168,-476 278,-476 278,-342 168,-342"/>
<text text-anchor="middle" x="223" y="-464" font-family="Helvetica,sans-Serif" font-size="10.00">IPeopleRepository</text>
<polyline fill="none" stroke="black" points="168,-457 278,-457 "/>
<text text-anchor="middle" x="223" y="-445" font-family="Helvetica,sans-Serif" font-size="10.00"> </text>
<polyline fill="none" stroke="black" points="168,-438 278,-438 "/>
<text text-anchor="start" x="176" y="-426" font-family="Helvetica,sans-Serif" font-size="10.00">+ GetFromShow()</text>
<text text-anchor="start" x="176" y="-415" font-family="Helvetica,sans-Serif" font-size="10.00">+ GetFromShow()</text>
<text text-anchor="start" x="176" y="-404" font-family="Helvetica,sans-Serif" font-size="10.00">+ GetFromShow()</text>
<text text-anchor="start" x="176" y="-393" font-family="Helvetica,sans-Serif" font-size="10.00">+ GetFromShow()</text>
<text text-anchor="start" x="176" y="-382" font-family="Helvetica,sans-Serif" font-size="10.00">+ GetFromPeople()</text>
<text text-anchor="start" x="176" y="-371" font-family="Helvetica,sans-Serif" font-size="10.00">+ GetFromPeople()</text>
<text text-anchor="start" x="176" y="-360" font-family="Helvetica,sans-Serif" font-size="10.00">+ GetFromPeople()</text>
<text text-anchor="start" x="176" y="-349" font-family="Helvetica,sans-Serif" font-size="10.00">+ GetFromPeople()</text>
</a>
</g>
</g>
<!-- Node3&#45;&gt;Node1 -->
<g id="edge2" class="edge">
<title>Node3&#45;&gt;Node1</title>
<path fill="none" stroke="midnightblue" d="M239.97,-331.88C250.96,-282.55 265.28,-218.31 276.56,-167.72"/>
<polygon fill="none" stroke="midnightblue" points="236.5,-331.33 237.74,-341.86 243.34,-332.86 236.5,-331.33"/>
</g>
<!-- Node4 -->
<g id="node4" class="node">
<title>Node4</title>
<g id="a_node4"><a xlink:href="interfaceKyoo_1_1Controllers_1_1IRepository.html" target="_top" xlink:title=" ">
<polygon fill="white" stroke="black" points="157,-640.5 157,-807.5 285,-807.5 285,-640.5 157,-640.5"/>
<text text-anchor="middle" x="221" y="-795.5" font-family="Helvetica,sans-Serif" font-size="10.00">IRepository&lt; People &gt;</text>
<polyline fill="none" stroke="black" points="157,-788.5 285,-788.5 "/>
<text text-anchor="middle" x="221" y="-776.5" font-family="Helvetica,sans-Serif" font-size="10.00"> </text>
<polyline fill="none" stroke="black" points="157,-769.5 285,-769.5 "/>
<text text-anchor="start" x="165" y="-757.5" font-family="Helvetica,sans-Serif" font-size="10.00">+ Get()</text>
<text text-anchor="start" x="165" y="-746.5" font-family="Helvetica,sans-Serif" font-size="10.00">+ Get()</text>
<text text-anchor="start" x="165" y="-735.5" font-family="Helvetica,sans-Serif" font-size="10.00">+ Get()</text>
<text text-anchor="start" x="165" y="-724.5" font-family="Helvetica,sans-Serif" font-size="10.00">+ GetOrDefault()</text>
<text text-anchor="start" x="165" y="-713.5" font-family="Helvetica,sans-Serif" font-size="10.00">+ GetOrDefault()</text>
<text text-anchor="start" x="165" y="-702.5" font-family="Helvetica,sans-Serif" font-size="10.00">+ GetOrDefault()</text>
<text text-anchor="start" x="165" y="-691.5" font-family="Helvetica,sans-Serif" font-size="10.00">+ Search()</text>
<text text-anchor="start" x="165" y="-680.5" font-family="Helvetica,sans-Serif" font-size="10.00">+ GetAll()</text>
<text text-anchor="start" x="165" y="-669.5" font-family="Helvetica,sans-Serif" font-size="10.00">+ GetAll()</text>
<text text-anchor="start" x="165" y="-658.5" font-family="Helvetica,sans-Serif" font-size="10.00">+ GetCount()</text>
<text text-anchor="start" x="165" y="-647.5" font-family="Helvetica,sans-Serif" font-size="10.00">and 13 more...</text>
</a>
</g>
</g>
<!-- Node4&#45;&gt;Node3 -->
<g id="edge3" class="edge">
<title>Node4&#45;&gt;Node3</title>
<path fill="none" stroke="midnightblue" d="M221.59,-630.26C221.91,-580.68 222.29,-520.81 222.58,-476.01"/>
<polygon fill="none" stroke="midnightblue" points="218.09,-630.33 221.53,-640.35 225.09,-630.38 218.09,-630.33"/>
</g>
<!-- Node5 -->
<g id="node5" class="node">
<title>Node5</title>
<g id="a_node5"><a xlink:href="interfaceKyoo_1_1Controllers_1_1IProviderRepository.html" target="_top" xlink:title="A repository to handle providers.">
<polygon fill="white" stroke="black" points="296.5,-369.5 296.5,-448.5 439.5,-448.5 439.5,-369.5 296.5,-369.5"/>
<text text-anchor="start" x="304.5" y="-436.5" font-family="Helvetica,sans-Serif" font-size="10.00">Kyoo.Controllers.IProvider</text>
<text text-anchor="middle" x="368" y="-425.5" font-family="Helvetica,sans-Serif" font-size="10.00">Repository</text>
<polyline fill="none" stroke="black" points="296.5,-418.5 439.5,-418.5 "/>
<text text-anchor="middle" x="368" y="-406.5" font-family="Helvetica,sans-Serif" font-size="10.00"> </text>
<polyline fill="none" stroke="black" points="296.5,-399.5 439.5,-399.5 "/>
<text text-anchor="start" x="304.5" y="-387.5" font-family="Helvetica,sans-Serif" font-size="10.00">+ GetMetadataID()</text>
<text text-anchor="start" x="304.5" y="-376.5" font-family="Helvetica,sans-Serif" font-size="10.00">+ GetMetadataID()</text>
</a>
</g>
</g>
<!-- Node5&#45;&gt;Node1 -->
<g id="edge4" class="edge">
<title>Node5&#45;&gt;Node1</title>
<path fill="none" stroke="#404040" d="M359.27,-369.36C348.74,-322.8 330.69,-242.93 316.4,-179.67"/>
<polygon fill="none" stroke="#404040" points="316.33,-179.37 311.1,-174.4 313.68,-167.66 318.91,-172.63 316.33,-179.37"/>
<text text-anchor="middle" x="348" y="-189" font-family="Helvetica,sans-Serif" font-size="10.00"> &#45;_providers</text>
</g>
<!-- Node6 -->
<g id="node6" class="node">
<title>Node6</title>
<g id="a_node6"><a xlink:href="interfaceKyoo_1_1Controllers_1_1IRepository.html" target="_top" xlink:title=" ">
<polygon fill="white" stroke="black" points="303.5,-640.5 303.5,-807.5 438.5,-807.5 438.5,-640.5 303.5,-640.5"/>
<text text-anchor="middle" x="371" y="-795.5" font-family="Helvetica,sans-Serif" font-size="10.00">IRepository&lt; Provider &gt;</text>
<polyline fill="none" stroke="black" points="303.5,-788.5 438.5,-788.5 "/>
<text text-anchor="middle" x="371" y="-776.5" font-family="Helvetica,sans-Serif" font-size="10.00"> </text>
<polyline fill="none" stroke="black" points="303.5,-769.5 438.5,-769.5 "/>
<text text-anchor="start" x="311.5" y="-757.5" font-family="Helvetica,sans-Serif" font-size="10.00">+ Get()</text>
<text text-anchor="start" x="311.5" y="-746.5" font-family="Helvetica,sans-Serif" font-size="10.00">+ Get()</text>
<text text-anchor="start" x="311.5" y="-735.5" font-family="Helvetica,sans-Serif" font-size="10.00">+ Get()</text>
<text text-anchor="start" x="311.5" y="-724.5" font-family="Helvetica,sans-Serif" font-size="10.00">+ GetOrDefault()</text>
<text text-anchor="start" x="311.5" y="-713.5" font-family="Helvetica,sans-Serif" font-size="10.00">+ GetOrDefault()</text>
<text text-anchor="start" x="311.5" y="-702.5" font-family="Helvetica,sans-Serif" font-size="10.00">+ GetOrDefault()</text>
<text text-anchor="start" x="311.5" y="-691.5" font-family="Helvetica,sans-Serif" font-size="10.00">+ Search()</text>
<text text-anchor="start" x="311.5" y="-680.5" font-family="Helvetica,sans-Serif" font-size="10.00">+ GetAll()</text>
<text text-anchor="start" x="311.5" y="-669.5" font-family="Helvetica,sans-Serif" font-size="10.00">+ GetAll()</text>
<text text-anchor="start" x="311.5" y="-658.5" font-family="Helvetica,sans-Serif" font-size="10.00">+ GetCount()</text>
<text text-anchor="start" x="311.5" y="-647.5" font-family="Helvetica,sans-Serif" font-size="10.00">and 13 more...</text>
</a>
</g>
</g>
<!-- Node6&#45;&gt;Node5 -->
<g id="edge5" class="edge">
<title>Node6&#45;&gt;Node5</title>
<path fill="none" stroke="midnightblue" d="M370.11,-630.02C369.53,-569.55 368.8,-493.84 368.37,-448.84"/>
<polygon fill="none" stroke="midnightblue" points="366.61,-630.39 370.21,-640.35 373.61,-630.32 366.61,-630.39"/>
</g>
<!-- Node7 -->
<g id="node7" class="node">
<title>Node7</title>
<g id="a_node7"><a xlink:href="classKyoo_1_1DatabaseContext.html" target="_top" xlink:title="The database handle used for all local repositories. This is an abstract class. It is meant to be imp...">
<polygon fill="white" stroke="black" points="458,-215.5 458,-602.5 622,-602.5 622,-215.5 458,-215.5"/>
<text text-anchor="middle" x="540" y="-590.5" font-family="Helvetica,sans-Serif" font-size="10.00">Kyoo.DatabaseContext</text>
<polyline fill="none" stroke="black" points="458,-583.5 622,-583.5 "/>
<text text-anchor="start" x="466" y="-571.5" font-family="Helvetica,sans-Serif" font-size="10.00">+ Libraries</text>
<text text-anchor="start" x="466" y="-560.5" font-family="Helvetica,sans-Serif" font-size="10.00">+ Collections</text>
<text text-anchor="start" x="466" y="-549.5" font-family="Helvetica,sans-Serif" font-size="10.00">+ Shows</text>
<text text-anchor="start" x="466" y="-538.5" font-family="Helvetica,sans-Serif" font-size="10.00">+ Seasons</text>
<text text-anchor="start" x="466" y="-527.5" font-family="Helvetica,sans-Serif" font-size="10.00">+ Episodes</text>
<text text-anchor="start" x="466" y="-516.5" font-family="Helvetica,sans-Serif" font-size="10.00">+ Tracks</text>
<text text-anchor="start" x="466" y="-505.5" font-family="Helvetica,sans-Serif" font-size="10.00">+ Genres</text>
<text text-anchor="start" x="466" y="-494.5" font-family="Helvetica,sans-Serif" font-size="10.00">+ People</text>
<text text-anchor="start" x="466" y="-483.5" font-family="Helvetica,sans-Serif" font-size="10.00">+ Studios</text>
<text text-anchor="start" x="466" y="-472.5" font-family="Helvetica,sans-Serif" font-size="10.00">+ Providers</text>
<text text-anchor="start" x="466" y="-461.5" font-family="Helvetica,sans-Serif" font-size="10.00">+ MetadataIds</text>
<text text-anchor="start" x="466" y="-450.5" font-family="Helvetica,sans-Serif" font-size="10.00">+ Users</text>
<text text-anchor="start" x="466" y="-439.5" font-family="Helvetica,sans-Serif" font-size="10.00">+ PeopleRoles</text>
<text text-anchor="start" x="466" y="-428.5" font-family="Helvetica,sans-Serif" font-size="10.00">+ WatchedEpisodes</text>
<polyline fill="none" stroke="black" points="458,-421.5 622,-421.5 "/>
<text text-anchor="start" x="466" y="-409.5" font-family="Helvetica,sans-Serif" font-size="10.00">+ Links&lt; T1, T2 &gt;()</text>
<text text-anchor="start" x="466" y="-398.5" font-family="Helvetica,sans-Serif" font-size="10.00">+ GetTemporaryObject&lt; T &gt;()</text>
<text text-anchor="start" x="466" y="-387.5" font-family="Helvetica,sans-Serif" font-size="10.00">+ SaveChanges()</text>
<text text-anchor="start" x="466" y="-376.5" font-family="Helvetica,sans-Serif" font-size="10.00">+ SaveChanges()</text>
<text text-anchor="start" x="466" y="-365.5" font-family="Helvetica,sans-Serif" font-size="10.00">+ SaveChanges()</text>
<text text-anchor="start" x="466" y="-354.5" font-family="Helvetica,sans-Serif" font-size="10.00">+ SaveChangesAsync()</text>
<text text-anchor="start" x="466" y="-343.5" font-family="Helvetica,sans-Serif" font-size="10.00">+ SaveChangesAsync()</text>
<text text-anchor="start" x="466" y="-332.5" font-family="Helvetica,sans-Serif" font-size="10.00">+ SaveChangesAsync()</text>
<text text-anchor="start" x="466" y="-321.5" font-family="Helvetica,sans-Serif" font-size="10.00">+ SaveIfNoDuplicates()</text>
<text text-anchor="start" x="466" y="-310.5" font-family="Helvetica,sans-Serif" font-size="10.00">+ SaveOrRetry&lt; T &gt;()</text>
<text text-anchor="start" x="466" y="-299.5" font-family="Helvetica,sans-Serif" font-size="10.00">+ Like&lt; T &gt;()</text>
<text text-anchor="start" x="466" y="-288.5" font-family="Helvetica,sans-Serif" font-size="10.00"># DatabaseContext()</text>
<text text-anchor="start" x="466" y="-277.5" font-family="Helvetica,sans-Serif" font-size="10.00"># DatabaseContext()</text>
<text text-anchor="start" x="466" y="-266.5" font-family="Helvetica,sans-Serif" font-size="10.00"># OnConfiguring()</text>
<text text-anchor="start" x="466" y="-255.5" font-family="Helvetica,sans-Serif" font-size="10.00"># OnModelCreating()</text>
<text text-anchor="start" x="466" y="-244.5" font-family="Helvetica,sans-Serif" font-size="10.00"># IsDuplicateException()</text>
<text text-anchor="start" x="466" y="-233.5" font-family="Helvetica,sans-Serif" font-size="10.00">&#45; SaveOrRetry&lt; T &gt;()</text>
<text text-anchor="start" x="466" y="-222.5" font-family="Helvetica,sans-Serif" font-size="10.00">&#45; DiscardChanges()</text>
</a>
</g>
</g>
<!-- Node7&#45;&gt;Node1 -->
<g id="edge6" class="edge">
<title>Node7&#45;&gt;Node1</title>
<path fill="none" stroke="#404040" d="M457.94,-228.64C454.71,-223.97 451.39,-219.41 448,-215 433.21,-195.77 415.15,-177.38 396.69,-160.81"/>
<polygon fill="none" stroke="#404040" points="396.62,-160.74 389.47,-159.78 387.61,-152.82 394.76,-153.78 396.62,-160.74"/>
<text text-anchor="middle" x="460" y="-189" font-family="Helvetica,sans-Serif" font-size="10.00"> &#45;_database</text>
</g>
<!-- Node8 -->
<g id="node8" class="node">
<title>Node8</title>
<g id="a_node8"><a xlink:title=" ">
<polygon fill="white" stroke="#bfbfbf" points="506,-695.5 506,-752.5 574,-752.5 574,-695.5 506,-695.5"/>
<text text-anchor="middle" x="540" y="-740.5" font-family="Helvetica,sans-Serif" font-size="10.00">DbContext</text>
<polyline fill="none" stroke="#bfbfbf" points="506,-733.5 574,-733.5 "/>
<text text-anchor="middle" x="540" y="-721.5" font-family="Helvetica,sans-Serif" font-size="10.00"> </text>
<polyline fill="none" stroke="#bfbfbf" points="506,-714.5 574,-714.5 "/>
<text text-anchor="middle" x="540" y="-702.5" font-family="Helvetica,sans-Serif" font-size="10.00"> </text>
</a>
</g>
</g>
<!-- Node8&#45;&gt;Node7 -->
<g id="edge7" class="edge">
<title>Node8&#45;&gt;Node7</title>
<path fill="none" stroke="midnightblue" d="M540,-685.41C540,-663.57 540,-634.21 540,-602.79"/>
<polygon fill="none" stroke="midnightblue" points="536.5,-685.5 540,-695.5 543.5,-685.5 536.5,-685.5"/>
</g>
</g>
</svg>
