<?xml version="1.0" encoding="UTF-8" standalone="no"?>
<!DOCTYPE svg PUBLIC "-//W3C//DTD SVG 1.1//EN"
 "http://www.w3.org/Graphics/SVG/1.1/DTD/svg11.dtd">
<!-- Generated by graphviz version 2.43.0 (0)
 -->
<!-- Title: Kyoo.Api.ConvertSubripToVtt Pages: 1 -->
<svg width="270pt" height="270pt"
 viewBox="0.00 0.00 270.00 270.00" xmlns="http://www.w3.org/2000/svg" xmlns:xlink="http://www.w3.org/1999/xlink">
<g id="graph0" class="graph" transform="scale(1 1) rotate(0) translate(4 266)">
<title>Kyoo.Api.ConvertSubripToVtt</title>
<polygon fill="white" stroke="transparent" points="-4,4 -4,-266 266,-266 266,4 -4,4"/>
<!-- Node1 -->
<g id="node1" class="node">
<title>Node1</title>
<g id="a_node1"><a xlink:title=" ">
<polygon fill="#bfbfbf" stroke="black" points="32.5,-0.5 32.5,-79.5 188.5,-79.5 188.5,-0.5 32.5,-0.5"/>
<text text-anchor="middle" x="110.5" y="-67.5" font-family="Helvetica,sans-Serif" font-size="10.00">Kyoo.Api.ConvertSubripToVtt</text>
<polyline fill="none" stroke="black" points="32.5,-60.5 188.5,-60.5 "/>
<text text-anchor="start" x="40.5" y="-48.5" font-family="Helvetica,sans-Serif" font-size="10.00">&#45; _path</text>
<polyline fill="none" stroke="black" points="32.5,-41.5 188.5,-41.5 "/>
<text text-anchor="start" x="40.5" y="-29.5" font-family="Helvetica,sans-Serif" font-size="10.00">+ ConvertSubripToVtt()</text>
<text text-anchor="start" x="40.5" y="-18.5" font-family="Helvetica,sans-Serif" font-size="10.00">+ ExecuteResultAsync()</text>
<text text-anchor="start" x="40.5" y="-7.5" font-family="Helvetica,sans-Serif" font-size="10.00">&#45; ConvertBlock()</text>
</a>
</g>
</g>
<!-- Node2 -->
<g id="node2" class="node">
<title>Node2</title>
<g id="a_node2"><a xlink:title=" ">
<polygon fill="white" stroke="#bfbfbf" points="0,-166 0,-223 81,-223 81,-166 0,-166"/>
<text text-anchor="middle" x="40.5" y="-211" font-family="Helvetica,sans-Serif" font-size="10.00">IActionResult</text>
<polyline fill="none" stroke="#bfbfbf" points="0,-204 81,-204 "/>
<text text-anchor="middle" x="40.5" y="-192" font-family="Helvetica,sans-Serif" font-size="10.00"> </text>
<polyline fill="none" stroke="#bfbfbf" points="0,-185 81,-185 "/>
<text text-anchor="middle" x="40.5" y="-173" font-family="Helvetica,sans-Serif" font-size="10.00"> </text>
</a>
</g>
</g>
<!-- Node2&#45;&gt;Node1 -->
<g id="edge1" class="edge">
<title>Node2&#45;&gt;Node1</title>
<path fill="none" stroke="midnightblue" d="M57.41,-156.67C68.11,-133.35 81.93,-103.24 92.78,-79.6"/>
<polygon fill="none" stroke="midnightblue" points="54.17,-155.33 53.18,-165.88 60.53,-158.26 54.17,-155.33"/>
</g>
<!-- Node3 -->
<g id="node3" class="node">
<title>Node3</title>
<g id="a_node3"><a xlink:href="interfaceKyoo_1_1Controllers_1_1IFileManager.html" target="_top" xlink:title="A service to abstract the file system to allow custom file systems (like distant file systems or exte...">
<polygon fill="white" stroke="black" points="99,-127.5 99,-261.5 262,-261.5 262,-127.5 99,-127.5"/>
<text text-anchor="middle" x="180.5" y="-249.5" font-family="Helvetica,sans-Serif" font-size="10.00">Kyoo.Controllers.IFileManager</text>
<polyline fill="none" stroke="black" points="99,-242.5 262,-242.5 "/>
<text text-anchor="middle" x="180.5" y="-230.5" font-family="Helvetica,sans-Serif" font-size="10.00"> </text>
<polyline fill="none" stroke="black" points="99,-223.5 262,-223.5 "/>
<text text-anchor="start" x="107" y="-211.5" font-family="Helvetica,sans-Serif" font-size="10.00">+ FileResult()</text>
<text text-anchor="start" x="107" y="-200.5" font-family="Helvetica,sans-Serif" font-size="10.00">+ GetReader()</text>
<text text-anchor="start" x="107" y="-189.5" font-family="Helvetica,sans-Serif" font-size="10.00">+ NewFile()</text>
<text text-anchor="start" x="107" y="-178.5" font-family="Helvetica,sans-Serif" font-size="10.00">+ ListFiles()</text>
<text text-anchor="start" x="107" y="-167.5" font-family="Helvetica,sans-Serif" font-size="10.00">+ Exists()</text>
<text text-anchor="start" x="107" y="-156.5" font-family="Helvetica,sans-Serif" font-size="10.00">+ GetExtraDirectory()</text>
<text text-anchor="start" x="107" y="-145.5" font-family="Helvetica,sans-Serif" font-size="10.00">+ GetExtraDirectory()</text>
<text text-anchor="start" x="107" y="-134.5" font-family="Helvetica,sans-Serif" font-size="10.00">+ GetExtraDirectory()</text>
</a>
</g>
</g>
<!-- Node3&#45;&gt;Node1 -->
<g id="edge2" class="edge">
<title>Node3&#45;&gt;Node1</title>
<path fill="none" stroke="#404040" d="M150.2,-127.5C144.55,-115.18 138.72,-102.49 133.34,-90.76"/>
<polygon fill="none" stroke="#404040" points="133.34,-90.75 127.2,-86.97 128.33,-79.85 134.47,-83.63 133.34,-90.75"/>
<text text-anchor="middle" x="158" y="-101" font-family="Helvetica,sans-Serif" font-size="10.00"> &#45;_files</text>
</g>
</g>
</svg>
