<?xml version="1.0" encoding="UTF-8" standalone="no"?>
<!DOCTYPE svg PUBLIC "-//W3C//DTD SVG 1.1//EN"
 "http://www.w3.org/Graphics/SVG/1.1/DTD/svg11.dtd">
<!-- Generated by graphviz version 2.43.0 (0)
 -->
<!-- Title: Kyoo.Api.LibraryApi Pages: 1 -->
<svg width="467pt" height="479pt"
 viewBox="0.00 0.00 466.50 479.00" xmlns="http://www.w3.org/2000/svg" xmlns:xlink="http://www.w3.org/1999/xlink">
<g id="graph0" class="graph" transform="scale(1 1) rotate(0) translate(4 475)">
<title>Kyoo.Api.LibraryApi</title>
<polygon fill="white" stroke="transparent" points="-4,4 -4,-475 462.5,-475 462.5,4 -4,4"/>
<!-- Node1 -->
<g id="node1" class="node">
<title>Node1</title>
<g id="a_node1"><a xlink:title=" ">
<polygon fill="#bfbfbf" stroke="black" points="164,-0.5 164,-134.5 276,-134.5 276,-0.5 164,-0.5"/>
<text text-anchor="middle" x="220" y="-122.5" font-family="Helvetica,sans-Serif" font-size="10.00">Kyoo.Api.LibraryApi</text>
<polyline fill="none" stroke="black" points="164,-115.5 276,-115.5 "/>
<text text-anchor="middle" x="220" y="-103.5" font-family="Helvetica,sans-Serif" font-size="10.00"> </text>
<polyline fill="none" stroke="black" points="164,-96.5 276,-96.5 "/>
<text text-anchor="start" x="172" y="-84.5" font-family="Helvetica,sans-Serif" font-size="10.00">+ LibraryApi()</text>
<text text-anchor="start" x="172" y="-73.5" font-family="Helvetica,sans-Serif" font-size="10.00">+ Create()</text>
<text text-anchor="start" x="172" y="-62.5" font-family="Helvetica,sans-Serif" font-size="10.00">+ GetShows()</text>
<text text-anchor="start" x="172" y="-51.5" font-family="Helvetica,sans-Serif" font-size="10.00">+ GetShows()</text>
<text text-anchor="start" x="172" y="-40.5" font-family="Helvetica,sans-Serif" font-size="10.00">+ GetCollections()</text>
<text text-anchor="start" x="172" y="-29.5" font-family="Helvetica,sans-Serif" font-size="10.00">+ GetCollections()</text>
<text text-anchor="start" x="172" y="-18.5" font-family="Helvetica,sans-Serif" font-size="10.00">+ GetItems()</text>
<text text-anchor="start" x="172" y="-7.5" font-family="Helvetica,sans-Serif" font-size="10.00">+ GetItems()</text>
</a>
</g>
</g>
<!-- Node2 -->
<g id="node2" class="node">
<title>Node2</title>
<g id="a_node2"><a xlink:href="classKyoo_1_1CommonApi_1_1CrudApi.html" target="_top" xlink:title=" ">
<polygon fill="white" stroke="black" points="0,-226.5 0,-426.5 118,-426.5 118,-226.5 0,-226.5"/>
<text text-anchor="middle" x="59" y="-414.5" font-family="Helvetica,sans-Serif" font-size="10.00">CrudApi&lt; Library &gt;</text>
<polyline fill="none" stroke="black" points="0,-407.5 118,-407.5 "/>
<text text-anchor="start" x="8" y="-395.5" font-family="Helvetica,sans-Serif" font-size="10.00"># BaseURL</text>
<text text-anchor="start" x="8" y="-384.5" font-family="Helvetica,sans-Serif" font-size="10.00">&#45; _repository</text>
<polyline fill="none" stroke="black" points="0,-377.5 118,-377.5 "/>
<text text-anchor="start" x="8" y="-365.5" font-family="Helvetica,sans-Serif" font-size="10.00">+ CrudApi()</text>
<text text-anchor="start" x="8" y="-354.5" font-family="Helvetica,sans-Serif" font-size="10.00">+ Get()</text>
<text text-anchor="start" x="8" y="-343.5" font-family="Helvetica,sans-Serif" font-size="10.00">+ Get()</text>
<text text-anchor="start" x="8" y="-332.5" font-family="Helvetica,sans-Serif" font-size="10.00">+ GetCount()</text>
<text text-anchor="start" x="8" y="-321.5" font-family="Helvetica,sans-Serif" font-size="10.00">+ GetAll()</text>
<text text-anchor="start" x="8" y="-310.5" font-family="Helvetica,sans-Serif" font-size="10.00">+ Create()</text>
<text text-anchor="start" x="8" y="-299.5" font-family="Helvetica,sans-Serif" font-size="10.00">+ Edit()</text>
<text text-anchor="start" x="8" y="-288.5" font-family="Helvetica,sans-Serif" font-size="10.00">+ Edit()</text>
<text text-anchor="start" x="8" y="-277.5" font-family="Helvetica,sans-Serif" font-size="10.00">+ Edit()</text>
<text text-anchor="start" x="8" y="-266.5" font-family="Helvetica,sans-Serif" font-size="10.00">+ Delete()</text>
<text text-anchor="start" x="8" y="-255.5" font-family="Helvetica,sans-Serif" font-size="10.00">+ Delete()</text>
<text text-anchor="start" x="8" y="-244.5" font-family="Helvetica,sans-Serif" font-size="10.00">+ Delete()</text>
<text text-anchor="start" x="8" y="-233.5" font-family="Helvetica,sans-Serif" font-size="10.00"># Page&lt; TResult &gt;()</text>
</a>
</g>
</g>
<!-- Node2&#45;&gt;Node1 -->
<g id="edge1" class="edge">
<title>Node2&#45;&gt;Node1</title>
<path fill="none" stroke="midnightblue" d="M106.94,-216.94C113.27,-204.92 120.01,-193.04 127,-182 137.83,-164.89 150.91,-147.46 163.79,-131.56"/>
<polygon fill="none" stroke="midnightblue" points="103.66,-215.66 102.18,-226.15 109.88,-218.87 103.66,-215.66"/>
</g>
<!-- Node3 -->
<g id="node3" class="node">
<title>Node3</title>
<g id="a_node3"><a xlink:href="interfaceKyoo_1_1Controllers_1_1ITaskManager.html" target="_top" xlink:title="A service to handle long running tasks.">
<polygon fill="white" stroke="black" points="136.5,-287 136.5,-366 303.5,-366 303.5,-287 136.5,-287"/>
<text text-anchor="middle" x="220" y="-354" font-family="Helvetica,sans-Serif" font-size="10.00">Kyoo.Controllers.ITaskManager</text>
<polyline fill="none" stroke="black" points="136.5,-347 303.5,-347 "/>
<text text-anchor="middle" x="220" y="-335" font-family="Helvetica,sans-Serif" font-size="10.00"> </text>
<polyline fill="none" stroke="black" points="136.5,-328 303.5,-328 "/>
<text text-anchor="start" x="144.5" y="-316" font-family="Helvetica,sans-Serif" font-size="10.00">+ StartTask()</text>
<text text-anchor="start" x="144.5" y="-305" font-family="Helvetica,sans-Serif" font-size="10.00">+ GetRunningTasks()</text>
<text text-anchor="start" x="144.5" y="-294" font-family="Helvetica,sans-Serif" font-size="10.00">+ GetAllTasks()</text>
</a>
</g>
</g>
<!-- Node3&#45;&gt;Node1 -->
<g id="edge2" class="edge">
<title>Node3&#45;&gt;Node1</title>
<path fill="none" stroke="#404040" d="M220,-286.75C220,-249.8 220,-193.09 220,-146.74"/>
<polygon fill="none" stroke="#404040" points="220,-146.58 216,-140.58 220,-134.58 224,-140.58 220,-146.58"/>
<text text-anchor="middle" x="258" y="-156" font-family="Helvetica,sans-Serif" font-size="10.00"> &#45;_taskManager</text>
</g>
<!-- Node4 -->
<g id="node4" class="node">
<title>Node4</title>
<g id="a_node4"><a xlink:href="interfaceKyoo_1_1Controllers_1_1ILibraryManager.html" target="_top" xlink:title="An interface to interract with the database. Every repository is mapped through here.">
<polygon fill="white" stroke="black" points="321.5,-182.5 321.5,-470.5 458.5,-470.5 458.5,-182.5 321.5,-182.5"/>
<text text-anchor="start" x="329.5" y="-458.5" font-family="Helvetica,sans-Serif" font-size="10.00">Kyoo.Controllers.ILibrary</text>
<text text-anchor="middle" x="390" y="-447.5" font-family="Helvetica,sans-Serif" font-size="10.00">Manager</text>
<polyline fill="none" stroke="black" points="321.5,-440.5 458.5,-440.5 "/>
<text text-anchor="start" x="329.5" y="-428.5" font-family="Helvetica,sans-Serif" font-size="10.00">+ LibraryRepository</text>
<text text-anchor="start" x="329.5" y="-417.5" font-family="Helvetica,sans-Serif" font-size="10.00">+ LibraryItemRepository</text>
<text text-anchor="start" x="329.5" y="-406.5" font-family="Helvetica,sans-Serif" font-size="10.00">+ CollectionRepository</text>
<text text-anchor="start" x="329.5" y="-395.5" font-family="Helvetica,sans-Serif" font-size="10.00">+ ShowRepository</text>
<text text-anchor="start" x="329.5" y="-384.5" font-family="Helvetica,sans-Serif" font-size="10.00">+ SeasonRepository</text>
<text text-anchor="start" x="329.5" y="-373.5" font-family="Helvetica,sans-Serif" font-size="10.00">+ EpisodeRepository</text>
<text text-anchor="start" x="329.5" y="-362.5" font-family="Helvetica,sans-Serif" font-size="10.00">+ TrackRepository</text>
<text text-anchor="start" x="329.5" y="-351.5" font-family="Helvetica,sans-Serif" font-size="10.00">+ PeopleRepository</text>
<text text-anchor="start" x="329.5" y="-340.5" font-family="Helvetica,sans-Serif" font-size="10.00">+ StudioRepository</text>
<text text-anchor="start" x="329.5" y="-329.5" font-family="Helvetica,sans-Serif" font-size="10.00">+ GenreRepository</text>
<text text-anchor="start" x="329.5" y="-318.5" font-family="Helvetica,sans-Serif" font-size="10.00">+ ProviderRepository</text>
<polyline fill="none" stroke="black" points="321.5,-311.5 458.5,-311.5 "/>
<text text-anchor="start" x="329.5" y="-299.5" font-family="Helvetica,sans-Serif" font-size="10.00">+ GetRepository&lt; T &gt;()</text>
<text text-anchor="start" x="329.5" y="-288.5" font-family="Helvetica,sans-Serif" font-size="10.00">+ Get&lt; T &gt;()</text>
<text text-anchor="start" x="329.5" y="-277.5" font-family="Helvetica,sans-Serif" font-size="10.00">+ Get&lt; T &gt;()</text>
<text text-anchor="start" x="329.5" y="-266.5" font-family="Helvetica,sans-Serif" font-size="10.00">+ Get&lt; T &gt;()</text>
<text text-anchor="start" x="329.5" y="-255.5" font-family="Helvetica,sans-Serif" font-size="10.00">+ Get()</text>
<text text-anchor="start" x="329.5" y="-244.5" font-family="Helvetica,sans-Serif" font-size="10.00">+ Get()</text>
<text text-anchor="start" x="329.5" y="-233.5" font-family="Helvetica,sans-Serif" font-size="10.00">+ Get()</text>
<text text-anchor="start" x="329.5" y="-222.5" font-family="Helvetica,sans-Serif" font-size="10.00">+ Get()</text>
<text text-anchor="start" x="329.5" y="-211.5" font-family="Helvetica,sans-Serif" font-size="10.00">+ Get()</text>
<text text-anchor="start" x="329.5" y="-200.5" font-family="Helvetica,sans-Serif" font-size="10.00">+ GetOrDefault&lt; T &gt;()</text>
<text text-anchor="start" x="329.5" y="-189.5" font-family="Helvetica,sans-Serif" font-size="10.00">and 35 more...</text>
</a>
</g>
</g>
<!-- Node4&#45;&gt;Node1 -->
<g id="edge3" class="edge">
<title>Node4&#45;&gt;Node1</title>
<path fill="none" stroke="#404040" d="M321.3,-185.56C314.49,-174.31 307.35,-163.31 300,-153 295.19,-146.26 289.87,-139.51 284.33,-132.93"/>
<polygon fill="none" stroke="#404040" points="283.95,-132.49 277,-130.58 276.08,-123.43 283.04,-125.34 283.95,-132.49"/>
<text text-anchor="middle" x="348.5" y="-156" font-family="Helvetica,sans-Serif" font-size="10.00"> &#45;_libraryManager</text>
</g>
</g>
</svg>
