<?xml version="1.0" encoding="UTF-8" standalone="no"?>
<!DOCTYPE svg PUBLIC "-//W3C//DTD SVG 1.1//EN"
 "http://www.w3.org/Graphics/SVG/1.1/DTD/svg11.dtd">
<!-- Generated by graphviz version 2.43.0 (0)
 -->
<!-- Title: Kyoo.Authentication.Views.AccountApi Pages: 1 -->
<svg width="555pt" height="574pt"
 viewBox="0.00 0.00 555.00 574.00" xmlns="http://www.w3.org/2000/svg" xmlns:xlink="http://www.w3.org/1999/xlink">
<g id="graph0" class="graph" transform="scale(1 1) rotate(0) translate(4 570)">
<title>Kyoo.Authentication.Views.AccountApi</title>
<polygon fill="white" stroke="transparent" points="-4,4 -4,-570 551,-570 551,4 -4,4"/>
<!-- Node1 -->
<g id="node1" class="node">
<title>Node1</title>
<g id="a_node1"><a xlink:title="The class responsible for login, logout, permissions and claims of a user.">
<polygon fill="#bfbfbf" stroke="black" points="97.5,-0.5 97.5,-178.5 247.5,-178.5 247.5,-0.5 97.5,-0.5"/>
<text text-anchor="start" x="105.5" y="-166.5" font-family="Helvetica,sans-Serif" font-size="10.00">Kyoo.Authentication.Views.</text>
<text text-anchor="middle" x="172.5" y="-155.5" font-family="Helvetica,sans-Serif" font-size="10.00">AccountApi</text>
<polyline fill="none" stroke="black" points="97.5,-148.5 247.5,-148.5 "/>
<text text-anchor="start" x="105.5" y="-136.5" font-family="Helvetica,sans-Serif" font-size="10.00">&#45; _options</text>
<polyline fill="none" stroke="black" points="97.5,-129.5 247.5,-129.5 "/>
<text text-anchor="start" x="105.5" y="-117.5" font-family="Helvetica,sans-Serif" font-size="10.00">+ AccountApi()</text>
<text text-anchor="start" x="105.5" y="-106.5" font-family="Helvetica,sans-Serif" font-size="10.00">+ Register()</text>
<text text-anchor="start" x="105.5" y="-95.5" font-family="Helvetica,sans-Serif" font-size="10.00">+ Login()</text>
<text text-anchor="start" x="105.5" y="-84.5" font-family="Helvetica,sans-Serif" font-size="10.00">+ OtacLogin()</text>
<text text-anchor="start" x="105.5" y="-73.5" font-family="Helvetica,sans-Serif" font-size="10.00">+ Logout()</text>
<text text-anchor="start" x="105.5" y="-62.5" font-family="Helvetica,sans-Serif" font-size="10.00">+ GetProfileDataAsync()</text>
<text text-anchor="start" x="105.5" y="-51.5" font-family="Helvetica,sans-Serif" font-size="10.00">+ IsActiveAsync()</text>
<text text-anchor="start" x="105.5" y="-40.5" font-family="Helvetica,sans-Serif" font-size="10.00">+ GetPicture()</text>
<text text-anchor="start" x="105.5" y="-29.5" font-family="Helvetica,sans-Serif" font-size="10.00">+ Update()</text>
<text text-anchor="start" x="105.5" y="-18.5" font-family="Helvetica,sans-Serif" font-size="10.00">+ GetDefaultPermissions()</text>
<text text-anchor="start" x="105.5" y="-7.5" font-family="Helvetica,sans-Serif" font-size="10.00">&#45; StayLogged()</text>
</a>
</g>
</g>
<!-- Node2 -->
<g id="node2" class="node">
<title>Node2</title>
<g id="a_node2"><a xlink:title=" ">
<polygon fill="white" stroke="#bfbfbf" points="0,-265 0,-322 65,-322 65,-265 0,-265"/>
<text text-anchor="middle" x="32.5" y="-310" font-family="Helvetica,sans-Serif" font-size="10.00">Controller</text>
<polyline fill="none" stroke="#bfbfbf" points="0,-303 65,-303 "/>
<text text-anchor="middle" x="32.5" y="-291" font-family="Helvetica,sans-Serif" font-size="10.00"> </text>
<polyline fill="none" stroke="#bfbfbf" points="0,-284 65,-284 "/>
<text text-anchor="middle" x="32.5" y="-272" font-family="Helvetica,sans-Serif" font-size="10.00"> </text>
</a>
</g>
</g>
<!-- Node2&#45;&gt;Node1 -->
<g id="edge1" class="edge">
<title>Node2&#45;&gt;Node1</title>
<path fill="none" stroke="midnightblue" d="M54.98,-255.99C61.18,-246.17 68,-235.61 74.5,-226 84.91,-210.61 96.24,-194.45 107.38,-178.86"/>
<polygon fill="none" stroke="midnightblue" points="51.84,-254.42 49.49,-264.75 57.77,-258.14 51.84,-254.42"/>
</g>
<!-- Node3 -->
<g id="node3" class="node">
<title>Node3</title>
<g id="a_node3"><a xlink:title=" ">
<polygon fill="white" stroke="#bfbfbf" points="83.5,-265 83.5,-322 169.5,-322 169.5,-265 83.5,-265"/>
<text text-anchor="middle" x="126.5" y="-310" font-family="Helvetica,sans-Serif" font-size="10.00">IProfileService</text>
<polyline fill="none" stroke="#bfbfbf" points="83.5,-303 169.5,-303 "/>
<text text-anchor="middle" x="126.5" y="-291" font-family="Helvetica,sans-Serif" font-size="10.00"> </text>
<polyline fill="none" stroke="#bfbfbf" points="83.5,-284 169.5,-284 "/>
<text text-anchor="middle" x="126.5" y="-272" font-family="Helvetica,sans-Serif" font-size="10.00"> </text>
</a>
</g>
</g>
<!-- Node3&#45;&gt;Node1 -->
<g id="edge2" class="edge">
<title>Node3&#45;&gt;Node1</title>
<path fill="none" stroke="midnightblue" d="M135.08,-254.82C139.98,-233.28 146.35,-205.32 152.44,-178.58"/>
<polygon fill="none" stroke="midnightblue" points="131.61,-254.31 132.8,-264.84 138.43,-255.86 131.61,-254.31"/>
</g>
<!-- Node4 -->
<g id="node4" class="node">
<title>Node4</title>
<g id="a_node4"><a xlink:href="interfaceKyoo_1_1Controllers_1_1IUserRepository.html" target="_top" xlink:title="A repository to handle users.">
<polygon fill="white" stroke="black" points="187.5,-265 187.5,-322 365.5,-322 365.5,-265 187.5,-265"/>
<text text-anchor="middle" x="276.5" y="-310" font-family="Helvetica,sans-Serif" font-size="10.00">Kyoo.Controllers.IUserRepository</text>
<polyline fill="none" stroke="black" points="187.5,-303 365.5,-303 "/>
<text text-anchor="middle" x="276.5" y="-291" font-family="Helvetica,sans-Serif" font-size="10.00"> </text>
<polyline fill="none" stroke="black" points="187.5,-284 365.5,-284 "/>
<text text-anchor="middle" x="276.5" y="-272" font-family="Helvetica,sans-Serif" font-size="10.00"> </text>
</a>
</g>
</g>
<!-- Node4&#45;&gt;Node1 -->
<g id="edge3" class="edge">
<title>Node4&#45;&gt;Node1</title>
<path fill="none" stroke="#404040" d="M262.26,-264.84C252.09,-245.09 237.75,-217.23 223.5,-189.57"/>
<polygon fill="none" stroke="#404040" points="223.34,-189.25 217.04,-185.74 217.85,-178.58 224.15,-182.08 223.34,-189.25"/>
<text text-anchor="middle" x="251" y="-200" font-family="Helvetica,sans-Serif" font-size="10.00"> &#45;_users</text>
</g>
<!-- Node5 -->
<g id="node5" class="node">
<title>Node5</title>
<g id="a_node5"><a xlink:href="interfaceKyoo_1_1Controllers_1_1IRepository.html" target="_top" xlink:title=" ">
<polygon fill="white" stroke="black" points="218,-398.5 218,-565.5 335,-565.5 335,-398.5 218,-398.5"/>
<text text-anchor="middle" x="276.5" y="-553.5" font-family="Helvetica,sans-Serif" font-size="10.00">IRepository&lt; User &gt;</text>
<polyline fill="none" stroke="black" points="218,-546.5 335,-546.5 "/>
<text text-anchor="middle" x="276.5" y="-534.5" font-family="Helvetica,sans-Serif" font-size="10.00"> </text>
<polyline fill="none" stroke="black" points="218,-527.5 335,-527.5 "/>
<text text-anchor="start" x="226" y="-515.5" font-family="Helvetica,sans-Serif" font-size="10.00">+ Get()</text>
<text text-anchor="start" x="226" y="-504.5" font-family="Helvetica,sans-Serif" font-size="10.00">+ Get()</text>
<text text-anchor="start" x="226" y="-493.5" font-family="Helvetica,sans-Serif" font-size="10.00">+ Get()</text>
<text text-anchor="start" x="226" y="-482.5" font-family="Helvetica,sans-Serif" font-size="10.00">+ GetOrDefault()</text>
<text text-anchor="start" x="226" y="-471.5" font-family="Helvetica,sans-Serif" font-size="10.00">+ GetOrDefault()</text>
<text text-anchor="start" x="226" y="-460.5" font-family="Helvetica,sans-Serif" font-size="10.00">+ GetOrDefault()</text>
<text text-anchor="start" x="226" y="-449.5" font-family="Helvetica,sans-Serif" font-size="10.00">+ Search()</text>
<text text-anchor="start" x="226" y="-438.5" font-family="Helvetica,sans-Serif" font-size="10.00">+ GetAll()</text>
<text text-anchor="start" x="226" y="-427.5" font-family="Helvetica,sans-Serif" font-size="10.00">+ GetAll()</text>
<text text-anchor="start" x="226" y="-416.5" font-family="Helvetica,sans-Serif" font-size="10.00">+ GetCount()</text>
<text text-anchor="start" x="226" y="-405.5" font-family="Helvetica,sans-Serif" font-size="10.00">and 13 more...</text>
</a>
</g>
</g>
<!-- Node5&#45;&gt;Node4 -->
<g id="edge4" class="edge">
<title>Node5&#45;&gt;Node4</title>
<path fill="none" stroke="midnightblue" d="M276.5,-388.11C276.5,-364.1 276.5,-340.06 276.5,-322.35"/>
<polygon fill="none" stroke="midnightblue" points="273,-388.38 276.5,-398.38 280,-388.38 273,-388.38"/>
</g>
<!-- Node6 -->
<g id="node6" class="node">
<title>Node6</title>
<g id="a_node6"><a xlink:href="interfaceKyoo_1_1Controllers_1_1IFileManager.html" target="_top" xlink:title="A service to abstract the file system to allow custom file systems (like distant file systems or exte...">
<polygon fill="white" stroke="black" points="384,-226.5 384,-360.5 547,-360.5 547,-226.5 384,-226.5"/>
<text text-anchor="middle" x="465.5" y="-348.5" font-family="Helvetica,sans-Serif" font-size="10.00">Kyoo.Controllers.IFileManager</text>
<polyline fill="none" stroke="black" points="384,-341.5 547,-341.5 "/>
<text text-anchor="middle" x="465.5" y="-329.5" font-family="Helvetica,sans-Serif" font-size="10.00"> </text>
<polyline fill="none" stroke="black" points="384,-322.5 547,-322.5 "/>
<text text-anchor="start" x="392" y="-310.5" font-family="Helvetica,sans-Serif" font-size="10.00">+ FileResult()</text>
<text text-anchor="start" x="392" y="-299.5" font-family="Helvetica,sans-Serif" font-size="10.00">+ GetReader()</text>
<text text-anchor="start" x="392" y="-288.5" font-family="Helvetica,sans-Serif" font-size="10.00">+ NewFile()</text>
<text text-anchor="start" x="392" y="-277.5" font-family="Helvetica,sans-Serif" font-size="10.00">+ ListFiles()</text>
<text text-anchor="start" x="392" y="-266.5" font-family="Helvetica,sans-Serif" font-size="10.00">+ Exists()</text>
<text text-anchor="start" x="392" y="-255.5" font-family="Helvetica,sans-Serif" font-size="10.00">+ GetExtraDirectory()</text>
<text text-anchor="start" x="392" y="-244.5" font-family="Helvetica,sans-Serif" font-size="10.00">+ GetExtraDirectory()</text>
<text text-anchor="start" x="392" y="-233.5" font-family="Helvetica,sans-Serif" font-size="10.00">+ GetExtraDirectory()</text>
</a>
</g>
</g>
<!-- Node6&#45;&gt;Node1 -->
<g id="edge5" class="edge">
<title>Node6&#45;&gt;Node1</title>
<path fill="none" stroke="#404040" d="M383.76,-232.53C380.64,-230.32 377.55,-228.13 374.5,-226 336.56,-199.43 294.05,-170.75 257.85,-146.65"/>
<polygon fill="none" stroke="#404040" points="257.81,-146.62 250.6,-146.63 247.81,-139.98 255.02,-139.97 257.81,-146.62"/>
<text text-anchor="middle" x="363" y="-200" font-family="Helvetica,sans-Serif" font-size="10.00"> &#45;_files</text>
</g>
</g>
</svg>
