<?xml version="1.0" encoding="UTF-8" standalone="no"?>
<!DOCTYPE svg PUBLIC "-//W3C//DTD SVG 1.1//EN"
 "http://www.w3.org/Graphics/SVG/1.1/DTD/svg11.dtd">
<!-- Generated by graphviz version 2.43.0 (0)
 -->
<!-- Title: Kyoo.Models.Watch.Stream Pages: 1 -->
<svg width="158pt" height="369pt"
 viewBox="0.00 0.00 158.00 369.00" xmlns="http://www.w3.org/2000/svg" xmlns:xlink="http://www.w3.org/1999/xlink">
<g id="graph0" class="graph" transform="scale(1 1) rotate(0) translate(4 365)">
<title>Kyoo.Models.Watch.Stream</title>
<polygon fill="white" stroke="transparent" points="-4,4 -4,-365 154,-365 154,4 -4,4"/>
<!-- Node1 -->
<g id="node1" class="node">
<title>Node1</title>
<g id="a_node1"><a xlink:title=" ">
<polygon fill="#bfbfbf" stroke="black" points="0,-215.5 0,-360.5 150,-360.5 150,-215.5 0,-215.5"/>
<text text-anchor="middle" x="75" y="-348.5" font-family="Helvetica,sans-Serif" font-size="10.00">Kyoo.Models.Watch.Stream</text>
<polyline fill="none" stroke="black" points="0,-341.5 150,-341.5 "/>
<text text-anchor="start" x="8" y="-329.5" font-family="Helvetica,sans-Serif" font-size="10.00">+ isDefault</text>
<text text-anchor="start" x="8" y="-318.5" font-family="Helvetica,sans-Serif" font-size="10.00">+ isForced</text>
<text text-anchor="start" x="8" y="-307.5" font-family="Helvetica,sans-Serif" font-size="10.00">+ Title</text>
<text text-anchor="start" x="8" y="-296.5" font-family="Helvetica,sans-Serif" font-size="10.00">+ Language</text>
<text text-anchor="start" x="8" y="-285.5" font-family="Helvetica,sans-Serif" font-size="10.00">+ Codec</text>
<text text-anchor="start" x="8" y="-274.5" font-family="Helvetica,sans-Serif" font-size="10.00">+ Path</text>
<text text-anchor="start" x="8" y="-263.5" font-family="Helvetica,sans-Serif" font-size="10.00">+ Type</text>
<polyline fill="none" stroke="black" points="0,-256.5 150,-256.5 "/>
<text text-anchor="start" x="8" y="-244.5" font-family="Helvetica,sans-Serif" font-size="10.00">+ Stream()</text>
<text text-anchor="start" x="8" y="-233.5" font-family="Helvetica,sans-Serif" font-size="10.00">+ Stream()</text>
<text text-anchor="start" x="8" y="-222.5" font-family="Helvetica,sans-Serif" font-size="10.00">+ Stream()</text>
</a>
</g>
</g>
<!-- Node2 -->
<g id="node2" class="node">
<title>Node2</title>
<g id="a_node2"><a xlink:href="classKyoo_1_1Models_1_1Track.html" target="_top" xlink:title=" ">
<polygon fill="white" stroke="black" points="21.5,-0.5 21.5,-178.5 128.5,-178.5 128.5,-0.5 21.5,-0.5"/>
<text text-anchor="middle" x="75" y="-166.5" font-family="Helvetica,sans-Serif" font-size="10.00">Kyoo.Models.Track</text>
<polyline fill="none" stroke="black" points="21.5,-159.5 128.5,-159.5 "/>
<text text-anchor="start" x="29.5" y="-147.5" font-family="Helvetica,sans-Serif" font-size="10.00">+ ID</text>
<text text-anchor="start" x="29.5" y="-136.5" font-family="Helvetica,sans-Serif" font-size="10.00">+ EpisodeID</text>
<text text-anchor="start" x="29.5" y="-125.5" font-family="Helvetica,sans-Serif" font-size="10.00">+ TrackIndex</text>
<text text-anchor="start" x="29.5" y="-114.5" font-family="Helvetica,sans-Serif" font-size="10.00">+ IsDefault</text>
<text text-anchor="start" x="29.5" y="-103.5" font-family="Helvetica,sans-Serif" font-size="10.00">+ IsForced</text>
<text text-anchor="start" x="29.5" y="-92.5" font-family="Helvetica,sans-Serif" font-size="10.00">+ DisplayName</text>
<text text-anchor="start" x="29.5" y="-81.5" font-family="Helvetica,sans-Serif" font-size="10.00">+ Slug</text>
<text text-anchor="start" x="29.5" y="-70.5" font-family="Helvetica,sans-Serif" font-size="10.00">+ IsExternal</text>
<text text-anchor="start" x="29.5" y="-59.5" font-family="Helvetica,sans-Serif" font-size="10.00">+ Episode</text>
<polyline fill="none" stroke="black" points="21.5,-52.5 128.5,-52.5 "/>
<text text-anchor="start" x="29.5" y="-40.5" font-family="Helvetica,sans-Serif" font-size="10.00">+ Track()</text>
<text text-anchor="start" x="29.5" y="-29.5" font-family="Helvetica,sans-Serif" font-size="10.00">+ Track()</text>
<text text-anchor="start" x="29.5" y="-18.5" font-family="Helvetica,sans-Serif" font-size="10.00">+ Track()</text>
<text text-anchor="start" x="29.5" y="-7.5" font-family="Helvetica,sans-Serif" font-size="10.00">&#45; GetLanguage()</text>
</a>
</g>
</g>
<!-- Node1&#45;&gt;Node2 -->
<g id="edge1" class="edge">
<title>Node1&#45;&gt;Node2</title>
<path fill="none" stroke="midnightblue" d="M75,-205.12C75,-196.43 75,-187.56 75,-178.8"/>
<polygon fill="none" stroke="midnightblue" points="71.5,-205.22 75,-215.22 78.5,-205.22 71.5,-205.22"/>
</g>
</g>
</svg>
