<?xml version="1.0" encoding="UTF-8" standalone="no"?>
<!DOCTYPE svg PUBLIC "-//W3C//DTD SVG 1.1//EN"
 "http://www.w3.org/Graphics/SVG/1.1/DTD/svg11.dtd">
<!-- Generated by graphviz version 2.43.0 (0)
 -->
<!-- Title: Kyoo.Api.SeasonApi Pages: 1 -->
<svg width="641pt" height="490pt"
 viewBox="0.00 0.00 641.00 490.00" xmlns="http://www.w3.org/2000/svg" xmlns:xlink="http://www.w3.org/1999/xlink">
<g id="graph0" class="graph" transform="scale(1 1) rotate(0) translate(4 486)">
<title>Kyoo.Api.SeasonApi</title>
<polygon fill="white" stroke="transparent" points="-4,4 -4,-486 637,-486 637,4 -4,4"/>
<!-- Node1 -->
<g id="node1" class="node">
<title>Node1</title>
<g id="a_node1"><a xlink:title=" ">
<polygon fill="#bfbfbf" stroke="black" points="245.5,-0.5 245.5,-145.5 358.5,-145.5 358.5,-0.5 245.5,-0.5"/>
<text text-anchor="middle" x="302" y="-133.5" font-family="Helvetica,sans-Serif" font-size="10.00">Kyoo.Api.SeasonApi</text>
<polyline fill="none" stroke="black" points="245.5,-126.5 358.5,-126.5 "/>
<text text-anchor="middle" x="302" y="-114.5" font-family="Helvetica,sans-Serif" font-size="10.00"> </text>
<polyline fill="none" stroke="black" points="245.5,-107.5 358.5,-107.5 "/>
<text text-anchor="start" x="253.5" y="-95.5" font-family="Helvetica,sans-Serif" font-size="10.00">+ SeasonApi()</text>
<text text-anchor="start" x="253.5" y="-84.5" font-family="Helvetica,sans-Serif" font-size="10.00">+ GetEpisode()</text>
<text text-anchor="start" x="253.5" y="-73.5" font-family="Helvetica,sans-Serif" font-size="10.00">+ GetEpisode()</text>
<text text-anchor="start" x="253.5" y="-62.5" font-family="Helvetica,sans-Serif" font-size="10.00">+ GetEpisode()</text>
<text text-anchor="start" x="253.5" y="-51.5" font-family="Helvetica,sans-Serif" font-size="10.00">+ GetShow()</text>
<text text-anchor="start" x="253.5" y="-40.5" font-family="Helvetica,sans-Serif" font-size="10.00">+ GetShow()</text>
<text text-anchor="start" x="253.5" y="-29.5" font-family="Helvetica,sans-Serif" font-size="10.00">+ GetShow()</text>
<text text-anchor="start" x="253.5" y="-18.5" font-family="Helvetica,sans-Serif" font-size="10.00">+ GetThumb()</text>
<text text-anchor="start" x="253.5" y="-7.5" font-family="Helvetica,sans-Serif" font-size="10.00">+ GetThumb()</text>
</a>
</g>
</g>
<!-- Node2 -->
<g id="node2" class="node">
<title>Node2</title>
<g id="a_node2"><a xlink:href="classKyoo_1_1CommonApi_1_1CrudApi.html" target="_top" xlink:title=" ">
<polygon fill="white" stroke="black" points="0,-237.5 0,-437.5 118,-437.5 118,-237.5 0,-237.5"/>
<text text-anchor="middle" x="59" y="-425.5" font-family="Helvetica,sans-Serif" font-size="10.00">CrudApi&lt; Season &gt;</text>
<polyline fill="none" stroke="black" points="0,-418.5 118,-418.5 "/>
<text text-anchor="start" x="8" y="-406.5" font-family="Helvetica,sans-Serif" font-size="10.00"># BaseURL</text>
<text text-anchor="start" x="8" y="-395.5" font-family="Helvetica,sans-Serif" font-size="10.00">&#45; _repository</text>
<polyline fill="none" stroke="black" points="0,-388.5 118,-388.5 "/>
<text text-anchor="start" x="8" y="-376.5" font-family="Helvetica,sans-Serif" font-size="10.00">+ CrudApi()</text>
<text text-anchor="start" x="8" y="-365.5" font-family="Helvetica,sans-Serif" font-size="10.00">+ Get()</text>
<text text-anchor="start" x="8" y="-354.5" font-family="Helvetica,sans-Serif" font-size="10.00">+ Get()</text>
<text text-anchor="start" x="8" y="-343.5" font-family="Helvetica,sans-Serif" font-size="10.00">+ GetCount()</text>
<text text-anchor="start" x="8" y="-332.5" font-family="Helvetica,sans-Serif" font-size="10.00">+ GetAll()</text>
<text text-anchor="start" x="8" y="-321.5" font-family="Helvetica,sans-Serif" font-size="10.00">+ Create()</text>
<text text-anchor="start" x="8" y="-310.5" font-family="Helvetica,sans-Serif" font-size="10.00">+ Edit()</text>
<text text-anchor="start" x="8" y="-299.5" font-family="Helvetica,sans-Serif" font-size="10.00">+ Edit()</text>
<text text-anchor="start" x="8" y="-288.5" font-family="Helvetica,sans-Serif" font-size="10.00">+ Edit()</text>
<text text-anchor="start" x="8" y="-277.5" font-family="Helvetica,sans-Serif" font-size="10.00">+ Delete()</text>
<text text-anchor="start" x="8" y="-266.5" font-family="Helvetica,sans-Serif" font-size="10.00">+ Delete()</text>
<text text-anchor="start" x="8" y="-255.5" font-family="Helvetica,sans-Serif" font-size="10.00">+ Delete()</text>
<text text-anchor="start" x="8" y="-244.5" font-family="Helvetica,sans-Serif" font-size="10.00"># Page&lt; TResult &gt;()</text>
</a>
</g>
</g>
<!-- Node2&#45;&gt;Node1 -->
<g id="edge1" class="edge">
<title>Node2&#45;&gt;Node1</title>
<path fill="none" stroke="midnightblue" d="M102.31,-228.5C109.6,-215.89 117.82,-203.72 127,-193 159.86,-154.63 207.9,-123.14 245.34,-102.22"/>
<polygon fill="none" stroke="midnightblue" points="99.22,-226.85 97.41,-237.29 105.34,-230.26 99.22,-226.85"/>
</g>
<!-- Node3 -->
<g id="node3" class="node">
<title>Node3</title>
<g id="a_node3"><a xlink:href="interfaceKyoo_1_1Controllers_1_1IFileManager.html" target="_top" xlink:title="A service to abstract the file system to allow custom file systems (like distant file systems or exte...">
<polygon fill="white" stroke="black" points="136.5,-270.5 136.5,-404.5 299.5,-404.5 299.5,-270.5 136.5,-270.5"/>
<text text-anchor="middle" x="218" y="-392.5" font-family="Helvetica,sans-Serif" font-size="10.00">Kyoo.Controllers.IFileManager</text>
<polyline fill="none" stroke="black" points="136.5,-385.5 299.5,-385.5 "/>
<text text-anchor="middle" x="218" y="-373.5" font-family="Helvetica,sans-Serif" font-size="10.00"> </text>
<polyline fill="none" stroke="black" points="136.5,-366.5 299.5,-366.5 "/>
<text text-anchor="start" x="144.5" y="-354.5" font-family="Helvetica,sans-Serif" font-size="10.00">+ FileResult()</text>
<text text-anchor="start" x="144.5" y="-343.5" font-family="Helvetica,sans-Serif" font-size="10.00">+ GetReader()</text>
<text text-anchor="start" x="144.5" y="-332.5" font-family="Helvetica,sans-Serif" font-size="10.00">+ NewFile()</text>
<text text-anchor="start" x="144.5" y="-321.5" font-family="Helvetica,sans-Serif" font-size="10.00">+ ListFiles()</text>
<text text-anchor="start" x="144.5" y="-310.5" font-family="Helvetica,sans-Serif" font-size="10.00">+ Exists()</text>
<text text-anchor="start" x="144.5" y="-299.5" font-family="Helvetica,sans-Serif" font-size="10.00">+ GetExtraDirectory()</text>
<text text-anchor="start" x="144.5" y="-288.5" font-family="Helvetica,sans-Serif" font-size="10.00">+ GetExtraDirectory()</text>
<text text-anchor="start" x="144.5" y="-277.5" font-family="Helvetica,sans-Serif" font-size="10.00">+ GetExtraDirectory()</text>
</a>
</g>
</g>
<!-- Node3&#45;&gt;Node1 -->
<g id="edge2" class="edge">
<title>Node3&#45;&gt;Node1</title>
<path fill="none" stroke="#404040" d="M239.2,-270.26C250.16,-236 263.66,-193.83 275.32,-157.37"/>
<polygon fill="none" stroke="#404040" points="275.38,-157.18 273.4,-150.25 279.04,-145.75 281.02,-152.68 275.38,-157.18"/>
<text text-anchor="middle" x="289.5" y="-167" font-family="Helvetica,sans-Serif" font-size="10.00"> &#45;_files</text>
</g>
<!-- Node4 -->
<g id="node4" class="node">
<title>Node4</title>
<g id="a_node4"><a xlink:href="interfaceKyoo_1_1Controllers_1_1ILibraryManager.html" target="_top" xlink:title="An interface to interract with the database. Every repository is mapped through here.">
<polygon fill="white" stroke="black" points="317.5,-193.5 317.5,-481.5 454.5,-481.5 454.5,-193.5 317.5,-193.5"/>
<text text-anchor="start" x="325.5" y="-469.5" font-family="Helvetica,sans-Serif" font-size="10.00">Kyoo.Controllers.ILibrary</text>
<text text-anchor="middle" x="386" y="-458.5" font-family="Helvetica,sans-Serif" font-size="10.00">Manager</text>
<polyline fill="none" stroke="black" points="317.5,-451.5 454.5,-451.5 "/>
<text text-anchor="start" x="325.5" y="-439.5" font-family="Helvetica,sans-Serif" font-size="10.00">+ LibraryRepository</text>
<text text-anchor="start" x="325.5" y="-428.5" font-family="Helvetica,sans-Serif" font-size="10.00">+ LibraryItemRepository</text>
<text text-anchor="start" x="325.5" y="-417.5" font-family="Helvetica,sans-Serif" font-size="10.00">+ CollectionRepository</text>
<text text-anchor="start" x="325.5" y="-406.5" font-family="Helvetica,sans-Serif" font-size="10.00">+ ShowRepository</text>
<text text-anchor="start" x="325.5" y="-395.5" font-family="Helvetica,sans-Serif" font-size="10.00">+ SeasonRepository</text>
<text text-anchor="start" x="325.5" y="-384.5" font-family="Helvetica,sans-Serif" font-size="10.00">+ EpisodeRepository</text>
<text text-anchor="start" x="325.5" y="-373.5" font-family="Helvetica,sans-Serif" font-size="10.00">+ TrackRepository</text>
<text text-anchor="start" x="325.5" y="-362.5" font-family="Helvetica,sans-Serif" font-size="10.00">+ PeopleRepository</text>
<text text-anchor="start" x="325.5" y="-351.5" font-family="Helvetica,sans-Serif" font-size="10.00">+ StudioRepository</text>
<text text-anchor="start" x="325.5" y="-340.5" font-family="Helvetica,sans-Serif" font-size="10.00">+ GenreRepository</text>
<text text-anchor="start" x="325.5" y="-329.5" font-family="Helvetica,sans-Serif" font-size="10.00">+ ProviderRepository</text>
<polyline fill="none" stroke="black" points="317.5,-322.5 454.5,-322.5 "/>
<text text-anchor="start" x="325.5" y="-310.5" font-family="Helvetica,sans-Serif" font-size="10.00">+ GetRepository&lt; T &gt;()</text>
<text text-anchor="start" x="325.5" y="-299.5" font-family="Helvetica,sans-Serif" font-size="10.00">+ Get&lt; T &gt;()</text>
<text text-anchor="start" x="325.5" y="-288.5" font-family="Helvetica,sans-Serif" font-size="10.00">+ Get&lt; T &gt;()</text>
<text text-anchor="start" x="325.5" y="-277.5" font-family="Helvetica,sans-Serif" font-size="10.00">+ Get&lt; T &gt;()</text>
<text text-anchor="start" x="325.5" y="-266.5" font-family="Helvetica,sans-Serif" font-size="10.00">+ Get()</text>
<text text-anchor="start" x="325.5" y="-255.5" font-family="Helvetica,sans-Serif" font-size="10.00">+ Get()</text>
<text text-anchor="start" x="325.5" y="-244.5" font-family="Helvetica,sans-Serif" font-size="10.00">+ Get()</text>
<text text-anchor="start" x="325.5" y="-233.5" font-family="Helvetica,sans-Serif" font-size="10.00">+ Get()</text>
<text text-anchor="start" x="325.5" y="-222.5" font-family="Helvetica,sans-Serif" font-size="10.00">+ Get()</text>
<text text-anchor="start" x="325.5" y="-211.5" font-family="Helvetica,sans-Serif" font-size="10.00">+ GetOrDefault&lt; T &gt;()</text>
<text text-anchor="start" x="325.5" y="-200.5" font-family="Helvetica,sans-Serif" font-size="10.00">and 35 more...</text>
</a>
</g>
</g>
<!-- Node4&#45;&gt;Node1 -->
<g id="edge3" class="edge">
<title>Node4&#45;&gt;Node1</title>
<path fill="none" stroke="#404040" d="M340.19,-193.34C336.22,-180.93 332.29,-168.65 328.55,-156.97"/>
<polygon fill="none" stroke="#404040" points="328.54,-156.93 322.9,-152.44 324.88,-145.51 330.52,-150 328.54,-156.93"/>
<text text-anchor="middle" x="378.5" y="-167" font-family="Helvetica,sans-Serif" font-size="10.00"> &#45;_libraryManager</text>
</g>
<!-- Node5 -->
<g id="node5" class="node">
<title>Node5</title>
<g id="a_node5"><a xlink:href="interfaceKyoo_1_1Controllers_1_1IThumbnailsManager.html" target="_top" xlink:title=" ">
<polygon fill="white" stroke="black" points="473,-243 473,-432 633,-432 633,-243 473,-243"/>
<text text-anchor="start" x="481" y="-420" font-family="Helvetica,sans-Serif" font-size="10.00">Kyoo.Controllers.IThumbnails</text>
<text text-anchor="middle" x="553" y="-409" font-family="Helvetica,sans-Serif" font-size="10.00">Manager</text>
<polyline fill="none" stroke="black" points="473,-402 633,-402 "/>
<text text-anchor="middle" x="553" y="-390" font-family="Helvetica,sans-Serif" font-size="10.00"> </text>
<polyline fill="none" stroke="black" points="473,-383 633,-383 "/>
<text text-anchor="start" x="481" y="-371" font-family="Helvetica,sans-Serif" font-size="10.00">+ Validate()</text>
<text text-anchor="start" x="481" y="-360" font-family="Helvetica,sans-Serif" font-size="10.00">+ Validate()</text>
<text text-anchor="start" x="481" y="-349" font-family="Helvetica,sans-Serif" font-size="10.00">+ Validate()</text>
<text text-anchor="start" x="481" y="-338" font-family="Helvetica,sans-Serif" font-size="10.00">+ Validate()</text>
<text text-anchor="start" x="481" y="-327" font-family="Helvetica,sans-Serif" font-size="10.00">+ Validate()</text>
<text text-anchor="start" x="481" y="-316" font-family="Helvetica,sans-Serif" font-size="10.00">+ GetShowPoster()</text>
<text text-anchor="start" x="481" y="-305" font-family="Helvetica,sans-Serif" font-size="10.00">+ GetShowLogo()</text>
<text text-anchor="start" x="481" y="-294" font-family="Helvetica,sans-Serif" font-size="10.00">+ GetShowBackdrop()</text>
<text text-anchor="start" x="481" y="-283" font-family="Helvetica,sans-Serif" font-size="10.00">+ GetSeasonPoster()</text>
<text text-anchor="start" x="481" y="-272" font-family="Helvetica,sans-Serif" font-size="10.00">+ GetEpisodeThumb()</text>
<text text-anchor="start" x="481" y="-261" font-family="Helvetica,sans-Serif" font-size="10.00">+ GetPeoplePoster()</text>
<text text-anchor="start" x="481" y="-250" font-family="Helvetica,sans-Serif" font-size="10.00">+ GetProviderLogo()</text>
</a>
</g>
</g>
<!-- Node5&#45;&gt;Node1 -->
<g id="edge4" class="edge">
<title>Node5&#45;&gt;Node1</title>
<path fill="none" stroke="#404040" d="M501.67,-242.63C490.33,-225.31 477.6,-207.98 464,-193 436.5,-162.7 400.21,-135.2 368.95,-114.28"/>
<polygon fill="none" stroke="#404040" points="368.58,-114.04 361.37,-114.08 358.56,-107.44 365.77,-107.4 368.58,-114.04"/>
<text text-anchor="middle" x="468.5" y="-167" font-family="Helvetica,sans-Serif" font-size="10.00"> &#45;_thumbs</text>
</g>
</g>
</svg>
