<?xml version="1.0" encoding="UTF-8" standalone="no"?>
<!DOCTYPE svg PUBLIC "-//W3C//DTD SVG 1.1//EN"
 "http://www.w3.org/Graphics/SVG/1.1/DTD/svg11.dtd">
<!-- Generated by graphviz version 2.43.0 (0)
 -->
<!-- Title: Kyoo.Controllers.JsonPropertyIgnorer Pages: 1 -->
<svg width="197pt" height="215pt"
 viewBox="0.00 0.00 197.00 215.00" xmlns="http://www.w3.org/2000/svg" xmlns:xlink="http://www.w3.org/1999/xlink">
<g id="graph0" class="graph" transform="scale(1 1) rotate(0) translate(4 211)">
<title>Kyoo.Controllers.JsonPropertyIgnorer</title>
<polygon fill="white" stroke="transparent" points="-4,4 -4,-211 193,-211 193,4 -4,4"/>
<!-- Node1 -->
<g id="node1" class="node">
<title>Node1</title>
<g id="a_node1"><a xlink:title=" ">
<polygon fill="#bfbfbf" stroke="black" points="14,-0.5 14,-101.5 175,-101.5 175,-0.5 14,-0.5"/>
<text text-anchor="start" x="22" y="-89.5" font-family="Helvetica,sans-Serif" font-size="10.00">Kyoo.Controllers.JsonProperty</text>
<text text-anchor="middle" x="94.5" y="-78.5" font-family="Helvetica,sans-Serif" font-size="10.00">Ignorer</text>
<polyline fill="none" stroke="black" points="14,-71.5 175,-71.5 "/>
<text text-anchor="start" x="22" y="-59.5" font-family="Helvetica,sans-Serif" font-size="10.00">&#45; _depth</text>
<text text-anchor="start" x="22" y="-48.5" font-family="Helvetica,sans-Serif" font-size="10.00">&#45; _host</text>
<polyline fill="none" stroke="black" points="14,-41.5 175,-41.5 "/>
<text text-anchor="start" x="22" y="-29.5" font-family="Helvetica,sans-Serif" font-size="10.00">+ JsonPropertyIgnorer()</text>
<text text-anchor="start" x="22" y="-18.5" font-family="Helvetica,sans-Serif" font-size="10.00"># CreateProperty()</text>
<text text-anchor="start" x="22" y="-7.5" font-family="Helvetica,sans-Serif" font-size="10.00"># CreateContract()</text>
</a>
</g>
</g>
<!-- Node2 -->
<g id="node2" class="node">
<title>Node2</title>
<g id="a_node2"><a xlink:title=" ">
<polygon fill="white" stroke="#bfbfbf" points="0,-138.5 0,-206.5 189,-206.5 189,-138.5 0,-138.5"/>
<text text-anchor="start" x="8" y="-194.5" font-family="Helvetica,sans-Serif" font-size="10.00">CamelCasePropertyNamesContract</text>
<text text-anchor="middle" x="94.5" y="-183.5" font-family="Helvetica,sans-Serif" font-size="10.00">Resolver</text>
<polyline fill="none" stroke="#bfbfbf" points="0,-176.5 189,-176.5 "/>
<text text-anchor="middle" x="94.5" y="-164.5" font-family="Helvetica,sans-Serif" font-size="10.00"> </text>
<polyline fill="none" stroke="#bfbfbf" points="0,-157.5 189,-157.5 "/>
<text text-anchor="middle" x="94.5" y="-145.5" font-family="Helvetica,sans-Serif" font-size="10.00"> </text>
</a>
</g>
</g>
<!-- Node2&#45;&gt;Node1 -->
<g id="edge1" class="edge">
<title>Node2&#45;&gt;Node1</title>
<path fill="none" stroke="midnightblue" d="M94.5,-128.05C94.5,-119.47 94.5,-110.41 94.5,-101.65"/>
<polygon fill="none" stroke="midnightblue" points="91,-128.21 94.5,-138.21 98,-128.21 91,-128.21"/>
</g>
</g>
</svg>
