<?xml version="1.0" encoding="UTF-8" standalone="no"?>
<!DOCTYPE svg PUBLIC "-//W3C//DTD SVG 1.1//EN"
 "http://www.w3.org/Graphics/SVG/1.1/DTD/svg11.dtd">
<!-- Generated by graphviz version 2.43.0 (0)
 -->
<!-- Title: Kyoo.Controllers.LibraryRepository Pages: 1 -->
<svg width="295pt" height="650pt"
 viewBox="0.00 0.00 294.50 650.00" xmlns="http://www.w3.org/2000/svg" xmlns:xlink="http://www.w3.org/1999/xlink">
<g id="graph0" class="graph" transform="scale(1 1) rotate(0) translate(4 646)">
<title>Kyoo.Controllers.LibraryRepository</title>
<polygon fill="white" stroke="transparent" points="-4,4 -4,-646 290.5,-646 290.5,4 -4,4"/>
<!-- Node1 -->
<g id="node1" class="node">
<title>Node1</title>
<g id="a_node1"><a xlink:title="A local repository to handle libraries.">
<polygon fill="#bfbfbf" stroke="black" points="81.5,-0.5 81.5,-145.5 215.5,-145.5 215.5,-0.5 81.5,-0.5"/>
<text text-anchor="start" x="89.5" y="-133.5" font-family="Helvetica,sans-Serif" font-size="10.00">Kyoo.Controllers.Library</text>
<text text-anchor="middle" x="148.5" y="-122.5" font-family="Helvetica,sans-Serif" font-size="10.00">Repository</text>
<polyline fill="none" stroke="black" points="81.5,-115.5 215.5,-115.5 "/>
<text text-anchor="start" x="89.5" y="-103.5" font-family="Helvetica,sans-Serif" font-size="10.00"># DefaultSort</text>
<text text-anchor="start" x="89.5" y="-92.5" font-family="Helvetica,sans-Serif" font-size="10.00">&#45; _database</text>
<text text-anchor="start" x="89.5" y="-81.5" font-family="Helvetica,sans-Serif" font-size="10.00">&#45; _providers</text>
<polyline fill="none" stroke="black" points="81.5,-74.5 215.5,-74.5 "/>
<text text-anchor="start" x="89.5" y="-62.5" font-family="Helvetica,sans-Serif" font-size="10.00">+ LibraryRepository()</text>
<text text-anchor="start" x="89.5" y="-51.5" font-family="Helvetica,sans-Serif" font-size="10.00">+ Search()</text>
<text text-anchor="start" x="89.5" y="-40.5" font-family="Helvetica,sans-Serif" font-size="10.00">+ Create()</text>
<text text-anchor="start" x="89.5" y="-29.5" font-family="Helvetica,sans-Serif" font-size="10.00">+ Delete()</text>
<text text-anchor="start" x="89.5" y="-18.5" font-family="Helvetica,sans-Serif" font-size="10.00"># Validate()</text>
<text text-anchor="start" x="89.5" y="-7.5" font-family="Helvetica,sans-Serif" font-size="10.00"># EditRelations()</text>
</a>
</g>
</g>
<!-- Node2 -->
<g id="node2" class="node">
<title>Node2</title>
<g id="a_node2"><a xlink:href="classKyoo_1_1Controllers_1_1LocalRepository.html" target="_top" xlink:title=" ">
<polygon fill="white" stroke="black" points="0,-182.5 0,-437.5 151,-437.5 151,-182.5 0,-182.5"/>
<text text-anchor="middle" x="75.5" y="-425.5" font-family="Helvetica,sans-Serif" font-size="10.00">LocalRepository&lt; Library &gt;</text>
<polyline fill="none" stroke="black" points="0,-418.5 151,-418.5 "/>
<text text-anchor="start" x="8" y="-406.5" font-family="Helvetica,sans-Serif" font-size="10.00">+ RepositoryType</text>
<text text-anchor="start" x="8" y="-395.5" font-family="Helvetica,sans-Serif" font-size="10.00">+ DefaultSort</text>
<text text-anchor="start" x="8" y="-384.5" font-family="Helvetica,sans-Serif" font-size="10.00"># Database</text>
<polyline fill="none" stroke="black" points="0,-377.5 151,-377.5 "/>
<text text-anchor="start" x="8" y="-365.5" font-family="Helvetica,sans-Serif" font-size="10.00">+ Get()</text>
<text text-anchor="start" x="8" y="-354.5" font-family="Helvetica,sans-Serif" font-size="10.00">+ Get()</text>
<text text-anchor="start" x="8" y="-343.5" font-family="Helvetica,sans-Serif" font-size="10.00">+ Get()</text>
<text text-anchor="start" x="8" y="-332.5" font-family="Helvetica,sans-Serif" font-size="10.00">+ GetOrDefault()</text>
<text text-anchor="start" x="8" y="-321.5" font-family="Helvetica,sans-Serif" font-size="10.00">+ GetOrDefault()</text>
<text text-anchor="start" x="8" y="-310.5" font-family="Helvetica,sans-Serif" font-size="10.00">+ GetOrDefault()</text>
<text text-anchor="start" x="8" y="-299.5" font-family="Helvetica,sans-Serif" font-size="10.00">+ Search()</text>
<text text-anchor="start" x="8" y="-288.5" font-family="Helvetica,sans-Serif" font-size="10.00">+ GetAll()</text>
<text text-anchor="start" x="8" y="-277.5" font-family="Helvetica,sans-Serif" font-size="10.00">+ GetCount()</text>
<text text-anchor="start" x="8" y="-266.5" font-family="Helvetica,sans-Serif" font-size="10.00">+ Create()</text>
<text text-anchor="start" x="8" y="-255.5" font-family="Helvetica,sans-Serif" font-size="10.00">and 9 more...</text>
<text text-anchor="start" x="8" y="-244.5" font-family="Helvetica,sans-Serif" font-size="10.00"># LocalRepository()</text>
<text text-anchor="start" x="8" y="-233.5" font-family="Helvetica,sans-Serif" font-size="10.00"># GetWithTracking()</text>
<text text-anchor="start" x="8" y="-222.5" font-family="Helvetica,sans-Serif" font-size="10.00"># ApplyFilters()</text>
<text text-anchor="start" x="8" y="-211.5" font-family="Helvetica,sans-Serif" font-size="10.00"># ApplyFilters&lt; TValue &gt;()</text>
<text text-anchor="start" x="8" y="-200.5" font-family="Helvetica,sans-Serif" font-size="10.00"># EditRelations()</text>
<text text-anchor="start" x="8" y="-189.5" font-family="Helvetica,sans-Serif" font-size="10.00"># Validate()</text>
</a>
</g>
</g>
<!-- Node2&#45;&gt;Node1 -->
<g id="edge1" class="edge">
<title>Node2&#45;&gt;Node1</title>
<path fill="none" stroke="midnightblue" d="M117.89,-172.53C120.77,-163.28 123.59,-154.19 126.29,-145.5"/>
<polygon fill="none" stroke="midnightblue" points="114.51,-171.63 114.88,-182.21 121.19,-173.7 114.51,-171.63"/>
</g>
<!-- Node3 -->
<g id="node3" class="node">
<title>Node3</title>
<g id="a_node3"><a xlink:href="interfaceKyoo_1_1Controllers_1_1ILibraryRepository.html" target="_top" xlink:title="A repository to handle libraries.">
<polygon fill="white" stroke="black" points="169.5,-281.5 169.5,-338.5 275.5,-338.5 275.5,-281.5 169.5,-281.5"/>
<text text-anchor="middle" x="222.5" y="-326.5" font-family="Helvetica,sans-Serif" font-size="10.00">ILibraryRepository</text>
<polyline fill="none" stroke="black" points="169.5,-319.5 275.5,-319.5 "/>
<text text-anchor="middle" x="222.5" y="-307.5" font-family="Helvetica,sans-Serif" font-size="10.00"> </text>
<polyline fill="none" stroke="black" points="169.5,-300.5 275.5,-300.5 "/>
<text text-anchor="middle" x="222.5" y="-288.5" font-family="Helvetica,sans-Serif" font-size="10.00"> </text>
</a>
</g>
</g>
<!-- Node3&#45;&gt;Node1 -->
<g id="edge2" class="edge">
<title>Node3&#45;&gt;Node1</title>
<path fill="none" stroke="midnightblue" d="M210.59,-271.19C199.95,-237.4 184.07,-186.96 171.03,-145.56"/>
<polygon fill="none" stroke="midnightblue" points="207.38,-272.63 213.72,-281.12 214.06,-270.53 207.38,-272.63"/>
</g>
<!-- Node4 -->
<g id="node4" class="node">
<title>Node4</title>
<g id="a_node4"><a xlink:href="interfaceKyoo_1_1Controllers_1_1IRepository.html" target="_top" xlink:title=" ">
<polygon fill="white" stroke="black" points="158.5,-474.5 158.5,-641.5 286.5,-641.5 286.5,-474.5 158.5,-474.5"/>
<text text-anchor="middle" x="222.5" y="-629.5" font-family="Helvetica,sans-Serif" font-size="10.00">IRepository&lt; Library &gt;</text>
<polyline fill="none" stroke="black" points="158.5,-622.5 286.5,-622.5 "/>
<text text-anchor="middle" x="222.5" y="-610.5" font-family="Helvetica,sans-Serif" font-size="10.00"> </text>
<polyline fill="none" stroke="black" points="158.5,-603.5 286.5,-603.5 "/>
<text text-anchor="start" x="166.5" y="-591.5" font-family="Helvetica,sans-Serif" font-size="10.00">+ Get()</text>
<text text-anchor="start" x="166.5" y="-580.5" font-family="Helvetica,sans-Serif" font-size="10.00">+ Get()</text>
<text text-anchor="start" x="166.5" y="-569.5" font-family="Helvetica,sans-Serif" font-size="10.00">+ Get()</text>
<text text-anchor="start" x="166.5" y="-558.5" font-family="Helvetica,sans-Serif" font-size="10.00">+ GetOrDefault()</text>
<text text-anchor="start" x="166.5" y="-547.5" font-family="Helvetica,sans-Serif" font-size="10.00">+ GetOrDefault()</text>
<text text-anchor="start" x="166.5" y="-536.5" font-family="Helvetica,sans-Serif" font-size="10.00">+ GetOrDefault()</text>
<text text-anchor="start" x="166.5" y="-525.5" font-family="Helvetica,sans-Serif" font-size="10.00">+ Search()</text>
<text text-anchor="start" x="166.5" y="-514.5" font-family="Helvetica,sans-Serif" font-size="10.00">+ GetAll()</text>
<text text-anchor="start" x="166.5" y="-503.5" font-family="Helvetica,sans-Serif" font-size="10.00">+ GetAll()</text>
<text text-anchor="start" x="166.5" y="-492.5" font-family="Helvetica,sans-Serif" font-size="10.00">+ GetCount()</text>
<text text-anchor="start" x="166.5" y="-481.5" font-family="Helvetica,sans-Serif" font-size="10.00">and 13 more...</text>
</a>
</g>
</g>
<!-- Node4&#45;&gt;Node3 -->
<g id="edge3" class="edge">
<title>Node4&#45;&gt;Node3</title>
<path fill="none" stroke="midnightblue" d="M222.5,-464.36C222.5,-419.62 222.5,-369.15 222.5,-338.73"/>
<polygon fill="none" stroke="midnightblue" points="219,-464.4 222.5,-474.4 226,-464.4 219,-464.4"/>
</g>
</g>
</svg>
