<?xml version="1.0" encoding="UTF-8" standalone="no"?>
<!DOCTYPE svg PUBLIC "-//W3C//DTD SVG 1.1//EN"
 "http://www.w3.org/Graphics/SVG/1.1/DTD/svg11.dtd">
<!-- Generated by graphviz version 2.43.0 (0)
 -->
<!-- Title: Kyoo.Api.LibraryItemApi Pages: 1 -->
<svg width="259pt" height="431pt"
 viewBox="0.00 0.00 259.00 431.00" xmlns="http://www.w3.org/2000/svg" xmlns:xlink="http://www.w3.org/1999/xlink">
<g id="graph0" class="graph" transform="scale(1 1) rotate(0) translate(4 427)">
<title>Kyoo.Api.LibraryItemApi</title>
<polygon fill="white" stroke="transparent" points="-4,4 -4,-427 255,-427 255,4 -4,4"/>
<!-- Node1 -->
<g id="node1" class="node">
<title>Node1</title>
<g id="a_node1"><a xlink:title=" ">
<polygon fill="#bfbfbf" stroke="black" points="18.5,-0.5 18.5,-68.5 152.5,-68.5 152.5,-0.5 18.5,-0.5"/>
<text text-anchor="middle" x="85.5" y="-56.5" font-family="Helvetica,sans-Serif" font-size="10.00">Kyoo.Api.LibraryItemApi</text>
<polyline fill="none" stroke="black" points="18.5,-49.5 152.5,-49.5 "/>
<text text-anchor="start" x="26.5" y="-37.5" font-family="Helvetica,sans-Serif" font-size="10.00">&#45; _baseURL</text>
<polyline fill="none" stroke="black" points="18.5,-30.5 152.5,-30.5 "/>
<text text-anchor="start" x="26.5" y="-18.5" font-family="Helvetica,sans-Serif" font-size="10.00">+ LibraryItemApi()</text>
<text text-anchor="start" x="26.5" y="-7.5" font-family="Helvetica,sans-Serif" font-size="10.00">+ GetAll()</text>
</a>
</g>
</g>
<!-- Node2 -->
<g id="node2" class="node">
<title>Node2</title>
<g id="a_node2"><a xlink:title=" ">
<polygon fill="white" stroke="#bfbfbf" points="0,-138.5 0,-195.5 89,-195.5 89,-138.5 0,-138.5"/>
<text text-anchor="middle" x="44.5" y="-183.5" font-family="Helvetica,sans-Serif" font-size="10.00">ControllerBase</text>
<polyline fill="none" stroke="#bfbfbf" points="0,-176.5 89,-176.5 "/>
<text text-anchor="middle" x="44.5" y="-164.5" font-family="Helvetica,sans-Serif" font-size="10.00"> </text>
<polyline fill="none" stroke="#bfbfbf" points="0,-157.5 89,-157.5 "/>
<text text-anchor="middle" x="44.5" y="-145.5" font-family="Helvetica,sans-Serif" font-size="10.00"> </text>
</a>
</g>
</g>
<!-- Node2&#45;&gt;Node1 -->
<g id="edge1" class="edge">
<title>Node2&#45;&gt;Node1</title>
<path fill="none" stroke="midnightblue" d="M56.26,-128.56C62.2,-109.66 69.34,-86.94 75.07,-68.68"/>
<polygon fill="none" stroke="midnightblue" points="52.85,-127.73 53.2,-138.32 59.53,-129.83 52.85,-127.73"/>
</g>
<!-- Node3 -->
<g id="node3" class="node">
<title>Node3</title>
<g id="a_node3"><a xlink:href="interfaceKyoo_1_1Controllers_1_1ILibraryItemRepository.html" target="_top" xlink:title="A repository to handle library items (A wrapper around shows and collections).">
<polygon fill="white" stroke="black" points="107,-116.5 107,-217.5 244,-217.5 244,-116.5 107,-116.5"/>
<text text-anchor="start" x="115" y="-205.5" font-family="Helvetica,sans-Serif" font-size="10.00">Kyoo.Controllers.ILibrary</text>
<text text-anchor="middle" x="175.5" y="-194.5" font-family="Helvetica,sans-Serif" font-size="10.00">ItemRepository</text>
<polyline fill="none" stroke="black" points="107,-187.5 244,-187.5 "/>
<text text-anchor="middle" x="175.5" y="-175.5" font-family="Helvetica,sans-Serif" font-size="10.00"> </text>
<polyline fill="none" stroke="black" points="107,-168.5 244,-168.5 "/>
<text text-anchor="start" x="115" y="-156.5" font-family="Helvetica,sans-Serif" font-size="10.00">+ GetFromLibrary()</text>
<text text-anchor="start" x="115" y="-145.5" font-family="Helvetica,sans-Serif" font-size="10.00">+ GetFromLibrary()</text>
<text text-anchor="start" x="115" y="-134.5" font-family="Helvetica,sans-Serif" font-size="10.00">+ GetFromLibrary()</text>
<text text-anchor="start" x="115" y="-123.5" font-family="Helvetica,sans-Serif" font-size="10.00">+ GetFromLibrary()</text>
</a>
</g>
</g>
<!-- Node3&#45;&gt;Node1 -->
<g id="edge2" class="edge">
<title>Node3&#45;&gt;Node1</title>
<path fill="none" stroke="#404040" d="M141.22,-116.29C132.69,-103.92 123.61,-90.76 115.32,-78.74"/>
<polygon fill="none" stroke="#404040" points="115.08,-78.38 108.38,-75.72 108.26,-68.51 114.96,-71.17 115.08,-78.38"/>
<text text-anchor="middle" x="163.5" y="-90" font-family="Helvetica,sans-Serif" font-size="10.00"> &#45;_libraryItems</text>
</g>
<!-- Node4 -->
<g id="node4" class="node">
<title>Node4</title>
<g id="a_node4"><a xlink:href="interfaceKyoo_1_1Controllers_1_1IRepository.html" target="_top" xlink:title=" ">
<polygon fill="white" stroke="black" points="100,-255.5 100,-422.5 251,-422.5 251,-255.5 100,-255.5"/>
<text text-anchor="middle" x="175.5" y="-410.5" font-family="Helvetica,sans-Serif" font-size="10.00">IRepository&lt; LibraryItem &gt;</text>
<polyline fill="none" stroke="black" points="100,-403.5 251,-403.5 "/>
<text text-anchor="middle" x="175.5" y="-391.5" font-family="Helvetica,sans-Serif" font-size="10.00"> </text>
<polyline fill="none" stroke="black" points="100,-384.5 251,-384.5 "/>
<text text-anchor="start" x="108" y="-372.5" font-family="Helvetica,sans-Serif" font-size="10.00">+ Get()</text>
<text text-anchor="start" x="108" y="-361.5" font-family="Helvetica,sans-Serif" font-size="10.00">+ Get()</text>
<text text-anchor="start" x="108" y="-350.5" font-family="Helvetica,sans-Serif" font-size="10.00">+ Get()</text>
<text text-anchor="start" x="108" y="-339.5" font-family="Helvetica,sans-Serif" font-size="10.00">+ GetOrDefault()</text>
<text text-anchor="start" x="108" y="-328.5" font-family="Helvetica,sans-Serif" font-size="10.00">+ GetOrDefault()</text>
<text text-anchor="start" x="108" y="-317.5" font-family="Helvetica,sans-Serif" font-size="10.00">+ GetOrDefault()</text>
<text text-anchor="start" x="108" y="-306.5" font-family="Helvetica,sans-Serif" font-size="10.00">+ Search()</text>
<text text-anchor="start" x="108" y="-295.5" font-family="Helvetica,sans-Serif" font-size="10.00">+ GetAll()</text>
<text text-anchor="start" x="108" y="-284.5" font-family="Helvetica,sans-Serif" font-size="10.00">+ GetAll()</text>
<text text-anchor="start" x="108" y="-273.5" font-family="Helvetica,sans-Serif" font-size="10.00">+ GetCount()</text>
<text text-anchor="start" x="108" y="-262.5" font-family="Helvetica,sans-Serif" font-size="10.00">and 13 more...</text>
</a>
</g>
</g>
<!-- Node4&#45;&gt;Node3 -->
<g id="edge3" class="edge">
<title>Node4&#45;&gt;Node3</title>
<path fill="none" stroke="midnightblue" d="M175.5,-245.25C175.5,-235.84 175.5,-226.55 175.5,-217.86"/>
<polygon fill="none" stroke="midnightblue" points="172,-245.49 175.5,-255.49 179,-245.49 172,-245.49"/>
</g>
</g>
</svg>
