<?xml version="1.0" encoding="UTF-8" standalone="no"?>
<!DOCTYPE svg PUBLIC "-//W3C//DTD SVG 1.1//EN"
 "http://www.w3.org/Graphics/SVG/1.1/DTD/svg11.dtd">
<!-- Generated by graphviz version 2.43.0 (0)
 -->
<!-- Title: Kyoo.Api.VideoApi Pages: 1 -->
<svg width="582pt" height="468pt"
 viewBox="0.00 0.00 582.00 468.00" xmlns="http://www.w3.org/2000/svg" xmlns:xlink="http://www.w3.org/1999/xlink">
<g id="graph0" class="graph" transform="scale(1 1) rotate(0) translate(4 464)">
<title>Kyoo.Api.VideoApi</title>
<polygon fill="white" stroke="transparent" points="-4,4 -4,-464 578,-464 578,4 -4,4"/>
<!-- Node1 -->
<g id="node1" class="node">
<title>Node1</title>
<g id="a_node1"><a xlink:title=" ">
<polygon fill="#bfbfbf" stroke="black" points="177.5,-0.5 177.5,-123.5 319.5,-123.5 319.5,-0.5 177.5,-0.5"/>
<text text-anchor="middle" x="248.5" y="-111.5" font-family="Helvetica,sans-Serif" font-size="10.00">Kyoo.Api.VideoApi</text>
<polyline fill="none" stroke="black" points="177.5,-104.5 319.5,-104.5 "/>
<text text-anchor="start" x="185.5" y="-92.5" font-family="Helvetica,sans-Serif" font-size="10.00">&#45; _options</text>
<polyline fill="none" stroke="black" points="177.5,-85.5 319.5,-85.5 "/>
<text text-anchor="start" x="185.5" y="-73.5" font-family="Helvetica,sans-Serif" font-size="10.00">+ VideoApi()</text>
<text text-anchor="start" x="185.5" y="-62.5" font-family="Helvetica,sans-Serif" font-size="10.00">+ OnActionExecuted()</text>
<text text-anchor="start" x="185.5" y="-51.5" font-family="Helvetica,sans-Serif" font-size="10.00">+ Direct()</text>
<text text-anchor="start" x="185.5" y="-40.5" font-family="Helvetica,sans-Serif" font-size="10.00">+ Transmux()</text>
<text text-anchor="start" x="185.5" y="-29.5" font-family="Helvetica,sans-Serif" font-size="10.00">+ Transcode()</text>
<text text-anchor="start" x="185.5" y="-18.5" font-family="Helvetica,sans-Serif" font-size="10.00">+ GetTransmuxedChunk()</text>
<text text-anchor="start" x="185.5" y="-7.5" font-family="Helvetica,sans-Serif" font-size="10.00">+ GetTranscodedChunk()</text>
</a>
</g>
</g>
<!-- Node2 -->
<g id="node2" class="node">
<title>Node2</title>
<g id="a_node2"><a xlink:title=" ">
<polygon fill="white" stroke="#bfbfbf" points="0,-287 0,-344 65,-344 65,-287 0,-287"/>
<text text-anchor="middle" x="32.5" y="-332" font-family="Helvetica,sans-Serif" font-size="10.00">Controller</text>
<polyline fill="none" stroke="#bfbfbf" points="0,-325 65,-325 "/>
<text text-anchor="middle" x="32.5" y="-313" font-family="Helvetica,sans-Serif" font-size="10.00"> </text>
<polyline fill="none" stroke="#bfbfbf" points="0,-306 65,-306 "/>
<text text-anchor="middle" x="32.5" y="-294" font-family="Helvetica,sans-Serif" font-size="10.00"> </text>
</a>
</g>
</g>
<!-- Node2&#45;&gt;Node1 -->
<g id="edge1" class="edge">
<title>Node2&#45;&gt;Node1</title>
<path fill="none" stroke="midnightblue" d="M35.74,-276.75C40.05,-245.69 50.1,-201.9 73.5,-171 100.01,-135.99 141.44,-109.69 177.34,-91.81"/>
<polygon fill="none" stroke="midnightblue" points="32.25,-276.4 34.48,-286.76 39.2,-277.27 32.25,-276.4"/>
</g>
<!-- Node3 -->
<g id="node3" class="node">
<title>Node3</title>
<g id="a_node3"><a xlink:href="interfaceKyoo_1_1Controllers_1_1IFileManager.html" target="_top" xlink:title="A service to abstract the file system to allow custom file systems (like distant file systems or exte...">
<polygon fill="white" stroke="black" points="83,-248.5 83,-382.5 246,-382.5 246,-248.5 83,-248.5"/>
<text text-anchor="middle" x="164.5" y="-370.5" font-family="Helvetica,sans-Serif" font-size="10.00">Kyoo.Controllers.IFileManager</text>
<polyline fill="none" stroke="black" points="83,-363.5 246,-363.5 "/>
<text text-anchor="middle" x="164.5" y="-351.5" font-family="Helvetica,sans-Serif" font-size="10.00"> </text>
<polyline fill="none" stroke="black" points="83,-344.5 246,-344.5 "/>
<text text-anchor="start" x="91" y="-332.5" font-family="Helvetica,sans-Serif" font-size="10.00">+ FileResult()</text>
<text text-anchor="start" x="91" y="-321.5" font-family="Helvetica,sans-Serif" font-size="10.00">+ GetReader()</text>
<text text-anchor="start" x="91" y="-310.5" font-family="Helvetica,sans-Serif" font-size="10.00">+ NewFile()</text>
<text text-anchor="start" x="91" y="-299.5" font-family="Helvetica,sans-Serif" font-size="10.00">+ ListFiles()</text>
<text text-anchor="start" x="91" y="-288.5" font-family="Helvetica,sans-Serif" font-size="10.00">+ Exists()</text>
<text text-anchor="start" x="91" y="-277.5" font-family="Helvetica,sans-Serif" font-size="10.00">+ GetExtraDirectory()</text>
<text text-anchor="start" x="91" y="-266.5" font-family="Helvetica,sans-Serif" font-size="10.00">+ GetExtraDirectory()</text>
<text text-anchor="start" x="91" y="-255.5" font-family="Helvetica,sans-Serif" font-size="10.00">+ GetExtraDirectory()</text>
</a>
</g>
</g>
<!-- Node3&#45;&gt;Node1 -->
<g id="edge2" class="edge">
<title>Node3&#45;&gt;Node1</title>
<path fill="none" stroke="#404040" d="M186.57,-248.42C198.14,-213.77 212.34,-171.25 224.23,-135.67"/>
<polygon fill="none" stroke="#404040" points="224.36,-135.28 222.47,-128.32 228.16,-123.9 230.05,-130.85 224.36,-135.28"/>
<text text-anchor="middle" x="238" y="-145" font-family="Helvetica,sans-Serif" font-size="10.00"> &#45;_files</text>
</g>
<!-- Node4 -->
<g id="node4" class="node">
<title>Node4</title>
<g id="a_node4"><a xlink:href="interfaceKyoo_1_1Controllers_1_1ILibraryManager.html" target="_top" xlink:title="An interface to interract with the database. Every repository is mapped through here.">
<polygon fill="white" stroke="black" points="264,-171.5 264,-459.5 401,-459.5 401,-171.5 264,-171.5"/>
<text text-anchor="start" x="272" y="-447.5" font-family="Helvetica,sans-Serif" font-size="10.00">Kyoo.Controllers.ILibrary</text>
<text text-anchor="middle" x="332.5" y="-436.5" font-family="Helvetica,sans-Serif" font-size="10.00">Manager</text>
<polyline fill="none" stroke="black" points="264,-429.5 401,-429.5 "/>
<text text-anchor="start" x="272" y="-417.5" font-family="Helvetica,sans-Serif" font-size="10.00">+ LibraryRepository</text>
<text text-anchor="start" x="272" y="-406.5" font-family="Helvetica,sans-Serif" font-size="10.00">+ LibraryItemRepository</text>
<text text-anchor="start" x="272" y="-395.5" font-family="Helvetica,sans-Serif" font-size="10.00">+ CollectionRepository</text>
<text text-anchor="start" x="272" y="-384.5" font-family="Helvetica,sans-Serif" font-size="10.00">+ ShowRepository</text>
<text text-anchor="start" x="272" y="-373.5" font-family="Helvetica,sans-Serif" font-size="10.00">+ SeasonRepository</text>
<text text-anchor="start" x="272" y="-362.5" font-family="Helvetica,sans-Serif" font-size="10.00">+ EpisodeRepository</text>
<text text-anchor="start" x="272" y="-351.5" font-family="Helvetica,sans-Serif" font-size="10.00">+ TrackRepository</text>
<text text-anchor="start" x="272" y="-340.5" font-family="Helvetica,sans-Serif" font-size="10.00">+ PeopleRepository</text>
<text text-anchor="start" x="272" y="-329.5" font-family="Helvetica,sans-Serif" font-size="10.00">+ StudioRepository</text>
<text text-anchor="start" x="272" y="-318.5" font-family="Helvetica,sans-Serif" font-size="10.00">+ GenreRepository</text>
<text text-anchor="start" x="272" y="-307.5" font-family="Helvetica,sans-Serif" font-size="10.00">+ ProviderRepository</text>
<polyline fill="none" stroke="black" points="264,-300.5 401,-300.5 "/>
<text text-anchor="start" x="272" y="-288.5" font-family="Helvetica,sans-Serif" font-size="10.00">+ GetRepository&lt; T &gt;()</text>
<text text-anchor="start" x="272" y="-277.5" font-family="Helvetica,sans-Serif" font-size="10.00">+ Get&lt; T &gt;()</text>
<text text-anchor="start" x="272" y="-266.5" font-family="Helvetica,sans-Serif" font-size="10.00">+ Get&lt; T &gt;()</text>
<text text-anchor="start" x="272" y="-255.5" font-family="Helvetica,sans-Serif" font-size="10.00">+ Get&lt; T &gt;()</text>
<text text-anchor="start" x="272" y="-244.5" font-family="Helvetica,sans-Serif" font-size="10.00">+ Get()</text>
<text text-anchor="start" x="272" y="-233.5" font-family="Helvetica,sans-Serif" font-size="10.00">+ Get()</text>
<text text-anchor="start" x="272" y="-222.5" font-family="Helvetica,sans-Serif" font-size="10.00">+ Get()</text>
<text text-anchor="start" x="272" y="-211.5" font-family="Helvetica,sans-Serif" font-size="10.00">+ Get()</text>
<text text-anchor="start" x="272" y="-200.5" font-family="Helvetica,sans-Serif" font-size="10.00">+ Get()</text>
<text text-anchor="start" x="272" y="-189.5" font-family="Helvetica,sans-Serif" font-size="10.00">+ GetOrDefault&lt; T &gt;()</text>
<text text-anchor="start" x="272" y="-178.5" font-family="Helvetica,sans-Serif" font-size="10.00">and 35 more...</text>
</a>
</g>
</g>
<!-- Node4&#45;&gt;Node1 -->
<g id="edge3" class="edge">
<title>Node4&#45;&gt;Node1</title>
<path fill="none" stroke="#404040" d="M284.73,-171.48C280.57,-159.01 276.48,-146.76 272.63,-135.25"/>
<polygon fill="none" stroke="#404040" points="272.52,-134.93 266.83,-130.5 268.72,-123.55 274.42,-127.97 272.52,-134.93"/>
<text text-anchor="middle" x="322" y="-145" font-family="Helvetica,sans-Serif" font-size="10.00"> &#45;_libraryManager</text>
</g>
<!-- Node5 -->
<g id="node5" class="node">
<title>Node5</title>
<g id="a_node5"><a xlink:href="interfaceKyoo_1_1Controllers_1_1ITranscoder.html" target="_top" xlink:title=" ">
<polygon fill="white" stroke="black" points="419,-276 419,-355 574,-355 574,-276 419,-276"/>
<text text-anchor="middle" x="496.5" y="-343" font-family="Helvetica,sans-Serif" font-size="10.00">Kyoo.Controllers.ITranscoder</text>
<polyline fill="none" stroke="black" points="419,-336 574,-336 "/>
<text text-anchor="middle" x="496.5" y="-324" font-family="Helvetica,sans-Serif" font-size="10.00"> </text>
<polyline fill="none" stroke="black" points="419,-317 574,-317 "/>
<text text-anchor="start" x="427" y="-305" font-family="Helvetica,sans-Serif" font-size="10.00">+ ExtractInfos()</text>
<text text-anchor="start" x="427" y="-294" font-family="Helvetica,sans-Serif" font-size="10.00">+ Transmux()</text>
<text text-anchor="start" x="427" y="-283" font-family="Helvetica,sans-Serif" font-size="10.00">+ Transcode()</text>
</a>
</g>
</g>
<!-- Node5&#45;&gt;Node1 -->
<g id="edge4" class="edge">
<title>Node5&#45;&gt;Node1</title>
<path fill="none" stroke="#404040" d="M478.95,-275.95C463.74,-245.27 439.62,-202.42 410.5,-171 387.58,-146.27 357.92,-124.42 330.26,-106.95"/>
<polygon fill="none" stroke="#404040" points="329.98,-106.78 322.77,-107.03 319.77,-100.47 326.98,-100.22 329.98,-106.78"/>
<text text-anchor="middle" x="423.5" y="-145" font-family="Helvetica,sans-Serif" font-size="10.00"> &#45;_transcoder</text>
</g>
</g>
</svg>
