<?xml version="1.0" encoding="UTF-8" standalone="no"?>
<!DOCTYPE svg PUBLIC "-//W3C//DTD SVG 1.1//EN"
 "http://www.w3.org/Graphics/SVG/1.1/DTD/svg11.dtd">
<!-- Generated by graphviz version 2.43.0 (0)
 -->
<!-- Title: Kyoo.Models.Permissions.PartialPermissionAttribute Pages: 1 -->
<svg width="174pt" height="215pt"
 viewBox="0.00 0.00 173.50 215.00" xmlns="http://www.w3.org/2000/svg" xmlns:xlink="http://www.w3.org/1999/xlink">
<g id="graph0" class="graph" transform="scale(1 1) rotate(0) translate(4 211)">
<title>Kyoo.Models.Permissions.PartialPermissionAttribute</title>
<polygon fill="white" stroke="transparent" points="-4,4 -4,-211 169.5,-211 169.5,4 -4,4"/>
<!-- Node1 -->
<g id="node1" class="node">
<title>Node1</title>
<g id="a_node1"><a xlink:title="Specify one part of a permissions needed for the API (the kind or the type).">
<polygon fill="#bfbfbf" stroke="black" points="0,-0.5 0,-112.5 163,-112.5 163,-0.5 0,-0.5"/>
<text text-anchor="start" x="8" y="-100.5" font-family="Helvetica,sans-Serif" font-size="10.00">Kyoo.Models.Permissions.</text>
<text text-anchor="middle" x="81.5" y="-89.5" font-family="Helvetica,sans-Serif" font-size="10.00">PartialPermissionAttribute</text>
<polyline fill="none" stroke="black" points="0,-82.5 163,-82.5 "/>
<text text-anchor="start" x="8" y="-70.5" font-family="Helvetica,sans-Serif" font-size="10.00">+ IsReusable</text>
<text text-anchor="start" x="8" y="-59.5" font-family="Helvetica,sans-Serif" font-size="10.00">+ Type</text>
<text text-anchor="start" x="8" y="-48.5" font-family="Helvetica,sans-Serif" font-size="10.00">+ Kind</text>
<polyline fill="none" stroke="black" points="0,-41.5 163,-41.5 "/>
<text text-anchor="start" x="8" y="-29.5" font-family="Helvetica,sans-Serif" font-size="10.00">+ PartialPermissionAttribute()</text>
<text text-anchor="start" x="8" y="-18.5" font-family="Helvetica,sans-Serif" font-size="10.00">+ PartialPermissionAttribute()</text>
<text text-anchor="start" x="8" y="-7.5" font-family="Helvetica,sans-Serif" font-size="10.00">+ CreateInstance()</text>
</a>
</g>
</g>
<!-- Node2 -->
<g id="node2" class="node">
<title>Node2</title>
<g id="a_node2"><a xlink:title=" ">
<polygon fill="white" stroke="#bfbfbf" points="8,-149.5 8,-206.5 67,-206.5 67,-149.5 8,-149.5"/>
<text text-anchor="middle" x="37.5" y="-194.5" font-family="Helvetica,sans-Serif" font-size="10.00">Attribute</text>
<polyline fill="none" stroke="#bfbfbf" points="8,-187.5 67,-187.5 "/>
<text text-anchor="middle" x="37.5" y="-175.5" font-family="Helvetica,sans-Serif" font-size="10.00"> </text>
<polyline fill="none" stroke="#bfbfbf" points="8,-168.5 67,-168.5 "/>
<text text-anchor="middle" x="37.5" y="-156.5" font-family="Helvetica,sans-Serif" font-size="10.00"> </text>
</a>
</g>
</g>
<!-- Node2&#45;&gt;Node1 -->
<g id="edge1" class="edge">
<title>Node2&#45;&gt;Node1</title>
<path fill="none" stroke="midnightblue" d="M51.25,-139.66C54.38,-131.15 57.78,-121.92 61.13,-112.83"/>
<polygon fill="none" stroke="midnightblue" points="47.88,-138.69 47.71,-149.28 54.44,-141.11 47.88,-138.69"/>
</g>
<!-- Node3 -->
<g id="node3" class="node">
<title>Node3</title>
<g id="a_node3"><a xlink:title=" ">
<polygon fill="white" stroke="#bfbfbf" points="85.5,-149.5 85.5,-206.5 165.5,-206.5 165.5,-149.5 85.5,-149.5"/>
<text text-anchor="middle" x="125.5" y="-194.5" font-family="Helvetica,sans-Serif" font-size="10.00">IFilterFactory</text>
<polyline fill="none" stroke="#bfbfbf" points="85.5,-187.5 165.5,-187.5 "/>
<text text-anchor="middle" x="125.5" y="-175.5" font-family="Helvetica,sans-Serif" font-size="10.00"> </text>
<polyline fill="none" stroke="#bfbfbf" points="85.5,-168.5 165.5,-168.5 "/>
<text text-anchor="middle" x="125.5" y="-156.5" font-family="Helvetica,sans-Serif" font-size="10.00"> </text>
</a>
</g>
</g>
<!-- Node3&#45;&gt;Node1 -->
<g id="edge2" class="edge">
<title>Node3&#45;&gt;Node1</title>
<path fill="none" stroke="midnightblue" d="M111.75,-139.66C108.62,-131.15 105.22,-121.92 101.87,-112.83"/>
<polygon fill="none" stroke="midnightblue" points="108.56,-141.11 115.29,-149.28 115.12,-138.69 108.56,-141.11"/>
</g>
</g>
</svg>
