<?xml version="1.0" encoding="UTF-8" standalone="no"?>
<!DOCTYPE svg PUBLIC "-//W3C//DTD SVG 1.1//EN"
 "http://www.w3.org/Graphics/SVG/1.1/DTD/svg11.dtd">
<!-- Generated by graphviz version 2.43.0 (0)
 -->
<!-- Title: Kyoo.Controllers.ConditionalProvide Pages: 1 -->
<svg width="374pt" height="314pt"
 viewBox="0.00 0.00 373.50 314.00" xmlns="http://www.w3.org/2000/svg" xmlns:xlink="http://www.w3.org/1999/xlink">
<g id="graph0" class="graph" transform="scale(1 1) rotate(0) translate(4 310)">
<title>Kyoo.Controllers.ConditionalProvide</title>
<polygon fill="white" stroke="transparent" points="-4,4 -4,-310 369.5,-310 369.5,4 -4,4"/>
<!-- Node1 -->
<g id="node1" class="node">
<title>Node1</title>
<g id="a_node1"><a xlink:title="A type that will only be provided if a special condition is met. To check that your condition is met,...">
<polygon fill="#bfbfbf" stroke="black" points="100,-0.5 100,-90.5 272,-90.5 272,-0.5 100,-0.5"/>
<text text-anchor="start" x="108" y="-78.5" font-family="Helvetica,sans-Serif" font-size="10.00">Kyoo.Controllers.Conditional</text>
<text text-anchor="middle" x="186" y="-67.5" font-family="Helvetica,sans-Serif" font-size="10.00">Provide</text>
<polyline fill="none" stroke="black" points="100,-60.5 272,-60.5 "/>
<text text-anchor="start" x="108" y="-48.5" font-family="Helvetica,sans-Serif" font-size="10.00">+ Type</text>
<polyline fill="none" stroke="black" points="100,-41.5 272,-41.5 "/>
<text text-anchor="start" x="108" y="-29.5" font-family="Helvetica,sans-Serif" font-size="10.00">+ ConditionalProvide()</text>
<text text-anchor="start" x="108" y="-18.5" font-family="Helvetica,sans-Serif" font-size="10.00">+ ConditionalProvide()</text>
<text text-anchor="start" x="108" y="-7.5" font-family="Helvetica,sans-Serif" font-size="10.00">+ operator ConditionalProvide()</text>
</a>
</g>
</g>
<!-- Node2 -->
<g id="node2" class="node">
<title>Node2</title>
<g id="a_node2"><a xlink:title=" ">
<polygon fill="white" stroke="#bfbfbf" points="0,-193.5 0,-250.5 180,-250.5 180,-193.5 0,-193.5"/>
<text text-anchor="middle" x="90" y="-238.5" font-family="Helvetica,sans-Serif" font-size="10.00">Tuple&lt; Type, ProviderCondition &gt;</text>
<polyline fill="none" stroke="#bfbfbf" points="0,-231.5 180,-231.5 "/>
<text text-anchor="middle" x="90" y="-219.5" font-family="Helvetica,sans-Serif" font-size="10.00"> </text>
<polyline fill="none" stroke="#bfbfbf" points="0,-212.5 180,-212.5 "/>
<text text-anchor="middle" x="90" y="-200.5" font-family="Helvetica,sans-Serif" font-size="10.00"> </text>
</a>
</g>
</g>
<!-- Node2&#45;&gt;Node1 -->
<g id="edge1" class="edge">
<title>Node2&#45;&gt;Node1</title>
<path fill="none" stroke="midnightblue" d="M110.08,-184.5C125.11,-157.18 145.74,-119.69 161.7,-90.67"/>
<polygon fill="none" stroke="midnightblue" points="106.97,-182.9 105.21,-193.35 113.1,-186.28 106.97,-182.9"/>
</g>
<!-- Node3 -->
<g id="node3" class="node">
<title>Node3</title>
<g id="a_node3"><a xlink:href="classKyoo_1_1Controllers_1_1ProviderCondition.html" target="_top" xlink:title="A condition for a conditional type.">
<polygon fill="white" stroke="black" points="198.5,-138.5 198.5,-305.5 365.5,-305.5 365.5,-138.5 198.5,-138.5"/>
<text text-anchor="start" x="206.5" y="-293.5" font-family="Helvetica,sans-Serif" font-size="10.00">Kyoo.Controllers.Provider</text>
<text text-anchor="middle" x="282" y="-282.5" font-family="Helvetica,sans-Serif" font-size="10.00">Condition</text>
<polyline fill="none" stroke="black" points="198.5,-275.5 365.5,-275.5 "/>
<text text-anchor="start" x="206.5" y="-263.5" font-family="Helvetica,sans-Serif" font-size="10.00">+ Condition</text>
<text text-anchor="start" x="206.5" y="-252.5" font-family="Helvetica,sans-Serif" font-size="10.00">+ Needed</text>
<polyline fill="none" stroke="black" points="198.5,-245.5 365.5,-245.5 "/>
<text text-anchor="start" x="206.5" y="-233.5" font-family="Helvetica,sans-Serif" font-size="10.00">+ ProviderCondition()</text>
<text text-anchor="start" x="206.5" y="-222.5" font-family="Helvetica,sans-Serif" font-size="10.00">+ ProviderCondition()</text>
<text text-anchor="start" x="206.5" y="-211.5" font-family="Helvetica,sans-Serif" font-size="10.00">+ ProviderCondition()</text>
<text text-anchor="start" x="206.5" y="-200.5" font-family="Helvetica,sans-Serif" font-size="10.00">+ ProviderCondition()</text>
<text text-anchor="start" x="206.5" y="-189.5" font-family="Helvetica,sans-Serif" font-size="10.00">+ operator ProviderCondition()</text>
<text text-anchor="start" x="206.5" y="-178.5" font-family="Helvetica,sans-Serif" font-size="10.00">+ operator ProviderCondition()</text>
<text text-anchor="start" x="206.5" y="-167.5" font-family="Helvetica,sans-Serif" font-size="10.00">+ operator ProviderCondition()</text>
<text text-anchor="start" x="206.5" y="-156.5" font-family="Helvetica,sans-Serif" font-size="10.00">+ Has()</text>
<text text-anchor="start" x="206.5" y="-145.5" font-family="Helvetica,sans-Serif" font-size="10.00">+ Has()</text>
</a>
</g>
</g>
<!-- Node3&#45;&gt;Node1 -->
<g id="edge2" class="edge">
<title>Node3&#45;&gt;Node1</title>
<path fill="none" stroke="#404040" d="M236.53,-138.35C229.7,-125.93 222.8,-113.39 216.39,-101.73"/>
<polygon fill="none" stroke="#404040" points="216.19,-101.38 209.79,-98.05 210.41,-90.86 216.8,-94.19 216.19,-101.38"/>
<text text-anchor="middle" x="255" y="-112" font-family="Helvetica,sans-Serif" font-size="10.00"> +Condition</text>
</g>
</g>
</svg>
