<?xml version="1.0" encoding="UTF-8" standalone="no"?>
<!DOCTYPE svg PUBLIC "-//W3C//DTD SVG 1.1//EN"
 "http://www.w3.org/Graphics/SVG/1.1/DTD/svg11.dtd">
<!-- Generated by graphviz version 2.43.0 (0)
 -->
<!-- Title: Kyoo.Api.TaskApi Pages: 1 -->
<svg width="282pt" height="215pt"
 viewBox="0.00 0.00 282.00 215.00" xmlns="http://www.w3.org/2000/svg" xmlns:xlink="http://www.w3.org/1999/xlink">
<g id="graph0" class="graph" transform="scale(1 1) rotate(0) translate(4 211)">
<title>Kyoo.Api.TaskApi</title>
<polygon fill="white" stroke="transparent" points="-4,4 -4,-211 278,-211 278,4 -4,4"/>
<!-- Node1 -->
<g id="node1" class="node">
<title>Node1</title>
<g id="a_node1"><a xlink:title=" ">
<polygon fill="#bfbfbf" stroke="black" points="67.5,-0.5 67.5,-79.5 167.5,-79.5 167.5,-0.5 67.5,-0.5"/>
<text text-anchor="middle" x="117.5" y="-67.5" font-family="Helvetica,sans-Serif" font-size="10.00">Kyoo.Api.TaskApi</text>
<polyline fill="none" stroke="black" points="67.5,-60.5 167.5,-60.5 "/>
<text text-anchor="middle" x="117.5" y="-48.5" font-family="Helvetica,sans-Serif" font-size="10.00"> </text>
<polyline fill="none" stroke="black" points="67.5,-41.5 167.5,-41.5 "/>
<text text-anchor="start" x="75.5" y="-29.5" font-family="Helvetica,sans-Serif" font-size="10.00">+ TaskApi()</text>
<text text-anchor="start" x="75.5" y="-18.5" font-family="Helvetica,sans-Serif" font-size="10.00">+ GetTasks()</text>
<text text-anchor="start" x="75.5" y="-7.5" font-family="Helvetica,sans-Serif" font-size="10.00">+ RunTask()</text>
</a>
</g>
</g>
<!-- Node2 -->
<g id="node2" class="node">
<title>Node2</title>
<g id="a_node2"><a xlink:title=" ">
<polygon fill="white" stroke="#bfbfbf" points="0,-138.5 0,-195.5 89,-195.5 89,-138.5 0,-138.5"/>
<text text-anchor="middle" x="44.5" y="-183.5" font-family="Helvetica,sans-Serif" font-size="10.00">ControllerBase</text>
<polyline fill="none" stroke="#bfbfbf" points="0,-176.5 89,-176.5 "/>
<text text-anchor="middle" x="44.5" y="-164.5" font-family="Helvetica,sans-Serif" font-size="10.00"> </text>
<polyline fill="none" stroke="#bfbfbf" points="0,-157.5 89,-157.5 "/>
<text text-anchor="middle" x="44.5" y="-145.5" font-family="Helvetica,sans-Serif" font-size="10.00"> </text>
</a>
</g>
</g>
<!-- Node2&#45;&gt;Node1 -->
<g id="edge1" class="edge">
<title>Node2&#45;&gt;Node1</title>
<path fill="none" stroke="midnightblue" d="M65.89,-129.38C75.03,-113.72 85.71,-95.43 94.98,-79.57"/>
<polygon fill="none" stroke="midnightblue" points="62.72,-127.86 60.7,-138.26 68.77,-131.39 62.72,-127.86"/>
</g>
<!-- Node3 -->
<g id="node3" class="node">
<title>Node3</title>
<g id="a_node3"><a xlink:href="interfaceKyoo_1_1Controllers_1_1ITaskManager.html" target="_top" xlink:title="A service to handle long running tasks.">
<polygon fill="white" stroke="black" points="107,-127.5 107,-206.5 274,-206.5 274,-127.5 107,-127.5"/>
<text text-anchor="middle" x="190.5" y="-194.5" font-family="Helvetica,sans-Serif" font-size="10.00">Kyoo.Controllers.ITaskManager</text>
<polyline fill="none" stroke="black" points="107,-187.5 274,-187.5 "/>
<text text-anchor="middle" x="190.5" y="-175.5" font-family="Helvetica,sans-Serif" font-size="10.00"> </text>
<polyline fill="none" stroke="black" points="107,-168.5 274,-168.5 "/>
<text text-anchor="start" x="115" y="-156.5" font-family="Helvetica,sans-Serif" font-size="10.00">+ StartTask()</text>
<text text-anchor="start" x="115" y="-145.5" font-family="Helvetica,sans-Serif" font-size="10.00">+ GetRunningTasks()</text>
<text text-anchor="start" x="115" y="-134.5" font-family="Helvetica,sans-Serif" font-size="10.00">+ GetAllTasks()</text>
</a>
</g>
</g>
<!-- Node3&#45;&gt;Node1 -->
<g id="edge2" class="edge">
<title>Node3&#45;&gt;Node1</title>
<path fill="none" stroke="#404040" d="M168,-127.48C161.13,-115.71 153.48,-102.62 146.26,-90.24"/>
<polygon fill="none" stroke="#404040" points="146.1,-89.97 139.62,-86.81 140.05,-79.61 146.53,-82.78 146.1,-89.97"/>
<text text-anchor="middle" x="194.5" y="-101" font-family="Helvetica,sans-Serif" font-size="10.00"> &#45;_taskManager</text>
</g>
</g>
</svg>
