<?xml version="1.0" encoding="UTF-8" standalone="no"?>
<!DOCTYPE svg PUBLIC "-//W3C//DTD SVG 1.1//EN"
 "http://www.w3.org/Graphics/SVG/1.1/DTD/svg11.dtd">
<!-- Generated by graphviz version 2.43.0 (0)
 -->
<!-- Title: Kyoo.Controllers.GenreRepository Pages: 1 -->
<svg width="288pt" height="606pt"
 viewBox="0.00 0.00 287.50 606.00" xmlns="http://www.w3.org/2000/svg" xmlns:xlink="http://www.w3.org/1999/xlink">
<g id="graph0" class="graph" transform="scale(1 1) rotate(0) translate(4 602)">
<title>Kyoo.Controllers.GenreRepository</title>
<polygon fill="white" stroke="transparent" points="-4,4 -4,-602 283.5,-602 283.5,4 -4,4"/>
<!-- Node1 -->
<g id="node1" class="node">
<title>Node1</title>
<g id="a_node1"><a xlink:title="A local repository for genres.">
<polygon fill="#bfbfbf" stroke="black" points="54.5,-0.5 54.5,-101.5 236.5,-101.5 236.5,-0.5 54.5,-0.5"/>
<text text-anchor="middle" x="145.5" y="-89.5" font-family="Helvetica,sans-Serif" font-size="10.00">Kyoo.Controllers.GenreRepository</text>
<polyline fill="none" stroke="black" points="54.5,-82.5 236.5,-82.5 "/>
<text text-anchor="start" x="62.5" y="-70.5" font-family="Helvetica,sans-Serif" font-size="10.00"># DefaultSort</text>
<text text-anchor="start" x="62.5" y="-59.5" font-family="Helvetica,sans-Serif" font-size="10.00">&#45; _database</text>
<polyline fill="none" stroke="black" points="54.5,-52.5 236.5,-52.5 "/>
<text text-anchor="start" x="62.5" y="-40.5" font-family="Helvetica,sans-Serif" font-size="10.00">+ GenreRepository()</text>
<text text-anchor="start" x="62.5" y="-29.5" font-family="Helvetica,sans-Serif" font-size="10.00">+ Search()</text>
<text text-anchor="start" x="62.5" y="-18.5" font-family="Helvetica,sans-Serif" font-size="10.00">+ Create()</text>
<text text-anchor="start" x="62.5" y="-7.5" font-family="Helvetica,sans-Serif" font-size="10.00">+ Delete()</text>
</a>
</g>
</g>
<!-- Node2 -->
<g id="node2" class="node">
<title>Node2</title>
<g id="a_node2"><a xlink:href="classKyoo_1_1Controllers_1_1LocalRepository.html" target="_top" xlink:title=" ">
<polygon fill="white" stroke="black" points="0,-138.5 0,-393.5 149,-393.5 149,-138.5 0,-138.5"/>
<text text-anchor="middle" x="74.5" y="-381.5" font-family="Helvetica,sans-Serif" font-size="10.00">LocalRepository&lt; Genre &gt;</text>
<polyline fill="none" stroke="black" points="0,-374.5 149,-374.5 "/>
<text text-anchor="start" x="8" y="-362.5" font-family="Helvetica,sans-Serif" font-size="10.00">+ RepositoryType</text>
<text text-anchor="start" x="8" y="-351.5" font-family="Helvetica,sans-Serif" font-size="10.00">+ DefaultSort</text>
<text text-anchor="start" x="8" y="-340.5" font-family="Helvetica,sans-Serif" font-size="10.00"># Database</text>
<polyline fill="none" stroke="black" points="0,-333.5 149,-333.5 "/>
<text text-anchor="start" x="8" y="-321.5" font-family="Helvetica,sans-Serif" font-size="10.00">+ Get()</text>
<text text-anchor="start" x="8" y="-310.5" font-family="Helvetica,sans-Serif" font-size="10.00">+ Get()</text>
<text text-anchor="start" x="8" y="-299.5" font-family="Helvetica,sans-Serif" font-size="10.00">+ Get()</text>
<text text-anchor="start" x="8" y="-288.5" font-family="Helvetica,sans-Serif" font-size="10.00">+ GetOrDefault()</text>
<text text-anchor="start" x="8" y="-277.5" font-family="Helvetica,sans-Serif" font-size="10.00">+ GetOrDefault()</text>
<text text-anchor="start" x="8" y="-266.5" font-family="Helvetica,sans-Serif" font-size="10.00">+ GetOrDefault()</text>
<text text-anchor="start" x="8" y="-255.5" font-family="Helvetica,sans-Serif" font-size="10.00">+ Search()</text>
<text text-anchor="start" x="8" y="-244.5" font-family="Helvetica,sans-Serif" font-size="10.00">+ GetAll()</text>
<text text-anchor="start" x="8" y="-233.5" font-family="Helvetica,sans-Serif" font-size="10.00">+ GetCount()</text>
<text text-anchor="start" x="8" y="-222.5" font-family="Helvetica,sans-Serif" font-size="10.00">+ Create()</text>
<text text-anchor="start" x="8" y="-211.5" font-family="Helvetica,sans-Serif" font-size="10.00">and 9 more...</text>
<text text-anchor="start" x="8" y="-200.5" font-family="Helvetica,sans-Serif" font-size="10.00"># LocalRepository()</text>
<text text-anchor="start" x="8" y="-189.5" font-family="Helvetica,sans-Serif" font-size="10.00"># GetWithTracking()</text>
<text text-anchor="start" x="8" y="-178.5" font-family="Helvetica,sans-Serif" font-size="10.00"># ApplyFilters()</text>
<text text-anchor="start" x="8" y="-167.5" font-family="Helvetica,sans-Serif" font-size="10.00"># ApplyFilters&lt; TValue &gt;()</text>
<text text-anchor="start" x="8" y="-156.5" font-family="Helvetica,sans-Serif" font-size="10.00"># EditRelations()</text>
<text text-anchor="start" x="8" y="-145.5" font-family="Helvetica,sans-Serif" font-size="10.00"># Validate()</text>
</a>
</g>
</g>
<!-- Node2&#45;&gt;Node1 -->
<g id="edge1" class="edge">
<title>Node2&#45;&gt;Node1</title>
<path fill="none" stroke="midnightblue" d="M119.91,-128.77C123.06,-119.31 126.1,-110.19 128.92,-101.75"/>
<polygon fill="none" stroke="midnightblue" points="116.57,-127.73 116.72,-138.33 123.21,-129.95 116.57,-127.73"/>
</g>
<!-- Node3 -->
<g id="node3" class="node">
<title>Node3</title>
<g id="a_node3"><a xlink:href="interfaceKyoo_1_1Controllers_1_1IGenreRepository.html" target="_top" xlink:title="A repository for genres.">
<polygon fill="white" stroke="black" points="167,-237.5 167,-294.5 268,-294.5 268,-237.5 167,-237.5"/>
<text text-anchor="middle" x="217.5" y="-282.5" font-family="Helvetica,sans-Serif" font-size="10.00">IGenreRepository</text>
<polyline fill="none" stroke="black" points="167,-275.5 268,-275.5 "/>
<text text-anchor="middle" x="217.5" y="-263.5" font-family="Helvetica,sans-Serif" font-size="10.00"> </text>
<polyline fill="none" stroke="black" points="167,-256.5 268,-256.5 "/>
<text text-anchor="middle" x="217.5" y="-244.5" font-family="Helvetica,sans-Serif" font-size="10.00"> </text>
</a>
</g>
</g>
<!-- Node3&#45;&gt;Node1 -->
<g id="edge2" class="edge">
<title>Node3&#45;&gt;Node1</title>
<path fill="none" stroke="midnightblue" d="M204.77,-227.35C192.97,-192.43 175.33,-140.24 162.36,-101.87"/>
<polygon fill="none" stroke="midnightblue" points="201.57,-228.8 208.09,-237.15 208.2,-226.56 201.57,-228.8"/>
</g>
<!-- Node4 -->
<g id="node4" class="node">
<title>Node4</title>
<g id="a_node4"><a xlink:href="interfaceKyoo_1_1Controllers_1_1IRepository.html" target="_top" xlink:title=" ">
<polygon fill="white" stroke="black" points="155.5,-430.5 155.5,-597.5 279.5,-597.5 279.5,-430.5 155.5,-430.5"/>
<text text-anchor="middle" x="217.5" y="-585.5" font-family="Helvetica,sans-Serif" font-size="10.00">IRepository&lt; Genre &gt;</text>
<polyline fill="none" stroke="black" points="155.5,-578.5 279.5,-578.5 "/>
<text text-anchor="middle" x="217.5" y="-566.5" font-family="Helvetica,sans-Serif" font-size="10.00"> </text>
<polyline fill="none" stroke="black" points="155.5,-559.5 279.5,-559.5 "/>
<text text-anchor="start" x="163.5" y="-547.5" font-family="Helvetica,sans-Serif" font-size="10.00">+ Get()</text>
<text text-anchor="start" x="163.5" y="-536.5" font-family="Helvetica,sans-Serif" font-size="10.00">+ Get()</text>
<text text-anchor="start" x="163.5" y="-525.5" font-family="Helvetica,sans-Serif" font-size="10.00">+ Get()</text>
<text text-anchor="start" x="163.5" y="-514.5" font-family="Helvetica,sans-Serif" font-size="10.00">+ GetOrDefault()</text>
<text text-anchor="start" x="163.5" y="-503.5" font-family="Helvetica,sans-Serif" font-size="10.00">+ GetOrDefault()</text>
<text text-anchor="start" x="163.5" y="-492.5" font-family="Helvetica,sans-Serif" font-size="10.00">+ GetOrDefault()</text>
<text text-anchor="start" x="163.5" y="-481.5" font-family="Helvetica,sans-Serif" font-size="10.00">+ Search()</text>
<text text-anchor="start" x="163.5" y="-470.5" font-family="Helvetica,sans-Serif" font-size="10.00">+ GetAll()</text>
<text text-anchor="start" x="163.5" y="-459.5" font-family="Helvetica,sans-Serif" font-size="10.00">+ GetAll()</text>
<text text-anchor="start" x="163.5" y="-448.5" font-family="Helvetica,sans-Serif" font-size="10.00">+ GetCount()</text>
<text text-anchor="start" x="163.5" y="-437.5" font-family="Helvetica,sans-Serif" font-size="10.00">and 13 more...</text>
</a>
</g>
</g>
<!-- Node4&#45;&gt;Node3 -->
<g id="edge3" class="edge">
<title>Node4&#45;&gt;Node3</title>
<path fill="none" stroke="midnightblue" d="M217.5,-420.36C217.5,-375.62 217.5,-325.15 217.5,-294.73"/>
<polygon fill="none" stroke="midnightblue" points="214,-420.4 217.5,-430.4 221,-420.4 214,-420.4"/>
</g>
</g>
</svg>
