<?xml version="1.0" encoding="UTF-8" standalone="no"?>
<!DOCTYPE svg PUBLIC "-//W3C//DTD SVG 1.1//EN"
 "http://www.w3.org/Graphics/SVG/1.1/DTD/svg11.dtd">
<!-- Generated by graphviz version 2.43.0 (0)
 -->
<!-- Title: Kyoo.Api.WatchApi Pages: 1 -->
<svg width="252pt" height="413pt"
 viewBox="0.00 0.00 252.00 413.00" xmlns="http://www.w3.org/2000/svg" xmlns:xlink="http://www.w3.org/1999/xlink">
<g id="graph0" class="graph" transform="scale(1 1) rotate(0) translate(4 409)">
<title>Kyoo.Api.WatchApi</title>
<polygon fill="white" stroke="transparent" points="-4,4 -4,-409 248,-409 248,4 -4,4"/>
<!-- Node1 -->
<g id="node1" class="node">
<title>Node1</title>
<g id="a_node1"><a xlink:title=" ">
<polygon fill="#bfbfbf" stroke="black" points="55.5,-0.5 55.5,-68.5 163.5,-68.5 163.5,-0.5 55.5,-0.5"/>
<text text-anchor="middle" x="109.5" y="-56.5" font-family="Helvetica,sans-Serif" font-size="10.00">Kyoo.Api.WatchApi</text>
<polyline fill="none" stroke="black" points="55.5,-49.5 163.5,-49.5 "/>
<text text-anchor="middle" x="109.5" y="-37.5" font-family="Helvetica,sans-Serif" font-size="10.00"> </text>
<polyline fill="none" stroke="black" points="55.5,-30.5 163.5,-30.5 "/>
<text text-anchor="start" x="63.5" y="-18.5" font-family="Helvetica,sans-Serif" font-size="10.00">+ WatchApi()</text>
<text text-anchor="start" x="63.5" y="-7.5" font-family="Helvetica,sans-Serif" font-size="10.00">+ GetWatchItem()</text>
</a>
</g>
</g>
<!-- Node2 -->
<g id="node2" class="node">
<title>Node2</title>
<g id="a_node2"><a xlink:title=" ">
<polygon fill="white" stroke="#bfbfbf" points="0,-232 0,-289 89,-289 89,-232 0,-232"/>
<text text-anchor="middle" x="44.5" y="-277" font-family="Helvetica,sans-Serif" font-size="10.00">ControllerBase</text>
<polyline fill="none" stroke="#bfbfbf" points="0,-270 89,-270 "/>
<text text-anchor="middle" x="44.5" y="-258" font-family="Helvetica,sans-Serif" font-size="10.00"> </text>
<polyline fill="none" stroke="#bfbfbf" points="0,-251 89,-251 "/>
<text text-anchor="middle" x="44.5" y="-239" font-family="Helvetica,sans-Serif" font-size="10.00"> </text>
</a>
</g>
</g>
<!-- Node2&#45;&gt;Node1 -->
<g id="edge1" class="edge">
<title>Node2&#45;&gt;Node1</title>
<path fill="none" stroke="midnightblue" d="M55.44,-221.8C67.9,-178.86 88.06,-109.39 99.92,-68.51"/>
<polygon fill="none" stroke="midnightblue" points="52.03,-221 52.6,-231.58 58.75,-222.95 52.03,-221"/>
</g>
<!-- Node3 -->
<g id="node3" class="node">
<title>Node3</title>
<g id="a_node3"><a xlink:href="interfaceKyoo_1_1Controllers_1_1ILibraryManager.html" target="_top" xlink:title="An interface to interract with the database. Every repository is mapped through here.">
<polygon fill="white" stroke="black" points="107,-116.5 107,-404.5 244,-404.5 244,-116.5 107,-116.5"/>
<text text-anchor="start" x="115" y="-392.5" font-family="Helvetica,sans-Serif" font-size="10.00">Kyoo.Controllers.ILibrary</text>
<text text-anchor="middle" x="175.5" y="-381.5" font-family="Helvetica,sans-Serif" font-size="10.00">Manager</text>
<polyline fill="none" stroke="black" points="107,-374.5 244,-374.5 "/>
<text text-anchor="start" x="115" y="-362.5" font-family="Helvetica,sans-Serif" font-size="10.00">+ LibraryRepository</text>
<text text-anchor="start" x="115" y="-351.5" font-family="Helvetica,sans-Serif" font-size="10.00">+ LibraryItemRepository</text>
<text text-anchor="start" x="115" y="-340.5" font-family="Helvetica,sans-Serif" font-size="10.00">+ CollectionRepository</text>
<text text-anchor="start" x="115" y="-329.5" font-family="Helvetica,sans-Serif" font-size="10.00">+ ShowRepository</text>
<text text-anchor="start" x="115" y="-318.5" font-family="Helvetica,sans-Serif" font-size="10.00">+ SeasonRepository</text>
<text text-anchor="start" x="115" y="-307.5" font-family="Helvetica,sans-Serif" font-size="10.00">+ EpisodeRepository</text>
<text text-anchor="start" x="115" y="-296.5" font-family="Helvetica,sans-Serif" font-size="10.00">+ TrackRepository</text>
<text text-anchor="start" x="115" y="-285.5" font-family="Helvetica,sans-Serif" font-size="10.00">+ PeopleRepository</text>
<text text-anchor="start" x="115" y="-274.5" font-family="Helvetica,sans-Serif" font-size="10.00">+ StudioRepository</text>
<text text-anchor="start" x="115" y="-263.5" font-family="Helvetica,sans-Serif" font-size="10.00">+ GenreRepository</text>
<text text-anchor="start" x="115" y="-252.5" font-family="Helvetica,sans-Serif" font-size="10.00">+ ProviderRepository</text>
<polyline fill="none" stroke="black" points="107,-245.5 244,-245.5 "/>
<text text-anchor="start" x="115" y="-233.5" font-family="Helvetica,sans-Serif" font-size="10.00">+ GetRepository&lt; T &gt;()</text>
<text text-anchor="start" x="115" y="-222.5" font-family="Helvetica,sans-Serif" font-size="10.00">+ Get&lt; T &gt;()</text>
<text text-anchor="start" x="115" y="-211.5" font-family="Helvetica,sans-Serif" font-size="10.00">+ Get&lt; T &gt;()</text>
<text text-anchor="start" x="115" y="-200.5" font-family="Helvetica,sans-Serif" font-size="10.00">+ Get&lt; T &gt;()</text>
<text text-anchor="start" x="115" y="-189.5" font-family="Helvetica,sans-Serif" font-size="10.00">+ Get()</text>
<text text-anchor="start" x="115" y="-178.5" font-family="Helvetica,sans-Serif" font-size="10.00">+ Get()</text>
<text text-anchor="start" x="115" y="-167.5" font-family="Helvetica,sans-Serif" font-size="10.00">+ Get()</text>
<text text-anchor="start" x="115" y="-156.5" font-family="Helvetica,sans-Serif" font-size="10.00">+ Get()</text>
<text text-anchor="start" x="115" y="-145.5" font-family="Helvetica,sans-Serif" font-size="10.00">+ Get()</text>
<text text-anchor="start" x="115" y="-134.5" font-family="Helvetica,sans-Serif" font-size="10.00">+ GetOrDefault&lt; T &gt;()</text>
<text text-anchor="start" x="115" y="-123.5" font-family="Helvetica,sans-Serif" font-size="10.00">and 35 more...</text>
</a>
</g>
</g>
<!-- Node3&#45;&gt;Node1 -->
<g id="edge2" class="edge">
<title>Node3&#45;&gt;Node1</title>
<path fill="none" stroke="#404040" d="M133.33,-116.37C129.55,-103.54 125.94,-91.29 122.73,-80.4"/>
<polygon fill="none" stroke="#404040" points="122.67,-80.21 117.14,-75.59 119.28,-68.7 124.82,-73.33 122.67,-80.21"/>
<text text-anchor="middle" x="171" y="-90" font-family="Helvetica,sans-Serif" font-size="10.00"> &#45;_libraryManager</text>
</g>
</g>
</svg>
