<?xml version="1.0" encoding="UTF-8" standalone="no"?>
<!DOCTYPE svg PUBLIC "-//W3C//DTD SVG 1.1//EN"
 "http://www.w3.org/Graphics/SVG/1.1/DTD/svg11.dtd">
<!-- Generated by graphviz version 2.43.0 (0)
 -->
<!-- Title: Kyoo.Controllers.SeasonRepository Pages: 1 -->
<svg width="830pt" height="860pt"
 viewBox="0.00 0.00 830.00 860.00" xmlns="http://www.w3.org/2000/svg" xmlns:xlink="http://www.w3.org/1999/xlink">
<g id="graph0" class="graph" transform="scale(1 1) rotate(0) translate(4 856)">
<title>Kyoo.Controllers.SeasonRepository</title>
<polygon fill="white" stroke="transparent" points="-4,4 -4,-856 826,-856 826,4 -4,4"/>
<!-- Node1 -->
<g id="node1" class="node">
<title>Node1</title>
<g id="a_node1"><a xlink:title="A local repository to handle seasons.">
<polygon fill="#bfbfbf" stroke="black" points="293,-0.5 293,-211.5 481,-211.5 481,-0.5 293,-0.5"/>
<text text-anchor="middle" x="387" y="-199.5" font-family="Helvetica,sans-Serif" font-size="10.00">Kyoo.Controllers.SeasonRepository</text>
<polyline fill="none" stroke="black" points="293,-192.5 481,-192.5 "/>
<text text-anchor="start" x="301" y="-180.5" font-family="Helvetica,sans-Serif" font-size="10.00"># DefaultSort</text>
<text text-anchor="start" x="301" y="-169.5" font-family="Helvetica,sans-Serif" font-size="10.00">&#45; _episodes</text>
<polyline fill="none" stroke="black" points="293,-162.5 481,-162.5 "/>
<text text-anchor="start" x="301" y="-150.5" font-family="Helvetica,sans-Serif" font-size="10.00">+ SeasonRepository()</text>
<text text-anchor="start" x="301" y="-139.5" font-family="Helvetica,sans-Serif" font-size="10.00">+ Get()</text>
<text text-anchor="start" x="301" y="-128.5" font-family="Helvetica,sans-Serif" font-size="10.00">+ Get()</text>
<text text-anchor="start" x="301" y="-117.5" font-family="Helvetica,sans-Serif" font-size="10.00">+ Get()</text>
<text text-anchor="start" x="301" y="-106.5" font-family="Helvetica,sans-Serif" font-size="10.00">+ Get()</text>
<text text-anchor="start" x="301" y="-95.5" font-family="Helvetica,sans-Serif" font-size="10.00">+ Get()</text>
<text text-anchor="start" x="301" y="-84.5" font-family="Helvetica,sans-Serif" font-size="10.00">+ GetOrDefault()</text>
<text text-anchor="start" x="301" y="-73.5" font-family="Helvetica,sans-Serif" font-size="10.00">+ GetOrDefault()</text>
<text text-anchor="start" x="301" y="-62.5" font-family="Helvetica,sans-Serif" font-size="10.00">+ Search()</text>
<text text-anchor="start" x="301" y="-51.5" font-family="Helvetica,sans-Serif" font-size="10.00">+ GetAll()</text>
<text text-anchor="start" x="301" y="-40.5" font-family="Helvetica,sans-Serif" font-size="10.00">+ Create()</text>
<text text-anchor="start" x="301" y="-29.5" font-family="Helvetica,sans-Serif" font-size="10.00">+ Delete()</text>
<text text-anchor="start" x="301" y="-18.5" font-family="Helvetica,sans-Serif" font-size="10.00"># Validate()</text>
<text text-anchor="start" x="301" y="-7.5" font-family="Helvetica,sans-Serif" font-size="10.00"># EditRelations()</text>
</a>
</g>
</g>
<!-- Node2 -->
<g id="node2" class="node">
<title>Node2</title>
<g id="a_node2"><a xlink:href="classKyoo_1_1Controllers_1_1LocalRepository.html" target="_top" xlink:title=" ">
<polygon fill="white" stroke="black" points="0,-325.5 0,-580.5 152,-580.5 152,-325.5 0,-325.5"/>
<text text-anchor="middle" x="76" y="-568.5" font-family="Helvetica,sans-Serif" font-size="10.00">LocalRepository&lt; Season &gt;</text>
<polyline fill="none" stroke="black" points="0,-561.5 152,-561.5 "/>
<text text-anchor="start" x="8" y="-549.5" font-family="Helvetica,sans-Serif" font-size="10.00">+ RepositoryType</text>
<text text-anchor="start" x="8" y="-538.5" font-family="Helvetica,sans-Serif" font-size="10.00">+ DefaultSort</text>
<text text-anchor="start" x="8" y="-527.5" font-family="Helvetica,sans-Serif" font-size="10.00"># Database</text>
<polyline fill="none" stroke="black" points="0,-520.5 152,-520.5 "/>
<text text-anchor="start" x="8" y="-508.5" font-family="Helvetica,sans-Serif" font-size="10.00">+ Get()</text>
<text text-anchor="start" x="8" y="-497.5" font-family="Helvetica,sans-Serif" font-size="10.00">+ Get()</text>
<text text-anchor="start" x="8" y="-486.5" font-family="Helvetica,sans-Serif" font-size="10.00">+ Get()</text>
<text text-anchor="start" x="8" y="-475.5" font-family="Helvetica,sans-Serif" font-size="10.00">+ GetOrDefault()</text>
<text text-anchor="start" x="8" y="-464.5" font-family="Helvetica,sans-Serif" font-size="10.00">+ GetOrDefault()</text>
<text text-anchor="start" x="8" y="-453.5" font-family="Helvetica,sans-Serif" font-size="10.00">+ GetOrDefault()</text>
<text text-anchor="start" x="8" y="-442.5" font-family="Helvetica,sans-Serif" font-size="10.00">+ Search()</text>
<text text-anchor="start" x="8" y="-431.5" font-family="Helvetica,sans-Serif" font-size="10.00">+ GetAll()</text>
<text text-anchor="start" x="8" y="-420.5" font-family="Helvetica,sans-Serif" font-size="10.00">+ GetCount()</text>
<text text-anchor="start" x="8" y="-409.5" font-family="Helvetica,sans-Serif" font-size="10.00">+ Create()</text>
<text text-anchor="start" x="8" y="-398.5" font-family="Helvetica,sans-Serif" font-size="10.00">and 9 more...</text>
<text text-anchor="start" x="8" y="-387.5" font-family="Helvetica,sans-Serif" font-size="10.00"># LocalRepository()</text>
<text text-anchor="start" x="8" y="-376.5" font-family="Helvetica,sans-Serif" font-size="10.00"># GetWithTracking()</text>
<text text-anchor="start" x="8" y="-365.5" font-family="Helvetica,sans-Serif" font-size="10.00"># ApplyFilters()</text>
<text text-anchor="start" x="8" y="-354.5" font-family="Helvetica,sans-Serif" font-size="10.00"># ApplyFilters&lt; TValue &gt;()</text>
<text text-anchor="start" x="8" y="-343.5" font-family="Helvetica,sans-Serif" font-size="10.00"># EditRelations()</text>
<text text-anchor="start" x="8" y="-332.5" font-family="Helvetica,sans-Serif" font-size="10.00"># Validate()</text>
</a>
</g>
</g>
<!-- Node2&#45;&gt;Node1 -->
<g id="edge1" class="edge">
<title>Node2&#45;&gt;Node1</title>
<path fill="none" stroke="midnightblue" d="M124,-316.22C134.44,-295.89 146.72,-276.06 161,-259 197.04,-215.94 248.27,-180.12 292.85,-154.09"/>
<polygon fill="none" stroke="midnightblue" points="120.81,-314.76 119.48,-325.27 127.08,-317.89 120.81,-314.76"/>
</g>
<!-- Node3 -->
<g id="node3" class="node">
<title>Node3</title>
<g id="a_node3"><a xlink:href="interfaceKyoo_1_1Controllers_1_1ISeasonRepository.html" target="_top" xlink:title="A repository to handle seasons.">
<polygon fill="white" stroke="black" points="170.5,-408 170.5,-498 277.5,-498 277.5,-408 170.5,-408"/>
<text text-anchor="middle" x="224" y="-486" font-family="Helvetica,sans-Serif" font-size="10.00">ISeasonRepository</text>
<polyline fill="none" stroke="black" points="170.5,-479 277.5,-479 "/>
<text text-anchor="middle" x="224" y="-467" font-family="Helvetica,sans-Serif" font-size="10.00"> </text>
<polyline fill="none" stroke="black" points="170.5,-460 277.5,-460 "/>
<text text-anchor="start" x="178.5" y="-448" font-family="Helvetica,sans-Serif" font-size="10.00">+ Get()</text>
<text text-anchor="start" x="178.5" y="-437" font-family="Helvetica,sans-Serif" font-size="10.00">+ Get()</text>
<text text-anchor="start" x="178.5" y="-426" font-family="Helvetica,sans-Serif" font-size="10.00">+ GetOrDefault()</text>
<text text-anchor="start" x="178.5" y="-415" font-family="Helvetica,sans-Serif" font-size="10.00">+ GetOrDefault()</text>
</a>
</g>
</g>
<!-- Node3&#45;&gt;Node1 -->
<g id="edge2" class="edge">
<title>Node3&#45;&gt;Node1</title>
<path fill="none" stroke="midnightblue" d="M237.44,-398.07C248.29,-358.52 265.29,-304.09 287,-259 294.61,-243.2 303.61,-227.11 313.06,-211.6"/>
<polygon fill="none" stroke="midnightblue" points="234.05,-397.22 234.82,-407.79 240.8,-399.05 234.05,-397.22"/>
</g>
<!-- Node4 -->
<g id="node4" class="node">
<title>Node4</title>
<g id="a_node4"><a xlink:href="interfaceKyoo_1_1Controllers_1_1IRepository.html" target="_top" xlink:title=" ">
<polygon fill="white" stroke="black" points="159,-684.5 159,-851.5 289,-851.5 289,-684.5 159,-684.5"/>
<text text-anchor="middle" x="224" y="-839.5" font-family="Helvetica,sans-Serif" font-size="10.00">IRepository&lt; Season &gt;</text>
<polyline fill="none" stroke="black" points="159,-832.5 289,-832.5 "/>
<text text-anchor="middle" x="224" y="-820.5" font-family="Helvetica,sans-Serif" font-size="10.00"> </text>
<polyline fill="none" stroke="black" points="159,-813.5 289,-813.5 "/>
<text text-anchor="start" x="167" y="-801.5" font-family="Helvetica,sans-Serif" font-size="10.00">+ Get()</text>
<text text-anchor="start" x="167" y="-790.5" font-family="Helvetica,sans-Serif" font-size="10.00">+ Get()</text>
<text text-anchor="start" x="167" y="-779.5" font-family="Helvetica,sans-Serif" font-size="10.00">+ Get()</text>
<text text-anchor="start" x="167" y="-768.5" font-family="Helvetica,sans-Serif" font-size="10.00">+ GetOrDefault()</text>
<text text-anchor="start" x="167" y="-757.5" font-family="Helvetica,sans-Serif" font-size="10.00">+ GetOrDefault()</text>
<text text-anchor="start" x="167" y="-746.5" font-family="Helvetica,sans-Serif" font-size="10.00">+ GetOrDefault()</text>
<text text-anchor="start" x="167" y="-735.5" font-family="Helvetica,sans-Serif" font-size="10.00">+ Search()</text>
<text text-anchor="start" x="167" y="-724.5" font-family="Helvetica,sans-Serif" font-size="10.00">+ GetAll()</text>
<text text-anchor="start" x="167" y="-713.5" font-family="Helvetica,sans-Serif" font-size="10.00">+ GetAll()</text>
<text text-anchor="start" x="167" y="-702.5" font-family="Helvetica,sans-Serif" font-size="10.00">+ GetCount()</text>
<text text-anchor="start" x="167" y="-691.5" font-family="Helvetica,sans-Serif" font-size="10.00">and 13 more...</text>
</a>
</g>
</g>
<!-- Node4&#45;&gt;Node3 -->
<g id="edge3" class="edge">
<title>Node4&#45;&gt;Node3</title>
<path fill="none" stroke="midnightblue" d="M224,-674.06C224,-616.01 224,-543.91 224,-498.41"/>
<polygon fill="none" stroke="midnightblue" points="220.5,-674.35 224,-684.35 227.5,-674.35 220.5,-674.35"/>
</g>
<!-- Node5 -->
<g id="node5" class="node">
<title>Node5</title>
<g id="a_node5"><a xlink:href="interfaceKyoo_1_1Controllers_1_1IShowRepository.html" target="_top" xlink:title="A repository to handle shows.">
<polygon fill="white" stroke="black" points="296,-419 296,-487 478,-487 478,-419 296,-419"/>
<text text-anchor="middle" x="387" y="-475" font-family="Helvetica,sans-Serif" font-size="10.00">Kyoo.Controllers.IShowRepository</text>
<polyline fill="none" stroke="black" points="296,-468 478,-468 "/>
<text text-anchor="middle" x="387" y="-456" font-family="Helvetica,sans-Serif" font-size="10.00"> </text>
<polyline fill="none" stroke="black" points="296,-449 478,-449 "/>
<text text-anchor="start" x="304" y="-437" font-family="Helvetica,sans-Serif" font-size="10.00">+ AddShowLink()</text>
<text text-anchor="start" x="304" y="-426" font-family="Helvetica,sans-Serif" font-size="10.00">+ GetSlug()</text>
</a>
</g>
</g>
<!-- Node5&#45;&gt;Node1 -->
<g id="edge4" class="edge">
<title>Node5&#45;&gt;Node1</title>
<path fill="none" stroke="#404040" d="M387,-418.92C387,-374.29 387,-292.48 387,-223.84"/>
<polygon fill="none" stroke="#404040" points="387,-223.63 383,-217.63 387,-211.63 391,-217.63 387,-223.63"/>
<text text-anchor="middle" x="408.5" y="-233" font-family="Helvetica,sans-Serif" font-size="10.00"> &#45;_shows</text>
</g>
<!-- Node6 -->
<g id="node6" class="node">
<title>Node6</title>
<g id="a_node6"><a xlink:href="interfaceKyoo_1_1Controllers_1_1IRepository.html" target="_top" xlink:title=" ">
<polygon fill="white" stroke="black" points="326.5,-684.5 326.5,-851.5 447.5,-851.5 447.5,-684.5 326.5,-684.5"/>
<text text-anchor="middle" x="387" y="-839.5" font-family="Helvetica,sans-Serif" font-size="10.00">IRepository&lt; Show &gt;</text>
<polyline fill="none" stroke="black" points="326.5,-832.5 447.5,-832.5 "/>
<text text-anchor="middle" x="387" y="-820.5" font-family="Helvetica,sans-Serif" font-size="10.00"> </text>
<polyline fill="none" stroke="black" points="326.5,-813.5 447.5,-813.5 "/>
<text text-anchor="start" x="334.5" y="-801.5" font-family="Helvetica,sans-Serif" font-size="10.00">+ Get()</text>
<text text-anchor="start" x="334.5" y="-790.5" font-family="Helvetica,sans-Serif" font-size="10.00">+ Get()</text>
<text text-anchor="start" x="334.5" y="-779.5" font-family="Helvetica,sans-Serif" font-size="10.00">+ Get()</text>
<text text-anchor="start" x="334.5" y="-768.5" font-family="Helvetica,sans-Serif" font-size="10.00">+ GetOrDefault()</text>
<text text-anchor="start" x="334.5" y="-757.5" font-family="Helvetica,sans-Serif" font-size="10.00">+ GetOrDefault()</text>
<text text-anchor="start" x="334.5" y="-746.5" font-family="Helvetica,sans-Serif" font-size="10.00">+ GetOrDefault()</text>
<text text-anchor="start" x="334.5" y="-735.5" font-family="Helvetica,sans-Serif" font-size="10.00">+ Search()</text>
<text text-anchor="start" x="334.5" y="-724.5" font-family="Helvetica,sans-Serif" font-size="10.00">+ GetAll()</text>
<text text-anchor="start" x="334.5" y="-713.5" font-family="Helvetica,sans-Serif" font-size="10.00">+ GetAll()</text>
<text text-anchor="start" x="334.5" y="-702.5" font-family="Helvetica,sans-Serif" font-size="10.00">+ GetCount()</text>
<text text-anchor="start" x="334.5" y="-691.5" font-family="Helvetica,sans-Serif" font-size="10.00">and 13 more...</text>
</a>
</g>
</g>
<!-- Node6&#45;&gt;Node5 -->
<g id="edge5" class="edge">
<title>Node6&#45;&gt;Node5</title>
<path fill="none" stroke="midnightblue" d="M387,-673.98C387,-610.9 387,-531.24 387,-487.17"/>
<polygon fill="none" stroke="midnightblue" points="383.5,-674.35 387,-684.35 390.5,-674.35 383.5,-674.35"/>
</g>
<!-- Node7 -->
<g id="node7" class="node">
<title>Node7</title>
<g id="a_node7"><a xlink:href="interfaceKyoo_1_1Controllers_1_1IProviderRepository.html" target="_top" xlink:title="A repository to handle providers.">
<polygon fill="white" stroke="black" points="496.5,-413.5 496.5,-492.5 639.5,-492.5 639.5,-413.5 496.5,-413.5"/>
<text text-anchor="start" x="504.5" y="-480.5" font-family="Helvetica,sans-Serif" font-size="10.00">Kyoo.Controllers.IProvider</text>
<text text-anchor="middle" x="568" y="-469.5" font-family="Helvetica,sans-Serif" font-size="10.00">Repository</text>
<polyline fill="none" stroke="black" points="496.5,-462.5 639.5,-462.5 "/>
<text text-anchor="middle" x="568" y="-450.5" font-family="Helvetica,sans-Serif" font-size="10.00"> </text>
<polyline fill="none" stroke="black" points="496.5,-443.5 639.5,-443.5 "/>
<text text-anchor="start" x="504.5" y="-431.5" font-family="Helvetica,sans-Serif" font-size="10.00">+ GetMetadataID()</text>
<text text-anchor="start" x="504.5" y="-420.5" font-family="Helvetica,sans-Serif" font-size="10.00">+ GetMetadataID()</text>
</a>
</g>
</g>
<!-- Node7&#45;&gt;Node1 -->
<g id="edge6" class="edge">
<title>Node7&#45;&gt;Node1</title>
<path fill="none" stroke="#404040" d="M554.18,-413.32C539.46,-373.66 514.51,-310.63 487,-259 480.5,-246.8 473.3,-234.34 465.83,-222.05"/>
<polygon fill="none" stroke="#404040" points="465.8,-221.99 459.25,-218.98 459.51,-211.78 466.06,-214.79 465.8,-221.99"/>
<text text-anchor="middle" x="504" y="-233" font-family="Helvetica,sans-Serif" font-size="10.00"> &#45;_providers</text>
</g>
<!-- Node8 -->
<g id="node8" class="node">
<title>Node8</title>
<g id="a_node8"><a xlink:href="interfaceKyoo_1_1Controllers_1_1IRepository.html" target="_top" xlink:title=" ">
<polygon fill="white" stroke="black" points="500.5,-684.5 500.5,-851.5 635.5,-851.5 635.5,-684.5 500.5,-684.5"/>
<text text-anchor="middle" x="568" y="-839.5" font-family="Helvetica,sans-Serif" font-size="10.00">IRepository&lt; Provider &gt;</text>
<polyline fill="none" stroke="black" points="500.5,-832.5 635.5,-832.5 "/>
<text text-anchor="middle" x="568" y="-820.5" font-family="Helvetica,sans-Serif" font-size="10.00"> </text>
<polyline fill="none" stroke="black" points="500.5,-813.5 635.5,-813.5 "/>
<text text-anchor="start" x="508.5" y="-801.5" font-family="Helvetica,sans-Serif" font-size="10.00">+ Get()</text>
<text text-anchor="start" x="508.5" y="-790.5" font-family="Helvetica,sans-Serif" font-size="10.00">+ Get()</text>
<text text-anchor="start" x="508.5" y="-779.5" font-family="Helvetica,sans-Serif" font-size="10.00">+ Get()</text>
<text text-anchor="start" x="508.5" y="-768.5" font-family="Helvetica,sans-Serif" font-size="10.00">+ GetOrDefault()</text>
<text text-anchor="start" x="508.5" y="-757.5" font-family="Helvetica,sans-Serif" font-size="10.00">+ GetOrDefault()</text>
<text text-anchor="start" x="508.5" y="-746.5" font-family="Helvetica,sans-Serif" font-size="10.00">+ GetOrDefault()</text>
<text text-anchor="start" x="508.5" y="-735.5" font-family="Helvetica,sans-Serif" font-size="10.00">+ Search()</text>
<text text-anchor="start" x="508.5" y="-724.5" font-family="Helvetica,sans-Serif" font-size="10.00">+ GetAll()</text>
<text text-anchor="start" x="508.5" y="-713.5" font-family="Helvetica,sans-Serif" font-size="10.00">+ GetAll()</text>
<text text-anchor="start" x="508.5" y="-702.5" font-family="Helvetica,sans-Serif" font-size="10.00">+ GetCount()</text>
<text text-anchor="start" x="508.5" y="-691.5" font-family="Helvetica,sans-Serif" font-size="10.00">and 13 more...</text>
</a>
</g>
</g>
<!-- Node8&#45;&gt;Node7 -->
<g id="edge7" class="edge">
<title>Node8&#45;&gt;Node7</title>
<path fill="none" stroke="midnightblue" d="M568,-674.02C568,-613.55 568,-537.84 568,-492.84"/>
<polygon fill="none" stroke="midnightblue" points="564.5,-674.35 568,-684.35 571.5,-674.35 564.5,-674.35"/>
</g>
<!-- Node9 -->
<g id="node9" class="node">
<title>Node9</title>
<g id="a_node9"><a xlink:href="classKyoo_1_1DatabaseContext.html" target="_top" xlink:title="The database handle used for all local repositories. This is an abstract class. It is meant to be imp...">
<polygon fill="white" stroke="black" points="658,-259.5 658,-646.5 822,-646.5 822,-259.5 658,-259.5"/>
<text text-anchor="middle" x="740" y="-634.5" font-family="Helvetica,sans-Serif" font-size="10.00">Kyoo.DatabaseContext</text>
<polyline fill="none" stroke="black" points="658,-627.5 822,-627.5 "/>
<text text-anchor="start" x="666" y="-615.5" font-family="Helvetica,sans-Serif" font-size="10.00">+ Libraries</text>
<text text-anchor="start" x="666" y="-604.5" font-family="Helvetica,sans-Serif" font-size="10.00">+ Collections</text>
<text text-anchor="start" x="666" y="-593.5" font-family="Helvetica,sans-Serif" font-size="10.00">+ Shows</text>
<text text-anchor="start" x="666" y="-582.5" font-family="Helvetica,sans-Serif" font-size="10.00">+ Seasons</text>
<text text-anchor="start" x="666" y="-571.5" font-family="Helvetica,sans-Serif" font-size="10.00">+ Episodes</text>
<text text-anchor="start" x="666" y="-560.5" font-family="Helvetica,sans-Serif" font-size="10.00">+ Tracks</text>
<text text-anchor="start" x="666" y="-549.5" font-family="Helvetica,sans-Serif" font-size="10.00">+ Genres</text>
<text text-anchor="start" x="666" y="-538.5" font-family="Helvetica,sans-Serif" font-size="10.00">+ People</text>
<text text-anchor="start" x="666" y="-527.5" font-family="Helvetica,sans-Serif" font-size="10.00">+ Studios</text>
<text text-anchor="start" x="666" y="-516.5" font-family="Helvetica,sans-Serif" font-size="10.00">+ Providers</text>
<text text-anchor="start" x="666" y="-505.5" font-family="Helvetica,sans-Serif" font-size="10.00">+ MetadataIds</text>
<text text-anchor="start" x="666" y="-494.5" font-family="Helvetica,sans-Serif" font-size="10.00">+ Users</text>
<text text-anchor="start" x="666" y="-483.5" font-family="Helvetica,sans-Serif" font-size="10.00">+ PeopleRoles</text>
<text text-anchor="start" x="666" y="-472.5" font-family="Helvetica,sans-Serif" font-size="10.00">+ WatchedEpisodes</text>
<polyline fill="none" stroke="black" points="658,-465.5 822,-465.5 "/>
<text text-anchor="start" x="666" y="-453.5" font-family="Helvetica,sans-Serif" font-size="10.00">+ Links&lt; T1, T2 &gt;()</text>
<text text-anchor="start" x="666" y="-442.5" font-family="Helvetica,sans-Serif" font-size="10.00">+ GetTemporaryObject&lt; T &gt;()</text>
<text text-anchor="start" x="666" y="-431.5" font-family="Helvetica,sans-Serif" font-size="10.00">+ SaveChanges()</text>
<text text-anchor="start" x="666" y="-420.5" font-family="Helvetica,sans-Serif" font-size="10.00">+ SaveChanges()</text>
<text text-anchor="start" x="666" y="-409.5" font-family="Helvetica,sans-Serif" font-size="10.00">+ SaveChanges()</text>
<text text-anchor="start" x="666" y="-398.5" font-family="Helvetica,sans-Serif" font-size="10.00">+ SaveChangesAsync()</text>
<text text-anchor="start" x="666" y="-387.5" font-family="Helvetica,sans-Serif" font-size="10.00">+ SaveChangesAsync()</text>
<text text-anchor="start" x="666" y="-376.5" font-family="Helvetica,sans-Serif" font-size="10.00">+ SaveChangesAsync()</text>
<text text-anchor="start" x="666" y="-365.5" font-family="Helvetica,sans-Serif" font-size="10.00">+ SaveIfNoDuplicates()</text>
<text text-anchor="start" x="666" y="-354.5" font-family="Helvetica,sans-Serif" font-size="10.00">+ SaveOrRetry&lt; T &gt;()</text>
<text text-anchor="start" x="666" y="-343.5" font-family="Helvetica,sans-Serif" font-size="10.00">+ Like&lt; T &gt;()</text>
<text text-anchor="start" x="666" y="-332.5" font-family="Helvetica,sans-Serif" font-size="10.00"># DatabaseContext()</text>
<text text-anchor="start" x="666" y="-321.5" font-family="Helvetica,sans-Serif" font-size="10.00"># DatabaseContext()</text>
<text text-anchor="start" x="666" y="-310.5" font-family="Helvetica,sans-Serif" font-size="10.00"># OnConfiguring()</text>
<text text-anchor="start" x="666" y="-299.5" font-family="Helvetica,sans-Serif" font-size="10.00"># OnModelCreating()</text>
<text text-anchor="start" x="666" y="-288.5" font-family="Helvetica,sans-Serif" font-size="10.00"># IsDuplicateException()</text>
<text text-anchor="start" x="666" y="-277.5" font-family="Helvetica,sans-Serif" font-size="10.00">&#45; SaveOrRetry&lt; T &gt;()</text>
<text text-anchor="start" x="666" y="-266.5" font-family="Helvetica,sans-Serif" font-size="10.00">&#45; DiscardChanges()</text>
</a>
</g>
</g>
<!-- Node9&#45;&gt;Node1 -->
<g id="edge8" class="edge">
<title>Node9&#45;&gt;Node1</title>
<path fill="none" stroke="#404040" d="M657.88,-270.48C654.69,-266.52 651.39,-262.69 648,-259 604.98,-212.27 544.23,-175.73 492.17,-150.2"/>
<polygon fill="none" stroke="#404040" points="492.01,-150.13 484.87,-151.13 481.2,-144.92 488.34,-143.92 492.01,-150.13"/>
<text text-anchor="middle" x="654" y="-233" font-family="Helvetica,sans-Serif" font-size="10.00"> &#45;_database</text>
</g>
<!-- Node10 -->
<g id="node10" class="node">
<title>Node10</title>
<g id="a_node10"><a xlink:title=" ">
<polygon fill="white" stroke="#bfbfbf" points="706,-739.5 706,-796.5 774,-796.5 774,-739.5 706,-739.5"/>
<text text-anchor="middle" x="740" y="-784.5" font-family="Helvetica,sans-Serif" font-size="10.00">DbContext</text>
<polyline fill="none" stroke="#bfbfbf" points="706,-777.5 774,-777.5 "/>
<text text-anchor="middle" x="740" y="-765.5" font-family="Helvetica,sans-Serif" font-size="10.00"> </text>
<polyline fill="none" stroke="#bfbfbf" points="706,-758.5 774,-758.5 "/>
<text text-anchor="middle" x="740" y="-746.5" font-family="Helvetica,sans-Serif" font-size="10.00"> </text>
</a>
</g>
</g>
<!-- Node10&#45;&gt;Node9 -->
<g id="edge9" class="edge">
<title>Node10&#45;&gt;Node9</title>
<path fill="none" stroke="midnightblue" d="M740,-729.41C740,-707.57 740,-678.21 740,-646.79"/>
<polygon fill="none" stroke="midnightblue" points="736.5,-729.5 740,-739.5 743.5,-729.5 736.5,-729.5"/>
</g>
</g>
</svg>
