<?xml version="1.0" encoding="UTF-8" standalone="no"?>
<!DOCTYPE svg PUBLIC "-//W3C//DTD SVG 1.1//EN"
 "http://www.w3.org/Graphics/SVG/1.1/DTD/svg11.dtd">
<!-- Generated by graphviz version 2.43.0 (0)
 -->
<!-- Title: Kyoo.Controllers.UserRepository Pages: 1 -->
<svg width="281pt" height="606pt"
 viewBox="0.00 0.00 281.00 606.00" xmlns="http://www.w3.org/2000/svg" xmlns:xlink="http://www.w3.org/1999/xlink">
<g id="graph0" class="graph" transform="scale(1 1) rotate(0) translate(4 602)">
<title>Kyoo.Controllers.UserRepository</title>
<polygon fill="white" stroke="transparent" points="-4,4 -4,-602 277,-602 277,4 -4,4"/>
<!-- Node1 -->
<g id="node1" class="node">
<title>Node1</title>
<g id="a_node1"><a xlink:title="A repository for users.">
<polygon fill="#bfbfbf" stroke="black" points="57,-0.5 57,-101.5 232,-101.5 232,-0.5 57,-0.5"/>
<text text-anchor="middle" x="144.5" y="-89.5" font-family="Helvetica,sans-Serif" font-size="10.00">Kyoo.Controllers.UserRepository</text>
<polyline fill="none" stroke="black" points="57,-82.5 232,-82.5 "/>
<text text-anchor="start" x="65" y="-70.5" font-family="Helvetica,sans-Serif" font-size="10.00"># DefaultSort</text>
<text text-anchor="start" x="65" y="-59.5" font-family="Helvetica,sans-Serif" font-size="10.00">&#45; _database</text>
<polyline fill="none" stroke="black" points="57,-52.5 232,-52.5 "/>
<text text-anchor="start" x="65" y="-40.5" font-family="Helvetica,sans-Serif" font-size="10.00">+ UserRepository()</text>
<text text-anchor="start" x="65" y="-29.5" font-family="Helvetica,sans-Serif" font-size="10.00">+ Search()</text>
<text text-anchor="start" x="65" y="-18.5" font-family="Helvetica,sans-Serif" font-size="10.00">+ Create()</text>
<text text-anchor="start" x="65" y="-7.5" font-family="Helvetica,sans-Serif" font-size="10.00">+ Delete()</text>
</a>
</g>
</g>
<!-- Node2 -->
<g id="node2" class="node">
<title>Node2</title>
<g id="a_node2"><a xlink:href="classKyoo_1_1Controllers_1_1LocalRepository.html" target="_top" xlink:title=" ">
<polygon fill="white" stroke="black" points="0,-138.5 0,-393.5 149,-393.5 149,-138.5 0,-138.5"/>
<text text-anchor="middle" x="74.5" y="-381.5" font-family="Helvetica,sans-Serif" font-size="10.00">LocalRepository&lt; User &gt;</text>
<polyline fill="none" stroke="black" points="0,-374.5 149,-374.5 "/>
<text text-anchor="start" x="8" y="-362.5" font-family="Helvetica,sans-Serif" font-size="10.00">+ RepositoryType</text>
<text text-anchor="start" x="8" y="-351.5" font-family="Helvetica,sans-Serif" font-size="10.00">+ DefaultSort</text>
<text text-anchor="start" x="8" y="-340.5" font-family="Helvetica,sans-Serif" font-size="10.00"># Database</text>
<polyline fill="none" stroke="black" points="0,-333.5 149,-333.5 "/>
<text text-anchor="start" x="8" y="-321.5" font-family="Helvetica,sans-Serif" font-size="10.00">+ Get()</text>
<text text-anchor="start" x="8" y="-310.5" font-family="Helvetica,sans-Serif" font-size="10.00">+ Get()</text>
<text text-anchor="start" x="8" y="-299.5" font-family="Helvetica,sans-Serif" font-size="10.00">+ Get()</text>
<text text-anchor="start" x="8" y="-288.5" font-family="Helvetica,sans-Serif" font-size="10.00">+ GetOrDefault()</text>
<text text-anchor="start" x="8" y="-277.5" font-family="Helvetica,sans-Serif" font-size="10.00">+ GetOrDefault()</text>
<text text-anchor="start" x="8" y="-266.5" font-family="Helvetica,sans-Serif" font-size="10.00">+ GetOrDefault()</text>
<text text-anchor="start" x="8" y="-255.5" font-family="Helvetica,sans-Serif" font-size="10.00">+ Search()</text>
<text text-anchor="start" x="8" y="-244.5" font-family="Helvetica,sans-Serif" font-size="10.00">+ GetAll()</text>
<text text-anchor="start" x="8" y="-233.5" font-family="Helvetica,sans-Serif" font-size="10.00">+ GetCount()</text>
<text text-anchor="start" x="8" y="-222.5" font-family="Helvetica,sans-Serif" font-size="10.00">+ Create()</text>
<text text-anchor="start" x="8" y="-211.5" font-family="Helvetica,sans-Serif" font-size="10.00">and 9 more...</text>
<text text-anchor="start" x="8" y="-200.5" font-family="Helvetica,sans-Serif" font-size="10.00"># LocalRepository()</text>
<text text-anchor="start" x="8" y="-189.5" font-family="Helvetica,sans-Serif" font-size="10.00"># GetWithTracking()</text>
<text text-anchor="start" x="8" y="-178.5" font-family="Helvetica,sans-Serif" font-size="10.00"># ApplyFilters()</text>
<text text-anchor="start" x="8" y="-167.5" font-family="Helvetica,sans-Serif" font-size="10.00"># ApplyFilters&lt; TValue &gt;()</text>
<text text-anchor="start" x="8" y="-156.5" font-family="Helvetica,sans-Serif" font-size="10.00"># EditRelations()</text>
<text text-anchor="start" x="8" y="-145.5" font-family="Helvetica,sans-Serif" font-size="10.00"># Validate()</text>
</a>
</g>
</g>
<!-- Node2&#45;&gt;Node1 -->
<g id="edge1" class="edge">
<title>Node2&#45;&gt;Node1</title>
<path fill="none" stroke="midnightblue" d="M119.27,-128.77C122.38,-119.31 125.38,-110.19 128.15,-101.75"/>
<polygon fill="none" stroke="midnightblue" points="115.93,-127.74 116.13,-138.33 122.58,-129.92 115.93,-127.74"/>
</g>
<!-- Node3 -->
<g id="node3" class="node">
<title>Node3</title>
<g id="a_node3"><a xlink:href="interfaceKyoo_1_1Controllers_1_1IUserRepository.html" target="_top" xlink:title="A repository to handle users.">
<polygon fill="white" stroke="black" points="167,-237.5 167,-294.5 262,-294.5 262,-237.5 167,-237.5"/>
<text text-anchor="middle" x="214.5" y="-282.5" font-family="Helvetica,sans-Serif" font-size="10.00">IUserRepository</text>
<polyline fill="none" stroke="black" points="167,-275.5 262,-275.5 "/>
<text text-anchor="middle" x="214.5" y="-263.5" font-family="Helvetica,sans-Serif" font-size="10.00"> </text>
<polyline fill="none" stroke="black" points="167,-256.5 262,-256.5 "/>
<text text-anchor="middle" x="214.5" y="-244.5" font-family="Helvetica,sans-Serif" font-size="10.00"> </text>
</a>
</g>
</g>
<!-- Node3&#45;&gt;Node1 -->
<g id="edge2" class="edge">
<title>Node3&#45;&gt;Node1</title>
<path fill="none" stroke="midnightblue" d="M202.13,-227.35C190.65,-192.43 173.5,-140.24 160.89,-101.87"/>
<polygon fill="none" stroke="midnightblue" points="198.9,-228.75 205.35,-237.15 205.55,-226.56 198.9,-228.75"/>
</g>
<!-- Node4 -->
<g id="node4" class="node">
<title>Node4</title>
<g id="a_node4"><a xlink:href="interfaceKyoo_1_1Controllers_1_1IRepository.html" target="_top" xlink:title=" ">
<polygon fill="white" stroke="black" points="156,-430.5 156,-597.5 273,-597.5 273,-430.5 156,-430.5"/>
<text text-anchor="middle" x="214.5" y="-585.5" font-family="Helvetica,sans-Serif" font-size="10.00">IRepository&lt; User &gt;</text>
<polyline fill="none" stroke="black" points="156,-578.5 273,-578.5 "/>
<text text-anchor="middle" x="214.5" y="-566.5" font-family="Helvetica,sans-Serif" font-size="10.00"> </text>
<polyline fill="none" stroke="black" points="156,-559.5 273,-559.5 "/>
<text text-anchor="start" x="164" y="-547.5" font-family="Helvetica,sans-Serif" font-size="10.00">+ Get()</text>
<text text-anchor="start" x="164" y="-536.5" font-family="Helvetica,sans-Serif" font-size="10.00">+ Get()</text>
<text text-anchor="start" x="164" y="-525.5" font-family="Helvetica,sans-Serif" font-size="10.00">+ Get()</text>
<text text-anchor="start" x="164" y="-514.5" font-family="Helvetica,sans-Serif" font-size="10.00">+ GetOrDefault()</text>
<text text-anchor="start" x="164" y="-503.5" font-family="Helvetica,sans-Serif" font-size="10.00">+ GetOrDefault()</text>
<text text-anchor="start" x="164" y="-492.5" font-family="Helvetica,sans-Serif" font-size="10.00">+ GetOrDefault()</text>
<text text-anchor="start" x="164" y="-481.5" font-family="Helvetica,sans-Serif" font-size="10.00">+ Search()</text>
<text text-anchor="start" x="164" y="-470.5" font-family="Helvetica,sans-Serif" font-size="10.00">+ GetAll()</text>
<text text-anchor="start" x="164" y="-459.5" font-family="Helvetica,sans-Serif" font-size="10.00">+ GetAll()</text>
<text text-anchor="start" x="164" y="-448.5" font-family="Helvetica,sans-Serif" font-size="10.00">+ GetCount()</text>
<text text-anchor="start" x="164" y="-437.5" font-family="Helvetica,sans-Serif" font-size="10.00">and 13 more...</text>
</a>
</g>
</g>
<!-- Node4&#45;&gt;Node3 -->
<g id="edge3" class="edge">
<title>Node4&#45;&gt;Node3</title>
<path fill="none" stroke="midnightblue" d="M214.5,-420.36C214.5,-375.62 214.5,-325.15 214.5,-294.73"/>
<polygon fill="none" stroke="midnightblue" points="211,-420.4 214.5,-430.4 218,-420.4 211,-420.4"/>
</g>
</g>
</svg>
