<?xml version="1.0" encoding="UTF-8" standalone="no"?>
<!DOCTYPE svg PUBLIC "-//W3C//DTD SVG 1.1//EN"
 "http://www.w3.org/Graphics/SVG/1.1/DTD/svg11.dtd">
<!-- Generated by graphviz version 2.43.0 (0)
 -->
<!-- Title: Kyoo.Controllers.TaskManager Pages: 1 -->
<svg width="399pt" height="424pt"
 viewBox="0.00 0.00 398.50 424.00" xmlns="http://www.w3.org/2000/svg" xmlns:xlink="http://www.w3.org/1999/xlink">
<g id="graph0" class="graph" transform="scale(1 1) rotate(0) translate(4 420)">
<title>Kyoo.Controllers.TaskManager</title>
<polygon fill="white" stroke="transparent" points="-4,4 -4,-420 394.5,-420 394.5,4 -4,4"/>
<!-- Node1 -->
<g id="node1" class="node">
<title>Node1</title>
<g id="a_node1"><a xlink:title="A service to handle long running tasks and a background runner.">
<polygon fill="#bfbfbf" stroke="black" points="106,-0.5 106,-233.5 270,-233.5 270,-0.5 106,-0.5"/>
<text text-anchor="middle" x="188" y="-221.5" font-family="Helvetica,sans-Serif" font-size="10.00">Kyoo.Controllers.TaskManager</text>
<polyline fill="none" stroke="black" points="106,-214.5 270,-214.5 "/>
<text text-anchor="start" x="114" y="-202.5" font-family="Helvetica,sans-Serif" font-size="10.00">&#45; _provider</text>
<text text-anchor="start" x="114" y="-191.5" font-family="Helvetica,sans-Serif" font-size="10.00">&#45; _options</text>
<text text-anchor="start" x="114" y="-180.5" font-family="Helvetica,sans-Serif" font-size="10.00">&#45; _logger</text>
<text text-anchor="start" x="114" y="-169.5" font-family="Helvetica,sans-Serif" font-size="10.00">&#45; _tasks</text>
<text text-anchor="start" x="114" y="-158.5" font-family="Helvetica,sans-Serif" font-size="10.00">&#45; _queuedTasks</text>
<text text-anchor="start" x="114" y="-147.5" font-family="Helvetica,sans-Serif" font-size="10.00">&#45; _taskToken</text>
<polyline fill="none" stroke="black" points="106,-140.5 270,-140.5 "/>
<text text-anchor="start" x="114" y="-128.5" font-family="Helvetica,sans-Serif" font-size="10.00">+ TaskManager()</text>
<text text-anchor="start" x="114" y="-117.5" font-family="Helvetica,sans-Serif" font-size="10.00">+ StartAsync()</text>
<text text-anchor="start" x="114" y="-106.5" font-family="Helvetica,sans-Serif" font-size="10.00">+ StopAsync()</text>
<text text-anchor="start" x="114" y="-95.5" font-family="Helvetica,sans-Serif" font-size="10.00">+ StartTask()</text>
<text text-anchor="start" x="114" y="-84.5" font-family="Helvetica,sans-Serif" font-size="10.00">+ GetRunningTasks()</text>
<text text-anchor="start" x="114" y="-73.5" font-family="Helvetica,sans-Serif" font-size="10.00">+ GetAllTasks()</text>
<text text-anchor="start" x="114" y="-62.5" font-family="Helvetica,sans-Serif" font-size="10.00"># ExecuteAsync()</text>
<text text-anchor="start" x="114" y="-51.5" font-family="Helvetica,sans-Serif" font-size="10.00">&#45; RunTask()</text>
<text text-anchor="start" x="114" y="-40.5" font-family="Helvetica,sans-Serif" font-size="10.00">&#45; QueueScheduledTasks()</text>
<text text-anchor="start" x="114" y="-29.5" font-family="Helvetica,sans-Serif" font-size="10.00">&#45; EnqueueStartupTasks()</text>
<text text-anchor="start" x="114" y="-18.5" font-family="Helvetica,sans-Serif" font-size="10.00">&#45; GetNextTaskDate()</text>
<text text-anchor="start" x="114" y="-7.5" font-family="Helvetica,sans-Serif" font-size="10.00">&#45; InjectServices()</text>
</a>
</g>
</g>
<!-- Node2 -->
<g id="node2" class="node">
<title>Node2</title>
<g id="a_node2"><a xlink:title=" ">
<polygon fill="white" stroke="#bfbfbf" points="0,-320 0,-377 110,-377 110,-320 0,-320"/>
<text text-anchor="middle" x="55" y="-365" font-family="Helvetica,sans-Serif" font-size="10.00">BackgroundService</text>
<polyline fill="none" stroke="#bfbfbf" points="0,-358 110,-358 "/>
<text text-anchor="middle" x="55" y="-346" font-family="Helvetica,sans-Serif" font-size="10.00"> </text>
<polyline fill="none" stroke="#bfbfbf" points="0,-339 110,-339 "/>
<text text-anchor="middle" x="55" y="-327" font-family="Helvetica,sans-Serif" font-size="10.00"> </text>
</a>
</g>
</g>
<!-- Node2&#45;&gt;Node1 -->
<g id="edge1" class="edge">
<title>Node2&#45;&gt;Node1</title>
<path fill="none" stroke="midnightblue" d="M76.06,-311.15C88.38,-289.91 104.67,-261.8 121,-233.61"/>
<polygon fill="none" stroke="midnightblue" points="73.03,-309.41 71.04,-319.82 79.09,-312.92 73.03,-309.41"/>
</g>
<!-- Node3 -->
<g id="node3" class="node">
<title>Node3</title>
<g id="a_node3"><a xlink:href="interfaceKyoo_1_1Controllers_1_1ITaskManager.html" target="_top" xlink:title="A service to handle long running tasks.">
<polygon fill="white" stroke="black" points="128.5,-309 128.5,-388 247.5,-388 247.5,-309 128.5,-309"/>
<text text-anchor="middle" x="188" y="-376" font-family="Helvetica,sans-Serif" font-size="10.00">ITaskManager</text>
<polyline fill="none" stroke="black" points="128.5,-369 247.5,-369 "/>
<text text-anchor="middle" x="188" y="-357" font-family="Helvetica,sans-Serif" font-size="10.00"> </text>
<polyline fill="none" stroke="black" points="128.5,-350 247.5,-350 "/>
<text text-anchor="start" x="136.5" y="-338" font-family="Helvetica,sans-Serif" font-size="10.00">+ StartTask()</text>
<text text-anchor="start" x="136.5" y="-327" font-family="Helvetica,sans-Serif" font-size="10.00">+ GetRunningTasks()</text>
<text text-anchor="start" x="136.5" y="-316" font-family="Helvetica,sans-Serif" font-size="10.00">+ GetAllTasks()</text>
</a>
</g>
</g>
<!-- Node3&#45;&gt;Node1 -->
<g id="edge2" class="edge">
<title>Node3&#45;&gt;Node1</title>
<path fill="none" stroke="midnightblue" d="M188,-298.58C188,-279.4 188,-256.52 188,-233.6"/>
<polygon fill="none" stroke="midnightblue" points="184.5,-298.83 188,-308.83 191.5,-298.83 184.5,-298.83"/>
</g>
<!-- Node4 -->
<g id="node4" class="node">
<title>Node4</title>
<g id="a_node4"><a xlink:href="interfaceKyoo_1_1Controllers_1_1ITask.html" target="_top" xlink:title="A common interface that tasks should implement.">
<polygon fill="white" stroke="black" points="265.5,-281.5 265.5,-415.5 390.5,-415.5 390.5,-281.5 265.5,-281.5"/>
<text text-anchor="middle" x="328" y="-403.5" font-family="Helvetica,sans-Serif" font-size="10.00">Kyoo.Controllers.ITask</text>
<polyline fill="none" stroke="black" points="265.5,-396.5 390.5,-396.5 "/>
<text text-anchor="start" x="273.5" y="-384.5" font-family="Helvetica,sans-Serif" font-size="10.00">+ Slug</text>
<text text-anchor="start" x="273.5" y="-373.5" font-family="Helvetica,sans-Serif" font-size="10.00">+ Name</text>
<text text-anchor="start" x="273.5" y="-362.5" font-family="Helvetica,sans-Serif" font-size="10.00">+ Description</text>
<text text-anchor="start" x="273.5" y="-351.5" font-family="Helvetica,sans-Serif" font-size="10.00">+ HelpMessage</text>
<text text-anchor="start" x="273.5" y="-340.5" font-family="Helvetica,sans-Serif" font-size="10.00">+ RunOnStartup</text>
<text text-anchor="start" x="273.5" y="-329.5" font-family="Helvetica,sans-Serif" font-size="10.00">+ Priority</text>
<polyline fill="none" stroke="black" points="265.5,-322.5 390.5,-322.5 "/>
<text text-anchor="start" x="273.5" y="-310.5" font-family="Helvetica,sans-Serif" font-size="10.00">+ Run()</text>
<text text-anchor="start" x="273.5" y="-299.5" font-family="Helvetica,sans-Serif" font-size="10.00">+ GetParameters()</text>
<text text-anchor="start" x="273.5" y="-288.5" font-family="Helvetica,sans-Serif" font-size="10.00">+ Progress()</text>
</a>
</g>
</g>
<!-- Node4&#45;&gt;Node1 -->
<g id="edge3" class="edge">
<title>Node4&#45;&gt;Node1</title>
<path fill="none" stroke="#404040" d="M287.69,-281.43C280.49,-269.62 272.77,-256.97 264.94,-244.13"/>
<polygon fill="none" stroke="#404040" points="264.89,-244.04 258.35,-241 258.64,-233.8 265.18,-236.84 264.89,-244.04"/>
<text text-anchor="middle" x="309.5" y="-255" font-family="Helvetica,sans-Serif" font-size="10.00"> &#45;_runningTask</text>
</g>
</g>
</svg>
