<?xml version="1.0" encoding="UTF-8" standalone="no"?>
<!DOCTYPE svg PUBLIC "-//W3C//DTD SVG 1.1//EN"
 "http://www.w3.org/Graphics/SVG/1.1/DTD/svg11.dtd">
<!-- Generated by graphviz version 2.43.0 (0)
 -->
<!-- Title: Kyoo.Authentication.PermissionValidatorFactory Pages: 1 -->
<svg width="180pt" height="204pt"
 viewBox="0.00 0.00 180.00 204.00" xmlns="http://www.w3.org/2000/svg" xmlns:xlink="http://www.w3.org/1999/xlink">
<g id="graph0" class="graph" transform="scale(1 1) rotate(0) translate(4 200)">
<title>Kyoo.Authentication.PermissionValidatorFactory</title>
<polygon fill="white" stroke="transparent" points="-4,4 -4,-200 176,-200 176,4 -4,4"/>
<!-- Node1 -->
<g id="node1" class="node">
<title>Node1</title>
<g id="a_node1"><a xlink:title="A permission validator to validate permission with user Permission array or the default array from th...">
<polygon fill="#bfbfbf" stroke="black" points="0,-0.5 0,-90.5 172,-90.5 172,-0.5 0,-0.5"/>
<text text-anchor="start" x="8" y="-78.5" font-family="Helvetica,sans-Serif" font-size="10.00">Kyoo.Authentication.Permission</text>
<text text-anchor="middle" x="86" y="-67.5" font-family="Helvetica,sans-Serif" font-size="10.00">ValidatorFactory</text>
<polyline fill="none" stroke="black" points="0,-60.5 172,-60.5 "/>
<text text-anchor="start" x="8" y="-48.5" font-family="Helvetica,sans-Serif" font-size="10.00">&#45; _options</text>
<polyline fill="none" stroke="black" points="0,-41.5 172,-41.5 "/>
<text text-anchor="start" x="8" y="-29.5" font-family="Helvetica,sans-Serif" font-size="10.00">+ PermissionValidatorFactory()</text>
<text text-anchor="start" x="8" y="-18.5" font-family="Helvetica,sans-Serif" font-size="10.00">+ Create()</text>
<text text-anchor="start" x="8" y="-7.5" font-family="Helvetica,sans-Serif" font-size="10.00">+ Create()</text>
</a>
</g>
</g>
<!-- Node2 -->
<g id="node2" class="node">
<title>Node2</title>
<g id="a_node2"><a xlink:href="interfaceKyoo_1_1Models_1_1Permissions_1_1IPermissionValidator.html" target="_top" xlink:title="A service to validate permissions">
<polygon fill="white" stroke="black" points="27.5,-127.5 27.5,-195.5 144.5,-195.5 144.5,-127.5 27.5,-127.5"/>
<text text-anchor="middle" x="86" y="-183.5" font-family="Helvetica,sans-Serif" font-size="10.00">IPermissionValidator</text>
<polyline fill="none" stroke="black" points="27.5,-176.5 144.5,-176.5 "/>
<text text-anchor="middle" x="86" y="-164.5" font-family="Helvetica,sans-Serif" font-size="10.00"> </text>
<polyline fill="none" stroke="black" points="27.5,-157.5 144.5,-157.5 "/>
<text text-anchor="start" x="35.5" y="-145.5" font-family="Helvetica,sans-Serif" font-size="10.00">+ Create()</text>
<text text-anchor="start" x="35.5" y="-134.5" font-family="Helvetica,sans-Serif" font-size="10.00">+ Create()</text>
</a>
</g>
</g>
<!-- Node2&#45;&gt;Node1 -->
<g id="edge1" class="edge">
<title>Node2&#45;&gt;Node1</title>
<path fill="none" stroke="midnightblue" d="M86,-116.97C86,-108.35 86,-99.28 86,-90.64"/>
<polygon fill="none" stroke="midnightblue" points="82.5,-117.22 86,-127.22 89.5,-117.22 82.5,-117.22"/>
</g>
</g>
</svg>
