<?xml version="1.0" encoding="UTF-8" standalone="no"?>
<!DOCTYPE svg PUBLIC "-//W3C//DTD SVG 1.1//EN"
 "http://www.w3.org/Graphics/SVG/1.1/DTD/svg11.dtd">
<!-- Generated by graphviz version 2.43.0 (0)
 -->
<!-- Title: Kyoo.Controllers.Transcoder Pages: 1 -->
<svg width="284pt" height="281pt"
 viewBox="0.00 0.00 283.50 281.00" xmlns="http://www.w3.org/2000/svg" xmlns:xlink="http://www.w3.org/1999/xlink">
<g id="graph0" class="graph" transform="scale(1 1) rotate(0) translate(4 277)">
<title>Kyoo.Controllers.Transcoder</title>
<polygon fill="white" stroke="transparent" points="-4,4 -4,-277 279.5,-277 279.5,4 -4,4"/>
<!-- Node1 -->
<g id="node1" class="node">
<title>Node1</title>
<g id="a_node1"><a xlink:title=" ">
<polygon fill="#bfbfbf" stroke="black" points="44,-0.5 44,-90.5 196,-90.5 196,-0.5 44,-0.5"/>
<text text-anchor="middle" x="120" y="-78.5" font-family="Helvetica,sans-Serif" font-size="10.00">Kyoo.Controllers.Transcoder</text>
<polyline fill="none" stroke="black" points="44,-71.5 196,-71.5 "/>
<text text-anchor="start" x="52" y="-59.5" font-family="Helvetica,sans-Serif" font-size="10.00">&#45; _options</text>
<polyline fill="none" stroke="black" points="44,-52.5 196,-52.5 "/>
<text text-anchor="start" x="52" y="-40.5" font-family="Helvetica,sans-Serif" font-size="10.00">+ Transcoder()</text>
<text text-anchor="start" x="52" y="-29.5" font-family="Helvetica,sans-Serif" font-size="10.00">+ ExtractInfos()</text>
<text text-anchor="start" x="52" y="-18.5" font-family="Helvetica,sans-Serif" font-size="10.00">+ Transmux()</text>
<text text-anchor="start" x="52" y="-7.5" font-family="Helvetica,sans-Serif" font-size="10.00">+ Transcode()</text>
</a>
</g>
</g>
<!-- Node2 -->
<g id="node2" class="node">
<title>Node2</title>
<g id="a_node2"><a xlink:href="interfaceKyoo_1_1Controllers_1_1ITranscoder.html" target="_top" xlink:title=" ">
<polygon fill="white" stroke="black" points="0,-166 0,-245 94,-245 94,-166 0,-166"/>
<text text-anchor="middle" x="47" y="-233" font-family="Helvetica,sans-Serif" font-size="10.00">ITranscoder</text>
<polyline fill="none" stroke="black" points="0,-226 94,-226 "/>
<text text-anchor="middle" x="47" y="-214" font-family="Helvetica,sans-Serif" font-size="10.00"> </text>
<polyline fill="none" stroke="black" points="0,-207 94,-207 "/>
<text text-anchor="start" x="8" y="-195" font-family="Helvetica,sans-Serif" font-size="10.00">+ ExtractInfos()</text>
<text text-anchor="start" x="8" y="-184" font-family="Helvetica,sans-Serif" font-size="10.00">+ Transmux()</text>
<text text-anchor="start" x="8" y="-173" font-family="Helvetica,sans-Serif" font-size="10.00">+ Transcode()</text>
</a>
</g>
</g>
<!-- Node2&#45;&gt;Node1 -->
<g id="edge1" class="edge">
<title>Node2&#45;&gt;Node1</title>
<path fill="none" stroke="midnightblue" d="M69.18,-156.49C78.87,-135.53 90.15,-111.11 99.62,-90.61"/>
<polygon fill="none" stroke="midnightblue" points="65.87,-155.3 64.86,-165.85 72.23,-158.24 65.87,-155.3"/>
</g>
<!-- Node3 -->
<g id="node3" class="node">
<title>Node3</title>
<g id="a_node3"><a xlink:href="interfaceKyoo_1_1Controllers_1_1IFileManager.html" target="_top" xlink:title="A service to abstract the file system to allow custom file systems (like distant file systems or exte...">
<polygon fill="white" stroke="black" points="112.5,-138.5 112.5,-272.5 275.5,-272.5 275.5,-138.5 112.5,-138.5"/>
<text text-anchor="middle" x="194" y="-260.5" font-family="Helvetica,sans-Serif" font-size="10.00">Kyoo.Controllers.IFileManager</text>
<polyline fill="none" stroke="black" points="112.5,-253.5 275.5,-253.5 "/>
<text text-anchor="middle" x="194" y="-241.5" font-family="Helvetica,sans-Serif" font-size="10.00"> </text>
<polyline fill="none" stroke="black" points="112.5,-234.5 275.5,-234.5 "/>
<text text-anchor="start" x="120.5" y="-222.5" font-family="Helvetica,sans-Serif" font-size="10.00">+ FileResult()</text>
<text text-anchor="start" x="120.5" y="-211.5" font-family="Helvetica,sans-Serif" font-size="10.00">+ GetReader()</text>
<text text-anchor="start" x="120.5" y="-200.5" font-family="Helvetica,sans-Serif" font-size="10.00">+ NewFile()</text>
<text text-anchor="start" x="120.5" y="-189.5" font-family="Helvetica,sans-Serif" font-size="10.00">+ ListFiles()</text>
<text text-anchor="start" x="120.5" y="-178.5" font-family="Helvetica,sans-Serif" font-size="10.00">+ Exists()</text>
<text text-anchor="start" x="120.5" y="-167.5" font-family="Helvetica,sans-Serif" font-size="10.00">+ GetExtraDirectory()</text>
<text text-anchor="start" x="120.5" y="-156.5" font-family="Helvetica,sans-Serif" font-size="10.00">+ GetExtraDirectory()</text>
<text text-anchor="start" x="120.5" y="-145.5" font-family="Helvetica,sans-Serif" font-size="10.00">+ GetExtraDirectory()</text>
</a>
</g>
</g>
<!-- Node3&#45;&gt;Node1 -->
<g id="edge2" class="edge">
<title>Node3&#45;&gt;Node1</title>
<path fill="none" stroke="#404040" d="M163.05,-138.41C157.34,-126.23 151.44,-113.64 145.91,-101.82"/>
<polygon fill="none" stroke="#404040" points="145.82,-101.64 139.66,-97.9 140.73,-90.77 146.9,-94.5 145.82,-101.64"/>
<text text-anchor="middle" x="169.5" y="-112" font-family="Helvetica,sans-Serif" font-size="10.00"> &#45;_files</text>
</g>
</g>
</svg>
