<?xml version="1.0" encoding="UTF-8" standalone="no"?>
<!DOCTYPE svg PUBLIC "-//W3C//DTD SVG 1.1//EN"
 "http://www.w3.org/Graphics/SVG/1.1/DTD/svg11.dtd">
<!-- Generated by graphviz version 2.43.0 (0)
 -->
<!-- Title: Kyoo.Models.Attributes.DeserializeIgnoreAttribute Pages: 1 -->
<svg width="196pt" height="171pt"
 viewBox="0.00 0.00 196.00 171.00" xmlns="http://www.w3.org/2000/svg" xmlns:xlink="http://www.w3.org/1999/xlink">
<g id="graph0" class="graph" transform="scale(1 1) rotate(0) translate(4 167)">
<title>Kyoo.Models.Attributes.DeserializeIgnoreAttribute</title>
<polygon fill="white" stroke="transparent" points="-4,4 -4,-167 192,-167 192,4 -4,4"/>
<!-- Node1 -->
<g id="node1" class="node">
<title>Node1</title>
<g id="a_node1"><a xlink:title=" ">
<polygon fill="#bfbfbf" stroke="black" points="0,-0.5 0,-68.5 188,-68.5 188,-0.5 0,-0.5"/>
<text text-anchor="start" x="8" y="-56.5" font-family="Helvetica,sans-Serif" font-size="10.00">Kyoo.Models.Attributes.Deserialize</text>
<text text-anchor="middle" x="94" y="-45.5" font-family="Helvetica,sans-Serif" font-size="10.00">IgnoreAttribute</text>
<polyline fill="none" stroke="black" points="0,-38.5 188,-38.5 "/>
<text text-anchor="middle" x="94" y="-26.5" font-family="Helvetica,sans-Serif" font-size="10.00"> </text>
<polyline fill="none" stroke="black" points="0,-19.5 188,-19.5 "/>
<text text-anchor="middle" x="94" y="-7.5" font-family="Helvetica,sans-Serif" font-size="10.00"> </text>
</a>
</g>
</g>
<!-- Node2 -->
<g id="node2" class="node">
<title>Node2</title>
<g id="a_node2"><a xlink:title=" ">
<polygon fill="white" stroke="#bfbfbf" points="64.5,-105.5 64.5,-162.5 123.5,-162.5 123.5,-105.5 64.5,-105.5"/>
<text text-anchor="middle" x="94" y="-150.5" font-family="Helvetica,sans-Serif" font-size="10.00">Attribute</text>
<polyline fill="none" stroke="#bfbfbf" points="64.5,-143.5 123.5,-143.5 "/>
<text text-anchor="middle" x="94" y="-131.5" font-family="Helvetica,sans-Serif" font-size="10.00"> </text>
<polyline fill="none" stroke="#bfbfbf" points="64.5,-124.5 123.5,-124.5 "/>
<text text-anchor="middle" x="94" y="-112.5" font-family="Helvetica,sans-Serif" font-size="10.00"> </text>
</a>
</g>
</g>
<!-- Node2&#45;&gt;Node1 -->
<g id="edge1" class="edge">
<title>Node2&#45;&gt;Node1</title>
<path fill="none" stroke="midnightblue" d="M94,-95.06C94,-86.39 94,-77.24 94,-68.79"/>
<polygon fill="none" stroke="midnightblue" points="90.5,-95.32 94,-105.32 97.5,-95.32 90.5,-95.32"/>
</g>
</g>
</svg>
