<?xml version="1.0" encoding="UTF-8" standalone="no"?>
<!DOCTYPE svg PUBLIC "-//W3C//DTD SVG 1.1//EN"
 "http://www.w3.org/Graphics/SVG/1.1/DTD/svg11.dtd">
<!-- Generated by graphviz version 2.43.0 (0)
 -->
<!-- Title: Kyoo.Controllers.ShowRepository Pages: 1 -->
<svg width="1131pt" height="805pt"
 viewBox="0.00 0.00 1130.50 805.00" xmlns="http://www.w3.org/2000/svg" xmlns:xlink="http://www.w3.org/1999/xlink">
<g id="graph0" class="graph" transform="scale(1 1) rotate(0) translate(4 801)">
<title>Kyoo.Controllers.ShowRepository</title>
<polygon fill="white" stroke="transparent" points="-4,4 -4,-801 1126.5,-801 1126.5,4 -4,4"/>
<!-- Node1 -->
<g id="node1" class="node">
<title>Node1</title>
<g id="a_node1"><a xlink:title="A local repository to handle shows">
<polygon fill="#bfbfbf" stroke="black" points="421,-0.5 421,-156.5 600,-156.5 600,-0.5 421,-0.5"/>
<text text-anchor="middle" x="510.5" y="-144.5" font-family="Helvetica,sans-Serif" font-size="10.00">Kyoo.Controllers.ShowRepository</text>
<polyline fill="none" stroke="black" points="421,-137.5 600,-137.5 "/>
<text text-anchor="start" x="429" y="-125.5" font-family="Helvetica,sans-Serif" font-size="10.00"># DefaultSort</text>
<text text-anchor="start" x="429" y="-114.5" font-family="Helvetica,sans-Serif" font-size="10.00">&#45; _seasons</text>
<text text-anchor="start" x="429" y="-103.5" font-family="Helvetica,sans-Serif" font-size="10.00">&#45; _episodes</text>
<polyline fill="none" stroke="black" points="421,-96.5 600,-96.5 "/>
<text text-anchor="start" x="429" y="-84.5" font-family="Helvetica,sans-Serif" font-size="10.00">+ ShowRepository()</text>
<text text-anchor="start" x="429" y="-73.5" font-family="Helvetica,sans-Serif" font-size="10.00">+ Search()</text>
<text text-anchor="start" x="429" y="-62.5" font-family="Helvetica,sans-Serif" font-size="10.00">+ Create()</text>
<text text-anchor="start" x="429" y="-51.5" font-family="Helvetica,sans-Serif" font-size="10.00">+ AddShowLink()</text>
<text text-anchor="start" x="429" y="-40.5" font-family="Helvetica,sans-Serif" font-size="10.00">+ GetSlug()</text>
<text text-anchor="start" x="429" y="-29.5" font-family="Helvetica,sans-Serif" font-size="10.00">+ Delete()</text>
<text text-anchor="start" x="429" y="-18.5" font-family="Helvetica,sans-Serif" font-size="10.00"># Validate()</text>
<text text-anchor="start" x="429" y="-7.5" font-family="Helvetica,sans-Serif" font-size="10.00"># EditRelations()</text>
</a>
</g>
</g>
<!-- Node2 -->
<g id="node2" class="node">
<title>Node2</title>
<g id="a_node2"><a xlink:href="classKyoo_1_1Controllers_1_1LocalRepository.html" target="_top" xlink:title=" ">
<polygon fill="white" stroke="black" points="0,-270.5 0,-525.5 149,-525.5 149,-270.5 0,-270.5"/>
<text text-anchor="middle" x="74.5" y="-513.5" font-family="Helvetica,sans-Serif" font-size="10.00">LocalRepository&lt; Show &gt;</text>
<polyline fill="none" stroke="black" points="0,-506.5 149,-506.5 "/>
<text text-anchor="start" x="8" y="-494.5" font-family="Helvetica,sans-Serif" font-size="10.00">+ RepositoryType</text>
<text text-anchor="start" x="8" y="-483.5" font-family="Helvetica,sans-Serif" font-size="10.00">+ DefaultSort</text>
<text text-anchor="start" x="8" y="-472.5" font-family="Helvetica,sans-Serif" font-size="10.00"># Database</text>
<polyline fill="none" stroke="black" points="0,-465.5 149,-465.5 "/>
<text text-anchor="start" x="8" y="-453.5" font-family="Helvetica,sans-Serif" font-size="10.00">+ Get()</text>
<text text-anchor="start" x="8" y="-442.5" font-family="Helvetica,sans-Serif" font-size="10.00">+ Get()</text>
<text text-anchor="start" x="8" y="-431.5" font-family="Helvetica,sans-Serif" font-size="10.00">+ Get()</text>
<text text-anchor="start" x="8" y="-420.5" font-family="Helvetica,sans-Serif" font-size="10.00">+ GetOrDefault()</text>
<text text-anchor="start" x="8" y="-409.5" font-family="Helvetica,sans-Serif" font-size="10.00">+ GetOrDefault()</text>
<text text-anchor="start" x="8" y="-398.5" font-family="Helvetica,sans-Serif" font-size="10.00">+ GetOrDefault()</text>
<text text-anchor="start" x="8" y="-387.5" font-family="Helvetica,sans-Serif" font-size="10.00">+ Search()</text>
<text text-anchor="start" x="8" y="-376.5" font-family="Helvetica,sans-Serif" font-size="10.00">+ GetAll()</text>
<text text-anchor="start" x="8" y="-365.5" font-family="Helvetica,sans-Serif" font-size="10.00">+ GetCount()</text>
<text text-anchor="start" x="8" y="-354.5" font-family="Helvetica,sans-Serif" font-size="10.00">+ Create()</text>
<text text-anchor="start" x="8" y="-343.5" font-family="Helvetica,sans-Serif" font-size="10.00">and 9 more...</text>
<text text-anchor="start" x="8" y="-332.5" font-family="Helvetica,sans-Serif" font-size="10.00"># LocalRepository()</text>
<text text-anchor="start" x="8" y="-321.5" font-family="Helvetica,sans-Serif" font-size="10.00"># GetWithTracking()</text>
<text text-anchor="start" x="8" y="-310.5" font-family="Helvetica,sans-Serif" font-size="10.00"># ApplyFilters()</text>
<text text-anchor="start" x="8" y="-299.5" font-family="Helvetica,sans-Serif" font-size="10.00"># ApplyFilters&lt; TValue &gt;()</text>
<text text-anchor="start" x="8" y="-288.5" font-family="Helvetica,sans-Serif" font-size="10.00"># EditRelations()</text>
<text text-anchor="start" x="8" y="-277.5" font-family="Helvetica,sans-Serif" font-size="10.00"># Validate()</text>
</a>
</g>
</g>
<!-- Node2&#45;&gt;Node1 -->
<g id="edge1" class="edge">
<title>Node2&#45;&gt;Node1</title>
<path fill="none" stroke="midnightblue" d="M115.82,-260.94C126.79,-239.9 140.48,-219.91 157.5,-204 230.24,-135.98 342.39,-104.78 420.7,-90.7"/>
<polygon fill="none" stroke="midnightblue" points="112.63,-259.5 111.29,-270.01 118.89,-262.63 112.63,-259.5"/>
</g>
<!-- Node3 -->
<g id="node3" class="node">
<title>Node3</title>
<g id="a_node3"><a xlink:href="interfaceKyoo_1_1Controllers_1_1IShowRepository.html" target="_top" xlink:title="A repository to handle shows.">
<polygon fill="white" stroke="black" points="167,-364 167,-432 268,-432 268,-364 167,-364"/>
<text text-anchor="middle" x="217.5" y="-420" font-family="Helvetica,sans-Serif" font-size="10.00">IShowRepository</text>
<polyline fill="none" stroke="black" points="167,-413 268,-413 "/>
<text text-anchor="middle" x="217.5" y="-401" font-family="Helvetica,sans-Serif" font-size="10.00"> </text>
<polyline fill="none" stroke="black" points="167,-394 268,-394 "/>
<text text-anchor="start" x="175" y="-382" font-family="Helvetica,sans-Serif" font-size="10.00">+ AddShowLink()</text>
<text text-anchor="start" x="175" y="-371" font-family="Helvetica,sans-Serif" font-size="10.00">+ GetSlug()</text>
</a>
</g>
</g>
<!-- Node3&#45;&gt;Node1 -->
<g id="edge2" class="edge">
<title>Node3&#45;&gt;Node1</title>
<path fill="none" stroke="midnightblue" d="M221.47,-353.68C227.35,-311.33 241.87,-247.1 277.5,-204 314.61,-159.1 372.24,-128.11 420.9,-108.28"/>
<polygon fill="none" stroke="midnightblue" points="217.98,-353.32 220.18,-363.69 224.93,-354.21 217.98,-353.32"/>
</g>
<!-- Node4 -->
<g id="node4" class="node">
<title>Node4</title>
<g id="a_node4"><a xlink:href="interfaceKyoo_1_1Controllers_1_1IRepository.html" target="_top" xlink:title=" ">
<polygon fill="white" stroke="black" points="155,-629.5 155,-796.5 276,-796.5 276,-629.5 155,-629.5"/>
<text text-anchor="middle" x="215.5" y="-784.5" font-family="Helvetica,sans-Serif" font-size="10.00">IRepository&lt; Show &gt;</text>
<polyline fill="none" stroke="black" points="155,-777.5 276,-777.5 "/>
<text text-anchor="middle" x="215.5" y="-765.5" font-family="Helvetica,sans-Serif" font-size="10.00"> </text>
<polyline fill="none" stroke="black" points="155,-758.5 276,-758.5 "/>
<text text-anchor="start" x="163" y="-746.5" font-family="Helvetica,sans-Serif" font-size="10.00">+ Get()</text>
<text text-anchor="start" x="163" y="-735.5" font-family="Helvetica,sans-Serif" font-size="10.00">+ Get()</text>
<text text-anchor="start" x="163" y="-724.5" font-family="Helvetica,sans-Serif" font-size="10.00">+ Get()</text>
<text text-anchor="start" x="163" y="-713.5" font-family="Helvetica,sans-Serif" font-size="10.00">+ GetOrDefault()</text>
<text text-anchor="start" x="163" y="-702.5" font-family="Helvetica,sans-Serif" font-size="10.00">+ GetOrDefault()</text>
<text text-anchor="start" x="163" y="-691.5" font-family="Helvetica,sans-Serif" font-size="10.00">+ GetOrDefault()</text>
<text text-anchor="start" x="163" y="-680.5" font-family="Helvetica,sans-Serif" font-size="10.00">+ Search()</text>
<text text-anchor="start" x="163" y="-669.5" font-family="Helvetica,sans-Serif" font-size="10.00">+ GetAll()</text>
<text text-anchor="start" x="163" y="-658.5" font-family="Helvetica,sans-Serif" font-size="10.00">+ GetAll()</text>
<text text-anchor="start" x="163" y="-647.5" font-family="Helvetica,sans-Serif" font-size="10.00">+ GetCount()</text>
<text text-anchor="start" x="163" y="-636.5" font-family="Helvetica,sans-Serif" font-size="10.00">and 13 more...</text>
</a>
</g>
</g>
<!-- Node4&#45;&gt;Node3 -->
<g id="edge3" class="edge">
<title>Node4&#45;&gt;Node3</title>
<path fill="none" stroke="midnightblue" d="M216.09,-618.98C216.5,-555.9 217.01,-476.24 217.29,-432.17"/>
<polygon fill="none" stroke="midnightblue" points="212.59,-619.33 216.03,-629.35 219.59,-619.38 212.59,-619.33"/>
</g>
<!-- Node5 -->
<g id="node5" class="node">
<title>Node5</title>
<g id="a_node5"><a xlink:href="interfaceKyoo_1_1Controllers_1_1IStudioRepository.html" target="_top" xlink:title="A repository for studios.">
<polygon fill="white" stroke="black" points="286.5,-364 286.5,-432 420.5,-432 420.5,-364 286.5,-364"/>
<text text-anchor="start" x="294.5" y="-420" font-family="Helvetica,sans-Serif" font-size="10.00">Kyoo.Controllers.IStudio</text>
<text text-anchor="middle" x="353.5" y="-409" font-family="Helvetica,sans-Serif" font-size="10.00">Repository</text>
<polyline fill="none" stroke="black" points="286.5,-402 420.5,-402 "/>
<text text-anchor="middle" x="353.5" y="-390" font-family="Helvetica,sans-Serif" font-size="10.00"> </text>
<polyline fill="none" stroke="black" points="286.5,-383 420.5,-383 "/>
<text text-anchor="middle" x="353.5" y="-371" font-family="Helvetica,sans-Serif" font-size="10.00"> </text>
</a>
</g>
</g>
<!-- Node5&#45;&gt;Node1 -->
<g id="edge4" class="edge">
<title>Node5&#45;&gt;Node1</title>
<path fill="none" stroke="#404040" d="M364.32,-363.67C377.57,-324.48 401.7,-257.93 429.5,-204 435.76,-191.86 442.9,-179.41 450.28,-167.3"/>
<polygon fill="none" stroke="#404040" points="450.49,-166.96 450.26,-159.75 456.82,-156.76 457.06,-163.97 450.49,-166.96"/>
<text text-anchor="middle" x="469.5" y="-178" font-family="Helvetica,sans-Serif" font-size="10.00"> &#45;_studios</text>
</g>
<!-- Node6 -->
<g id="node6" class="node">
<title>Node6</title>
<g id="a_node6"><a xlink:href="interfaceKyoo_1_1Controllers_1_1IRepository.html" target="_top" xlink:title=" ">
<polygon fill="white" stroke="black" points="294,-629.5 294,-796.5 419,-796.5 419,-629.5 294,-629.5"/>
<text text-anchor="middle" x="356.5" y="-784.5" font-family="Helvetica,sans-Serif" font-size="10.00">IRepository&lt; Studio &gt;</text>
<polyline fill="none" stroke="black" points="294,-777.5 419,-777.5 "/>
<text text-anchor="middle" x="356.5" y="-765.5" font-family="Helvetica,sans-Serif" font-size="10.00"> </text>
<polyline fill="none" stroke="black" points="294,-758.5 419,-758.5 "/>
<text text-anchor="start" x="302" y="-746.5" font-family="Helvetica,sans-Serif" font-size="10.00">+ Get()</text>
<text text-anchor="start" x="302" y="-735.5" font-family="Helvetica,sans-Serif" font-size="10.00">+ Get()</text>
<text text-anchor="start" x="302" y="-724.5" font-family="Helvetica,sans-Serif" font-size="10.00">+ Get()</text>
<text text-anchor="start" x="302" y="-713.5" font-family="Helvetica,sans-Serif" font-size="10.00">+ GetOrDefault()</text>
<text text-anchor="start" x="302" y="-702.5" font-family="Helvetica,sans-Serif" font-size="10.00">+ GetOrDefault()</text>
<text text-anchor="start" x="302" y="-691.5" font-family="Helvetica,sans-Serif" font-size="10.00">+ GetOrDefault()</text>
<text text-anchor="start" x="302" y="-680.5" font-family="Helvetica,sans-Serif" font-size="10.00">+ Search()</text>
<text text-anchor="start" x="302" y="-669.5" font-family="Helvetica,sans-Serif" font-size="10.00">+ GetAll()</text>
<text text-anchor="start" x="302" y="-658.5" font-family="Helvetica,sans-Serif" font-size="10.00">+ GetAll()</text>
<text text-anchor="start" x="302" y="-647.5" font-family="Helvetica,sans-Serif" font-size="10.00">+ GetCount()</text>
<text text-anchor="start" x="302" y="-636.5" font-family="Helvetica,sans-Serif" font-size="10.00">and 13 more...</text>
</a>
</g>
</g>
<!-- Node6&#45;&gt;Node5 -->
<g id="edge5" class="edge">
<title>Node6&#45;&gt;Node5</title>
<path fill="none" stroke="midnightblue" d="M355.61,-618.98C355,-555.9 354.24,-476.24 353.82,-432.17"/>
<polygon fill="none" stroke="midnightblue" points="352.11,-619.39 355.71,-629.35 359.11,-619.32 352.11,-619.39"/>
</g>
<!-- Node7 -->
<g id="node7" class="node">
<title>Node7</title>
<g id="a_node7"><a xlink:href="interfaceKyoo_1_1Controllers_1_1IProviderRepository.html" target="_top" xlink:title="A repository to handle providers.">
<polygon fill="white" stroke="black" points="439,-358.5 439,-437.5 582,-437.5 582,-358.5 439,-358.5"/>
<text text-anchor="start" x="447" y="-425.5" font-family="Helvetica,sans-Serif" font-size="10.00">Kyoo.Controllers.IProvider</text>
<text text-anchor="middle" x="510.5" y="-414.5" font-family="Helvetica,sans-Serif" font-size="10.00">Repository</text>
<polyline fill="none" stroke="black" points="439,-407.5 582,-407.5 "/>
<text text-anchor="middle" x="510.5" y="-395.5" font-family="Helvetica,sans-Serif" font-size="10.00"> </text>
<polyline fill="none" stroke="black" points="439,-388.5 582,-388.5 "/>
<text text-anchor="start" x="447" y="-376.5" font-family="Helvetica,sans-Serif" font-size="10.00">+ GetMetadataID()</text>
<text text-anchor="start" x="447" y="-365.5" font-family="Helvetica,sans-Serif" font-size="10.00">+ GetMetadataID()</text>
</a>
</g>
</g>
<!-- Node7&#45;&gt;Node1 -->
<g id="edge6" class="edge">
<title>Node7&#45;&gt;Node1</title>
<path fill="none" stroke="#404040" d="M510.5,-358.39C510.5,-311.6 510.5,-231.27 510.5,-168.81"/>
<polygon fill="none" stroke="#404040" points="510.5,-168.57 506.5,-162.57 510.5,-156.57 514.5,-162.57 510.5,-168.57"/>
<text text-anchor="middle" x="539.5" y="-178" font-family="Helvetica,sans-Serif" font-size="10.00"> &#45;_providers</text>
</g>
<!-- Node8 -->
<g id="node8" class="node">
<title>Node8</title>
<g id="a_node8"><a xlink:href="interfaceKyoo_1_1Controllers_1_1IRepository.html" target="_top" xlink:title=" ">
<polygon fill="white" stroke="black" points="443,-629.5 443,-796.5 578,-796.5 578,-629.5 443,-629.5"/>
<text text-anchor="middle" x="510.5" y="-784.5" font-family="Helvetica,sans-Serif" font-size="10.00">IRepository&lt; Provider &gt;</text>
<polyline fill="none" stroke="black" points="443,-777.5 578,-777.5 "/>
<text text-anchor="middle" x="510.5" y="-765.5" font-family="Helvetica,sans-Serif" font-size="10.00"> </text>
<polyline fill="none" stroke="black" points="443,-758.5 578,-758.5 "/>
<text text-anchor="start" x="451" y="-746.5" font-family="Helvetica,sans-Serif" font-size="10.00">+ Get()</text>
<text text-anchor="start" x="451" y="-735.5" font-family="Helvetica,sans-Serif" font-size="10.00">+ Get()</text>
<text text-anchor="start" x="451" y="-724.5" font-family="Helvetica,sans-Serif" font-size="10.00">+ Get()</text>
<text text-anchor="start" x="451" y="-713.5" font-family="Helvetica,sans-Serif" font-size="10.00">+ GetOrDefault()</text>
<text text-anchor="start" x="451" y="-702.5" font-family="Helvetica,sans-Serif" font-size="10.00">+ GetOrDefault()</text>
<text text-anchor="start" x="451" y="-691.5" font-family="Helvetica,sans-Serif" font-size="10.00">+ GetOrDefault()</text>
<text text-anchor="start" x="451" y="-680.5" font-family="Helvetica,sans-Serif" font-size="10.00">+ Search()</text>
<text text-anchor="start" x="451" y="-669.5" font-family="Helvetica,sans-Serif" font-size="10.00">+ GetAll()</text>
<text text-anchor="start" x="451" y="-658.5" font-family="Helvetica,sans-Serif" font-size="10.00">+ GetAll()</text>
<text text-anchor="start" x="451" y="-647.5" font-family="Helvetica,sans-Serif" font-size="10.00">+ GetCount()</text>
<text text-anchor="start" x="451" y="-636.5" font-family="Helvetica,sans-Serif" font-size="10.00">and 13 more...</text>
</a>
</g>
</g>
<!-- Node8&#45;&gt;Node7 -->
<g id="edge7" class="edge">
<title>Node8&#45;&gt;Node7</title>
<path fill="none" stroke="midnightblue" d="M510.5,-619.02C510.5,-558.55 510.5,-482.84 510.5,-437.84"/>
<polygon fill="none" stroke="midnightblue" points="507,-619.35 510.5,-629.35 514,-619.35 507,-619.35"/>
</g>
<!-- Node9 -->
<g id="node9" class="node">
<title>Node9</title>
<g id="a_node9"><a xlink:href="classKyoo_1_1DatabaseContext.html" target="_top" xlink:title="The database handle used for all local repositories. This is an abstract class. It is meant to be imp...">
<polygon fill="white" stroke="black" points="600.5,-204.5 600.5,-591.5 764.5,-591.5 764.5,-204.5 600.5,-204.5"/>
<text text-anchor="middle" x="682.5" y="-579.5" font-family="Helvetica,sans-Serif" font-size="10.00">Kyoo.DatabaseContext</text>
<polyline fill="none" stroke="black" points="600.5,-572.5 764.5,-572.5 "/>
<text text-anchor="start" x="608.5" y="-560.5" font-family="Helvetica,sans-Serif" font-size="10.00">+ Libraries</text>
<text text-anchor="start" x="608.5" y="-549.5" font-family="Helvetica,sans-Serif" font-size="10.00">+ Collections</text>
<text text-anchor="start" x="608.5" y="-538.5" font-family="Helvetica,sans-Serif" font-size="10.00">+ Shows</text>
<text text-anchor="start" x="608.5" y="-527.5" font-family="Helvetica,sans-Serif" font-size="10.00">+ Seasons</text>
<text text-anchor="start" x="608.5" y="-516.5" font-family="Helvetica,sans-Serif" font-size="10.00">+ Episodes</text>
<text text-anchor="start" x="608.5" y="-505.5" font-family="Helvetica,sans-Serif" font-size="10.00">+ Tracks</text>
<text text-anchor="start" x="608.5" y="-494.5" font-family="Helvetica,sans-Serif" font-size="10.00">+ Genres</text>
<text text-anchor="start" x="608.5" y="-483.5" font-family="Helvetica,sans-Serif" font-size="10.00">+ People</text>
<text text-anchor="start" x="608.5" y="-472.5" font-family="Helvetica,sans-Serif" font-size="10.00">+ Studios</text>
<text text-anchor="start" x="608.5" y="-461.5" font-family="Helvetica,sans-Serif" font-size="10.00">+ Providers</text>
<text text-anchor="start" x="608.5" y="-450.5" font-family="Helvetica,sans-Serif" font-size="10.00">+ MetadataIds</text>
<text text-anchor="start" x="608.5" y="-439.5" font-family="Helvetica,sans-Serif" font-size="10.00">+ Users</text>
<text text-anchor="start" x="608.5" y="-428.5" font-family="Helvetica,sans-Serif" font-size="10.00">+ PeopleRoles</text>
<text text-anchor="start" x="608.5" y="-417.5" font-family="Helvetica,sans-Serif" font-size="10.00">+ WatchedEpisodes</text>
<polyline fill="none" stroke="black" points="600.5,-410.5 764.5,-410.5 "/>
<text text-anchor="start" x="608.5" y="-398.5" font-family="Helvetica,sans-Serif" font-size="10.00">+ Links&lt; T1, T2 &gt;()</text>
<text text-anchor="start" x="608.5" y="-387.5" font-family="Helvetica,sans-Serif" font-size="10.00">+ GetTemporaryObject&lt; T &gt;()</text>
<text text-anchor="start" x="608.5" y="-376.5" font-family="Helvetica,sans-Serif" font-size="10.00">+ SaveChanges()</text>
<text text-anchor="start" x="608.5" y="-365.5" font-family="Helvetica,sans-Serif" font-size="10.00">+ SaveChanges()</text>
<text text-anchor="start" x="608.5" y="-354.5" font-family="Helvetica,sans-Serif" font-size="10.00">+ SaveChanges()</text>
<text text-anchor="start" x="608.5" y="-343.5" font-family="Helvetica,sans-Serif" font-size="10.00">+ SaveChangesAsync()</text>
<text text-anchor="start" x="608.5" y="-332.5" font-family="Helvetica,sans-Serif" font-size="10.00">+ SaveChangesAsync()</text>
<text text-anchor="start" x="608.5" y="-321.5" font-family="Helvetica,sans-Serif" font-size="10.00">+ SaveChangesAsync()</text>
<text text-anchor="start" x="608.5" y="-310.5" font-family="Helvetica,sans-Serif" font-size="10.00">+ SaveIfNoDuplicates()</text>
<text text-anchor="start" x="608.5" y="-299.5" font-family="Helvetica,sans-Serif" font-size="10.00">+ SaveOrRetry&lt; T &gt;()</text>
<text text-anchor="start" x="608.5" y="-288.5" font-family="Helvetica,sans-Serif" font-size="10.00">+ Like&lt; T &gt;()</text>
<text text-anchor="start" x="608.5" y="-277.5" font-family="Helvetica,sans-Serif" font-size="10.00"># DatabaseContext()</text>
<text text-anchor="start" x="608.5" y="-266.5" font-family="Helvetica,sans-Serif" font-size="10.00"># DatabaseContext()</text>
<text text-anchor="start" x="608.5" y="-255.5" font-family="Helvetica,sans-Serif" font-size="10.00"># OnConfiguring()</text>
<text text-anchor="start" x="608.5" y="-244.5" font-family="Helvetica,sans-Serif" font-size="10.00"># OnModelCreating()</text>
<text text-anchor="start" x="608.5" y="-233.5" font-family="Helvetica,sans-Serif" font-size="10.00"># IsDuplicateException()</text>
<text text-anchor="start" x="608.5" y="-222.5" font-family="Helvetica,sans-Serif" font-size="10.00">&#45; SaveOrRetry&lt; T &gt;()</text>
<text text-anchor="start" x="608.5" y="-211.5" font-family="Helvetica,sans-Serif" font-size="10.00">&#45; DiscardChanges()</text>
</a>
</g>
</g>
<!-- Node9&#45;&gt;Node1 -->
<g id="edge8" class="edge">
<title>Node9&#45;&gt;Node1</title>
<path fill="none" stroke="#404040" d="M600.38,-222.44C597.09,-216.19 593.79,-210.03 590.5,-204 583.23,-190.69 580.63,-187.81 572.5,-175 570.77,-172.28 569.01,-169.51 567.23,-166.73"/>
<polygon fill="none" stroke="#404040" points="567.19,-166.66 560.58,-163.76 560.72,-156.55 567.32,-159.45 567.19,-166.66"/>
<text text-anchor="middle" x="609.5" y="-178" font-family="Helvetica,sans-Serif" font-size="10.00"> &#45;_database</text>
</g>
<!-- Node10 -->
<g id="node10" class="node">
<title>Node10</title>
<g id="a_node10"><a xlink:title=" ">
<polygon fill="white" stroke="#bfbfbf" points="648.5,-684.5 648.5,-741.5 716.5,-741.5 716.5,-684.5 648.5,-684.5"/>
<text text-anchor="middle" x="682.5" y="-729.5" font-family="Helvetica,sans-Serif" font-size="10.00">DbContext</text>
<polyline fill="none" stroke="#bfbfbf" points="648.5,-722.5 716.5,-722.5 "/>
<text text-anchor="middle" x="682.5" y="-710.5" font-family="Helvetica,sans-Serif" font-size="10.00"> </text>
<polyline fill="none" stroke="#bfbfbf" points="648.5,-703.5 716.5,-703.5 "/>
<text text-anchor="middle" x="682.5" y="-691.5" font-family="Helvetica,sans-Serif" font-size="10.00"> </text>
</a>
</g>
</g>
<!-- Node10&#45;&gt;Node9 -->
<g id="edge9" class="edge">
<title>Node10&#45;&gt;Node9</title>
<path fill="none" stroke="midnightblue" d="M682.5,-674.41C682.5,-652.57 682.5,-623.21 682.5,-591.79"/>
<polygon fill="none" stroke="midnightblue" points="679,-674.5 682.5,-684.5 686,-674.5 679,-674.5"/>
</g>
<!-- Node11 -->
<g id="node11" class="node">
<title>Node11</title>
<g id="a_node11"><a xlink:href="interfaceKyoo_1_1Controllers_1_1IGenreRepository.html" target="_top" xlink:title="A repository for genres.">
<polygon fill="white" stroke="black" points="783,-369.5 783,-426.5 968,-426.5 968,-369.5 783,-369.5"/>
<text text-anchor="middle" x="875.5" y="-414.5" font-family="Helvetica,sans-Serif" font-size="10.00">Kyoo.Controllers.IGenreRepository</text>
<polyline fill="none" stroke="black" points="783,-407.5 968,-407.5 "/>
<text text-anchor="middle" x="875.5" y="-395.5" font-family="Helvetica,sans-Serif" font-size="10.00"> </text>
<polyline fill="none" stroke="black" points="783,-388.5 968,-388.5 "/>
<text text-anchor="middle" x="875.5" y="-376.5" font-family="Helvetica,sans-Serif" font-size="10.00"> </text>
</a>
</g>
</g>
<!-- Node11&#45;&gt;Node1 -->
<g id="edge10" class="edge">
<title>Node11&#45;&gt;Node1</title>
<path fill="none" stroke="#404040" d="M867.13,-369.22C853.53,-328.27 823.06,-251.42 773.5,-204 728.1,-160.56 664.74,-129.94 611.58,-109.94"/>
<polygon fill="none" stroke="#404040" points="611.32,-109.85 604.31,-111.53 600.06,-105.71 607.07,-104.02 611.32,-109.85"/>
<text text-anchor="middle" x="773.5" y="-178" font-family="Helvetica,sans-Serif" font-size="10.00"> &#45;_genres</text>
</g>
<!-- Node12 -->
<g id="node12" class="node">
<title>Node12</title>
<g id="a_node12"><a xlink:href="interfaceKyoo_1_1Controllers_1_1IRepository.html" target="_top" xlink:title=" ">
<polygon fill="white" stroke="black" points="813.5,-629.5 813.5,-796.5 937.5,-796.5 937.5,-629.5 813.5,-629.5"/>
<text text-anchor="middle" x="875.5" y="-784.5" font-family="Helvetica,sans-Serif" font-size="10.00">IRepository&lt; Genre &gt;</text>
<polyline fill="none" stroke="black" points="813.5,-777.5 937.5,-777.5 "/>
<text text-anchor="middle" x="875.5" y="-765.5" font-family="Helvetica,sans-Serif" font-size="10.00"> </text>
<polyline fill="none" stroke="black" points="813.5,-758.5 937.5,-758.5 "/>
<text text-anchor="start" x="821.5" y="-746.5" font-family="Helvetica,sans-Serif" font-size="10.00">+ Get()</text>
<text text-anchor="start" x="821.5" y="-735.5" font-family="Helvetica,sans-Serif" font-size="10.00">+ Get()</text>
<text text-anchor="start" x="821.5" y="-724.5" font-family="Helvetica,sans-Serif" font-size="10.00">+ Get()</text>
<text text-anchor="start" x="821.5" y="-713.5" font-family="Helvetica,sans-Serif" font-size="10.00">+ GetOrDefault()</text>
<text text-anchor="start" x="821.5" y="-702.5" font-family="Helvetica,sans-Serif" font-size="10.00">+ GetOrDefault()</text>
<text text-anchor="start" x="821.5" y="-691.5" font-family="Helvetica,sans-Serif" font-size="10.00">+ GetOrDefault()</text>
<text text-anchor="start" x="821.5" y="-680.5" font-family="Helvetica,sans-Serif" font-size="10.00">+ Search()</text>
<text text-anchor="start" x="821.5" y="-669.5" font-family="Helvetica,sans-Serif" font-size="10.00">+ GetAll()</text>
<text text-anchor="start" x="821.5" y="-658.5" font-family="Helvetica,sans-Serif" font-size="10.00">+ GetAll()</text>
<text text-anchor="start" x="821.5" y="-647.5" font-family="Helvetica,sans-Serif" font-size="10.00">+ GetCount()</text>
<text text-anchor="start" x="821.5" y="-636.5" font-family="Helvetica,sans-Serif" font-size="10.00">and 13 more...</text>
</a>
</g>
</g>
<!-- Node12&#45;&gt;Node11 -->
<g id="edge11" class="edge">
<title>Node12&#45;&gt;Node11</title>
<path fill="none" stroke="midnightblue" d="M875.5,-618.97C875.5,-553.27 875.5,-469.6 875.5,-426.86"/>
<polygon fill="none" stroke="midnightblue" points="872,-619.35 875.5,-629.35 879,-619.35 872,-619.35"/>
</g>
<!-- Node13 -->
<g id="node13" class="node">
<title>Node13</title>
<g id="a_node13"><a xlink:href="interfaceKyoo_1_1Controllers_1_1IPeopleRepository.html" target="_top" xlink:title="A repository for people.">
<polygon fill="white" stroke="black" points="986.5,-325.5 986.5,-470.5 1122.5,-470.5 1122.5,-325.5 986.5,-325.5"/>
<text text-anchor="start" x="994.5" y="-458.5" font-family="Helvetica,sans-Serif" font-size="10.00">Kyoo.Controllers.IPeople</text>
<text text-anchor="middle" x="1054.5" y="-447.5" font-family="Helvetica,sans-Serif" font-size="10.00">Repository</text>
<polyline fill="none" stroke="black" points="986.5,-440.5 1122.5,-440.5 "/>
<text text-anchor="middle" x="1054.5" y="-428.5" font-family="Helvetica,sans-Serif" font-size="10.00"> </text>
<polyline fill="none" stroke="black" points="986.5,-421.5 1122.5,-421.5 "/>
<text text-anchor="start" x="994.5" y="-409.5" font-family="Helvetica,sans-Serif" font-size="10.00">+ GetFromShow()</text>
<text text-anchor="start" x="994.5" y="-398.5" font-family="Helvetica,sans-Serif" font-size="10.00">+ GetFromShow()</text>
<text text-anchor="start" x="994.5" y="-387.5" font-family="Helvetica,sans-Serif" font-size="10.00">+ GetFromShow()</text>
<text text-anchor="start" x="994.5" y="-376.5" font-family="Helvetica,sans-Serif" font-size="10.00">+ GetFromShow()</text>
<text text-anchor="start" x="994.5" y="-365.5" font-family="Helvetica,sans-Serif" font-size="10.00">+ GetFromPeople()</text>
<text text-anchor="start" x="994.5" y="-354.5" font-family="Helvetica,sans-Serif" font-size="10.00">+ GetFromPeople()</text>
<text text-anchor="start" x="994.5" y="-343.5" font-family="Helvetica,sans-Serif" font-size="10.00">+ GetFromPeople()</text>
<text text-anchor="start" x="994.5" y="-332.5" font-family="Helvetica,sans-Serif" font-size="10.00">+ GetFromPeople()</text>
</a>
</g>
</g>
<!-- Node13&#45;&gt;Node1 -->
<g id="edge12" class="edge">
<title>Node13&#45;&gt;Node1</title>
<path fill="none" stroke="#404040" d="M1042,-325.38C1031.26,-284.4 1011.7,-235.12 976.5,-204 874.96,-114.24 715.56,-88.21 612.04,-81.21"/>
<polygon fill="none" stroke="#404040" points="611.99,-81.21 605.75,-84.83 600.01,-80.46 606.25,-76.84 611.99,-81.21"/>
<text text-anchor="middle" x="969.5" y="-178" font-family="Helvetica,sans-Serif" font-size="10.00"> &#45;_people</text>
</g>
<!-- Node14 -->
<g id="node14" class="node">
<title>Node14</title>
<g id="a_node14"><a xlink:href="interfaceKyoo_1_1Controllers_1_1IRepository.html" target="_top" xlink:title=" ">
<polygon fill="white" stroke="black" points="990.5,-629.5 990.5,-796.5 1118.5,-796.5 1118.5,-629.5 990.5,-629.5"/>
<text text-anchor="middle" x="1054.5" y="-784.5" font-family="Helvetica,sans-Serif" font-size="10.00">IRepository&lt; People &gt;</text>
<polyline fill="none" stroke="black" points="990.5,-777.5 1118.5,-777.5 "/>
<text text-anchor="middle" x="1054.5" y="-765.5" font-family="Helvetica,sans-Serif" font-size="10.00"> </text>
<polyline fill="none" stroke="black" points="990.5,-758.5 1118.5,-758.5 "/>
<text text-anchor="start" x="998.5" y="-746.5" font-family="Helvetica,sans-Serif" font-size="10.00">+ Get()</text>
<text text-anchor="start" x="998.5" y="-735.5" font-family="Helvetica,sans-Serif" font-size="10.00">+ Get()</text>
<text text-anchor="start" x="998.5" y="-724.5" font-family="Helvetica,sans-Serif" font-size="10.00">+ Get()</text>
<text text-anchor="start" x="998.5" y="-713.5" font-family="Helvetica,sans-Serif" font-size="10.00">+ GetOrDefault()</text>
<text text-anchor="start" x="998.5" y="-702.5" font-family="Helvetica,sans-Serif" font-size="10.00">+ GetOrDefault()</text>
<text text-anchor="start" x="998.5" y="-691.5" font-family="Helvetica,sans-Serif" font-size="10.00">+ GetOrDefault()</text>
<text text-anchor="start" x="998.5" y="-680.5" font-family="Helvetica,sans-Serif" font-size="10.00">+ Search()</text>
<text text-anchor="start" x="998.5" y="-669.5" font-family="Helvetica,sans-Serif" font-size="10.00">+ GetAll()</text>
<text text-anchor="start" x="998.5" y="-658.5" font-family="Helvetica,sans-Serif" font-size="10.00">+ GetAll()</text>
<text text-anchor="start" x="998.5" y="-647.5" font-family="Helvetica,sans-Serif" font-size="10.00">+ GetCount()</text>
<text text-anchor="start" x="998.5" y="-636.5" font-family="Helvetica,sans-Serif" font-size="10.00">and 13 more...</text>
</a>
</g>
</g>
<!-- Node14&#45;&gt;Node13 -->
<g id="edge13" class="edge">
<title>Node14&#45;&gt;Node13</title>
<path fill="none" stroke="midnightblue" d="M1054.5,-619.06C1054.5,-571.58 1054.5,-514.7 1054.5,-470.66"/>
<polygon fill="none" stroke="midnightblue" points="1051,-619.35 1054.5,-629.35 1058,-619.35 1051,-619.35"/>
</g>
</g>
</svg>
