<?xml version="1.0" encoding="UTF-8" standalone="no"?>
<!DOCTYPE svg PUBLIC "-//W3C//DTD SVG 1.1//EN"
 "http://www.w3.org/Graphics/SVG/1.1/DTD/svg11.dtd">
<!-- Generated by graphviz version 2.43.0 (0)
 -->
<!-- Title: Kyoo.Controllers.ProviderManager Pages: 1 -->
<svg width="163pt" height="336pt"
 viewBox="0.00 0.00 163.00 336.00" xmlns="http://www.w3.org/2000/svg" xmlns:xlink="http://www.w3.org/1999/xlink">
<g id="graph0" class="graph" transform="scale(1 1) rotate(0) translate(4 332)">
<title>Kyoo.Controllers.ProviderManager</title>
<polygon fill="white" stroke="transparent" points="-4,4 -4,-332 159,-332 159,4 -4,4"/>
<!-- Node1 -->
<g id="node1" class="node">
<title>Node1</title>
<g id="a_node1"><a xlink:title=" ">
<polygon fill="#bfbfbf" stroke="black" points="0,-0.5 0,-167.5 155,-167.5 155,-0.5 0,-0.5"/>
<text text-anchor="start" x="8" y="-155.5" font-family="Helvetica,sans-Serif" font-size="10.00">Kyoo.Controllers.Provider</text>
<text text-anchor="middle" x="77.5" y="-144.5" font-family="Helvetica,sans-Serif" font-size="10.00">Manager</text>
<polyline fill="none" stroke="black" points="0,-137.5 155,-137.5 "/>
<text text-anchor="start" x="8" y="-125.5" font-family="Helvetica,sans-Serif" font-size="10.00">&#45; _providers</text>
<polyline fill="none" stroke="black" points="0,-118.5 155,-118.5 "/>
<text text-anchor="start" x="8" y="-106.5" font-family="Helvetica,sans-Serif" font-size="10.00">+ ProviderManager()</text>
<text text-anchor="start" x="8" y="-95.5" font-family="Helvetica,sans-Serif" font-size="10.00">+ GetCollectionFromName()</text>
<text text-anchor="start" x="8" y="-84.5" font-family="Helvetica,sans-Serif" font-size="10.00">+ CompleteShow()</text>
<text text-anchor="start" x="8" y="-73.5" font-family="Helvetica,sans-Serif" font-size="10.00">+ SearchShow()</text>
<text text-anchor="start" x="8" y="-62.5" font-family="Helvetica,sans-Serif" font-size="10.00">+ SearchShows()</text>
<text text-anchor="start" x="8" y="-51.5" font-family="Helvetica,sans-Serif" font-size="10.00">+ GetSeason()</text>
<text text-anchor="start" x="8" y="-40.5" font-family="Helvetica,sans-Serif" font-size="10.00">+ GetEpisode()</text>
<text text-anchor="start" x="8" y="-29.5" font-family="Helvetica,sans-Serif" font-size="10.00">+ GetPeople()</text>
<text text-anchor="start" x="8" y="-18.5" font-family="Helvetica,sans-Serif" font-size="10.00">&#45; GetMetadata&lt; T &gt;()</text>
<text text-anchor="start" x="8" y="-7.5" font-family="Helvetica,sans-Serif" font-size="10.00">&#45; GetMetadata&lt; T &gt;()</text>
</a>
</g>
</g>
<!-- Node2 -->
<g id="node2" class="node">
<title>Node2</title>
<g id="a_node2"><a xlink:href="interfaceKyoo_1_1Controllers_1_1IProviderManager.html" target="_top" xlink:title=" ">
<polygon fill="white" stroke="black" points="0,-204.5 0,-327.5 155,-327.5 155,-204.5 0,-204.5"/>
<text text-anchor="middle" x="77.5" y="-315.5" font-family="Helvetica,sans-Serif" font-size="10.00">IProviderManager</text>
<polyline fill="none" stroke="black" points="0,-308.5 155,-308.5 "/>
<text text-anchor="middle" x="77.5" y="-296.5" font-family="Helvetica,sans-Serif" font-size="10.00"> </text>
<polyline fill="none" stroke="black" points="0,-289.5 155,-289.5 "/>
<text text-anchor="start" x="8" y="-277.5" font-family="Helvetica,sans-Serif" font-size="10.00">+ GetCollectionFromName()</text>
<text text-anchor="start" x="8" y="-266.5" font-family="Helvetica,sans-Serif" font-size="10.00">+ CompleteShow()</text>
<text text-anchor="start" x="8" y="-255.5" font-family="Helvetica,sans-Serif" font-size="10.00">+ SearchShow()</text>
<text text-anchor="start" x="8" y="-244.5" font-family="Helvetica,sans-Serif" font-size="10.00">+ SearchShows()</text>
<text text-anchor="start" x="8" y="-233.5" font-family="Helvetica,sans-Serif" font-size="10.00">+ GetSeason()</text>
<text text-anchor="start" x="8" y="-222.5" font-family="Helvetica,sans-Serif" font-size="10.00">+ GetEpisode()</text>
<text text-anchor="start" x="8" y="-211.5" font-family="Helvetica,sans-Serif" font-size="10.00">+ GetPeople()</text>
</a>
</g>
</g>
<!-- Node2&#45;&gt;Node1 -->
<g id="edge1" class="edge">
<title>Node2&#45;&gt;Node1</title>
<path fill="none" stroke="midnightblue" d="M77.5,-194.25C77.5,-185.57 77.5,-176.63 77.5,-167.79"/>
<polygon fill="none" stroke="midnightblue" points="74,-194.31 77.5,-204.31 81,-194.31 74,-194.31"/>
</g>
</g>
</svg>
