<?xml version="1.0" encoding="UTF-8" standalone="no"?>
<!DOCTYPE svg PUBLIC "-//W3C//DTD SVG 1.1//EN"
 "http://www.w3.org/Graphics/SVG/1.1/DTD/svg11.dtd">
<!-- Generated by graphviz version 2.43.0 (0)
 -->
<!-- Title: Kyoo.Authentication.AuthenticationModule Pages: 1 -->
<svg width="197pt" height="358pt"
 viewBox="0.00 0.00 197.00 358.00" xmlns="http://www.w3.org/2000/svg" xmlns:xlink="http://www.w3.org/1999/xlink">
<g id="graph0" class="graph" transform="scale(1 1) rotate(0) translate(4 354)">
<title>Kyoo.Authentication.AuthenticationModule</title>
<polygon fill="white" stroke="transparent" points="-4,4 -4,-354 193,-354 193,4 -4,4"/>
<!-- Node1 -->
<g id="node1" class="node">
<title>Node1</title>
<g id="a_node1"><a xlink:title="A module that enable OpenID authentication for Kyoo.">
<polygon fill="#bfbfbf" stroke="black" points="0,-0.5 0,-178.5 189,-178.5 189,-0.5 0,-0.5"/>
<text text-anchor="start" x="8" y="-166.5" font-family="Helvetica,sans-Serif" font-size="10.00">Kyoo.Authentication.Authentication</text>
<text text-anchor="middle" x="94.5" y="-155.5" font-family="Helvetica,sans-Serif" font-size="10.00">Module</text>
<polyline fill="none" stroke="black" points="0,-148.5 189,-148.5 "/>
<text text-anchor="start" x="8" y="-136.5" font-family="Helvetica,sans-Serif" font-size="10.00">+ Slug</text>
<text text-anchor="start" x="8" y="-125.5" font-family="Helvetica,sans-Serif" font-size="10.00">+ Name</text>
<text text-anchor="start" x="8" y="-114.5" font-family="Helvetica,sans-Serif" font-size="10.00">+ Description</text>
<text text-anchor="start" x="8" y="-103.5" font-family="Helvetica,sans-Serif" font-size="10.00">+ Provides</text>
<text text-anchor="start" x="8" y="-92.5" font-family="Helvetica,sans-Serif" font-size="10.00">+ ConditionalProvides</text>
<text text-anchor="start" x="8" y="-81.5" font-family="Helvetica,sans-Serif" font-size="10.00">+ Requires</text>
<text text-anchor="start" x="8" y="-70.5" font-family="Helvetica,sans-Serif" font-size="10.00">&#45; _configuration</text>
<text text-anchor="start" x="8" y="-59.5" font-family="Helvetica,sans-Serif" font-size="10.00">&#45; _loggerFactory</text>
<text text-anchor="start" x="8" y="-48.5" font-family="Helvetica,sans-Serif" font-size="10.00">&#45; _environment</text>
<polyline fill="none" stroke="black" points="0,-41.5 189,-41.5 "/>
<text text-anchor="start" x="8" y="-29.5" font-family="Helvetica,sans-Serif" font-size="10.00">+ AuthenticationModule()</text>
<text text-anchor="start" x="8" y="-18.5" font-family="Helvetica,sans-Serif" font-size="10.00">+ Configure()</text>
<text text-anchor="start" x="8" y="-7.5" font-family="Helvetica,sans-Serif" font-size="10.00">+ ConfigureAspNet()</text>
</a>
</g>
</g>
<!-- Node2 -->
<g id="node2" class="node">
<title>Node2</title>
<g id="a_node2"><a xlink:href="interfaceKyoo_1_1Controllers_1_1IPlugin.html" target="_top" xlink:title="A common interface used to discord plugins">
<polygon fill="white" stroke="black" points="32,-215.5 32,-349.5 157,-349.5 157,-215.5 32,-215.5"/>
<text text-anchor="middle" x="94.5" y="-337.5" font-family="Helvetica,sans-Serif" font-size="10.00">IPlugin</text>
<polyline fill="none" stroke="black" points="32,-330.5 157,-330.5 "/>
<text text-anchor="start" x="40" y="-318.5" font-family="Helvetica,sans-Serif" font-size="10.00">+ Slug</text>
<text text-anchor="start" x="40" y="-307.5" font-family="Helvetica,sans-Serif" font-size="10.00">+ Name</text>
<text text-anchor="start" x="40" y="-296.5" font-family="Helvetica,sans-Serif" font-size="10.00">+ Description</text>
<text text-anchor="start" x="40" y="-285.5" font-family="Helvetica,sans-Serif" font-size="10.00">+ Provides</text>
<text text-anchor="start" x="40" y="-274.5" font-family="Helvetica,sans-Serif" font-size="10.00">+ ConditionalProvides</text>
<text text-anchor="start" x="40" y="-263.5" font-family="Helvetica,sans-Serif" font-size="10.00">+ Requires</text>
<polyline fill="none" stroke="black" points="32,-256.5 157,-256.5 "/>
<text text-anchor="start" x="40" y="-244.5" font-family="Helvetica,sans-Serif" font-size="10.00">+ Configure()</text>
<text text-anchor="start" x="40" y="-233.5" font-family="Helvetica,sans-Serif" font-size="10.00">+ ConfigureAspNet()</text>
<text text-anchor="start" x="40" y="-222.5" font-family="Helvetica,sans-Serif" font-size="10.00">+ Initialize()</text>
</a>
</g>
</g>
<!-- Node2&#45;&gt;Node1 -->
<g id="edge1" class="edge">
<title>Node2&#45;&gt;Node1</title>
<path fill="none" stroke="midnightblue" d="M94.5,-205.09C94.5,-196.35 94.5,-187.39 94.5,-178.52"/>
<polygon fill="none" stroke="midnightblue" points="91,-205.23 94.5,-215.23 98,-205.23 91,-205.23"/>
</g>
</g>
</svg>
