<?xml version="1.0" encoding="UTF-8" standalone="no"?>
<!DOCTYPE svg PUBLIC "-//W3C//DTD SVG 1.1//EN"
 "http://www.w3.org/Graphics/SVG/1.1/DTD/svg11.dtd">
<!-- Generated by graphviz version 2.43.0 (0)
 -->
<!-- Title: Kyoo.Models.Genre Pages: 1 -->
<svg width="119pt" height="237pt"
 viewBox="0.00 0.00 119.00 237.00" xmlns="http://www.w3.org/2000/svg" xmlns:xlink="http://www.w3.org/1999/xlink">
<g id="graph0" class="graph" transform="scale(1 1) rotate(0) translate(4 233)">
<title>Kyoo.Models.Genre</title>
<polygon fill="white" stroke="transparent" points="-4,4 -4,-233 115,-233 115,4 -4,4"/>
<!-- Node1 -->
<g id="node1" class="node">
<title>Node1</title>
<g id="a_node1"><a xlink:title=" ">
<polygon fill="#bfbfbf" stroke="black" points="0,-0.5 0,-123.5 111,-123.5 111,-0.5 0,-0.5"/>
<text text-anchor="middle" x="55.5" y="-111.5" font-family="Helvetica,sans-Serif" font-size="10.00">Kyoo.Models.Genre</text>
<polyline fill="none" stroke="black" points="0,-104.5 111,-104.5 "/>
<text text-anchor="start" x="8" y="-92.5" font-family="Helvetica,sans-Serif" font-size="10.00">+ ID</text>
<text text-anchor="start" x="8" y="-81.5" font-family="Helvetica,sans-Serif" font-size="10.00">+ Slug</text>
<text text-anchor="start" x="8" y="-70.5" font-family="Helvetica,sans-Serif" font-size="10.00">+ Name</text>
<text text-anchor="start" x="8" y="-59.5" font-family="Helvetica,sans-Serif" font-size="10.00">+ Shows</text>
<polyline fill="none" stroke="black" points="0,-52.5 111,-52.5 "/>
<text text-anchor="start" x="8" y="-40.5" font-family="Helvetica,sans-Serif" font-size="10.00">+ Genre()</text>
<text text-anchor="start" x="8" y="-29.5" font-family="Helvetica,sans-Serif" font-size="10.00">+ Genre()</text>
<text text-anchor="start" x="8" y="-18.5" font-family="Helvetica,sans-Serif" font-size="10.00">+ Genre()</text>
<text text-anchor="start" x="8" y="-7.5" font-family="Helvetica,sans-Serif" font-size="10.00">+ Genre()</text>
</a>
</g>
</g>
<!-- Node2 -->
<g id="node2" class="node">
<title>Node2</title>
<g id="a_node2"><a xlink:href="interfaceKyoo_1_1Models_1_1IResource.html" target="_top" xlink:title="An interface to represent a resource that can be retrieved from the database.">
<polygon fill="white" stroke="black" points="23,-160.5 23,-228.5 88,-228.5 88,-160.5 23,-160.5"/>
<text text-anchor="middle" x="55.5" y="-216.5" font-family="Helvetica,sans-Serif" font-size="10.00">IResource</text>
<polyline fill="none" stroke="black" points="23,-209.5 88,-209.5 "/>
<text text-anchor="start" x="31" y="-197.5" font-family="Helvetica,sans-Serif" font-size="10.00">+ ID</text>
<text text-anchor="start" x="31" y="-186.5" font-family="Helvetica,sans-Serif" font-size="10.00">+ Slug</text>
<polyline fill="none" stroke="black" points="23,-179.5 88,-179.5 "/>
<text text-anchor="middle" x="55.5" y="-167.5" font-family="Helvetica,sans-Serif" font-size="10.00"> </text>
</a>
</g>
</g>
<!-- Node2&#45;&gt;Node1 -->
<g id="edge1" class="edge">
<title>Node2&#45;&gt;Node1</title>
<path fill="none" stroke="midnightblue" d="M55.5,-150.17C55.5,-141.65 55.5,-132.57 55.5,-123.61"/>
<polygon fill="none" stroke="midnightblue" points="52,-150.23 55.5,-160.23 59,-150.23 52,-150.23"/>
</g>
</g>
</svg>
