<?xml version="1.0" encoding="UTF-8" standalone="no"?>
<!DOCTYPE svg PUBLIC "-//W3C//DTD SVG 1.1//EN"
 "http://www.w3.org/Graphics/SVG/1.1/DTD/svg11.dtd">
<!-- Generated by graphviz version 2.43.0 (0)
 -->
<!-- Title: Kyoo.Models.PeopleRole Pages: 1 -->
<svg width="145pt" height="259pt"
 viewBox="0.00 0.00 145.00 259.00" xmlns="http://www.w3.org/2000/svg" xmlns:xlink="http://www.w3.org/1999/xlink">
<g id="graph0" class="graph" transform="scale(1 1) rotate(0) translate(4 255)">
<title>Kyoo.Models.PeopleRole</title>
<polygon fill="white" stroke="transparent" points="-4,4 -4,-255 141,-255 141,4 -4,4"/>
<!-- Node1 -->
<g id="node1" class="node">
<title>Node1</title>
<g id="a_node1"><a xlink:title=" ">
<polygon fill="#bfbfbf" stroke="black" points="0,-0.5 0,-145.5 137,-145.5 137,-0.5 0,-0.5"/>
<text text-anchor="middle" x="68.5" y="-133.5" font-family="Helvetica,sans-Serif" font-size="10.00">Kyoo.Models.PeopleRole</text>
<polyline fill="none" stroke="black" points="0,-126.5 137,-126.5 "/>
<text text-anchor="start" x="8" y="-114.5" font-family="Helvetica,sans-Serif" font-size="10.00">+ Slug</text>
<text text-anchor="start" x="8" y="-103.5" font-family="Helvetica,sans-Serif" font-size="10.00">+ ForPeople</text>
<text text-anchor="start" x="8" y="-92.5" font-family="Helvetica,sans-Serif" font-size="10.00">+ ID</text>
<text text-anchor="start" x="8" y="-81.5" font-family="Helvetica,sans-Serif" font-size="10.00">+ PeopleID</text>
<text text-anchor="start" x="8" y="-70.5" font-family="Helvetica,sans-Serif" font-size="10.00">+ People</text>
<text text-anchor="start" x="8" y="-59.5" font-family="Helvetica,sans-Serif" font-size="10.00">+ ShowID</text>
<text text-anchor="start" x="8" y="-48.5" font-family="Helvetica,sans-Serif" font-size="10.00">+ Show</text>
<text text-anchor="start" x="8" y="-37.5" font-family="Helvetica,sans-Serif" font-size="10.00">+ Role</text>
<text text-anchor="start" x="8" y="-26.5" font-family="Helvetica,sans-Serif" font-size="10.00">+ Type</text>
<polyline fill="none" stroke="black" points="0,-19.5 137,-19.5 "/>
<text text-anchor="middle" x="68.5" y="-7.5" font-family="Helvetica,sans-Serif" font-size="10.00"> </text>
</a>
</g>
</g>
<!-- Node2 -->
<g id="node2" class="node">
<title>Node2</title>
<g id="a_node2"><a xlink:href="interfaceKyoo_1_1Models_1_1IResource.html" target="_top" xlink:title="An interface to represent a resource that can be retrieved from the database.">
<polygon fill="white" stroke="black" points="36,-182.5 36,-250.5 101,-250.5 101,-182.5 36,-182.5"/>
<text text-anchor="middle" x="68.5" y="-238.5" font-family="Helvetica,sans-Serif" font-size="10.00">IResource</text>
<polyline fill="none" stroke="black" points="36,-231.5 101,-231.5 "/>
<text text-anchor="start" x="44" y="-219.5" font-family="Helvetica,sans-Serif" font-size="10.00">+ ID</text>
<text text-anchor="start" x="44" y="-208.5" font-family="Helvetica,sans-Serif" font-size="10.00">+ Slug</text>
<polyline fill="none" stroke="black" points="36,-201.5 101,-201.5 "/>
<text text-anchor="middle" x="68.5" y="-189.5" font-family="Helvetica,sans-Serif" font-size="10.00"> </text>
</a>
</g>
</g>
<!-- Node2&#45;&gt;Node1 -->
<g id="edge1" class="edge">
<title>Node2&#45;&gt;Node1</title>
<path fill="none" stroke="midnightblue" d="M68.5,-172.09C68.5,-163.73 68.5,-154.76 68.5,-145.77"/>
<polygon fill="none" stroke="midnightblue" points="65,-172.32 68.5,-182.32 72,-172.32 65,-172.32"/>
</g>
</g>
</svg>
