<?xml version="1.0" encoding="UTF-8" standalone="no"?>
<!DOCTYPE svg PUBLIC "-//W3C//DTD SVG 1.1//EN"
 "http://www.w3.org/Graphics/SVG/1.1/DTD/svg11.dtd">
<!-- Generated by graphviz version 2.43.0 (0)
 -->
<!-- Title: Kyoo.Api.SubtitleApi Pages: 1 -->
<svg width="433pt" height="413pt"
 viewBox="0.00 0.00 433.00 413.00" xmlns="http://www.w3.org/2000/svg" xmlns:xlink="http://www.w3.org/1999/xlink">
<g id="graph0" class="graph" transform="scale(1 1) rotate(0) translate(4 409)">
<title>Kyoo.Api.SubtitleApi</title>
<polygon fill="white" stroke="transparent" points="-4,4 -4,-409 429,-409 429,4 -4,4"/>
<!-- Node1 -->
<g id="node1" class="node">
<title>Node1</title>
<g id="a_node1"><a xlink:title=" ">
<polygon fill="#bfbfbf" stroke="black" points="130.5,-0.5 130.5,-68.5 246.5,-68.5 246.5,-0.5 130.5,-0.5"/>
<text text-anchor="middle" x="188.5" y="-56.5" font-family="Helvetica,sans-Serif" font-size="10.00">Kyoo.Api.SubtitleApi</text>
<polyline fill="none" stroke="black" points="130.5,-49.5 246.5,-49.5 "/>
<text text-anchor="middle" x="188.5" y="-37.5" font-family="Helvetica,sans-Serif" font-size="10.00"> </text>
<polyline fill="none" stroke="black" points="130.5,-30.5 246.5,-30.5 "/>
<text text-anchor="start" x="138.5" y="-18.5" font-family="Helvetica,sans-Serif" font-size="10.00">+ SubtitleApi()</text>
<text text-anchor="start" x="138.5" y="-7.5" font-family="Helvetica,sans-Serif" font-size="10.00">+ GetSubtitle()</text>
</a>
</g>
</g>
<!-- Node2 -->
<g id="node2" class="node">
<title>Node2</title>
<g id="a_node2"><a xlink:title=" ">
<polygon fill="white" stroke="#bfbfbf" points="0,-232 0,-289 89,-289 89,-232 0,-232"/>
<text text-anchor="middle" x="44.5" y="-277" font-family="Helvetica,sans-Serif" font-size="10.00">ControllerBase</text>
<polyline fill="none" stroke="#bfbfbf" points="0,-270 89,-270 "/>
<text text-anchor="middle" x="44.5" y="-258" font-family="Helvetica,sans-Serif" font-size="10.00"> </text>
<polyline fill="none" stroke="#bfbfbf" points="0,-251 89,-251 "/>
<text text-anchor="middle" x="44.5" y="-239" font-family="Helvetica,sans-Serif" font-size="10.00"> </text>
</a>
</g>
</g>
<!-- Node2&#45;&gt;Node1 -->
<g id="edge1" class="edge">
<title>Node2&#45;&gt;Node1</title>
<path fill="none" stroke="midnightblue" d="M52.87,-222.17C60.92,-191.73 75.2,-148.59 97.5,-116 109.65,-98.25 126.57,-81.86 142.52,-68.57"/>
<polygon fill="none" stroke="midnightblue" points="49.45,-221.42 50.38,-231.98 56.24,-223.15 49.45,-221.42"/>
</g>
<!-- Node3 -->
<g id="node3" class="node">
<title>Node3</title>
<g id="a_node3"><a xlink:href="interfaceKyoo_1_1Controllers_1_1IFileManager.html" target="_top" xlink:title="A service to abstract the file system to allow custom file systems (like distant file systems or exte...">
<polygon fill="white" stroke="black" points="107,-193.5 107,-327.5 270,-327.5 270,-193.5 107,-193.5"/>
<text text-anchor="middle" x="188.5" y="-315.5" font-family="Helvetica,sans-Serif" font-size="10.00">Kyoo.Controllers.IFileManager</text>
<polyline fill="none" stroke="black" points="107,-308.5 270,-308.5 "/>
<text text-anchor="middle" x="188.5" y="-296.5" font-family="Helvetica,sans-Serif" font-size="10.00"> </text>
<polyline fill="none" stroke="black" points="107,-289.5 270,-289.5 "/>
<text text-anchor="start" x="115" y="-277.5" font-family="Helvetica,sans-Serif" font-size="10.00">+ FileResult()</text>
<text text-anchor="start" x="115" y="-266.5" font-family="Helvetica,sans-Serif" font-size="10.00">+ GetReader()</text>
<text text-anchor="start" x="115" y="-255.5" font-family="Helvetica,sans-Serif" font-size="10.00">+ NewFile()</text>
<text text-anchor="start" x="115" y="-244.5" font-family="Helvetica,sans-Serif" font-size="10.00">+ ListFiles()</text>
<text text-anchor="start" x="115" y="-233.5" font-family="Helvetica,sans-Serif" font-size="10.00">+ Exists()</text>
<text text-anchor="start" x="115" y="-222.5" font-family="Helvetica,sans-Serif" font-size="10.00">+ GetExtraDirectory()</text>
<text text-anchor="start" x="115" y="-211.5" font-family="Helvetica,sans-Serif" font-size="10.00">+ GetExtraDirectory()</text>
<text text-anchor="start" x="115" y="-200.5" font-family="Helvetica,sans-Serif" font-size="10.00">+ GetExtraDirectory()</text>
</a>
</g>
</g>
<!-- Node3&#45;&gt;Node1 -->
<g id="edge2" class="edge">
<title>Node3&#45;&gt;Node1</title>
<path fill="none" stroke="#404040" d="M188.5,-193.2C188.5,-156.98 188.5,-113.07 188.5,-80.79"/>
<polygon fill="none" stroke="#404040" points="188.5,-80.6 184.5,-74.6 188.5,-68.6 192.5,-74.6 188.5,-80.6"/>
<text text-anchor="middle" x="205" y="-90" font-family="Helvetica,sans-Serif" font-size="10.00"> &#45;_files</text>
</g>
<!-- Node4 -->
<g id="node4" class="node">
<title>Node4</title>
<g id="a_node4"><a xlink:href="interfaceKyoo_1_1Controllers_1_1ILibraryManager.html" target="_top" xlink:title="An interface to interract with the database. Every repository is mapped through here.">
<polygon fill="white" stroke="black" points="288,-116.5 288,-404.5 425,-404.5 425,-116.5 288,-116.5"/>
<text text-anchor="start" x="296" y="-392.5" font-family="Helvetica,sans-Serif" font-size="10.00">Kyoo.Controllers.ILibrary</text>
<text text-anchor="middle" x="356.5" y="-381.5" font-family="Helvetica,sans-Serif" font-size="10.00">Manager</text>
<polyline fill="none" stroke="black" points="288,-374.5 425,-374.5 "/>
<text text-anchor="start" x="296" y="-362.5" font-family="Helvetica,sans-Serif" font-size="10.00">+ LibraryRepository</text>
<text text-anchor="start" x="296" y="-351.5" font-family="Helvetica,sans-Serif" font-size="10.00">+ LibraryItemRepository</text>
<text text-anchor="start" x="296" y="-340.5" font-family="Helvetica,sans-Serif" font-size="10.00">+ CollectionRepository</text>
<text text-anchor="start" x="296" y="-329.5" font-family="Helvetica,sans-Serif" font-size="10.00">+ ShowRepository</text>
<text text-anchor="start" x="296" y="-318.5" font-family="Helvetica,sans-Serif" font-size="10.00">+ SeasonRepository</text>
<text text-anchor="start" x="296" y="-307.5" font-family="Helvetica,sans-Serif" font-size="10.00">+ EpisodeRepository</text>
<text text-anchor="start" x="296" y="-296.5" font-family="Helvetica,sans-Serif" font-size="10.00">+ TrackRepository</text>
<text text-anchor="start" x="296" y="-285.5" font-family="Helvetica,sans-Serif" font-size="10.00">+ PeopleRepository</text>
<text text-anchor="start" x="296" y="-274.5" font-family="Helvetica,sans-Serif" font-size="10.00">+ StudioRepository</text>
<text text-anchor="start" x="296" y="-263.5" font-family="Helvetica,sans-Serif" font-size="10.00">+ GenreRepository</text>
<text text-anchor="start" x="296" y="-252.5" font-family="Helvetica,sans-Serif" font-size="10.00">+ ProviderRepository</text>
<polyline fill="none" stroke="black" points="288,-245.5 425,-245.5 "/>
<text text-anchor="start" x="296" y="-233.5" font-family="Helvetica,sans-Serif" font-size="10.00">+ GetRepository&lt; T &gt;()</text>
<text text-anchor="start" x="296" y="-222.5" font-family="Helvetica,sans-Serif" font-size="10.00">+ Get&lt; T &gt;()</text>
<text text-anchor="start" x="296" y="-211.5" font-family="Helvetica,sans-Serif" font-size="10.00">+ Get&lt; T &gt;()</text>
<text text-anchor="start" x="296" y="-200.5" font-family="Helvetica,sans-Serif" font-size="10.00">+ Get&lt; T &gt;()</text>
<text text-anchor="start" x="296" y="-189.5" font-family="Helvetica,sans-Serif" font-size="10.00">+ Get()</text>
<text text-anchor="start" x="296" y="-178.5" font-family="Helvetica,sans-Serif" font-size="10.00">+ Get()</text>
<text text-anchor="start" x="296" y="-167.5" font-family="Helvetica,sans-Serif" font-size="10.00">+ Get()</text>
<text text-anchor="start" x="296" y="-156.5" font-family="Helvetica,sans-Serif" font-size="10.00">+ Get()</text>
<text text-anchor="start" x="296" y="-145.5" font-family="Helvetica,sans-Serif" font-size="10.00">+ Get()</text>
<text text-anchor="start" x="296" y="-134.5" font-family="Helvetica,sans-Serif" font-size="10.00">+ GetOrDefault&lt; T &gt;()</text>
<text text-anchor="start" x="296" y="-123.5" font-family="Helvetica,sans-Serif" font-size="10.00">and 35 more...</text>
</a>
</g>
</g>
<!-- Node4&#45;&gt;Node1 -->
<g id="edge3" class="edge">
<title>Node4&#45;&gt;Node1</title>
<path fill="none" stroke="#404040" d="M287.77,-126.96C285.06,-123.21 282.31,-119.55 279.5,-116 268.44,-102.02 254.76,-88.5 241.41,-76.66"/>
<polygon fill="none" stroke="#404040" points="241.33,-76.59 234.17,-75.7 232.25,-68.75 239.4,-69.64 241.33,-76.59"/>
<text text-anchor="middle" x="306" y="-90" font-family="Helvetica,sans-Serif" font-size="10.00"> &#45;_libraryManager</text>
</g>
</g>
</svg>
