<?xml version="1.0" encoding="UTF-8" standalone="no"?>
<!DOCTYPE svg PUBLIC "-//W3C//DTD SVG 1.1//EN"
 "http://www.w3.org/Graphics/SVG/1.1/DTD/svg11.dtd">
<!-- Generated by graphviz version 2.43.0 (0)
 -->
<!-- Title: Kyoo.Api.TaskApi Pages: 1 -->
<svg width="108pt" height="182pt"
 viewBox="0.00 0.00 108.00 182.00" xmlns="http://www.w3.org/2000/svg" xmlns:xlink="http://www.w3.org/1999/xlink">
<g id="graph0" class="graph" transform="scale(1 1) rotate(0) translate(4 178)">
<title>Kyoo.Api.TaskApi</title>
<polygon fill="white" stroke="transparent" points="-4,4 -4,-178 104,-178 104,4 -4,4"/>
<!-- Node1 -->
<g id="node1" class="node">
<title>Node1</title>
<g id="a_node1"><a xlink:title=" ">
<polygon fill="#bfbfbf" stroke="black" points="0,-0.5 0,-79.5 100,-79.5 100,-0.5 0,-0.5"/>
<text text-anchor="middle" x="50" y="-67.5" font-family="Helvetica,sans-Serif" font-size="10.00">Kyoo.Api.TaskApi</text>
<polyline fill="none" stroke="black" points="0,-60.5 100,-60.5 "/>
<text text-anchor="start" x="8" y="-48.5" font-family="Helvetica,sans-Serif" font-size="10.00">&#45; _taskManager</text>
<polyline fill="none" stroke="black" points="0,-41.5 100,-41.5 "/>
<text text-anchor="start" x="8" y="-29.5" font-family="Helvetica,sans-Serif" font-size="10.00">+ TaskApi()</text>
<text text-anchor="start" x="8" y="-18.5" font-family="Helvetica,sans-Serif" font-size="10.00">+ GetTasks()</text>
<text text-anchor="start" x="8" y="-7.5" font-family="Helvetica,sans-Serif" font-size="10.00">+ RunTask()</text>
</a>
</g>
</g>
<!-- Node2 -->
<g id="node2" class="node">
<title>Node2</title>
<g id="a_node2"><a xlink:title=" ">
<polygon fill="white" stroke="#bfbfbf" points="5.5,-116.5 5.5,-173.5 94.5,-173.5 94.5,-116.5 5.5,-116.5"/>
<text text-anchor="middle" x="50" y="-161.5" font-family="Helvetica,sans-Serif" font-size="10.00">ControllerBase</text>
<polyline fill="none" stroke="#bfbfbf" points="5.5,-154.5 94.5,-154.5 "/>
<text text-anchor="middle" x="50" y="-142.5" font-family="Helvetica,sans-Serif" font-size="10.00"> </text>
<polyline fill="none" stroke="#bfbfbf" points="5.5,-135.5 94.5,-135.5 "/>
<text text-anchor="middle" x="50" y="-123.5" font-family="Helvetica,sans-Serif" font-size="10.00"> </text>
</a>
</g>
</g>
<!-- Node2&#45;&gt;Node1 -->
<g id="edge1" class="edge">
<title>Node2&#45;&gt;Node1</title>
<path fill="none" stroke="midnightblue" d="M50,-106.16C50,-97.47 50,-88.23 50,-79.52"/>
<polygon fill="none" stroke="midnightblue" points="46.5,-106.4 50,-116.4 53.5,-106.4 46.5,-106.4"/>
</g>
</g>
</svg>
