<?xml version="1.0" encoding="UTF-8" standalone="no"?>
<!DOCTYPE svg PUBLIC "-//W3C//DTD SVG 1.1//EN"
 "http://www.w3.org/Graphics/SVG/1.1/DTD/svg11.dtd">
<!-- Generated by graphviz version 2.43.0 (0)
 -->
<!-- Title: Kyoo.Controllers.StudioRepository Pages: 1 -->
<svg width="461pt" height="739pt"
 viewBox="0.00 0.00 460.50 739.00" xmlns="http://www.w3.org/2000/svg" xmlns:xlink="http://www.w3.org/1999/xlink">
<g id="graph0" class="graph" transform="scale(1 1) rotate(0) translate(4 735)">
<title>Kyoo.Controllers.StudioRepository</title>
<polygon fill="white" stroke="transparent" points="-4,4 -4,-735 456.5,-735 456.5,4 -4,4"/>
<!-- Node1 -->
<g id="node1" class="node">
<title>Node1</title>
<g id="a_node1"><a xlink:title="A local repository to handle studios">
<polygon fill="#bfbfbf" stroke="black" points="127,-0.5 127,-90.5 310,-90.5 310,-0.5 127,-0.5"/>
<text text-anchor="middle" x="218.5" y="-78.5" font-family="Helvetica,sans-Serif" font-size="10.00">Kyoo.Controllers.StudioRepository</text>
<polyline fill="none" stroke="black" points="127,-71.5 310,-71.5 "/>
<text text-anchor="start" x="135" y="-59.5" font-family="Helvetica,sans-Serif" font-size="10.00"># DefaultSort</text>
<polyline fill="none" stroke="black" points="127,-52.5 310,-52.5 "/>
<text text-anchor="start" x="135" y="-40.5" font-family="Helvetica,sans-Serif" font-size="10.00">+ StudioRepository()</text>
<text text-anchor="start" x="135" y="-29.5" font-family="Helvetica,sans-Serif" font-size="10.00">+ Search()</text>
<text text-anchor="start" x="135" y="-18.5" font-family="Helvetica,sans-Serif" font-size="10.00">+ Create()</text>
<text text-anchor="start" x="135" y="-7.5" font-family="Helvetica,sans-Serif" font-size="10.00">+ Delete()</text>
</a>
</g>
</g>
<!-- Node2 -->
<g id="node2" class="node">
<title>Node2</title>
<g id="a_node2"><a xlink:href="classKyoo_1_1Controllers_1_1LocalRepository.html" target="_top" xlink:title=" ">
<polygon fill="white" stroke="black" points="0,-204.5 0,-459.5 149,-459.5 149,-204.5 0,-204.5"/>
<text text-anchor="middle" x="74.5" y="-447.5" font-family="Helvetica,sans-Serif" font-size="10.00">LocalRepository&lt; Studio &gt;</text>
<polyline fill="none" stroke="black" points="0,-440.5 149,-440.5 "/>
<text text-anchor="start" x="8" y="-428.5" font-family="Helvetica,sans-Serif" font-size="10.00">+ RepositoryType</text>
<text text-anchor="start" x="8" y="-417.5" font-family="Helvetica,sans-Serif" font-size="10.00">+ DefaultSort</text>
<text text-anchor="start" x="8" y="-406.5" font-family="Helvetica,sans-Serif" font-size="10.00"># Database</text>
<polyline fill="none" stroke="black" points="0,-399.5 149,-399.5 "/>
<text text-anchor="start" x="8" y="-387.5" font-family="Helvetica,sans-Serif" font-size="10.00">+ Get()</text>
<text text-anchor="start" x="8" y="-376.5" font-family="Helvetica,sans-Serif" font-size="10.00">+ Get()</text>
<text text-anchor="start" x="8" y="-365.5" font-family="Helvetica,sans-Serif" font-size="10.00">+ Get()</text>
<text text-anchor="start" x="8" y="-354.5" font-family="Helvetica,sans-Serif" font-size="10.00">+ GetOrDefault()</text>
<text text-anchor="start" x="8" y="-343.5" font-family="Helvetica,sans-Serif" font-size="10.00">+ GetOrDefault()</text>
<text text-anchor="start" x="8" y="-332.5" font-family="Helvetica,sans-Serif" font-size="10.00">+ GetOrDefault()</text>
<text text-anchor="start" x="8" y="-321.5" font-family="Helvetica,sans-Serif" font-size="10.00">+ Search()</text>
<text text-anchor="start" x="8" y="-310.5" font-family="Helvetica,sans-Serif" font-size="10.00">+ GetAll()</text>
<text text-anchor="start" x="8" y="-299.5" font-family="Helvetica,sans-Serif" font-size="10.00">+ GetCount()</text>
<text text-anchor="start" x="8" y="-288.5" font-family="Helvetica,sans-Serif" font-size="10.00">+ Create()</text>
<text text-anchor="start" x="8" y="-277.5" font-family="Helvetica,sans-Serif" font-size="10.00">and 9 more...</text>
<text text-anchor="start" x="8" y="-266.5" font-family="Helvetica,sans-Serif" font-size="10.00"># LocalRepository()</text>
<text text-anchor="start" x="8" y="-255.5" font-family="Helvetica,sans-Serif" font-size="10.00"># GetWithTracking()</text>
<text text-anchor="start" x="8" y="-244.5" font-family="Helvetica,sans-Serif" font-size="10.00"># ApplyFilters()</text>
<text text-anchor="start" x="8" y="-233.5" font-family="Helvetica,sans-Serif" font-size="10.00"># ApplyFilters&lt; TValue &gt;()</text>
<text text-anchor="start" x="8" y="-222.5" font-family="Helvetica,sans-Serif" font-size="10.00"># EditRelations()</text>
<text text-anchor="start" x="8" y="-211.5" font-family="Helvetica,sans-Serif" font-size="10.00"># Validate()</text>
</a>
</g>
</g>
<!-- Node2&#45;&gt;Node1 -->
<g id="edge1" class="edge">
<title>Node2&#45;&gt;Node1</title>
<path fill="none" stroke="midnightblue" d="M129.23,-195.1C138.13,-175.66 147.67,-156.13 157.5,-138 166.15,-122.06 176.78,-105.35 186.73,-90.63"/>
<polygon fill="none" stroke="midnightblue" points="125.99,-193.77 125.05,-204.32 132.37,-196.66 125.99,-193.77"/>
</g>
<!-- Node3 -->
<g id="node3" class="node">
<title>Node3</title>
<g id="a_node3"><a xlink:href="interfaceKyoo_1_1Controllers_1_1IStudioRepository.html" target="_top" xlink:title="A repository for studios.">
<polygon fill="white" stroke="black" points="167,-303.5 167,-360.5 270,-360.5 270,-303.5 167,-303.5"/>
<text text-anchor="middle" x="218.5" y="-348.5" font-family="Helvetica,sans-Serif" font-size="10.00">IStudioRepository</text>
<polyline fill="none" stroke="black" points="167,-341.5 270,-341.5 "/>
<text text-anchor="middle" x="218.5" y="-329.5" font-family="Helvetica,sans-Serif" font-size="10.00"> </text>
<polyline fill="none" stroke="black" points="167,-322.5 270,-322.5 "/>
<text text-anchor="middle" x="218.5" y="-310.5" font-family="Helvetica,sans-Serif" font-size="10.00"> </text>
</a>
</g>
</g>
<!-- Node3&#45;&gt;Node1 -->
<g id="edge2" class="edge">
<title>Node3&#45;&gt;Node1</title>
<path fill="none" stroke="midnightblue" d="M218.5,-293.26C218.5,-240.88 218.5,-146.32 218.5,-90.71"/>
<polygon fill="none" stroke="midnightblue" points="215,-293.46 218.5,-303.46 222,-293.46 215,-293.46"/>
</g>
<!-- Node4 -->
<g id="node4" class="node">
<title>Node4</title>
<g id="a_node4"><a xlink:href="interfaceKyoo_1_1Controllers_1_1IRepository.html" target="_top" xlink:title=" ">
<polygon fill="white" stroke="black" points="156,-563.5 156,-730.5 281,-730.5 281,-563.5 156,-563.5"/>
<text text-anchor="middle" x="218.5" y="-718.5" font-family="Helvetica,sans-Serif" font-size="10.00">IRepository&lt; Studio &gt;</text>
<polyline fill="none" stroke="black" points="156,-711.5 281,-711.5 "/>
<text text-anchor="middle" x="218.5" y="-699.5" font-family="Helvetica,sans-Serif" font-size="10.00"> </text>
<polyline fill="none" stroke="black" points="156,-692.5 281,-692.5 "/>
<text text-anchor="start" x="164" y="-680.5" font-family="Helvetica,sans-Serif" font-size="10.00">+ Get()</text>
<text text-anchor="start" x="164" y="-669.5" font-family="Helvetica,sans-Serif" font-size="10.00">+ Get()</text>
<text text-anchor="start" x="164" y="-658.5" font-family="Helvetica,sans-Serif" font-size="10.00">+ Get()</text>
<text text-anchor="start" x="164" y="-647.5" font-family="Helvetica,sans-Serif" font-size="10.00">+ GetOrDefault()</text>
<text text-anchor="start" x="164" y="-636.5" font-family="Helvetica,sans-Serif" font-size="10.00">+ GetOrDefault()</text>
<text text-anchor="start" x="164" y="-625.5" font-family="Helvetica,sans-Serif" font-size="10.00">+ GetOrDefault()</text>
<text text-anchor="start" x="164" y="-614.5" font-family="Helvetica,sans-Serif" font-size="10.00">+ Search()</text>
<text text-anchor="start" x="164" y="-603.5" font-family="Helvetica,sans-Serif" font-size="10.00">+ GetAll()</text>
<text text-anchor="start" x="164" y="-592.5" font-family="Helvetica,sans-Serif" font-size="10.00">+ GetAll()</text>
<text text-anchor="start" x="164" y="-581.5" font-family="Helvetica,sans-Serif" font-size="10.00">+ GetCount()</text>
<text text-anchor="start" x="164" y="-570.5" font-family="Helvetica,sans-Serif" font-size="10.00">and 13 more...</text>
</a>
</g>
</g>
<!-- Node4&#45;&gt;Node3 -->
<g id="edge3" class="edge">
<title>Node4&#45;&gt;Node3</title>
<path fill="none" stroke="midnightblue" d="M218.5,-552.97C218.5,-487.27 218.5,-403.6 218.5,-360.86"/>
<polygon fill="none" stroke="midnightblue" points="215,-553.35 218.5,-563.35 222,-553.35 215,-553.35"/>
</g>
<!-- Node5 -->
<g id="node5" class="node">
<title>Node5</title>
<g id="a_node5"><a xlink:href="classKyoo_1_1DatabaseContext.html" target="_top" xlink:title="The database handle used for all local repositories. This is an abstract class. It is meant to be imp...">
<polygon fill="white" stroke="black" points="288.5,-138.5 288.5,-525.5 452.5,-525.5 452.5,-138.5 288.5,-138.5"/>
<text text-anchor="middle" x="370.5" y="-513.5" font-family="Helvetica,sans-Serif" font-size="10.00">Kyoo.DatabaseContext</text>
<polyline fill="none" stroke="black" points="288.5,-506.5 452.5,-506.5 "/>
<text text-anchor="start" x="296.5" y="-494.5" font-family="Helvetica,sans-Serif" font-size="10.00">+ Libraries</text>
<text text-anchor="start" x="296.5" y="-483.5" font-family="Helvetica,sans-Serif" font-size="10.00">+ Collections</text>
<text text-anchor="start" x="296.5" y="-472.5" font-family="Helvetica,sans-Serif" font-size="10.00">+ Shows</text>
<text text-anchor="start" x="296.5" y="-461.5" font-family="Helvetica,sans-Serif" font-size="10.00">+ Seasons</text>
<text text-anchor="start" x="296.5" y="-450.5" font-family="Helvetica,sans-Serif" font-size="10.00">+ Episodes</text>
<text text-anchor="start" x="296.5" y="-439.5" font-family="Helvetica,sans-Serif" font-size="10.00">+ Tracks</text>
<text text-anchor="start" x="296.5" y="-428.5" font-family="Helvetica,sans-Serif" font-size="10.00">+ Genres</text>
<text text-anchor="start" x="296.5" y="-417.5" font-family="Helvetica,sans-Serif" font-size="10.00">+ People</text>
<text text-anchor="start" x="296.5" y="-406.5" font-family="Helvetica,sans-Serif" font-size="10.00">+ Studios</text>
<text text-anchor="start" x="296.5" y="-395.5" font-family="Helvetica,sans-Serif" font-size="10.00">+ Providers</text>
<text text-anchor="start" x="296.5" y="-384.5" font-family="Helvetica,sans-Serif" font-size="10.00">+ MetadataIds</text>
<text text-anchor="start" x="296.5" y="-373.5" font-family="Helvetica,sans-Serif" font-size="10.00">+ Users</text>
<text text-anchor="start" x="296.5" y="-362.5" font-family="Helvetica,sans-Serif" font-size="10.00">+ PeopleRoles</text>
<text text-anchor="start" x="296.5" y="-351.5" font-family="Helvetica,sans-Serif" font-size="10.00">+ WatchedEpisodes</text>
<polyline fill="none" stroke="black" points="288.5,-344.5 452.5,-344.5 "/>
<text text-anchor="start" x="296.5" y="-332.5" font-family="Helvetica,sans-Serif" font-size="10.00">+ Links&lt; T1, T2 &gt;()</text>
<text text-anchor="start" x="296.5" y="-321.5" font-family="Helvetica,sans-Serif" font-size="10.00">+ GetTemporaryObject&lt; T &gt;()</text>
<text text-anchor="start" x="296.5" y="-310.5" font-family="Helvetica,sans-Serif" font-size="10.00">+ SaveChanges()</text>
<text text-anchor="start" x="296.5" y="-299.5" font-family="Helvetica,sans-Serif" font-size="10.00">+ SaveChanges()</text>
<text text-anchor="start" x="296.5" y="-288.5" font-family="Helvetica,sans-Serif" font-size="10.00">+ SaveChanges()</text>
<text text-anchor="start" x="296.5" y="-277.5" font-family="Helvetica,sans-Serif" font-size="10.00">+ SaveChangesAsync()</text>
<text text-anchor="start" x="296.5" y="-266.5" font-family="Helvetica,sans-Serif" font-size="10.00">+ SaveChangesAsync()</text>
<text text-anchor="start" x="296.5" y="-255.5" font-family="Helvetica,sans-Serif" font-size="10.00">+ SaveChangesAsync()</text>
<text text-anchor="start" x="296.5" y="-244.5" font-family="Helvetica,sans-Serif" font-size="10.00">+ SaveIfNoDuplicates()</text>
<text text-anchor="start" x="296.5" y="-233.5" font-family="Helvetica,sans-Serif" font-size="10.00">+ SaveOrRetry&lt; T &gt;()</text>
<text text-anchor="start" x="296.5" y="-222.5" font-family="Helvetica,sans-Serif" font-size="10.00">+ Like&lt; T &gt;()</text>
<text text-anchor="start" x="296.5" y="-211.5" font-family="Helvetica,sans-Serif" font-size="10.00"># DatabaseContext()</text>
<text text-anchor="start" x="296.5" y="-200.5" font-family="Helvetica,sans-Serif" font-size="10.00"># DatabaseContext()</text>
<text text-anchor="start" x="296.5" y="-189.5" font-family="Helvetica,sans-Serif" font-size="10.00"># OnConfiguring()</text>
<text text-anchor="start" x="296.5" y="-178.5" font-family="Helvetica,sans-Serif" font-size="10.00"># OnModelCreating()</text>
<text text-anchor="start" x="296.5" y="-167.5" font-family="Helvetica,sans-Serif" font-size="10.00"># IsDuplicateException()</text>
<text text-anchor="start" x="296.5" y="-156.5" font-family="Helvetica,sans-Serif" font-size="10.00">&#45; SaveOrRetry&lt; T &gt;()</text>
<text text-anchor="start" x="296.5" y="-145.5" font-family="Helvetica,sans-Serif" font-size="10.00">&#45; DiscardChanges()</text>
</a>
</g>
</g>
<!-- Node5&#45;&gt;Node1 -->
<g id="edge4" class="edge">
<title>Node5&#45;&gt;Node1</title>
<path fill="none" stroke="#404040" d="M288.43,-156.08C285.14,-149.95 281.82,-143.9 278.5,-138 271.65,-125.84 263.8,-113.12 256.07,-101.16"/>
<polygon fill="none" stroke="#404040" points="255.92,-100.93 249.28,-98.1 249.34,-90.89 255.98,-93.72 255.92,-100.93"/>
<text text-anchor="middle" x="297.5" y="-112" font-family="Helvetica,sans-Serif" font-size="10.00"> &#45;_database</text>
</g>
<!-- Node6 -->
<g id="node6" class="node">
<title>Node6</title>
<g id="a_node6"><a xlink:title=" ">
<polygon fill="white" stroke="#bfbfbf" points="336.5,-618.5 336.5,-675.5 404.5,-675.5 404.5,-618.5 336.5,-618.5"/>
<text text-anchor="middle" x="370.5" y="-663.5" font-family="Helvetica,sans-Serif" font-size="10.00">DbContext</text>
<polyline fill="none" stroke="#bfbfbf" points="336.5,-656.5 404.5,-656.5 "/>
<text text-anchor="middle" x="370.5" y="-644.5" font-family="Helvetica,sans-Serif" font-size="10.00"> </text>
<polyline fill="none" stroke="#bfbfbf" points="336.5,-637.5 404.5,-637.5 "/>
<text text-anchor="middle" x="370.5" y="-625.5" font-family="Helvetica,sans-Serif" font-size="10.00"> </text>
</a>
</g>
</g>
<!-- Node6&#45;&gt;Node5 -->
<g id="edge5" class="edge">
<title>Node6&#45;&gt;Node5</title>
<path fill="none" stroke="midnightblue" d="M370.5,-608.41C370.5,-586.57 370.5,-557.21 370.5,-525.79"/>
<polygon fill="none" stroke="midnightblue" points="367,-608.5 370.5,-618.5 374,-608.5 367,-608.5"/>
</g>
</g>
</svg>
