<?xml version="1.0" encoding="UTF-8" standalone="no"?>
<!DOCTYPE svg PUBLIC "-//W3C//DTD SVG 1.1//EN"
 "http://www.w3.org/Graphics/SVG/1.1/DTD/svg11.dtd">
<!-- Generated by graphviz version 2.43.0 (0)
 -->
<!-- Title: Kyoo.Models.Episode Pages: 1 -->
<svg width="172pt" height="303pt"
 viewBox="0.00 0.00 171.50 303.00" xmlns="http://www.w3.org/2000/svg" xmlns:xlink="http://www.w3.org/1999/xlink">
<g id="graph0" class="graph" transform="scale(1 1) rotate(0) translate(4 299)">
<title>Kyoo.Models.Episode</title>
<polygon fill="white" stroke="transparent" points="-4,4 -4,-299 167.5,-299 167.5,4 -4,4"/>
<!-- Node1 -->
<g id="node1" class="node">
<title>Node1</title>
<g id="a_node1"><a xlink:title=" ">
<polygon fill="#bfbfbf" stroke="black" points="17.5,-0.5 17.5,-189.5 137.5,-189.5 137.5,-0.5 17.5,-0.5"/>
<text text-anchor="middle" x="77.5" y="-177.5" font-family="Helvetica,sans-Serif" font-size="10.00">Kyoo.Models.Episode</text>
<polyline fill="none" stroke="black" points="17.5,-170.5 137.5,-170.5 "/>
<text text-anchor="start" x="25.5" y="-158.5" font-family="Helvetica,sans-Serif" font-size="10.00">+ Slug</text>
<text text-anchor="start" x="25.5" y="-147.5" font-family="Helvetica,sans-Serif" font-size="10.00">+ ID</text>
<text text-anchor="start" x="25.5" y="-136.5" font-family="Helvetica,sans-Serif" font-size="10.00">+ ShowSlug</text>
<text text-anchor="start" x="25.5" y="-125.5" font-family="Helvetica,sans-Serif" font-size="10.00">+ ShowID</text>
<text text-anchor="start" x="25.5" y="-114.5" font-family="Helvetica,sans-Serif" font-size="10.00">+ Show</text>
<text text-anchor="start" x="25.5" y="-103.5" font-family="Helvetica,sans-Serif" font-size="10.00">+ SeasonID</text>
<text text-anchor="start" x="25.5" y="-92.5" font-family="Helvetica,sans-Serif" font-size="10.00">+ Season</text>
<text text-anchor="start" x="25.5" y="-81.5" font-family="Helvetica,sans-Serif" font-size="10.00">+ SeasonNumber</text>
<text text-anchor="start" x="25.5" y="-70.5" font-family="Helvetica,sans-Serif" font-size="10.00">+ EpisodeNumber</text>
<text text-anchor="start" x="25.5" y="-59.5" font-family="Helvetica,sans-Serif" font-size="10.00">+ AbsoluteNumber</text>
<text text-anchor="start" x="25.5" y="-48.5" font-family="Helvetica,sans-Serif" font-size="10.00">+ Path</text>
<text text-anchor="start" x="25.5" y="-37.5" font-family="Helvetica,sans-Serif" font-size="10.00">and 7 more...</text>
<polyline fill="none" stroke="black" points="17.5,-30.5 137.5,-30.5 "/>
<text text-anchor="start" x="25.5" y="-18.5" font-family="Helvetica,sans-Serif" font-size="10.00">+ OnMerge()</text>
<text text-anchor="start" x="25.5" y="-7.5" font-family="Helvetica,sans-Serif" font-size="10.00">+ GetSlug()</text>
</a>
</g>
</g>
<!-- Node2 -->
<g id="node2" class="node">
<title>Node2</title>
<g id="a_node2"><a xlink:href="interfaceKyoo_1_1Models_1_1IResource.html" target="_top" xlink:title="An interface to represent a resource that can be retrieved from the database.">
<polygon fill="white" stroke="black" points="0,-226.5 0,-294.5 65,-294.5 65,-226.5 0,-226.5"/>
<text text-anchor="middle" x="32.5" y="-282.5" font-family="Helvetica,sans-Serif" font-size="10.00">IResource</text>
<polyline fill="none" stroke="black" points="0,-275.5 65,-275.5 "/>
<text text-anchor="start" x="8" y="-263.5" font-family="Helvetica,sans-Serif" font-size="10.00">+ ID</text>
<text text-anchor="start" x="8" y="-252.5" font-family="Helvetica,sans-Serif" font-size="10.00">+ Slug</text>
<polyline fill="none" stroke="black" points="0,-245.5 65,-245.5 "/>
<text text-anchor="middle" x="32.5" y="-233.5" font-family="Helvetica,sans-Serif" font-size="10.00"> </text>
</a>
</g>
</g>
<!-- Node2&#45;&gt;Node1 -->
<g id="edge1" class="edge">
<title>Node2&#45;&gt;Node1</title>
<path fill="none" stroke="midnightblue" d="M44.33,-216.52C46.65,-208.1 49.16,-198.96 51.74,-189.6"/>
<polygon fill="none" stroke="midnightblue" points="40.89,-215.84 41.61,-226.41 47.63,-217.7 40.89,-215.84"/>
</g>
<!-- Node3 -->
<g id="node3" class="node">
<title>Node3</title>
<g id="a_node3"><a xlink:href="interfaceKyoo_1_1Models_1_1Attributes_1_1IOnMerge.html" target="_top" xlink:title="An interface with a method called when this object is merged.">
<polygon fill="white" stroke="black" points="83.5,-232 83.5,-289 163.5,-289 163.5,-232 83.5,-232"/>
<text text-anchor="middle" x="123.5" y="-277" font-family="Helvetica,sans-Serif" font-size="10.00">IOnMerge</text>
<polyline fill="none" stroke="black" points="83.5,-270 163.5,-270 "/>
<text text-anchor="middle" x="123.5" y="-258" font-family="Helvetica,sans-Serif" font-size="10.00"> </text>
<polyline fill="none" stroke="black" points="83.5,-251 163.5,-251 "/>
<text text-anchor="start" x="91.5" y="-239" font-family="Helvetica,sans-Serif" font-size="10.00">+ OnMerge()</text>
</a>
</g>
</g>
<!-- Node3&#45;&gt;Node1 -->
<g id="edge2" class="edge">
<title>Node3&#45;&gt;Node1</title>
<path fill="none" stroke="midnightblue" d="M112.95,-222.02C110.19,-212.2 107.09,-201.17 103.9,-189.82"/>
<polygon fill="none" stroke="midnightblue" points="109.62,-223.09 115.7,-231.76 116.36,-221.19 109.62,-223.09"/>
</g>
</g>
</svg>
