<?xml version="1.0" encoding="UTF-8" standalone="no"?>
<!DOCTYPE svg PUBLIC "-//W3C//DTD SVG 1.1//EN"
 "http://www.w3.org/Graphics/SVG/1.1/DTD/svg11.dtd">
<!-- Generated by graphviz version 2.43.0 (0)
 -->
<!-- Title: Kyoo.Api.ConfigurationApi Pages: 1 -->
<svg width="260pt" height="226pt"
 viewBox="0.00 0.00 259.50 226.00" xmlns="http://www.w3.org/2000/svg" xmlns:xlink="http://www.w3.org/1999/xlink">
<g id="graph0" class="graph" transform="scale(1 1) rotate(0) translate(4 222)">
<title>Kyoo.Api.ConfigurationApi</title>
<polygon fill="white" stroke="transparent" points="-4,4 -4,-222 255.5,-222 255.5,4 -4,4"/>
<!-- Node1 -->
<g id="node1" class="node">
<title>Node1</title>
<g id="a_node1"><a xlink:title="An API to retrieve or edit configuration settings">
<polygon fill="#bfbfbf" stroke="black" points="28,-0.5 28,-79.5 171,-79.5 171,-0.5 28,-0.5"/>
<text text-anchor="middle" x="99.5" y="-67.5" font-family="Helvetica,sans-Serif" font-size="10.00">Kyoo.Api.ConfigurationApi</text>
<polyline fill="none" stroke="black" points="28,-60.5 171,-60.5 "/>
<text text-anchor="middle" x="99.5" y="-48.5" font-family="Helvetica,sans-Serif" font-size="10.00"> </text>
<polyline fill="none" stroke="black" points="28,-41.5 171,-41.5 "/>
<text text-anchor="start" x="36" y="-29.5" font-family="Helvetica,sans-Serif" font-size="10.00">+ ConfigurationApi()</text>
<text text-anchor="start" x="36" y="-18.5" font-family="Helvetica,sans-Serif" font-size="10.00">+ GetConfiguration()</text>
<text text-anchor="start" x="36" y="-7.5" font-family="Helvetica,sans-Serif" font-size="10.00">+ EditConfiguration()</text>
</a>
</g>
</g>
<!-- Node2 -->
<g id="node2" class="node">
<title>Node2</title>
<g id="a_node2"><a xlink:title=" ">
<polygon fill="white" stroke="#bfbfbf" points="0,-144 0,-201 65,-201 65,-144 0,-144"/>
<text text-anchor="middle" x="32.5" y="-189" font-family="Helvetica,sans-Serif" font-size="10.00">Controller</text>
<polyline fill="none" stroke="#bfbfbf" points="0,-182 65,-182 "/>
<text text-anchor="middle" x="32.5" y="-170" font-family="Helvetica,sans-Serif" font-size="10.00"> </text>
<polyline fill="none" stroke="#bfbfbf" points="0,-163 65,-163 "/>
<text text-anchor="middle" x="32.5" y="-151" font-family="Helvetica,sans-Serif" font-size="10.00"> </text>
</a>
</g>
</g>
<!-- Node2&#45;&gt;Node1 -->
<g id="edge1" class="edge">
<title>Node2&#45;&gt;Node1</title>
<path fill="none" stroke="midnightblue" d="M51.42,-134.64C60.26,-117.43 70.78,-96.94 79.72,-79.53"/>
<polygon fill="none" stroke="midnightblue" points="48.16,-133.33 46.71,-143.82 54.39,-136.53 48.16,-133.33"/>
</g>
<!-- Node3 -->
<g id="node3" class="node">
<title>Node3</title>
<g id="a_node3"><a xlink:href="interfaceKyoo_1_1Controllers_1_1IConfigurationManager.html" target="_top" xlink:title="A class to ease configuration management. This work WITH Microsoft&#39;s package, you can still use IOpti...">
<polygon fill="white" stroke="black" points="83.5,-127.5 83.5,-217.5 251.5,-217.5 251.5,-127.5 83.5,-127.5"/>
<text text-anchor="start" x="91.5" y="-205.5" font-family="Helvetica,sans-Serif" font-size="10.00">Kyoo.Controllers.IConfiguration</text>
<text text-anchor="middle" x="167.5" y="-194.5" font-family="Helvetica,sans-Serif" font-size="10.00">Manager</text>
<polyline fill="none" stroke="black" points="83.5,-187.5 251.5,-187.5 "/>
<text text-anchor="middle" x="167.5" y="-175.5" font-family="Helvetica,sans-Serif" font-size="10.00"> </text>
<polyline fill="none" stroke="black" points="83.5,-168.5 251.5,-168.5 "/>
<text text-anchor="start" x="91.5" y="-156.5" font-family="Helvetica,sans-Serif" font-size="10.00">+ GetValue()</text>
<text text-anchor="start" x="91.5" y="-145.5" font-family="Helvetica,sans-Serif" font-size="10.00">+ GetValue&lt; T &gt;()</text>
<text text-anchor="start" x="91.5" y="-134.5" font-family="Helvetica,sans-Serif" font-size="10.00">+ EditValue()</text>
</a>
</g>
</g>
<!-- Node3&#45;&gt;Node1 -->
<g id="edge2" class="edge">
<title>Node3&#45;&gt;Node1</title>
<path fill="none" stroke="#404040" d="M144.48,-127.32C138.34,-115.54 131.67,-102.74 125.39,-90.69"/>
<polygon fill="none" stroke="#404040" points="125.31,-90.53 118.99,-87.06 119.76,-79.89 126.08,-83.36 125.31,-90.53"/>
<text text-anchor="middle" x="161.5" y="-101" font-family="Helvetica,sans-Serif" font-size="10.00"> &#45;_manager</text>
</g>
</g>
</svg>
