<?xml version="1.0" encoding="UTF-8" standalone="no"?>
<!DOCTYPE svg PUBLIC "-//W3C//DTD SVG 1.1//EN"
 "http://www.w3.org/Graphics/SVG/1.1/DTD/svg11.dtd">
<!-- Generated by graphviz version 2.43.0 (0)
 -->
<!-- Title: Kyoo.Models.Attributes.NotMergeableAttribute Pages: 1 -->
<svg width="158pt" height="171pt"
 viewBox="0.00 0.00 158.00 171.00" xmlns="http://www.w3.org/2000/svg" xmlns:xlink="http://www.w3.org/1999/xlink">
<g id="graph0" class="graph" transform="scale(1 1) rotate(0) translate(4 167)">
<title>Kyoo.Models.Attributes.NotMergeableAttribute</title>
<polygon fill="white" stroke="transparent" points="-4,4 -4,-167 154,-167 154,4 -4,4"/>
<!-- Node1 -->
<g id="node1" class="node">
<title>Node1</title>
<g id="a_node1"><a xlink:title="Specify that a property can&#39;t be merged.">
<polygon fill="#bfbfbf" stroke="black" points="0,-0.5 0,-68.5 150,-68.5 150,-0.5 0,-0.5"/>
<text text-anchor="start" x="8" y="-56.5" font-family="Helvetica,sans-Serif" font-size="10.00">Kyoo.Models.Attributes.Not</text>
<text text-anchor="middle" x="75" y="-45.5" font-family="Helvetica,sans-Serif" font-size="10.00">MergeableAttribute</text>
<polyline fill="none" stroke="black" points="0,-38.5 150,-38.5 "/>
<text text-anchor="middle" x="75" y="-26.5" font-family="Helvetica,sans-Serif" font-size="10.00"> </text>
<polyline fill="none" stroke="black" points="0,-19.5 150,-19.5 "/>
<text text-anchor="middle" x="75" y="-7.5" font-family="Helvetica,sans-Serif" font-size="10.00"> </text>
</a>
</g>
</g>
<!-- Node2 -->
<g id="node2" class="node">
<title>Node2</title>
<g id="a_node2"><a xlink:title=" ">
<polygon fill="white" stroke="#bfbfbf" points="45.5,-105.5 45.5,-162.5 104.5,-162.5 104.5,-105.5 45.5,-105.5"/>
<text text-anchor="middle" x="75" y="-150.5" font-family="Helvetica,sans-Serif" font-size="10.00">Attribute</text>
<polyline fill="none" stroke="#bfbfbf" points="45.5,-143.5 104.5,-143.5 "/>
<text text-anchor="middle" x="75" y="-131.5" font-family="Helvetica,sans-Serif" font-size="10.00"> </text>
<polyline fill="none" stroke="#bfbfbf" points="45.5,-124.5 104.5,-124.5 "/>
<text text-anchor="middle" x="75" y="-112.5" font-family="Helvetica,sans-Serif" font-size="10.00"> </text>
</a>
</g>
</g>
<!-- Node2&#45;&gt;Node1 -->
<g id="edge1" class="edge">
<title>Node2&#45;&gt;Node1</title>
<path fill="none" stroke="midnightblue" d="M75,-95.06C75,-86.39 75,-77.24 75,-68.79"/>
<polygon fill="none" stroke="midnightblue" points="71.5,-95.32 75,-105.32 78.5,-95.32 71.5,-95.32"/>
</g>
</g>
</svg>
