<?xml version="1.0" encoding="UTF-8" standalone="no"?>
<!DOCTYPE svg PUBLIC "-//W3C//DTD SVG 1.1//EN"
 "http://www.w3.org/Graphics/SVG/1.1/DTD/svg11.dtd">
<!-- Generated by graphviz version 2.43.0 (0)
 -->
<!-- Title: Kyoo.Controllers.ShowRepository Pages: 1 -->
<svg width="286pt" height="716pt"
 viewBox="0.00 0.00 286.00 716.00" xmlns="http://www.w3.org/2000/svg" xmlns:xlink="http://www.w3.org/1999/xlink">
<g id="graph0" class="graph" transform="scale(1 1) rotate(0) translate(4 712)">
<title>Kyoo.Controllers.ShowRepository</title>
<polygon fill="white" stroke="transparent" points="-4,4 -4,-712 282,-712 282,4 -4,4"/>
<!-- Node1 -->
<g id="node1" class="node">
<title>Node1</title>
<g id="a_node1"><a xlink:title="A local repository to handle shows">
<polygon fill="#bfbfbf" stroke="black" points="56,-0.5 56,-211.5 235,-211.5 235,-0.5 56,-0.5"/>
<text text-anchor="middle" x="145.5" y="-199.5" font-family="Helvetica,sans-Serif" font-size="10.00">Kyoo.Controllers.ShowRepository</text>
<polyline fill="none" stroke="black" points="56,-192.5 235,-192.5 "/>
<text text-anchor="start" x="64" y="-180.5" font-family="Helvetica,sans-Serif" font-size="10.00"># DefaultSort</text>
<text text-anchor="start" x="64" y="-169.5" font-family="Helvetica,sans-Serif" font-size="10.00">&#45; _database</text>
<text text-anchor="start" x="64" y="-158.5" font-family="Helvetica,sans-Serif" font-size="10.00">&#45; _studios</text>
<text text-anchor="start" x="64" y="-147.5" font-family="Helvetica,sans-Serif" font-size="10.00">&#45; _people</text>
<text text-anchor="start" x="64" y="-136.5" font-family="Helvetica,sans-Serif" font-size="10.00">&#45; _genres</text>
<text text-anchor="start" x="64" y="-125.5" font-family="Helvetica,sans-Serif" font-size="10.00">&#45; _providers</text>
<text text-anchor="start" x="64" y="-114.5" font-family="Helvetica,sans-Serif" font-size="10.00">&#45; _seasons</text>
<text text-anchor="start" x="64" y="-103.5" font-family="Helvetica,sans-Serif" font-size="10.00">&#45; _episodes</text>
<polyline fill="none" stroke="black" points="56,-96.5 235,-96.5 "/>
<text text-anchor="start" x="64" y="-84.5" font-family="Helvetica,sans-Serif" font-size="10.00">+ ShowRepository()</text>
<text text-anchor="start" x="64" y="-73.5" font-family="Helvetica,sans-Serif" font-size="10.00">+ Search()</text>
<text text-anchor="start" x="64" y="-62.5" font-family="Helvetica,sans-Serif" font-size="10.00">+ Create()</text>
<text text-anchor="start" x="64" y="-51.5" font-family="Helvetica,sans-Serif" font-size="10.00">+ AddShowLink()</text>
<text text-anchor="start" x="64" y="-40.5" font-family="Helvetica,sans-Serif" font-size="10.00">+ GetSlug()</text>
<text text-anchor="start" x="64" y="-29.5" font-family="Helvetica,sans-Serif" font-size="10.00">+ Delete()</text>
<text text-anchor="start" x="64" y="-18.5" font-family="Helvetica,sans-Serif" font-size="10.00"># Validate()</text>
<text text-anchor="start" x="64" y="-7.5" font-family="Helvetica,sans-Serif" font-size="10.00"># EditRelations()</text>
</a>
</g>
</g>
<!-- Node2 -->
<g id="node2" class="node">
<title>Node2</title>
<g id="a_node2"><a xlink:href="classKyoo_1_1Controllers_1_1LocalRepository.html" target="_top" xlink:title=" ">
<polygon fill="white" stroke="black" points="0,-248.5 0,-503.5 149,-503.5 149,-248.5 0,-248.5"/>
<text text-anchor="middle" x="74.5" y="-491.5" font-family="Helvetica,sans-Serif" font-size="10.00">LocalRepository&lt; Show &gt;</text>
<polyline fill="none" stroke="black" points="0,-484.5 149,-484.5 "/>
<text text-anchor="start" x="8" y="-472.5" font-family="Helvetica,sans-Serif" font-size="10.00">+ RepositoryType</text>
<text text-anchor="start" x="8" y="-461.5" font-family="Helvetica,sans-Serif" font-size="10.00">+ DefaultSort</text>
<text text-anchor="start" x="8" y="-450.5" font-family="Helvetica,sans-Serif" font-size="10.00"># Database</text>
<polyline fill="none" stroke="black" points="0,-443.5 149,-443.5 "/>
<text text-anchor="start" x="8" y="-431.5" font-family="Helvetica,sans-Serif" font-size="10.00">+ Get()</text>
<text text-anchor="start" x="8" y="-420.5" font-family="Helvetica,sans-Serif" font-size="10.00">+ Get()</text>
<text text-anchor="start" x="8" y="-409.5" font-family="Helvetica,sans-Serif" font-size="10.00">+ Get()</text>
<text text-anchor="start" x="8" y="-398.5" font-family="Helvetica,sans-Serif" font-size="10.00">+ GetOrDefault()</text>
<text text-anchor="start" x="8" y="-387.5" font-family="Helvetica,sans-Serif" font-size="10.00">+ GetOrDefault()</text>
<text text-anchor="start" x="8" y="-376.5" font-family="Helvetica,sans-Serif" font-size="10.00">+ GetOrDefault()</text>
<text text-anchor="start" x="8" y="-365.5" font-family="Helvetica,sans-Serif" font-size="10.00">+ Search()</text>
<text text-anchor="start" x="8" y="-354.5" font-family="Helvetica,sans-Serif" font-size="10.00">+ GetAll()</text>
<text text-anchor="start" x="8" y="-343.5" font-family="Helvetica,sans-Serif" font-size="10.00">+ GetCount()</text>
<text text-anchor="start" x="8" y="-332.5" font-family="Helvetica,sans-Serif" font-size="10.00">+ Create()</text>
<text text-anchor="start" x="8" y="-321.5" font-family="Helvetica,sans-Serif" font-size="10.00">and 9 more...</text>
<text text-anchor="start" x="8" y="-310.5" font-family="Helvetica,sans-Serif" font-size="10.00"># LocalRepository()</text>
<text text-anchor="start" x="8" y="-299.5" font-family="Helvetica,sans-Serif" font-size="10.00"># GetWithTracking()</text>
<text text-anchor="start" x="8" y="-288.5" font-family="Helvetica,sans-Serif" font-size="10.00"># ApplyFilters()</text>
<text text-anchor="start" x="8" y="-277.5" font-family="Helvetica,sans-Serif" font-size="10.00"># ApplyFilters&lt; TValue &gt;()</text>
<text text-anchor="start" x="8" y="-266.5" font-family="Helvetica,sans-Serif" font-size="10.00"># EditRelations()</text>
<text text-anchor="start" x="8" y="-255.5" font-family="Helvetica,sans-Serif" font-size="10.00"># Validate()</text>
</a>
</g>
</g>
<!-- Node2&#45;&gt;Node1 -->
<g id="edge1" class="edge">
<title>Node2&#45;&gt;Node1</title>
<path fill="none" stroke="midnightblue" d="M110.63,-238.62C113.03,-229.55 115.43,-220.5 117.78,-211.62"/>
<polygon fill="none" stroke="midnightblue" points="107.2,-237.89 108.02,-248.46 113.97,-239.69 107.2,-237.89"/>
</g>
<!-- Node3 -->
<g id="node3" class="node">
<title>Node3</title>
<g id="a_node3"><a xlink:href="interfaceKyoo_1_1Controllers_1_1IShowRepository.html" target="_top" xlink:title="A repository to handle shows.">
<polygon fill="white" stroke="black" points="167,-342 167,-410 268,-410 268,-342 167,-342"/>
<text text-anchor="middle" x="217.5" y="-398" font-family="Helvetica,sans-Serif" font-size="10.00">IShowRepository</text>
<polyline fill="none" stroke="black" points="167,-391 268,-391 "/>
<text text-anchor="middle" x="217.5" y="-379" font-family="Helvetica,sans-Serif" font-size="10.00"> </text>
<polyline fill="none" stroke="black" points="167,-372 268,-372 "/>
<text text-anchor="start" x="175" y="-360" font-family="Helvetica,sans-Serif" font-size="10.00">+ AddShowLink()</text>
<text text-anchor="start" x="175" y="-349" font-family="Helvetica,sans-Serif" font-size="10.00">+ GetSlug()</text>
</a>
</g>
</g>
<!-- Node3&#45;&gt;Node1 -->
<g id="edge2" class="edge">
<title>Node3&#45;&gt;Node1</title>
<path fill="none" stroke="midnightblue" d="M205.9,-331.84C197.19,-299.41 184.88,-253.58 173.64,-211.75"/>
<polygon fill="none" stroke="midnightblue" points="202.62,-333.12 208.6,-341.87 209.38,-331.3 202.62,-333.12"/>
</g>
<!-- Node4 -->
<g id="node4" class="node">
<title>Node4</title>
<g id="a_node4"><a xlink:href="interfaceKyoo_1_1Controllers_1_1IRepository.html" target="_top" xlink:title=" ">
<polygon fill="white" stroke="black" points="157,-540.5 157,-707.5 278,-707.5 278,-540.5 157,-540.5"/>
<text text-anchor="middle" x="217.5" y="-695.5" font-family="Helvetica,sans-Serif" font-size="10.00">IRepository&lt; Show &gt;</text>
<polyline fill="none" stroke="black" points="157,-688.5 278,-688.5 "/>
<text text-anchor="middle" x="217.5" y="-676.5" font-family="Helvetica,sans-Serif" font-size="10.00"> </text>
<polyline fill="none" stroke="black" points="157,-669.5 278,-669.5 "/>
<text text-anchor="start" x="165" y="-657.5" font-family="Helvetica,sans-Serif" font-size="10.00">+ Get()</text>
<text text-anchor="start" x="165" y="-646.5" font-family="Helvetica,sans-Serif" font-size="10.00">+ Get()</text>
<text text-anchor="start" x="165" y="-635.5" font-family="Helvetica,sans-Serif" font-size="10.00">+ Get()</text>
<text text-anchor="start" x="165" y="-624.5" font-family="Helvetica,sans-Serif" font-size="10.00">+ GetOrDefault()</text>
<text text-anchor="start" x="165" y="-613.5" font-family="Helvetica,sans-Serif" font-size="10.00">+ GetOrDefault()</text>
<text text-anchor="start" x="165" y="-602.5" font-family="Helvetica,sans-Serif" font-size="10.00">+ GetOrDefault()</text>
<text text-anchor="start" x="165" y="-591.5" font-family="Helvetica,sans-Serif" font-size="10.00">+ Search()</text>
<text text-anchor="start" x="165" y="-580.5" font-family="Helvetica,sans-Serif" font-size="10.00">+ GetAll()</text>
<text text-anchor="start" x="165" y="-569.5" font-family="Helvetica,sans-Serif" font-size="10.00">+ GetAll()</text>
<text text-anchor="start" x="165" y="-558.5" font-family="Helvetica,sans-Serif" font-size="10.00">+ GetCount()</text>
<text text-anchor="start" x="165" y="-547.5" font-family="Helvetica,sans-Serif" font-size="10.00">and 13 more...</text>
</a>
</g>
</g>
<!-- Node4&#45;&gt;Node3 -->
<g id="edge3" class="edge">
<title>Node4&#45;&gt;Node3</title>
<path fill="none" stroke="midnightblue" d="M217.5,-530.37C217.5,-488.19 217.5,-440.94 217.5,-410.17"/>
<polygon fill="none" stroke="midnightblue" points="214,-530.4 217.5,-540.4 221,-530.4 214,-530.4"/>
</g>
</g>
</svg>
