<?xml version="1.0" encoding="UTF-8" standalone="no"?>
<!DOCTYPE svg PUBLIC "-//W3C//DTD SVG 1.1//EN"
 "http://www.w3.org/Graphics/SVG/1.1/DTD/svg11.dtd">
<!-- Generated by graphviz version 2.43.0 (0)
 -->
<!-- Title: Kyoo.Models.Track Pages: 1 -->
<svg width="166pt" height="369pt"
 viewBox="0.00 0.00 166.00 369.00" xmlns="http://www.w3.org/2000/svg" xmlns:xlink="http://www.w3.org/1999/xlink">
<g id="graph0" class="graph" transform="scale(1 1) rotate(0) translate(4 365)">
<title>Kyoo.Models.Track</title>
<polygon fill="white" stroke="transparent" points="-4,4 -4,-365 162,-365 162,4 -4,4"/>
<!-- Node1 -->
<g id="node1" class="node">
<title>Node1</title>
<g id="a_node1"><a xlink:title=" ">
<polygon fill="#bfbfbf" stroke="black" points="28,-0.5 28,-178.5 135,-178.5 135,-0.5 28,-0.5"/>
<text text-anchor="middle" x="81.5" y="-166.5" font-family="Helvetica,sans-Serif" font-size="10.00">Kyoo.Models.Track</text>
<polyline fill="none" stroke="black" points="28,-159.5 135,-159.5 "/>
<text text-anchor="start" x="36" y="-147.5" font-family="Helvetica,sans-Serif" font-size="10.00">+ ID</text>
<text text-anchor="start" x="36" y="-136.5" font-family="Helvetica,sans-Serif" font-size="10.00">+ EpisodeID</text>
<text text-anchor="start" x="36" y="-125.5" font-family="Helvetica,sans-Serif" font-size="10.00">+ TrackIndex</text>
<text text-anchor="start" x="36" y="-114.5" font-family="Helvetica,sans-Serif" font-size="10.00">+ IsDefault</text>
<text text-anchor="start" x="36" y="-103.5" font-family="Helvetica,sans-Serif" font-size="10.00">+ IsForced</text>
<text text-anchor="start" x="36" y="-92.5" font-family="Helvetica,sans-Serif" font-size="10.00">+ DisplayName</text>
<text text-anchor="start" x="36" y="-81.5" font-family="Helvetica,sans-Serif" font-size="10.00">+ Slug</text>
<text text-anchor="start" x="36" y="-70.5" font-family="Helvetica,sans-Serif" font-size="10.00">+ IsExternal</text>
<text text-anchor="start" x="36" y="-59.5" font-family="Helvetica,sans-Serif" font-size="10.00">+ Episode</text>
<polyline fill="none" stroke="black" points="28,-52.5 135,-52.5 "/>
<text text-anchor="start" x="36" y="-40.5" font-family="Helvetica,sans-Serif" font-size="10.00">+ Track()</text>
<text text-anchor="start" x="36" y="-29.5" font-family="Helvetica,sans-Serif" font-size="10.00">+ Track()</text>
<text text-anchor="start" x="36" y="-18.5" font-family="Helvetica,sans-Serif" font-size="10.00">+ Track()</text>
<text text-anchor="start" x="36" y="-7.5" font-family="Helvetica,sans-Serif" font-size="10.00">&#45; GetLanguage()</text>
</a>
</g>
</g>
<!-- Node2 -->
<g id="node2" class="node">
<title>Node2</title>
<g id="a_node2"><a xlink:href="classKyoo_1_1Models_1_1Watch_1_1Stream.html" target="_top" xlink:title=" ">
<polygon fill="white" stroke="black" points="0,-215.5 0,-360.5 75,-360.5 75,-215.5 0,-215.5"/>
<text text-anchor="middle" x="37.5" y="-348.5" font-family="Helvetica,sans-Serif" font-size="10.00">Stream</text>
<polyline fill="none" stroke="black" points="0,-341.5 75,-341.5 "/>
<text text-anchor="start" x="8" y="-329.5" font-family="Helvetica,sans-Serif" font-size="10.00">+ isDefault</text>
<text text-anchor="start" x="8" y="-318.5" font-family="Helvetica,sans-Serif" font-size="10.00">+ isForced</text>
<text text-anchor="start" x="8" y="-307.5" font-family="Helvetica,sans-Serif" font-size="10.00">+ Title</text>
<text text-anchor="start" x="8" y="-296.5" font-family="Helvetica,sans-Serif" font-size="10.00">+ Language</text>
<text text-anchor="start" x="8" y="-285.5" font-family="Helvetica,sans-Serif" font-size="10.00">+ Codec</text>
<text text-anchor="start" x="8" y="-274.5" font-family="Helvetica,sans-Serif" font-size="10.00">+ Path</text>
<text text-anchor="start" x="8" y="-263.5" font-family="Helvetica,sans-Serif" font-size="10.00">+ Type</text>
<polyline fill="none" stroke="black" points="0,-256.5 75,-256.5 "/>
<text text-anchor="start" x="8" y="-244.5" font-family="Helvetica,sans-Serif" font-size="10.00">+ Stream()</text>
<text text-anchor="start" x="8" y="-233.5" font-family="Helvetica,sans-Serif" font-size="10.00">+ Stream()</text>
<text text-anchor="start" x="8" y="-222.5" font-family="Helvetica,sans-Serif" font-size="10.00">+ Stream()</text>
</a>
</g>
</g>
<!-- Node2&#45;&gt;Node1 -->
<g id="edge1" class="edge">
<title>Node2&#45;&gt;Node1</title>
<path fill="none" stroke="midnightblue" d="M55.77,-205.4C57.74,-196.62 59.74,-187.66 61.73,-178.8"/>
<polygon fill="none" stroke="midnightblue" points="52.34,-204.7 53.57,-215.22 59.17,-206.23 52.34,-204.7"/>
</g>
<!-- Node3 -->
<g id="node3" class="node">
<title>Node3</title>
<g id="a_node3"><a xlink:href="interfaceKyoo_1_1Models_1_1IResource.html" target="_top" xlink:title="An interface to represent a resource that can be retrieved from the database.">
<polygon fill="white" stroke="black" points="93,-254 93,-322 158,-322 158,-254 93,-254"/>
<text text-anchor="middle" x="125.5" y="-310" font-family="Helvetica,sans-Serif" font-size="10.00">IResource</text>
<polyline fill="none" stroke="black" points="93,-303 158,-303 "/>
<text text-anchor="start" x="101" y="-291" font-family="Helvetica,sans-Serif" font-size="10.00">+ ID</text>
<text text-anchor="start" x="101" y="-280" font-family="Helvetica,sans-Serif" font-size="10.00">+ Slug</text>
<polyline fill="none" stroke="black" points="93,-273 158,-273 "/>
<text text-anchor="middle" x="125.5" y="-261" font-family="Helvetica,sans-Serif" font-size="10.00"> </text>
</a>
</g>
</g>
<!-- Node3&#45;&gt;Node1 -->
<g id="edge2" class="edge">
<title>Node3&#45;&gt;Node1</title>
<path fill="none" stroke="midnightblue" d="M115.82,-243.75C111.52,-224.57 106.3,-201.26 101.24,-178.67"/>
<polygon fill="none" stroke="midnightblue" points="112.44,-244.67 118.04,-253.67 119.27,-243.14 112.44,-244.67"/>
</g>
</g>
</svg>
