<?xml version="1.0" encoding="UTF-8" standalone="no"?>
<!DOCTYPE svg PUBLIC "-//W3C//DTD SVG 1.1//EN"
 "http://www.w3.org/Graphics/SVG/1.1/DTD/svg11.dtd">
<!-- Generated by graphviz version 2.43.0 (0)
 -->
<!-- Title: Graphical Class Hierarchy Pages: 1 -->
<svg width="416pt" height="39pt"
 viewBox="0.00 0.00 416.00 39.00" xmlns="http://www.w3.org/2000/svg" xmlns:xlink="http://www.w3.org/1999/xlink">
<g id="graph0" class="graph" transform="scale(1 1) rotate(0) translate(4 35)">
<title>Graphical Class Hierarchy</title>
<polygon fill="white" stroke="transparent" points="-4,4 -4,-35 412,-35 412,4 -4,4"/>
<!-- Node150 -->
<g id="node1" class="node">
<title>Node150</title>
<g id="a_node1"><a xlink:title=" ">
<polygon fill="white" stroke="#bfbfbf" points="0,-6 0,-25 68,-25 68,-6 0,-6"/>
<text text-anchor="middle" x="34" y="-13" font-family="Helvetica,sans-Serif" font-size="10.00">DbContext</text>
</a>
</g>
</g>
<!-- Node0 -->
<g id="node2" class="node">
<title>Node0</title>
<g id="a_node2"><a xlink:href="classKyoo_1_1DatabaseContext.html" target="_top" xlink:title="The database handle used for all local repositories. This is an abstract class. It is meant to be imp...">
<polygon fill="white" stroke="black" points="104,-6 104,-25 232,-25 232,-6 104,-6"/>
<text text-anchor="middle" x="168" y="-13" font-family="Helvetica,sans-Serif" font-size="10.00">Kyoo.DatabaseContext</text>
</a>
</g>
</g>
<!-- Node150&#45;&gt;Node0 -->
<g id="edge1" class="edge">
<title>Node150&#45;&gt;Node0</title>
<path fill="none" stroke="midnightblue" d="M78.34,-15.5C86.52,-15.5 95.22,-15.5 103.86,-15.5"/>
<polygon fill="midnightblue" stroke="midnightblue" points="78.31,-12 68.31,-15.5 78.31,-19 78.31,-12"/>
</g>
<!-- Node1 -->
<g id="node3" class="node">
<title>Node1</title>
<g id="a_node3"><a xlink:href="classKyoo_1_1Postgresql_1_1PostgresContext.html" target="_top" xlink:title="A postgresql implementation of DatabaseContext.">
<polygon fill="white" stroke="black" points="268,-0.5 268,-30.5 408,-30.5 408,-0.5 268,-0.5"/>
<text text-anchor="start" x="276" y="-18.5" font-family="Helvetica,sans-Serif" font-size="10.00">Kyoo.Postgresql.Postgres</text>
<text text-anchor="middle" x="338" y="-7.5" font-family="Helvetica,sans-Serif" font-size="10.00">Context</text>
</a>
</g>
</g>
<!-- Node0&#45;&gt;Node1 -->
<g id="edge2" class="edge">
<title>Node0&#45;&gt;Node1</title>
<path fill="none" stroke="midnightblue" d="M242.05,-15.5C250.66,-15.5 259.43,-15.5 267.98,-15.5"/>
<polygon fill="midnightblue" stroke="midnightblue" points="242.04,-12 232.03,-15.5 242.03,-19 242.04,-12"/>
</g>
</g>
</svg>
