<?xml version="1.0" encoding="UTF-8" standalone="no"?>
<!DOCTYPE svg PUBLIC "-//W3C//DTD SVG 1.1//EN"
 "http://www.w3.org/Graphics/SVG/1.1/DTD/svg11.dtd">
<!-- Generated by graphviz version 2.43.0 (0)
 -->
<!-- Title: Graphical Class Hierarchy Pages: 1 -->
<svg width="596pt" height="83pt"
 viewBox="0.00 0.00 596.00 83.00" xmlns="http://www.w3.org/2000/svg" xmlns:xlink="http://www.w3.org/1999/xlink">
<g id="graph0" class="graph" transform="scale(1 1) rotate(0) translate(4 79)">
<title>Graphical Class Hierarchy</title>
<polygon fill="white" stroke="transparent" points="-4,4 -4,-79 592,-79 592,4 -4,4"/>
<!-- Node92 -->
<g id="node1" class="node">
<title>Node92</title>
<g id="a_node1"><a xlink:href="interfaceKyoo_1_1Controllers_1_1IRepository.html" target="_top" xlink:title=" ">
<polygon fill="white" stroke="black" points="0,-44.5 0,-74.5 155,-74.5 155,-44.5 0,-44.5"/>
<text text-anchor="start" x="8" y="-62.5" font-family="Helvetica,sans-Serif" font-size="10.00">Kyoo.Controllers.IRepository</text>
<text text-anchor="middle" x="77.5" y="-51.5" font-family="Helvetica,sans-Serif" font-size="10.00">&lt; Show &gt;</text>
</a>
</g>
</g>
<!-- Node93 -->
<g id="node2" class="node">
<title>Node93</title>
<g id="a_node2"><a xlink:href="interfaceKyoo_1_1Controllers_1_1IShowRepository.html" target="_top" xlink:title="A repository to handle shows.">
<polygon fill="white" stroke="black" points="191,-50 191,-69 373,-69 373,-50 191,-50"/>
<text text-anchor="middle" x="282" y="-57" font-family="Helvetica,sans-Serif" font-size="10.00">Kyoo.Controllers.IShowRepository</text>
</a>
</g>
</g>
<!-- Node92&#45;&gt;Node93 -->
<g id="edge1" class="edge">
<title>Node92&#45;&gt;Node93</title>
<path fill="none" stroke="midnightblue" d="M165.26,-59.5C173.69,-59.5 182.26,-59.5 190.72,-59.5"/>
<polygon fill="midnightblue" stroke="midnightblue" points="165.06,-56 155.06,-59.5 165.06,-63 165.06,-56"/>
</g>
<!-- Node1 -->
<g id="node3" class="node">
<title>Node1</title>
<g id="a_node3"><a xlink:href="classKyoo_1_1Controllers_1_1ShowRepository.html" target="_top" xlink:title="A local repository to handle shows">
<polygon fill="white" stroke="black" points="409,-28 409,-47 588,-47 588,-28 409,-28"/>
<text text-anchor="middle" x="498.5" y="-35" font-family="Helvetica,sans-Serif" font-size="10.00">Kyoo.Controllers.ShowRepository</text>
</a>
</g>
</g>
<!-- Node93&#45;&gt;Node1 -->
<g id="edge2" class="edge">
<title>Node93&#45;&gt;Node1</title>
<path fill="none" stroke="midnightblue" d="M383.05,-49.24C391.62,-48.36 400.25,-47.47 408.73,-46.6"/>
<polygon fill="midnightblue" stroke="midnightblue" points="382.63,-45.76 373.03,-50.27 383.34,-52.73 382.63,-45.76"/>
</g>
<!-- Node0 -->
<g id="node4" class="node">
<title>Node0</title>
<g id="a_node4"><a xlink:href="classKyoo_1_1Controllers_1_1LocalRepository.html" target="_top" xlink:title=" ">
<polygon fill="white" stroke="black" points="193,-0.5 193,-30.5 371,-30.5 371,-0.5 193,-0.5"/>
<text text-anchor="start" x="201" y="-18.5" font-family="Helvetica,sans-Serif" font-size="10.00">Kyoo.Controllers.LocalRepository</text>
<text text-anchor="middle" x="282" y="-7.5" font-family="Helvetica,sans-Serif" font-size="10.00">&lt; Show &gt;</text>
</a>
</g>
</g>
<!-- Node0&#45;&gt;Node1 -->
<g id="edge3" class="edge">
<title>Node0&#45;&gt;Node1</title>
<path fill="none" stroke="midnightblue" d="M381.18,-25.57C390.45,-26.52 399.81,-27.48 408.98,-28.42"/>
<polygon fill="midnightblue" stroke="midnightblue" points="381.48,-22.08 371.17,-24.54 380.76,-29.05 381.48,-22.08"/>
</g>
</g>
</svg>
