<?xml version="1.0" encoding="UTF-8" standalone="no"?>
<!DOCTYPE svg PUBLIC "-//W3C//DTD SVG 1.1//EN"
 "http://www.w3.org/Graphics/SVG/1.1/DTD/svg11.dtd">
<!-- Generated by graphviz version 2.43.0 (0)
 -->
<!-- Title: Graphical Class Hierarchy Pages: 1 -->
<svg width="360pt" height="88pt"
 viewBox="0.00 0.00 360.00 88.00" xmlns="http://www.w3.org/2000/svg" xmlns:xlink="http://www.w3.org/1999/xlink">
<g id="graph0" class="graph" transform="scale(1 1) rotate(0) translate(4 84)">
<title>Graphical Class Hierarchy</title>
<polygon fill="white" stroke="transparent" points="-4,4 -4,-84 356,-84 356,4 -4,4"/>
<!-- Node0 -->
<g id="node1" class="node">
<title>Node0</title>
<g id="a_node1"><a xlink:href="interfaceKyoo_1_1Models_1_1Permissions_1_1IPermissionValidator.html" target="_top" xlink:title="A service to validate permissions">
<polygon fill="white" stroke="black" points="0,-24.5 0,-54.5 144,-54.5 144,-24.5 0,-24.5"/>
<text text-anchor="start" x="8" y="-42.5" font-family="Helvetica,sans-Serif" font-size="10.00">Kyoo.Models.Permissions.</text>
<text text-anchor="middle" x="72" y="-31.5" font-family="Helvetica,sans-Serif" font-size="10.00">IPermissionValidator</text>
</a>
</g>
</g>
<!-- Node1 -->
<g id="node2" class="node">
<title>Node1</title>
<g id="a_node2"><a xlink:href="classKyoo_1_1Authentication_1_1PermissionValidatorFactory.html" target="_top" xlink:title="A permission validator to validate permission with user Permission array or the default array from th...">
<polygon fill="white" stroke="black" points="180,-49.5 180,-79.5 352,-79.5 352,-49.5 180,-49.5"/>
<text text-anchor="start" x="188" y="-67.5" font-family="Helvetica,sans-Serif" font-size="10.00">Kyoo.Authentication.Permission</text>
<text text-anchor="middle" x="266" y="-56.5" font-family="Helvetica,sans-Serif" font-size="10.00">ValidatorFactory</text>
</a>
</g>
</g>
<!-- Node0&#45;&gt;Node1 -->
<g id="edge1" class="edge">
<title>Node0&#45;&gt;Node1</title>
<path fill="none" stroke="midnightblue" d="M154.14,-50.07C162.67,-51.18 171.36,-52.31 179.93,-53.42"/>
<polygon fill="midnightblue" stroke="midnightblue" points="154.59,-46.59 144.22,-48.77 153.69,-53.54 154.59,-46.59"/>
</g>
<!-- Node2 -->
<g id="node3" class="node">
<title>Node2</title>
<g id="a_node3"><a xlink:href="classKyoo_1_1Controllers_1_1PassthroughPermissionValidator.html" target="_top" xlink:title="A permission validator that always validate permissions. This effectively disable the permission syst...">
<polygon fill="white" stroke="black" points="186.5,-0.5 186.5,-30.5 345.5,-30.5 345.5,-0.5 186.5,-0.5"/>
<text text-anchor="start" x="194.5" y="-18.5" font-family="Helvetica,sans-Serif" font-size="10.00">Kyoo.Controllers.Passthrough</text>
<text text-anchor="middle" x="266" y="-7.5" font-family="Helvetica,sans-Serif" font-size="10.00">PermissionValidator</text>
</a>
</g>
</g>
<!-- Node0&#45;&gt;Node2 -->
<g id="edge2" class="edge">
<title>Node0&#45;&gt;Node2</title>
<path fill="none" stroke="midnightblue" d="M154.33,-29.33C164.98,-28 175.87,-26.64 186.47,-25.32"/>
<polygon fill="midnightblue" stroke="midnightblue" points="153.71,-25.88 144.22,-30.6 154.58,-32.83 153.71,-25.88"/>
</g>
</g>
</svg>
