<?xml version="1.0" encoding="UTF-8" standalone="no"?>
<!DOCTYPE svg PUBLIC "-//W3C//DTD SVG 1.1//EN"
 "http://www.w3.org/Graphics/SVG/1.1/DTD/svg11.dtd">
<!-- Generated by graphviz version 2.43.0 (0)
 -->
<!-- Title: Graphical Class Hierarchy Pages: 1 -->
<svg width="300pt" height="137pt"
 viewBox="0.00 0.00 300.00 137.00" xmlns="http://www.w3.org/2000/svg" xmlns:xlink="http://www.w3.org/1999/xlink">
<g id="graph0" class="graph" transform="scale(1 1) rotate(0) translate(4 133)">
<title>Graphical Class Hierarchy</title>
<polygon fill="white" stroke="transparent" points="-4,4 -4,-133 296,-133 296,4 -4,4"/>
<!-- Node146 -->
<g id="node1" class="node">
<title>Node146</title>
<g id="a_node1"><a xlink:title=" ">
<polygon fill="white" stroke="#bfbfbf" points="0,-55 0,-74 65,-74 65,-55 0,-55"/>
<text text-anchor="middle" x="32.5" y="-62" font-family="Helvetica,sans-Serif" font-size="10.00">Exception</text>
</a>
</g>
</g>
<!-- Node0 -->
<g id="node2" class="node">
<title>Node0</title>
<g id="a_node2"><a xlink:href="classKyoo_1_1Controllers_1_1BadTranscoderException.html" target="_top" xlink:title=" ">
<polygon fill="white" stroke="black" points="111,-98.5 111,-128.5 282,-128.5 282,-98.5 111,-98.5"/>
<text text-anchor="start" x="119" y="-116.5" font-family="Helvetica,sans-Serif" font-size="10.00">Kyoo.Controllers.BadTranscoder</text>
<text text-anchor="middle" x="196.5" y="-105.5" font-family="Helvetica,sans-Serif" font-size="10.00">Exception</text>
</a>
</g>
</g>
<!-- Node146&#45;&gt;Node0 -->
<g id="edge1" class="edge">
<title>Node146&#45;&gt;Node0</title>
<path fill="none" stroke="midnightblue" d="M66.85,-77.65C77.66,-81.7 89.76,-86 101,-89.5 111.1,-92.64 121.9,-95.68 132.46,-98.48"/>
<polygon fill="midnightblue" stroke="midnightblue" points="67.93,-74.32 57.34,-74.03 65.45,-80.86 67.93,-74.32"/>
</g>
<!-- Node148 -->
<g id="node3" class="node">
<title>Node148</title>
<g id="a_node3"><a xlink:href="classKyoo_1_1Models_1_1Exceptions_1_1DuplicatedItemException.html" target="_top" xlink:title="An exception raised when an item already exists in the database.">
<polygon fill="white" stroke="black" points="101,-49.5 101,-79.5 292,-79.5 292,-49.5 101,-49.5"/>
<text text-anchor="start" x="109" y="-67.5" font-family="Helvetica,sans-Serif" font-size="10.00">Kyoo.Models.Exceptions.Duplicated</text>
<text text-anchor="middle" x="196.5" y="-56.5" font-family="Helvetica,sans-Serif" font-size="10.00">ItemException</text>
</a>
</g>
</g>
<!-- Node146&#45;&gt;Node148 -->
<g id="edge2" class="edge">
<title>Node146&#45;&gt;Node148</title>
<path fill="none" stroke="midnightblue" d="M75.27,-64.5C83.31,-64.5 92.04,-64.5 101,-64.5"/>
<polygon fill="midnightblue" stroke="midnightblue" points="75.12,-61 65.12,-64.5 75.12,-68 75.12,-61"/>
</g>
<!-- Node149 -->
<g id="node4" class="node">
<title>Node149</title>
<g id="a_node4"><a xlink:href="classKyoo_1_1Models_1_1Exceptions_1_1ItemNotFoundException.html" target="_top" xlink:title="An exception raised when an item could not be found.">
<polygon fill="white" stroke="black" points="116,-0.5 116,-30.5 277,-30.5 277,-0.5 116,-0.5"/>
<text text-anchor="start" x="124" y="-18.5" font-family="Helvetica,sans-Serif" font-size="10.00">Kyoo.Models.Exceptions.Item</text>
<text text-anchor="middle" x="196.5" y="-7.5" font-family="Helvetica,sans-Serif" font-size="10.00">NotFoundException</text>
</a>
</g>
</g>
<!-- Node146&#45;&gt;Node149 -->
<g id="edge3" class="edge">
<title>Node146&#45;&gt;Node149</title>
<path fill="none" stroke="midnightblue" d="M68.29,-51.51C78.74,-47.77 90.29,-43.82 101,-40.5 112.11,-37.06 124.03,-33.68 135.55,-30.56"/>
<polygon fill="midnightblue" stroke="midnightblue" points="66.87,-48.3 58.66,-55 69.25,-54.88 66.87,-48.3"/>
</g>
</g>
</svg>
