<?xml version="1.0" encoding="UTF-8" standalone="no"?>
<!DOCTYPE svg PUBLIC "-//W3C//DTD SVG 1.1//EN"
 "http://www.w3.org/Graphics/SVG/1.1/DTD/svg11.dtd">
<!-- Generated by graphviz version 2.43.0 (0)
 -->
<!-- Title: Graphical Class Hierarchy Pages: 1 -->
<svg width="375pt" height="66pt"
 viewBox="0.00 0.00 375.00 66.00" xmlns="http://www.w3.org/2000/svg" xmlns:xlink="http://www.w3.org/1999/xlink">
<g id="graph0" class="graph" transform="scale(1 1) rotate(0) translate(4 62)">
<title>Graphical Class Hierarchy</title>
<polygon fill="white" stroke="transparent" points="-4,4 -4,-62 371,-62 371,4 -4,4"/>
<!-- Node190 -->
<g id="node1" class="node">
<title>Node190</title>
<g id="a_node1"><a xlink:title=" ">
<polygon fill="white" stroke="#bfbfbf" points="28.5,-38.5 28.5,-57.5 138.5,-57.5 138.5,-38.5 28.5,-38.5"/>
<text text-anchor="middle" x="83.5" y="-45.5" font-family="Helvetica,sans-Serif" font-size="10.00">BackgroundService</text>
</a>
</g>
</g>
<!-- Node1 -->
<g id="node2" class="node">
<title>Node1</title>
<g id="a_node2"><a xlink:href="classKyoo_1_1Controllers_1_1TaskManager.html" target="_top" xlink:title="A service to handle long running tasks and a background runner.">
<polygon fill="white" stroke="black" points="203,-19.5 203,-38.5 367,-38.5 367,-19.5 203,-19.5"/>
<text text-anchor="middle" x="285" y="-26.5" font-family="Helvetica,sans-Serif" font-size="10.00">Kyoo.Controllers.TaskManager</text>
</a>
</g>
</g>
<!-- Node190&#45;&gt;Node1 -->
<g id="edge1" class="edge">
<title>Node190&#45;&gt;Node1</title>
<path fill="none" stroke="midnightblue" d="M149.17,-41.84C166.27,-40.21 184.94,-38.43 202.79,-36.73"/>
<polygon fill="midnightblue" stroke="midnightblue" points="148.37,-38.4 138.75,-42.83 149.04,-45.37 148.37,-38.4"/>
</g>
<!-- Node0 -->
<g id="node3" class="node">
<title>Node0</title>
<g id="a_node3"><a xlink:href="interfaceKyoo_1_1Controllers_1_1ITaskManager.html" target="_top" xlink:title="A service to handle long running tasks.">
<polygon fill="white" stroke="black" points="0,-0.5 0,-19.5 167,-19.5 167,-0.5 0,-0.5"/>
<text text-anchor="middle" x="83.5" y="-7.5" font-family="Helvetica,sans-Serif" font-size="10.00">Kyoo.Controllers.ITaskManager</text>
</a>
</g>
</g>
<!-- Node0&#45;&gt;Node1 -->
<g id="edge2" class="edge">
<title>Node0&#45;&gt;Node1</title>
<path fill="none" stroke="midnightblue" d="M177.1,-18.82C185.67,-19.63 194.31,-20.46 202.76,-21.26"/>
<polygon fill="midnightblue" stroke="midnightblue" points="177.37,-15.33 167.08,-17.87 176.71,-22.3 177.37,-15.33"/>
</g>
</g>
</svg>
