<?xml version="1.0" encoding="UTF-8" standalone="no"?>
<!DOCTYPE svg PUBLIC "-//W3C//DTD SVG 1.1//EN"
 "http://www.w3.org/Graphics/SVG/1.1/DTD/svg11.dtd">
<!-- Generated by graphviz version 2.43.0 (0)
 -->
<!-- Title: Graphical Class Hierarchy Pages: 1 -->
<svg width="318pt" height="66pt"
 viewBox="0.00 0.00 318.00 66.00" xmlns="http://www.w3.org/2000/svg" xmlns:xlink="http://www.w3.org/1999/xlink">
<g id="graph0" class="graph" transform="scale(1 1) rotate(0) translate(4 62)">
<title>Graphical Class Hierarchy</title>
<polygon fill="white" stroke="transparent" points="-4,4 -4,-62 314,-62 314,4 -4,4"/>
<!-- Node0 -->
<g id="node1" class="node">
<title>Node0</title>
<g id="a_node1"><a xlink:href="interfaceKyoo_1_1Controllers_1_1ITask.html" target="_top" xlink:title="A common interface that tasks should implement.">
<polygon fill="white" stroke="black" points="0,-19.5 0,-38.5 125,-38.5 125,-19.5 0,-19.5"/>
<text text-anchor="middle" x="62.5" y="-26.5" font-family="Helvetica,sans-Serif" font-size="10.00">Kyoo.Controllers.ITask</text>
</a>
</g>
</g>
<!-- Node1 -->
<g id="node2" class="node">
<title>Node1</title>
<g id="a_node2"><a xlink:href="classKyoo_1_1Tasks_1_1Crawler.html" target="_top" xlink:title=" ">
<polygon fill="white" stroke="black" points="180,-38.5 180,-57.5 291,-57.5 291,-38.5 180,-38.5"/>
<text text-anchor="middle" x="235.5" y="-45.5" font-family="Helvetica,sans-Serif" font-size="10.00">Kyoo.Tasks.Crawler</text>
</a>
</g>
</g>
<!-- Node0&#45;&gt;Node1 -->
<g id="edge1" class="edge">
<title>Node0&#45;&gt;Node1</title>
<path fill="none" stroke="midnightblue" d="M135.43,-36.99C150.33,-38.65 165.79,-40.37 179.94,-41.94"/>
<polygon fill="midnightblue" stroke="midnightblue" points="135.56,-33.49 125.23,-35.86 134.79,-40.44 135.56,-33.49"/>
</g>
<!-- Node2 -->
<g id="node3" class="node">
<title>Node2</title>
<g id="a_node3"><a xlink:href="classKyoo_1_1Tasks_1_1PluginInitializer.html" target="_top" xlink:title="A task run on Kyoo&#39;s startup to initialize plugins">
<polygon fill="white" stroke="black" points="161,-0.5 161,-19.5 310,-19.5 310,-0.5 161,-0.5"/>
<text text-anchor="middle" x="235.5" y="-7.5" font-family="Helvetica,sans-Serif" font-size="10.00">Kyoo.Tasks.PluginInitializer</text>
</a>
</g>
</g>
<!-- Node0&#45;&gt;Node2 -->
<g id="edge2" class="edge">
<title>Node0&#45;&gt;Node2</title>
<path fill="none" stroke="midnightblue" d="M135.41,-21.01C143.84,-20.07 152.46,-19.12 160.91,-18.18"/>
<polygon fill="midnightblue" stroke="midnightblue" points="134.79,-17.56 125.23,-22.14 135.56,-24.51 134.79,-17.56"/>
</g>
</g>
</svg>
