<?xml version="1.0" encoding="UTF-8" standalone="no"?>
<!DOCTYPE svg PUBLIC "-//W3C//DTD SVG 1.1//EN"
 "http://www.w3.org/Graphics/SVG/1.1/DTD/svg11.dtd">
<!-- Generated by graphviz version 2.43.0 (0)
 -->
<!-- Title: Graphical Class Hierarchy Pages: 1 -->
<svg width="602pt" height="83pt"
 viewBox="0.00 0.00 602.00 83.00" xmlns="http://www.w3.org/2000/svg" xmlns:xlink="http://www.w3.org/1999/xlink">
<g id="graph0" class="graph" transform="scale(1 1) rotate(0) translate(4 79)">
<title>Graphical Class Hierarchy</title>
<polygon fill="white" stroke="transparent" points="-4,4 -4,-79 598,-79 598,4 -4,4"/>
<!-- Node104 -->
<g id="node1" class="node">
<title>Node104</title>
<g id="a_node1"><a xlink:href="interfaceKyoo_1_1Controllers_1_1IRepository.html" target="_top" xlink:title=" ">
<polygon fill="white" stroke="black" points="0,-44.5 0,-74.5 155,-74.5 155,-44.5 0,-44.5"/>
<text text-anchor="start" x="8" y="-62.5" font-family="Helvetica,sans-Serif" font-size="10.00">Kyoo.Controllers.IRepository</text>
<text text-anchor="middle" x="77.5" y="-51.5" font-family="Helvetica,sans-Serif" font-size="10.00">&lt; Genre &gt;</text>
</a>
</g>
</g>
<!-- Node105 -->
<g id="node2" class="node">
<title>Node105</title>
<g id="a_node2"><a xlink:href="interfaceKyoo_1_1Controllers_1_1IGenreRepository.html" target="_top" xlink:title="A repository for genres.">
<polygon fill="white" stroke="black" points="191,-50 191,-69 376,-69 376,-50 191,-50"/>
<text text-anchor="middle" x="283.5" y="-57" font-family="Helvetica,sans-Serif" font-size="10.00">Kyoo.Controllers.IGenreRepository</text>
</a>
</g>
</g>
<!-- Node104&#45;&gt;Node105 -->
<g id="edge1" class="edge">
<title>Node104&#45;&gt;Node105</title>
<path fill="none" stroke="midnightblue" d="M165.24,-59.5C173.68,-59.5 182.25,-59.5 190.73,-59.5"/>
<polygon fill="midnightblue" stroke="midnightblue" points="165.04,-56 155.04,-59.5 165.04,-63 165.04,-56"/>
</g>
<!-- Node1 -->
<g id="node3" class="node">
<title>Node1</title>
<g id="a_node3"><a xlink:href="classKyoo_1_1Controllers_1_1GenreRepository.html" target="_top" xlink:title="A local repository for genres.">
<polygon fill="white" stroke="black" points="412,-28 412,-47 594,-47 594,-28 412,-28"/>
<text text-anchor="middle" x="503" y="-35" font-family="Helvetica,sans-Serif" font-size="10.00">Kyoo.Controllers.GenreRepository</text>
</a>
</g>
</g>
<!-- Node105&#45;&gt;Node1 -->
<g id="edge2" class="edge">
<title>Node105&#45;&gt;Node1</title>
<path fill="none" stroke="midnightblue" d="M386.15,-49.22C394.74,-48.35 403.39,-47.47 411.89,-46.61"/>
<polygon fill="midnightblue" stroke="midnightblue" points="385.71,-45.75 376.11,-50.23 386.41,-52.71 385.71,-45.75"/>
</g>
<!-- Node0 -->
<g id="node4" class="node">
<title>Node0</title>
<g id="a_node4"><a xlink:href="classKyoo_1_1Controllers_1_1LocalRepository.html" target="_top" xlink:title=" ">
<polygon fill="white" stroke="black" points="194.5,-0.5 194.5,-30.5 372.5,-30.5 372.5,-0.5 194.5,-0.5"/>
<text text-anchor="start" x="202.5" y="-18.5" font-family="Helvetica,sans-Serif" font-size="10.00">Kyoo.Controllers.LocalRepository</text>
<text text-anchor="middle" x="283.5" y="-7.5" font-family="Helvetica,sans-Serif" font-size="10.00">&lt; Genre &gt;</text>
</a>
</g>
</g>
<!-- Node0&#45;&gt;Node1 -->
<g id="edge3" class="edge">
<title>Node0&#45;&gt;Node1</title>
<path fill="none" stroke="midnightblue" d="M382.74,-25.44C392.47,-26.42 402.31,-27.42 411.95,-28.39"/>
<polygon fill="midnightblue" stroke="midnightblue" points="382.95,-21.94 372.65,-24.42 382.25,-28.91 382.95,-21.94"/>
</g>
</g>
</svg>
