<?xml version="1.0" encoding="UTF-8" standalone="no"?>
<!DOCTYPE svg PUBLIC "-//W3C//DTD SVG 1.1//EN"
 "http://www.w3.org/Graphics/SVG/1.1/DTD/svg11.dtd">
<!-- Generated by graphviz version 2.43.0 (0)
 -->
<!-- Title: Graphical Class Hierarchy Pages: 1 -->
<svg width="598pt" height="88pt"
 viewBox="0.00 0.00 598.00 88.00" xmlns="http://www.w3.org/2000/svg" xmlns:xlink="http://www.w3.org/1999/xlink">
<g id="graph0" class="graph" transform="scale(1 1) rotate(0) translate(4 84)">
<title>Graphical Class Hierarchy</title>
<polygon fill="white" stroke="transparent" points="-4,4 -4,-84 594,-84 594,4 -4,4"/>
<!-- Node98 -->
<g id="node1" class="node">
<title>Node98</title>
<g id="a_node1"><a xlink:href="interfaceKyoo_1_1Controllers_1_1IRepository.html" target="_top" xlink:title=" ">
<polygon fill="white" stroke="black" points="0,-49.5 0,-79.5 155,-79.5 155,-49.5 0,-49.5"/>
<text text-anchor="start" x="8" y="-67.5" font-family="Helvetica,sans-Serif" font-size="10.00">Kyoo.Controllers.IRepository</text>
<text text-anchor="middle" x="77.5" y="-56.5" font-family="Helvetica,sans-Serif" font-size="10.00">&lt; People &gt;</text>
</a>
</g>
</g>
<!-- Node99 -->
<g id="node2" class="node">
<title>Node99</title>
<g id="a_node2"><a xlink:href="interfaceKyoo_1_1Controllers_1_1IPeopleRepository.html" target="_top" xlink:title="A repository for people.">
<polygon fill="white" stroke="black" points="212,-49.5 212,-79.5 348,-79.5 348,-49.5 212,-49.5"/>
<text text-anchor="start" x="220" y="-67.5" font-family="Helvetica,sans-Serif" font-size="10.00">Kyoo.Controllers.IPeople</text>
<text text-anchor="middle" x="280" y="-56.5" font-family="Helvetica,sans-Serif" font-size="10.00">Repository</text>
</a>
</g>
</g>
<!-- Node98&#45;&gt;Node99 -->
<g id="edge1" class="edge">
<title>Node98&#45;&gt;Node99</title>
<path fill="none" stroke="midnightblue" d="M165.33,-64.5C180.92,-64.5 196.95,-64.5 211.88,-64.5"/>
<polygon fill="midnightblue" stroke="midnightblue" points="165.16,-61 155.16,-64.5 165.16,-68 165.16,-61"/>
</g>
<!-- Node1 -->
<g id="node3" class="node">
<title>Node1</title>
<g id="a_node3"><a xlink:href="classKyoo_1_1Controllers_1_1PeopleRepository.html" target="_top" xlink:title="A local repository to handle people.">
<polygon fill="white" stroke="black" points="405,-30 405,-49 590,-49 590,-30 405,-30"/>
<text text-anchor="middle" x="497.5" y="-37" font-family="Helvetica,sans-Serif" font-size="10.00">Kyoo.Controllers.PeopleRepository</text>
</a>
</g>
</g>
<!-- Node99&#45;&gt;Node1 -->
<g id="edge2" class="edge">
<title>Node99&#45;&gt;Node1</title>
<path fill="none" stroke="midnightblue" d="M358.01,-55.57C376.29,-53.45 395.86,-51.17 414.36,-49.03"/>
<polygon fill="midnightblue" stroke="midnightblue" points="357.53,-52.1 348,-56.73 358.34,-59.05 357.53,-52.1"/>
</g>
<!-- Node0 -->
<g id="node4" class="node">
<title>Node0</title>
<g id="a_node4"><a xlink:href="classKyoo_1_1Controllers_1_1LocalRepository.html" target="_top" xlink:title=" ">
<polygon fill="white" stroke="black" points="191,-0.5 191,-30.5 369,-30.5 369,-0.5 191,-0.5"/>
<text text-anchor="start" x="199" y="-18.5" font-family="Helvetica,sans-Serif" font-size="10.00">Kyoo.Controllers.LocalRepository</text>
<text text-anchor="middle" x="280" y="-7.5" font-family="Helvetica,sans-Serif" font-size="10.00">&lt; People &gt;</text>
</a>
</g>
</g>
<!-- Node0&#45;&gt;Node1 -->
<g id="edge3" class="edge">
<title>Node0&#45;&gt;Node1</title>
<path fill="none" stroke="midnightblue" d="M379.39,-26.46C389.99,-27.64 400.71,-28.83 411.15,-29.99"/>
<polygon fill="midnightblue" stroke="midnightblue" points="379.6,-22.96 369.27,-25.33 378.83,-29.92 379.6,-22.96"/>
</g>
</g>
</svg>
