<?xml version="1.0" encoding="UTF-8" standalone="no"?>
<!DOCTYPE svg PUBLIC "-//W3C//DTD SVG 1.1//EN"
 "http://www.w3.org/Graphics/SVG/1.1/DTD/svg11.dtd">
<!-- Generated by graphviz version 2.43.0 (0)
 -->
<!-- Title: Graphical Class Hierarchy Pages: 1 -->
<svg width="551pt" height="88pt"
 viewBox="0.00 0.00 551.00 88.00" xmlns="http://www.w3.org/2000/svg" xmlns:xlink="http://www.w3.org/1999/xlink">
<g id="graph0" class="graph" transform="scale(1 1) rotate(0) translate(4 84)">
<title>Graphical Class Hierarchy</title>
<polygon fill="white" stroke="transparent" points="-4,4 -4,-84 547,-84 547,4 -4,4"/>
<!-- Node106 -->
<g id="node1" class="node">
<title>Node106</title>
<g id="a_node1"><a xlink:href="interfaceKyoo_1_1Controllers_1_1IRepository.html" target="_top" xlink:title=" ">
<polygon fill="white" stroke="black" points="0,-49.5 0,-79.5 155,-79.5 155,-49.5 0,-49.5"/>
<text text-anchor="start" x="8" y="-67.5" font-family="Helvetica,sans-Serif" font-size="10.00">Kyoo.Controllers.IRepository</text>
<text text-anchor="middle" x="77.5" y="-56.5" font-family="Helvetica,sans-Serif" font-size="10.00">&lt; Episode &gt;</text>
</a>
</g>
</g>
<!-- Node107 -->
<g id="node2" class="node">
<title>Node107</title>
<g id="a_node2"><a xlink:href="interfaceKyoo_1_1Controllers_1_1IEpisodeRepository.html" target="_top" xlink:title="The repository to handle episodes">
<polygon fill="white" stroke="black" points="209.5,-49.5 209.5,-79.5 350.5,-79.5 350.5,-49.5 209.5,-49.5"/>
<text text-anchor="start" x="217.5" y="-67.5" font-family="Helvetica,sans-Serif" font-size="10.00">Kyoo.Controllers.IEpisode</text>
<text text-anchor="middle" x="280" y="-56.5" font-family="Helvetica,sans-Serif" font-size="10.00">Repository</text>
</a>
</g>
</g>
<!-- Node106&#45;&gt;Node107 -->
<g id="edge1" class="edge">
<title>Node106&#45;&gt;Node107</title>
<path fill="none" stroke="midnightblue" d="M165.27,-64.5C179.98,-64.5 195.09,-64.5 209.29,-64.5"/>
<polygon fill="midnightblue" stroke="midnightblue" points="165.16,-61 155.16,-64.5 165.16,-68 165.16,-61"/>
</g>
<!-- Node1 -->
<g id="node3" class="node">
<title>Node1</title>
<g id="a_node3"><a xlink:href="classKyoo_1_1Controllers_1_1EpisodeRepository.html" target="_top" xlink:title="A local repository to handle episodes.">
<polygon fill="white" stroke="black" points="405,-24.5 405,-54.5 543,-54.5 543,-24.5 405,-24.5"/>
<text text-anchor="start" x="413" y="-42.5" font-family="Helvetica,sans-Serif" font-size="10.00">Kyoo.Controllers.Episode</text>
<text text-anchor="middle" x="474" y="-31.5" font-family="Helvetica,sans-Serif" font-size="10.00">Repository</text>
</a>
</g>
</g>
<!-- Node107&#45;&gt;Node1 -->
<g id="edge2" class="edge">
<title>Node107&#45;&gt;Node1</title>
<path fill="none" stroke="midnightblue" d="M360.67,-54.13C375.37,-52.21 390.61,-50.23 404.93,-48.36"/>
<polygon fill="midnightblue" stroke="midnightblue" points="360.05,-50.68 350.59,-55.44 360.96,-57.62 360.05,-50.68"/>
</g>
<!-- Node0 -->
<g id="node4" class="node">
<title>Node0</title>
<g id="a_node4"><a xlink:href="classKyoo_1_1Controllers_1_1LocalRepository.html" target="_top" xlink:title=" ">
<polygon fill="white" stroke="black" points="191,-0.5 191,-30.5 369,-30.5 369,-0.5 191,-0.5"/>
<text text-anchor="start" x="199" y="-18.5" font-family="Helvetica,sans-Serif" font-size="10.00">Kyoo.Controllers.LocalRepository</text>
<text text-anchor="middle" x="280" y="-7.5" font-family="Helvetica,sans-Serif" font-size="10.00">&lt; Episode &gt;</text>
</a>
</g>
</g>
<!-- Node0&#45;&gt;Node1 -->
<g id="edge3" class="edge">
<title>Node0&#45;&gt;Node1</title>
<path fill="none" stroke="midnightblue" d="M379.3,-27.79C387.97,-28.87 396.61,-29.95 404.95,-30.99"/>
<polygon fill="midnightblue" stroke="midnightblue" points="379.49,-24.28 369.13,-26.52 378.62,-31.23 379.49,-24.28"/>
</g>
</g>
</svg>
