<?xml version="1.0" encoding="UTF-8" standalone="no"?>
<!DOCTYPE svg PUBLIC "-//W3C//DTD SVG 1.1//EN"
 "http://www.w3.org/Graphics/SVG/1.1/DTD/svg11.dtd">
<!-- Generated by graphviz version 2.43.0 (0)
 -->
<!-- Title: Graphical Class Hierarchy Pages: 1 -->
<svg width="280pt" height="116pt"
 viewBox="0.00 0.00 280.00 115.50" xmlns="http://www.w3.org/2000/svg" xmlns:xlink="http://www.w3.org/1999/xlink">
<g id="graph0" class="graph" transform="scale(1 1) rotate(0) translate(4 111.5)">
<title>Graphical Class Hierarchy</title>
<polygon fill="white" stroke="transparent" points="-4,4 -4,-111.5 276,-111.5 276,4 -4,4"/>
<!-- Node180 -->
<g id="node1" class="node">
<title>Node180</title>
<g id="a_node1"><a xlink:title=" ">
<polygon fill="white" stroke="#bfbfbf" points="10.5,-50 10.5,-69 75.5,-69 75.5,-50 10.5,-50"/>
<text text-anchor="middle" x="43" y="-57" font-family="Helvetica,sans-Serif" font-size="10.00">Controller</text>
</a>
</g>
</g>
<!-- Node181 -->
<g id="node2" class="node">
<title>Node181</title>
<g id="a_node2"><a xlink:href="classKyoo_1_1Api_1_1ConfigurationApi.html" target="_top" xlink:title="An API to retrieve or edit configuration settings">
<polygon fill="white" stroke="black" points="125.5,-88 125.5,-107 268.5,-107 268.5,-88 125.5,-88"/>
<text text-anchor="middle" x="197" y="-95" font-family="Helvetica,sans-Serif" font-size="10.00">Kyoo.Api.ConfigurationApi</text>
</a>
</g>
</g>
<!-- Node180&#45;&gt;Node181 -->
<g id="edge1" class="edge">
<title>Node180&#45;&gt;Node181</title>
<path fill="none" stroke="midnightblue" d="M85.84,-69.96C108.4,-75.6 136.05,-82.51 158,-88"/>
<polygon fill="midnightblue" stroke="midnightblue" points="86.41,-66.5 75.86,-67.47 84.72,-73.29 86.41,-66.5"/>
</g>
<!-- Node182 -->
<g id="node3" class="node">
<title>Node182</title>
<g id="a_node3"><a xlink:href="classKyoo_1_1Api_1_1VideoApi.html" target="_top" xlink:title=" ">
<polygon fill="white" stroke="black" points="144,-50 144,-69 250,-69 250,-50 144,-50"/>
<text text-anchor="middle" x="197" y="-57" font-family="Helvetica,sans-Serif" font-size="10.00">Kyoo.Api.VideoApi</text>
</a>
</g>
</g>
<!-- Node180&#45;&gt;Node182 -->
<g id="edge2" class="edge">
<title>Node180&#45;&gt;Node182</title>
<path fill="none" stroke="midnightblue" d="M85.99,-59.5C103.89,-59.5 124.96,-59.5 143.84,-59.5"/>
<polygon fill="midnightblue" stroke="midnightblue" points="85.86,-56 75.86,-59.5 85.86,-63 85.86,-56"/>
</g>
<!-- Node0 -->
<g id="node4" class="node">
<title>Node0</title>
<g id="a_node4"><a xlink:href="classKyoo_1_1Authentication_1_1Views_1_1AccountApi.html" target="_top" xlink:title="The class responsible for login, logout, permissions and claims of a user.">
<polygon fill="white" stroke="black" points="122,-0.5 122,-30.5 272,-30.5 272,-0.5 122,-0.5"/>
<text text-anchor="start" x="130" y="-18.5" font-family="Helvetica,sans-Serif" font-size="10.00">Kyoo.Authentication.Views.</text>
<text text-anchor="middle" x="197" y="-7.5" font-family="Helvetica,sans-Serif" font-size="10.00">AccountApi</text>
</a>
</g>
</g>
<!-- Node180&#45;&gt;Node0 -->
<g id="edge3" class="edge">
<title>Node180&#45;&gt;Node0</title>
<path fill="none" stroke="midnightblue" d="M85.54,-47.48C103.63,-42.24 125.02,-36.05 144.14,-30.51"/>
<polygon fill="midnightblue" stroke="midnightblue" points="84.5,-44.13 75.86,-50.28 86.44,-50.86 84.5,-44.13"/>
</g>
<!-- Node112 -->
<g id="node5" class="node">
<title>Node112</title>
<g id="a_node5"><a xlink:title=" ">
<polygon fill="white" stroke="#bfbfbf" points="0,-6 0,-25 86,-25 86,-6 0,-6"/>
<text text-anchor="middle" x="43" y="-13" font-family="Helvetica,sans-Serif" font-size="10.00">IProfileService</text>
</a>
</g>
</g>
<!-- Node112&#45;&gt;Node0 -->
<g id="edge4" class="edge">
<title>Node112&#45;&gt;Node0</title>
<path fill="none" stroke="midnightblue" d="M96.48,-15.5C104.68,-15.5 113.29,-15.5 121.87,-15.5"/>
<polygon fill="midnightblue" stroke="midnightblue" points="96.34,-12 86.34,-15.5 96.34,-19 96.34,-12"/>
</g>
</g>
</svg>
