<?xml version="1.0" encoding="UTF-8" standalone="no"?>
<!DOCTYPE svg PUBLIC "-//W3C//DTD SVG 1.1//EN"
 "http://www.w3.org/Graphics/SVG/1.1/DTD/svg11.dtd">
<!-- Generated by graphviz version 2.43.0 (0)
 -->
<!-- Title: Graphical Class Hierarchy Pages: 1 -->
<svg width="596pt" height="88pt"
 viewBox="0.00 0.00 596.00 88.00" xmlns="http://www.w3.org/2000/svg" xmlns:xlink="http://www.w3.org/1999/xlink">
<g id="graph0" class="graph" transform="scale(1 1) rotate(0) translate(4 84)">
<title>Graphical Class Hierarchy</title>
<polygon fill="white" stroke="transparent" points="-4,4 -4,-84 592,-84 592,4 -4,4"/>
<!-- Node90 -->
<g id="node1" class="node">
<title>Node90</title>
<g id="a_node1"><a xlink:href="interfaceKyoo_1_1Controllers_1_1IRepository.html" target="_top" xlink:title=" ">
<polygon fill="white" stroke="black" points="0,-49.5 0,-79.5 155,-79.5 155,-49.5 0,-49.5"/>
<text text-anchor="start" x="8" y="-67.5" font-family="Helvetica,sans-Serif" font-size="10.00">Kyoo.Controllers.IRepository</text>
<text text-anchor="middle" x="77.5" y="-56.5" font-family="Helvetica,sans-Serif" font-size="10.00">&lt; Studio &gt;</text>
</a>
</g>
</g>
<!-- Node91 -->
<g id="node2" class="node">
<title>Node91</title>
<g id="a_node2"><a xlink:href="interfaceKyoo_1_1Controllers_1_1IStudioRepository.html" target="_top" xlink:title="A repository for studios.">
<polygon fill="white" stroke="black" points="213,-49.5 213,-79.5 347,-79.5 347,-49.5 213,-49.5"/>
<text text-anchor="start" x="221" y="-67.5" font-family="Helvetica,sans-Serif" font-size="10.00">Kyoo.Controllers.IStudio</text>
<text text-anchor="middle" x="280" y="-56.5" font-family="Helvetica,sans-Serif" font-size="10.00">Repository</text>
</a>
</g>
</g>
<!-- Node90&#45;&gt;Node91 -->
<g id="edge1" class="edge">
<title>Node90&#45;&gt;Node91</title>
<path fill="none" stroke="midnightblue" d="M165.51,-64.5C181.38,-64.5 197.71,-64.5 212.85,-64.5"/>
<polygon fill="midnightblue" stroke="midnightblue" points="165.16,-61 155.16,-64.5 165.16,-68 165.16,-61"/>
</g>
<!-- Node1 -->
<g id="node3" class="node">
<title>Node1</title>
<g id="a_node3"><a xlink:href="classKyoo_1_1Controllers_1_1StudioRepository.html" target="_top" xlink:title="A local repository to handle studios">
<polygon fill="white" stroke="black" points="405,-30 405,-49 588,-49 588,-30 405,-30"/>
<text text-anchor="middle" x="496.5" y="-37" font-family="Helvetica,sans-Serif" font-size="10.00">Kyoo.Controllers.StudioRepository</text>
</a>
</g>
</g>
<!-- Node91&#45;&gt;Node1 -->
<g id="edge2" class="edge">
<title>Node91&#45;&gt;Node1</title>
<path fill="none" stroke="midnightblue" d="M357.14,-55.63C375.48,-53.49 395.14,-51.2 413.72,-49.03"/>
<polygon fill="midnightblue" stroke="midnightblue" points="356.63,-52.16 347.11,-56.8 357.45,-59.11 356.63,-52.16"/>
</g>
<!-- Node0 -->
<g id="node4" class="node">
<title>Node0</title>
<g id="a_node4"><a xlink:href="classKyoo_1_1Controllers_1_1LocalRepository.html" target="_top" xlink:title=" ">
<polygon fill="white" stroke="black" points="191,-0.5 191,-30.5 369,-30.5 369,-0.5 191,-0.5"/>
<text text-anchor="start" x="199" y="-18.5" font-family="Helvetica,sans-Serif" font-size="10.00">Kyoo.Controllers.LocalRepository</text>
<text text-anchor="middle" x="280" y="-7.5" font-family="Helvetica,sans-Serif" font-size="10.00">&lt; Studio &gt;</text>
</a>
</g>
</g>
<!-- Node0&#45;&gt;Node1 -->
<g id="edge3" class="edge">
<title>Node0&#45;&gt;Node1</title>
<path fill="none" stroke="midnightblue" d="M379.14,-26.48C389.59,-27.65 400.15,-28.83 410.43,-29.98"/>
<polygon fill="midnightblue" stroke="midnightblue" points="379.5,-23 369.17,-25.37 378.72,-29.96 379.5,-23"/>
</g>
</g>
</svg>
