<?xml version="1.0" encoding="UTF-8" standalone="no"?>
<!DOCTYPE svg PUBLIC "-//W3C//DTD SVG 1.1//EN"
 "http://www.w3.org/Graphics/SVG/1.1/DTD/svg11.dtd">
<!-- Generated by graphviz version 2.43.0 (0)
 -->
<!-- Title: Graphical Class Hierarchy Pages: 1 -->
<svg width="588pt" height="83pt"
 viewBox="0.00 0.00 588.00 83.00" xmlns="http://www.w3.org/2000/svg" xmlns:xlink="http://www.w3.org/1999/xlink">
<g id="graph0" class="graph" transform="scale(1 1) rotate(0) translate(4 79)">
<title>Graphical Class Hierarchy</title>
<polygon fill="white" stroke="transparent" points="-4,4 -4,-79 584,-79 584,4 -4,4"/>
<!-- Node86 -->
<g id="node1" class="node">
<title>Node86</title>
<g id="a_node1"><a xlink:href="interfaceKyoo_1_1Controllers_1_1IRepository.html" target="_top" xlink:title=" ">
<polygon fill="white" stroke="black" points="0,-44.5 0,-74.5 155,-74.5 155,-44.5 0,-44.5"/>
<text text-anchor="start" x="8" y="-62.5" font-family="Helvetica,sans-Serif" font-size="10.00">Kyoo.Controllers.IRepository</text>
<text text-anchor="middle" x="77.5" y="-51.5" font-family="Helvetica,sans-Serif" font-size="10.00">&lt; User &gt;</text>
</a>
</g>
</g>
<!-- Node87 -->
<g id="node2" class="node">
<title>Node87</title>
<g id="a_node2"><a xlink:href="interfaceKyoo_1_1Controllers_1_1IUserRepository.html" target="_top" xlink:title="A repository to handle users.">
<polygon fill="white" stroke="black" points="191,-50 191,-69 369,-69 369,-50 191,-50"/>
<text text-anchor="middle" x="280" y="-57" font-family="Helvetica,sans-Serif" font-size="10.00">Kyoo.Controllers.IUserRepository</text>
</a>
</g>
</g>
<!-- Node86&#45;&gt;Node87 -->
<g id="edge1" class="edge">
<title>Node86&#45;&gt;Node87</title>
<path fill="none" stroke="midnightblue" d="M165.42,-59.5C173.9,-59.5 182.5,-59.5 190.99,-59.5"/>
<polygon fill="midnightblue" stroke="midnightblue" points="165.16,-56 155.16,-59.5 165.16,-63 165.16,-56"/>
</g>
<!-- Node1 -->
<g id="node3" class="node">
<title>Node1</title>
<g id="a_node3"><a xlink:href="classKyoo_1_1Controllers_1_1UserRepository.html" target="_top" xlink:title="A repository for users.">
<polygon fill="white" stroke="black" points="405,-28 405,-47 580,-47 580,-28 405,-28"/>
<text text-anchor="middle" x="492.5" y="-35" font-family="Helvetica,sans-Serif" font-size="10.00">Kyoo.Controllers.UserRepository</text>
</a>
</g>
</g>
<!-- Node87&#45;&gt;Node1 -->
<g id="edge2" class="edge">
<title>Node87&#45;&gt;Node1</title>
<path fill="none" stroke="midnightblue" d="M379.09,-49.25C387.68,-48.35 396.33,-47.45 404.81,-46.56"/>
<polygon fill="midnightblue" stroke="midnightblue" points="378.63,-45.78 369.05,-50.3 379.36,-52.74 378.63,-45.78"/>
</g>
<!-- Node0 -->
<g id="node4" class="node">
<title>Node0</title>
<g id="a_node4"><a xlink:href="classKyoo_1_1Controllers_1_1LocalRepository.html" target="_top" xlink:title=" ">
<polygon fill="white" stroke="black" points="191,-0.5 191,-30.5 369,-30.5 369,-0.5 191,-0.5"/>
<text text-anchor="start" x="199" y="-18.5" font-family="Helvetica,sans-Serif" font-size="10.00">Kyoo.Controllers.LocalRepository</text>
<text text-anchor="middle" x="280" y="-7.5" font-family="Helvetica,sans-Serif" font-size="10.00">&lt; User &gt;</text>
</a>
</g>
</g>
<!-- Node0&#45;&gt;Node1 -->
<g id="edge3" class="edge">
<title>Node0&#45;&gt;Node1</title>
<path fill="none" stroke="midnightblue" d="M379.09,-25.75C387.68,-26.65 396.33,-27.55 404.81,-28.44"/>
<polygon fill="midnightblue" stroke="midnightblue" points="379.36,-22.26 369.05,-24.7 378.63,-29.22 379.36,-22.26"/>
</g>
</g>
</svg>
