<?xml version="1.0" encoding="UTF-8" standalone="no"?>
<!DOCTYPE svg PUBLIC "-//W3C//DTD SVG 1.1//EN"
 "http://www.w3.org/Graphics/SVG/1.1/DTD/svg11.dtd">
<!-- Generated by graphviz version 2.43.0 (0)
 -->
<!-- Title: Graphical Class Hierarchy Pages: 1 -->
<svg width="332pt" height="484pt"
 viewBox="0.00 0.00 332.00 484.00" xmlns="http://www.w3.org/2000/svg" xmlns:xlink="http://www.w3.org/1999/xlink">
<g id="graph0" class="graph" transform="scale(1 1) rotate(0) translate(4 480)">
<title>Graphical Class Hierarchy</title>
<polygon fill="white" stroke="transparent" points="-4,4 -4,-480 328,-480 328,4 -4,4"/>
<!-- Node123 -->
<g id="node1" class="node">
<title>Node123</title>
<g id="a_node1"><a xlink:href="interfaceKyoo_1_1Models_1_1Attributes_1_1IOnMerge.html" target="_top" xlink:title="An interface with a method called when this object is merged.">
<polygon fill="white" stroke="black" points="0.5,-432 0.5,-462 149.5,-462 149.5,-432 0.5,-432"/>
<text text-anchor="start" x="8.5" y="-450" font-family="Helvetica,sans-Serif" font-size="10.00">Kyoo.Models.Attributes.IOn</text>
<text text-anchor="middle" x="75" y="-439" font-family="Helvetica,sans-Serif" font-size="10.00">Merge</text>
</a>
</g>
</g>
<!-- Node75 -->
<g id="node2" class="node">
<title>Node75</title>
<g id="a_node2"><a xlink:href="classKyoo_1_1Models_1_1Episode.html" target="_top" xlink:title=" ">
<polygon fill="white" stroke="black" points="195,-418.5 195,-437.5 315,-437.5 315,-418.5 195,-418.5"/>
<text text-anchor="middle" x="255" y="-425.5" font-family="Helvetica,sans-Serif" font-size="10.00">Kyoo.Models.Episode</text>
</a>
</g>
</g>
<!-- Node123&#45;&gt;Node75 -->
<g id="edge1" class="edge">
<title>Node123&#45;&gt;Node75</title>
<path fill="none" stroke="midnightblue" d="M159.96,-438.04C171.72,-436.78 183.59,-435.52 194.75,-434.32"/>
<polygon fill="midnightblue" stroke="midnightblue" points="159.26,-434.59 149.68,-439.13 160,-441.55 159.26,-434.59"/>
</g>
<!-- Node83 -->
<g id="node3" class="node">
<title>Node83</title>
<g id="a_node3"><a xlink:href="classKyoo_1_1Models_1_1Show.html" target="_top" xlink:title=" ">
<polygon fill="white" stroke="black" points="201,-456.5 201,-475.5 309,-475.5 309,-456.5 201,-456.5"/>
<text text-anchor="middle" x="255" y="-463.5" font-family="Helvetica,sans-Serif" font-size="10.00">Kyoo.Models.Show</text>
</a>
</g>
</g>
<!-- Node123&#45;&gt;Node83 -->
<g id="edge2" class="edge">
<title>Node123&#45;&gt;Node83</title>
<path fill="none" stroke="midnightblue" d="M159.79,-455.94C173.73,-457.43 187.84,-458.94 200.75,-460.32"/>
<polygon fill="midnightblue" stroke="midnightblue" points="160,-452.45 149.68,-454.87 159.26,-459.41 160,-452.45"/>
</g>
<!-- Node73 -->
<g id="node4" class="node">
<title>Node73</title>
<g id="a_node4"><a xlink:href="interfaceKyoo_1_1Models_1_1IResource.html" target="_top" xlink:title="An interface to represent a resource that can be retrieved from the database.">
<polygon fill="white" stroke="black" points="10,-228.5 10,-247.5 140,-247.5 140,-228.5 10,-228.5"/>
<text text-anchor="middle" x="75" y="-235.5" font-family="Helvetica,sans-Serif" font-size="10.00">Kyoo.Models.IResource</text>
</a>
</g>
</g>
<!-- Node73&#45;&gt;Node75 -->
<g id="edge4" class="edge">
<title>Node73&#45;&gt;Node75</title>
<path fill="none" stroke="midnightblue" d="M83.13,-257.61C97.14,-293.31 131.69,-368.92 186,-409 191.23,-412.86 197.2,-415.93 203.4,-418.38"/>
<polygon fill="midnightblue" stroke="midnightblue" points="86.27,-256 79.45,-247.89 79.72,-258.48 86.27,-256"/>
</g>
<!-- Node73&#45;&gt;Node83 -->
<g id="edge12" class="edge">
<title>Node73&#45;&gt;Node83</title>
<path fill="none" stroke="midnightblue" d="M80.68,-257.56C91.62,-299 122.89,-396.02 186,-447 190.77,-450.85 196.27,-453.92 202.03,-456.37"/>
<polygon fill="midnightblue" stroke="midnightblue" points="84.01,-256.47 78.17,-247.64 77.23,-258.19 84.01,-256.47"/>
</g>
<!-- Node74 -->
<g id="node5" class="node">
<title>Node74</title>
<g id="a_node5"><a xlink:href="classKyoo_1_1Models_1_1Collection.html" target="_top" xlink:title=" ">
<polygon fill="white" stroke="black" points="189.5,-38.5 189.5,-57.5 320.5,-57.5 320.5,-38.5 189.5,-38.5"/>
<text text-anchor="middle" x="255" y="-45.5" font-family="Helvetica,sans-Serif" font-size="10.00">Kyoo.Models.Collection</text>
</a>
</g>
</g>
<!-- Node73&#45;&gt;Node74 -->
<g id="edge3" class="edge">
<title>Node73&#45;&gt;Node74</title>
<path fill="none" stroke="midnightblue" d="M83.13,-218.39C97.14,-182.69 131.69,-107.08 186,-67 191.23,-63.14 197.2,-60.07 203.4,-57.62"/>
<polygon fill="midnightblue" stroke="midnightblue" points="79.72,-217.52 79.45,-228.11 86.27,-220 79.72,-217.52"/>
</g>
<!-- Node76 -->
<g id="node6" class="node">
<title>Node76</title>
<g id="a_node6"><a xlink:href="classKyoo_1_1Models_1_1Genre.html" target="_top" xlink:title=" ">
<polygon fill="white" stroke="black" points="199.5,-380.5 199.5,-399.5 310.5,-399.5 310.5,-380.5 199.5,-380.5"/>
<text text-anchor="middle" x="255" y="-387.5" font-family="Helvetica,sans-Serif" font-size="10.00">Kyoo.Models.Genre</text>
</a>
</g>
</g>
<!-- Node73&#45;&gt;Node76 -->
<g id="edge5" class="edge">
<title>Node73&#45;&gt;Node76</title>
<path fill="none" stroke="midnightblue" d="M86.19,-256.43C103.1,-285.29 139.72,-340.94 186,-371 191.96,-374.87 198.71,-377.97 205.59,-380.43"/>
<polygon fill="midnightblue" stroke="midnightblue" points="89.23,-254.69 81.22,-247.75 83.15,-258.17 89.23,-254.69"/>
</g>
<!-- Node77 -->
<g id="node7" class="node">
<title>Node77</title>
<g id="a_node7"><a xlink:href="classKyoo_1_1Models_1_1Library.html" target="_top" xlink:title=" ">
<polygon fill="white" stroke="black" points="197,-342.5 197,-361.5 313,-361.5 313,-342.5 197,-342.5"/>
<text text-anchor="middle" x="255" y="-349.5" font-family="Helvetica,sans-Serif" font-size="10.00">Kyoo.Models.Library</text>
</a>
</g>
</g>
<!-- Node73&#45;&gt;Node77 -->
<g id="edge6" class="edge">
<title>Node73&#45;&gt;Node77</title>
<path fill="none" stroke="midnightblue" d="M91.35,-255.29C111.18,-276.59 147.72,-312.46 186,-333 193.13,-336.82 201.1,-339.94 209.01,-342.46"/>
<polygon fill="midnightblue" stroke="midnightblue" points="93.7,-252.67 84.37,-247.65 88.53,-257.39 93.7,-252.67"/>
</g>
<!-- Node78 -->
<g id="node8" class="node">
<title>Node78</title>
<g id="a_node8"><a xlink:href="classKyoo_1_1Models_1_1LibraryItem.html" target="_top" xlink:title=" ">
<polygon fill="white" stroke="black" points="186,-304.5 186,-323.5 324,-323.5 324,-304.5 186,-304.5"/>
<text text-anchor="middle" x="255" y="-311.5" font-family="Helvetica,sans-Serif" font-size="10.00">Kyoo.Models.LibraryItem</text>
</a>
</g>
</g>
<!-- Node73&#45;&gt;Node78 -->
<g id="edge7" class="edge">
<title>Node73&#45;&gt;Node78</title>
<path fill="none" stroke="midnightblue" d="M100.84,-252.75C122.69,-265.27 155.67,-283.05 186,-295 195.01,-298.55 204.93,-301.72 214.35,-304.4"/>
<polygon fill="midnightblue" stroke="midnightblue" points="102.32,-249.56 91.91,-247.58 98.81,-255.62 102.32,-249.56"/>
</g>
<!-- Node79 -->
<g id="node9" class="node">
<title>Node79</title>
<g id="a_node9"><a xlink:href="classKyoo_1_1Models_1_1People.html" target="_top" xlink:title=" ">
<polygon fill="white" stroke="black" points="197.5,-266.5 197.5,-285.5 312.5,-285.5 312.5,-266.5 197.5,-266.5"/>
<text text-anchor="middle" x="255" y="-273.5" font-family="Helvetica,sans-Serif" font-size="10.00">Kyoo.Models.People</text>
</a>
</g>
</g>
<!-- Node73&#45;&gt;Node79 -->
<g id="edge8" class="edge">
<title>Node73&#45;&gt;Node79</title>
<path fill="none" stroke="midnightblue" d="M130.72,-249.68C155.96,-255.07 185.55,-261.39 209.41,-266.48"/>
<polygon fill="midnightblue" stroke="midnightblue" points="131.43,-246.25 120.92,-247.59 129.97,-253.1 131.43,-246.25"/>
</g>
<!-- Node80 -->
<g id="node10" class="node">
<title>Node80</title>
<g id="a_node10"><a xlink:href="classKyoo_1_1Models_1_1PeopleRole.html" target="_top" xlink:title=" ">
<polygon fill="white" stroke="black" points="186.5,-228.5 186.5,-247.5 323.5,-247.5 323.5,-228.5 186.5,-228.5"/>
<text text-anchor="middle" x="255" y="-235.5" font-family="Helvetica,sans-Serif" font-size="10.00">Kyoo.Models.PeopleRole</text>
</a>
</g>
</g>
<!-- Node73&#45;&gt;Node80 -->
<g id="edge9" class="edge">
<title>Node73&#45;&gt;Node80</title>
<path fill="none" stroke="midnightblue" d="M150.02,-238C162.06,-238 174.47,-238 186.35,-238"/>
<polygon fill="midnightblue" stroke="midnightblue" points="150.01,-234.5 140.01,-238 150.01,-241.5 150.01,-234.5"/>
</g>
<!-- Node81 -->
<g id="node11" class="node">
<title>Node81</title>
<g id="a_node11"><a xlink:href="classKyoo_1_1Models_1_1Provider.html" target="_top" xlink:title=" ">
<polygon fill="white" stroke="black" points="194,-190.5 194,-209.5 316,-209.5 316,-190.5 194,-190.5"/>
<text text-anchor="middle" x="255" y="-197.5" font-family="Helvetica,sans-Serif" font-size="10.00">Kyoo.Models.Provider</text>
</a>
</g>
</g>
<!-- Node73&#45;&gt;Node81 -->
<g id="edge10" class="edge">
<title>Node73&#45;&gt;Node81</title>
<path fill="none" stroke="midnightblue" d="M130.72,-226.32C155.96,-220.93 185.55,-214.61 209.41,-209.52"/>
<polygon fill="midnightblue" stroke="midnightblue" points="129.97,-222.9 120.92,-228.41 131.43,-229.75 129.97,-222.9"/>
</g>
<!-- Node82 -->
<g id="node12" class="node">
<title>Node82</title>
<g id="a_node12"><a xlink:href="classKyoo_1_1Models_1_1Season.html" target="_top" xlink:title=" ">
<polygon fill="white" stroke="black" points="196.5,-152.5 196.5,-171.5 313.5,-171.5 313.5,-152.5 196.5,-152.5"/>
<text text-anchor="middle" x="255" y="-159.5" font-family="Helvetica,sans-Serif" font-size="10.00">Kyoo.Models.Season</text>
</a>
</g>
</g>
<!-- Node73&#45;&gt;Node82 -->
<g id="edge11" class="edge">
<title>Node73&#45;&gt;Node82</title>
<path fill="none" stroke="midnightblue" d="M100.84,-223.25C122.69,-210.73 155.67,-192.95 186,-181 195.01,-177.45 204.93,-174.28 214.35,-171.6"/>
<polygon fill="midnightblue" stroke="midnightblue" points="98.81,-220.38 91.91,-228.42 102.32,-226.44 98.81,-220.38"/>
</g>
<!-- Node84 -->
<g id="node13" class="node">
<title>Node84</title>
<g id="a_node13"><a xlink:href="classKyoo_1_1Models_1_1Studio.html" target="_top" xlink:title=" ">
<polygon fill="white" stroke="black" points="198.5,-114.5 198.5,-133.5 311.5,-133.5 311.5,-114.5 198.5,-114.5"/>
<text text-anchor="middle" x="255" y="-121.5" font-family="Helvetica,sans-Serif" font-size="10.00">Kyoo.Models.Studio</text>
</a>
</g>
</g>
<!-- Node73&#45;&gt;Node84 -->
<g id="edge13" class="edge">
<title>Node73&#45;&gt;Node84</title>
<path fill="none" stroke="midnightblue" d="M91.35,-220.71C111.18,-199.41 147.72,-163.54 186,-143 193.13,-139.18 201.1,-136.06 209.01,-133.54"/>
<polygon fill="midnightblue" stroke="midnightblue" points="88.53,-218.61 84.37,-228.35 93.7,-223.33 88.53,-218.61"/>
</g>
<!-- Node1 -->
<g id="node14" class="node">
<title>Node1</title>
<g id="a_node14"><a xlink:href="classKyoo_1_1Models_1_1Track.html" target="_top" xlink:title=" ">
<polygon fill="white" stroke="black" points="201.5,-0.5 201.5,-19.5 308.5,-19.5 308.5,-0.5 201.5,-0.5"/>
<text text-anchor="middle" x="255" y="-7.5" font-family="Helvetica,sans-Serif" font-size="10.00">Kyoo.Models.Track</text>
</a>
</g>
</g>
<!-- Node73&#45;&gt;Node1 -->
<g id="edge14" class="edge">
<title>Node73&#45;&gt;Node1</title>
<path fill="none" stroke="midnightblue" d="M80.68,-218.44C91.62,-177 122.89,-79.98 186,-29 190.77,-25.15 196.27,-22.08 202.03,-19.63"/>
<polygon fill="midnightblue" stroke="midnightblue" points="77.23,-217.81 78.17,-228.36 84.01,-219.53 77.23,-217.81"/>
</g>
<!-- Node85 -->
<g id="node15" class="node">
<title>Node85</title>
<g id="a_node15"><a xlink:href="classKyoo_1_1Models_1_1User.html" target="_top" xlink:title="A single user of the app.">
<polygon fill="white" stroke="black" points="203,-76.5 203,-95.5 307,-95.5 307,-76.5 203,-76.5"/>
<text text-anchor="middle" x="255" y="-83.5" font-family="Helvetica,sans-Serif" font-size="10.00">Kyoo.Models.User</text>
</a>
</g>
</g>
<!-- Node73&#45;&gt;Node85 -->
<g id="edge15" class="edge">
<title>Node73&#45;&gt;Node85</title>
<path fill="none" stroke="midnightblue" d="M86.19,-219.57C103.1,-190.71 139.72,-135.06 186,-105 191.96,-101.13 198.71,-98.03 205.59,-95.57"/>
<polygon fill="midnightblue" stroke="midnightblue" points="83.15,-217.83 81.22,-228.25 89.23,-221.31 83.15,-217.83"/>
</g>
<!-- Node0 -->
<g id="node16" class="node">
<title>Node0</title>
<g id="a_node16"><a xlink:href="classKyoo_1_1Models_1_1Watch_1_1Stream.html" target="_top" xlink:title=" ">
<polygon fill="white" stroke="black" points="0,-0.5 0,-19.5 150,-19.5 150,-0.5 0,-0.5"/>
<text text-anchor="middle" x="75" y="-7.5" font-family="Helvetica,sans-Serif" font-size="10.00">Kyoo.Models.Watch.Stream</text>
</a>
</g>
</g>
<!-- Node0&#45;&gt;Node1 -->
<g id="edge16" class="edge">
<title>Node0&#45;&gt;Node1</title>
<path fill="none" stroke="midnightblue" d="M160.33,-10C174.3,-10 188.43,-10 201.33,-10"/>
<polygon fill="midnightblue" stroke="midnightblue" points="160.2,-6.5 150.2,-10 160.2,-13.5 160.2,-6.5"/>
</g>
</g>
</svg>
