<?xml version="1.0" encoding="UTF-8" standalone="no"?>
<!DOCTYPE svg PUBLIC "-//W3C//DTD SVG 1.1//EN"
 "http://www.w3.org/Graphics/SVG/1.1/DTD/svg11.dtd">
<!-- Generated by graphviz version 2.43.0 (0)
 -->
<!-- Title: Graphical Class Hierarchy Pages: 1 -->
<svg width="306pt" height="218pt"
 viewBox="0.00 0.00 306.00 218.00" xmlns="http://www.w3.org/2000/svg" xmlns:xlink="http://www.w3.org/1999/xlink">
<g id="graph0" class="graph" transform="scale(1 1) rotate(0) translate(4 214)">
<title>Graphical Class Hierarchy</title>
<polygon fill="white" stroke="transparent" points="-4,4 -4,-214 302,-214 302,4 -4,4"/>
<!-- Node173 -->
<g id="node1" class="node">
<title>Node173</title>
<g id="a_node1"><a xlink:title=" ">
<polygon fill="white" stroke="#bfbfbf" points="0,-95.5 0,-114.5 89,-114.5 89,-95.5 0,-95.5"/>
<text text-anchor="middle" x="44.5" y="-102.5" font-family="Helvetica,sans-Serif" font-size="10.00">ControllerBase</text>
</a>
</g>
</g>
<!-- Node0 -->
<g id="node2" class="node">
<title>Node0</title>
<g id="a_node2"><a xlink:href="classKyoo_1_1Api_1_1LibraryItemApi.html" target="_top" xlink:title=" ">
<polygon fill="white" stroke="black" points="144.5,-190.5 144.5,-209.5 278.5,-209.5 278.5,-190.5 144.5,-190.5"/>
<text text-anchor="middle" x="211.5" y="-197.5" font-family="Helvetica,sans-Serif" font-size="10.00">Kyoo.Api.LibraryItemApi</text>
</a>
</g>
</g>
<!-- Node173&#45;&gt;Node0 -->
<g id="edge1" class="edge">
<title>Node173&#45;&gt;Node0</title>
<path fill="none" stroke="midnightblue" d="M59.26,-122.94C73.71,-140.48 98.04,-166.59 125,-181 132.24,-184.87 140.23,-187.95 148.33,-190.41"/>
<polygon fill="midnightblue" stroke="midnightblue" points="61.62,-120.29 52.65,-114.66 56.15,-124.66 61.62,-120.29"/>
</g>
<!-- Node175 -->
<g id="node3" class="node">
<title>Node175</title>
<g id="a_node3"><a xlink:href="classKyoo_1_1Api_1_1SearchApi.html" target="_top" xlink:title=" ">
<polygon fill="white" stroke="black" points="156,-152.5 156,-171.5 267,-171.5 267,-152.5 156,-152.5"/>
<text text-anchor="middle" x="211.5" y="-159.5" font-family="Helvetica,sans-Serif" font-size="10.00">Kyoo.Api.SearchApi</text>
</a>
</g>
</g>
<!-- Node173&#45;&gt;Node175 -->
<g id="edge2" class="edge">
<title>Node173&#45;&gt;Node175</title>
<path fill="none" stroke="midnightblue" d="M71.97,-119.52C87.13,-127.36 106.73,-136.7 125,-143 135.64,-146.67 147.27,-149.81 158.43,-152.41"/>
<polygon fill="midnightblue" stroke="midnightblue" points="73.18,-116.2 62.7,-114.63 69.91,-122.39 73.18,-116.2"/>
</g>
<!-- Node176 -->
<g id="node4" class="node">
<title>Node176</title>
<g id="a_node4"><a xlink:href="classKyoo_1_1Api_1_1SubtitleApi.html" target="_top" xlink:title=" ">
<polygon fill="white" stroke="black" points="153.5,-114.5 153.5,-133.5 269.5,-133.5 269.5,-114.5 153.5,-114.5"/>
<text text-anchor="middle" x="211.5" y="-121.5" font-family="Helvetica,sans-Serif" font-size="10.00">Kyoo.Api.SubtitleApi</text>
</a>
</g>
</g>
<!-- Node173&#45;&gt;Node176 -->
<g id="edge3" class="edge">
<title>Node173&#45;&gt;Node176</title>
<path fill="none" stroke="midnightblue" d="M99.24,-111.19C116.58,-113.19 135.86,-115.41 153.44,-117.43"/>
<polygon fill="midnightblue" stroke="midnightblue" points="99.62,-107.71 89.28,-110.04 98.82,-114.66 99.62,-107.71"/>
</g>
<!-- Node177 -->
<g id="node5" class="node">
<title>Node177</title>
<g id="a_node5"><a xlink:href="classKyoo_1_1Api_1_1TaskApi.html" target="_top" xlink:title=" ">
<polygon fill="white" stroke="black" points="161.5,-76.5 161.5,-95.5 261.5,-95.5 261.5,-76.5 161.5,-76.5"/>
<text text-anchor="middle" x="211.5" y="-83.5" font-family="Helvetica,sans-Serif" font-size="10.00">Kyoo.Api.TaskApi</text>
</a>
</g>
</g>
<!-- Node173&#45;&gt;Node177 -->
<g id="edge4" class="edge">
<title>Node173&#45;&gt;Node177</title>
<path fill="none" stroke="midnightblue" d="M99.44,-98.79C119.35,-96.5 141.79,-93.91 161.27,-91.67"/>
<polygon fill="midnightblue" stroke="midnightblue" points="98.82,-95.34 89.28,-99.96 99.62,-102.29 98.82,-95.34"/>
</g>
<!-- Node178 -->
<g id="node6" class="node">
<title>Node178</title>
<g id="a_node6"><a xlink:href="classKyoo_1_1Api_1_1WatchApi.html" target="_top" xlink:title=" ">
<polygon fill="white" stroke="black" points="157.5,-38.5 157.5,-57.5 265.5,-57.5 265.5,-38.5 157.5,-38.5"/>
<text text-anchor="middle" x="211.5" y="-45.5" font-family="Helvetica,sans-Serif" font-size="10.00">Kyoo.Api.WatchApi</text>
</a>
</g>
</g>
<!-- Node173&#45;&gt;Node178 -->
<g id="edge5" class="edge">
<title>Node173&#45;&gt;Node178</title>
<path fill="none" stroke="midnightblue" d="M71.97,-90.48C87.13,-82.64 106.73,-73.3 125,-67 135.64,-63.33 147.27,-60.19 158.43,-57.59"/>
<polygon fill="midnightblue" stroke="midnightblue" points="69.91,-87.61 62.7,-95.37 73.18,-93.8 69.91,-87.61"/>
</g>
<!-- Node179 -->
<g id="node7" class="node">
<title>Node179</title>
<g id="a_node7"><a xlink:href="classKyoo_1_1CommonApi_1_1CrudApi.html" target="_top" xlink:title=" ">
<polygon fill="white" stroke="black" points="125,-0.5 125,-19.5 298,-19.5 298,-0.5 125,-0.5"/>
<text text-anchor="middle" x="211.5" y="-7.5" font-family="Helvetica,sans-Serif" font-size="10.00">Kyoo.CommonApi.CrudApi&lt; T &gt;</text>
</a>
</g>
</g>
<!-- Node173&#45;&gt;Node179 -->
<g id="edge6" class="edge">
<title>Node173&#45;&gt;Node179</title>
<path fill="none" stroke="midnightblue" d="M59.26,-87.06C73.71,-69.52 98.04,-43.41 125,-29 132.24,-25.13 140.23,-22.05 148.33,-19.59"/>
<polygon fill="midnightblue" stroke="midnightblue" points="56.15,-85.34 52.65,-95.34 61.62,-89.71 56.15,-85.34"/>
</g>
</g>
</svg>
