<?xml version="1.0" encoding="UTF-8" standalone="no"?>
<!DOCTYPE svg PUBLIC "-//W3C//DTD SVG 1.1//EN"
 "http://www.w3.org/Graphics/SVG/1.1/DTD/svg11.dtd">
<!-- Generated by graphviz version 2.43.0 (0)
 -->
<!-- Title: Graphical Class Hierarchy Pages: 1 -->
<svg width="366pt" height="127pt"
 viewBox="0.00 0.00 366.00 127.00" xmlns="http://www.w3.org/2000/svg" xmlns:xlink="http://www.w3.org/1999/xlink">
<g id="graph0" class="graph" transform="scale(1 1) rotate(0) translate(4 123)">
<title>Graphical Class Hierarchy</title>
<polygon fill="white" stroke="transparent" points="-4,4 -4,-123 362,-123 362,4 -4,4"/>
<!-- Node0 -->
<g id="node1" class="node">
<title>Node0</title>
<g id="a_node1"><a xlink:href="interfaceKyoo_1_1Controllers_1_1IPlugin.html" target="_top" xlink:title="A common interface used to discord plugins">
<polygon fill="white" stroke="black" points="0,-50 0,-69 133,-69 133,-50 0,-50"/>
<text text-anchor="middle" x="66.5" y="-57" font-family="Helvetica,sans-Serif" font-size="10.00">Kyoo.Controllers.IPlugin</text>
</a>
</g>
</g>
<!-- Node1 -->
<g id="node2" class="node">
<title>Node1</title>
<g id="a_node2"><a xlink:href="classKyoo_1_1Authentication_1_1AuthenticationModule.html" target="_top" xlink:title="A module that enable OpenID authentication for Kyoo.">
<polygon fill="white" stroke="black" points="169,-88.5 169,-118.5 358,-118.5 358,-88.5 169,-88.5"/>
<text text-anchor="start" x="177" y="-106.5" font-family="Helvetica,sans-Serif" font-size="10.00">Kyoo.Authentication.Authentication</text>
<text text-anchor="middle" x="263.5" y="-95.5" font-family="Helvetica,sans-Serif" font-size="10.00">Module</text>
</a>
</g>
</g>
<!-- Node0&#45;&gt;Node1 -->
<g id="edge1" class="edge">
<title>Node0&#45;&gt;Node1</title>
<path fill="none" stroke="midnightblue" d="M119.85,-71.31C143.18,-76.58 170.93,-82.84 195.73,-88.43"/>
<polygon fill="midnightblue" stroke="midnightblue" points="120.34,-67.83 109.81,-69.05 118.8,-74.66 120.34,-67.83"/>
</g>
<!-- Node2 -->
<g id="node3" class="node">
<title>Node2</title>
<g id="a_node3"><a xlink:href="classKyoo_1_1CoreModule.html" target="_top" xlink:title="The core module containing default implementations">
<polygon fill="white" stroke="black" points="212.5,-50 212.5,-69 314.5,-69 314.5,-50 212.5,-50"/>
<text text-anchor="middle" x="263.5" y="-57" font-family="Helvetica,sans-Serif" font-size="10.00">Kyoo.CoreModule</text>
</a>
</g>
</g>
<!-- Node0&#45;&gt;Node2 -->
<g id="edge2" class="edge">
<title>Node0&#45;&gt;Node2</title>
<path fill="none" stroke="midnightblue" d="M143.4,-59.5C166.57,-59.5 191.45,-59.5 212.45,-59.5"/>
<polygon fill="midnightblue" stroke="midnightblue" points="143.25,-56 133.25,-59.5 143.25,-63 143.25,-56"/>
</g>
<!-- Node3 -->
<g id="node4" class="node">
<title>Node3</title>
<g id="a_node4"><a xlink:href="classKyoo_1_1Postgresql_1_1PostgresModule.html" target="_top" xlink:title="A module to add postgresql capacity to the app.">
<polygon fill="white" stroke="black" points="193.5,-0.5 193.5,-30.5 333.5,-30.5 333.5,-0.5 193.5,-0.5"/>
<text text-anchor="start" x="201.5" y="-18.5" font-family="Helvetica,sans-Serif" font-size="10.00">Kyoo.Postgresql.Postgres</text>
<text text-anchor="middle" x="263.5" y="-7.5" font-family="Helvetica,sans-Serif" font-size="10.00">Module</text>
</a>
</g>
</g>
<!-- Node0&#45;&gt;Node3 -->
<g id="edge3" class="edge">
<title>Node0&#45;&gt;Node3</title>
<path fill="none" stroke="midnightblue" d="M119.85,-47.69C143.18,-42.42 170.93,-36.16 195.73,-30.57"/>
<polygon fill="midnightblue" stroke="midnightblue" points="118.8,-44.34 109.81,-49.95 120.34,-51.17 118.8,-44.34"/>
</g>
</g>
</svg>
