<?xml version="1.0" encoding="UTF-8" standalone="no"?>
<!DOCTYPE svg PUBLIC "-//W3C//DTD SVG 1.1//EN"
 "http://www.w3.org/Graphics/SVG/1.1/DTD/svg11.dtd">
<!-- Generated by graphviz version 2.43.0 (0)
 -->
<!-- Title: Graphical Class Hierarchy Pages: 1 -->
<svg width="311pt" height="50pt"
 viewBox="0.00 0.00 311.00 50.00" xmlns="http://www.w3.org/2000/svg" xmlns:xlink="http://www.w3.org/1999/xlink">
<g id="graph0" class="graph" transform="scale(1 1) rotate(0) translate(4 46)">
<title>Graphical Class Hierarchy</title>
<polygon fill="white" stroke="transparent" points="-4,4 -4,-46 307,-46 307,4 -4,4"/>
<!-- Node127 -->
<g id="node1" class="node">
<title>Node127</title>
<g id="a_node1"><a xlink:title=" ">
<polygon fill="white" stroke="#bfbfbf" points="0,-11.5 0,-30.5 91,-30.5 91,-11.5 0,-11.5"/>
<text text-anchor="middle" x="45.5" y="-18.5" font-family="Helvetica,sans-Serif" font-size="10.00">IFilterMetadata</text>
</a>
</g>
</g>
<!-- Node0 -->
<g id="node2" class="node">
<title>Node0</title>
<g id="a_node2"><a xlink:href="classKyoo_1_1Controllers_1_1PassthroughPermissionValidator_1_1PassthroughValidator.html" target="_top" xlink:title="An useless filter that does nothing.">
<polygon fill="white" stroke="black" points="127,-0.5 127,-41.5 303,-41.5 303,-0.5 127,-0.5"/>
<text text-anchor="start" x="135" y="-29.5" font-family="Helvetica,sans-Serif" font-size="10.00">Kyoo.Controllers.Passthrough</text>
<text text-anchor="start" x="135" y="-18.5" font-family="Helvetica,sans-Serif" font-size="10.00">PermissionValidator.Passthrough</text>
<text text-anchor="middle" x="215" y="-7.5" font-family="Helvetica,sans-Serif" font-size="10.00">Validator</text>
</a>
</g>
</g>
<!-- Node127&#45;&gt;Node0 -->
<g id="edge1" class="edge">
<title>Node127&#45;&gt;Node0</title>
<path fill="none" stroke="midnightblue" d="M101.5,-21C109.69,-21 118.29,-21 126.94,-21"/>
<polygon fill="midnightblue" stroke="midnightblue" points="101.39,-17.5 91.39,-21 101.39,-24.5 101.39,-17.5"/>
</g>
</g>
</svg>
