<?xml version="1.0" encoding="UTF-8" standalone="no"?>
<!DOCTYPE svg PUBLIC "-//W3C//DTD SVG 1.1//EN"
 "http://www.w3.org/Graphics/SVG/1.1/DTD/svg11.dtd">
<!-- Generated by graphviz version 2.43.0 (0)
 -->
<!-- Title: Graphical Class Hierarchy Pages: 1 -->
<svg width="312pt" height="431pt"
 viewBox="0.00 0.00 312.00 431.00" xmlns="http://www.w3.org/2000/svg" xmlns:xlink="http://www.w3.org/1999/xlink">
<g id="graph0" class="graph" transform="scale(1 1) rotate(0) translate(4 427)">
<title>Graphical Class Hierarchy</title>
<polygon fill="white" stroke="transparent" points="-4,4 -4,-427 308,-427 308,4 -4,4"/>
<!-- Node192 -->
<g id="node1" class="node">
<title>Node192</title>
<g id="a_node1"><a xlink:title=" ">
<polygon fill="white" stroke="#bfbfbf" points="10.5,-202 10.5,-221 69.5,-221 69.5,-202 10.5,-202"/>
<text text-anchor="middle" x="40" y="-209" font-family="Helvetica,sans-Serif" font-size="10.00">Attribute</text>
</a>
</g>
</g>
<!-- Node193 -->
<g id="node2" class="node">
<title>Node193</title>
<g id="a_node2"><a xlink:href="classKyoo_1_1Models_1_1Attributes_1_1DeserializeIgnoreAttribute.html" target="_top" xlink:title=" ">
<polygon fill="white" stroke="black" points="116,-98.5 116,-128.5 304,-128.5 304,-98.5 116,-98.5"/>
<text text-anchor="start" x="124" y="-116.5" font-family="Helvetica,sans-Serif" font-size="10.00">Kyoo.Models.Attributes.Deserialize</text>
<text text-anchor="middle" x="210" y="-105.5" font-family="Helvetica,sans-Serif" font-size="10.00">IgnoreAttribute</text>
</a>
</g>
</g>
<!-- Node192&#45;&gt;Node193 -->
<g id="edge1" class="edge">
<title>Node192&#45;&gt;Node193</title>
<path fill="none" stroke="midnightblue" d="M54.49,-193.96C68.21,-177.3 90.98,-152.73 116,-138.5 122.83,-134.61 130.29,-131.31 137.91,-128.51"/>
<polygon fill="midnightblue" stroke="midnightblue" points="51.68,-191.86 48.17,-201.86 57.15,-196.24 51.68,-191.86"/>
</g>
<!-- Node194 -->
<g id="node3" class="node">
<title>Node194</title>
<g id="a_node3"><a xlink:href="classKyoo_1_1Models_1_1Attributes_1_1EditableRelationAttribute.html" target="_top" xlink:title=" ">
<polygon fill="white" stroke="black" points="123.5,-392.5 123.5,-422.5 296.5,-422.5 296.5,-392.5 123.5,-392.5"/>
<text text-anchor="start" x="131.5" y="-410.5" font-family="Helvetica,sans-Serif" font-size="10.00">Kyoo.Models.Attributes.Editable</text>
<text text-anchor="middle" x="210" y="-399.5" font-family="Helvetica,sans-Serif" font-size="10.00">RelationAttribute</text>
</a>
</g>
</g>
<!-- Node192&#45;&gt;Node194 -->
<g id="edge2" class="edge">
<title>Node192&#45;&gt;Node194</title>
<path fill="none" stroke="midnightblue" d="M43.86,-231.16C50.15,-267.02 68.58,-343.06 116,-383.5 120.06,-386.96 124.56,-389.93 129.32,-392.48"/>
<polygon fill="midnightblue" stroke="midnightblue" points="47.28,-230.34 42.23,-221.03 40.37,-231.46 47.28,-230.34"/>
</g>
<!-- Node195 -->
<g id="node4" class="node">
<title>Node195</title>
<g id="a_node4"><a xlink:href="classKyoo_1_1Models_1_1Attributes_1_1InjectedAttribute.html" target="_top" xlink:title="An attribute to inform that the service will be injected automatically by a service provider.">
<polygon fill="white" stroke="black" points="124,-343.5 124,-373.5 296,-373.5 296,-343.5 124,-343.5"/>
<text text-anchor="start" x="132" y="-361.5" font-family="Helvetica,sans-Serif" font-size="10.00">Kyoo.Models.Attributes.Injected</text>
<text text-anchor="middle" x="210" y="-350.5" font-family="Helvetica,sans-Serif" font-size="10.00">Attribute</text>
</a>
</g>
</g>
<!-- Node192&#45;&gt;Node195 -->
<g id="edge3" class="edge">
<title>Node192&#45;&gt;Node195</title>
<path fill="none" stroke="midnightblue" d="M47.48,-230.86C57.64,-258.21 79.99,-307.81 116,-334.5 120.69,-337.98 125.83,-340.95 131.22,-343.49"/>
<polygon fill="midnightblue" stroke="midnightblue" points="50.71,-229.5 44.07,-221.25 44.11,-231.84 50.71,-229.5"/>
</g>
<!-- Node196 -->
<g id="node5" class="node">
<title>Node196</title>
<g id="a_node5"><a xlink:href="classKyoo_1_1Models_1_1Attributes_1_1LoadableRelationAttribute.html" target="_top" xlink:title=" ">
<polygon fill="white" stroke="black" points="121.5,-294.5 121.5,-324.5 298.5,-324.5 298.5,-294.5 121.5,-294.5"/>
<text text-anchor="start" x="129.5" y="-312.5" font-family="Helvetica,sans-Serif" font-size="10.00">Kyoo.Models.Attributes.Loadable</text>
<text text-anchor="middle" x="210" y="-301.5" font-family="Helvetica,sans-Serif" font-size="10.00">RelationAttribute</text>
</a>
</g>
</g>
<!-- Node192&#45;&gt;Node196 -->
<g id="edge4" class="edge">
<title>Node192&#45;&gt;Node196</title>
<path fill="none" stroke="midnightblue" d="M54.18,-229.07C67.82,-246.01 90.66,-271.14 116,-285.5 122.09,-288.95 128.69,-291.92 135.46,-294.47"/>
<polygon fill="midnightblue" stroke="midnightblue" points="56.84,-226.78 47.92,-221.05 51.32,-231.09 56.84,-226.78"/>
</g>
<!-- Node197 -->
<g id="node6" class="node">
<title>Node197</title>
<g id="a_node6"><a xlink:href="classKyoo_1_1Models_1_1Attributes_1_1NotMergeableAttribute.html" target="_top" xlink:title="Specify that a property can&#39;t be merged.">
<polygon fill="white" stroke="black" points="135,-245.5 135,-275.5 285,-275.5 285,-245.5 135,-245.5"/>
<text text-anchor="start" x="143" y="-263.5" font-family="Helvetica,sans-Serif" font-size="10.00">Kyoo.Models.Attributes.Not</text>
<text text-anchor="middle" x="210" y="-252.5" font-family="Helvetica,sans-Serif" font-size="10.00">MergeableAttribute</text>
</a>
</g>
</g>
<!-- Node192&#45;&gt;Node197 -->
<g id="edge5" class="edge">
<title>Node192&#45;&gt;Node197</title>
<path fill="none" stroke="midnightblue" d="M78.02,-224.41C90.08,-228.46 103.56,-232.83 116,-236.5 126.39,-239.57 137.51,-242.63 148.3,-245.48"/>
<polygon fill="midnightblue" stroke="midnightblue" points="78.88,-221 68.29,-221.1 76.63,-227.63 78.88,-221"/>
</g>
<!-- Node198 -->
<g id="node7" class="node">
<title>Node198</title>
<g id="a_node7"><a xlink:href="classKyoo_1_1Models_1_1Attributes_1_1SerializeAsAttribute.html" target="_top" xlink:title=" ">
<polygon fill="white" stroke="black" points="122.5,-196.5 122.5,-226.5 297.5,-226.5 297.5,-196.5 122.5,-196.5"/>
<text text-anchor="start" x="130.5" y="-214.5" font-family="Helvetica,sans-Serif" font-size="10.00">Kyoo.Models.Attributes.Serialize</text>
<text text-anchor="middle" x="210" y="-203.5" font-family="Helvetica,sans-Serif" font-size="10.00">AsAttribute</text>
</a>
</g>
</g>
<!-- Node192&#45;&gt;Node198 -->
<g id="edge6" class="edge">
<title>Node192&#45;&gt;Node198</title>
<path fill="none" stroke="midnightblue" d="M80.09,-211.5C92.83,-211.5 107.53,-211.5 122.34,-211.5"/>
<polygon fill="midnightblue" stroke="midnightblue" points="79.88,-208 69.88,-211.5 79.88,-215 79.88,-208"/>
</g>
<!-- Node199 -->
<g id="node8" class="node">
<title>Node199</title>
<g id="a_node8"><a xlink:href="classKyoo_1_1Models_1_1Attributes_1_1SerializeIgnoreAttribute.html" target="_top" xlink:title=" ">
<polygon fill="white" stroke="black" points="122.5,-147.5 122.5,-177.5 297.5,-177.5 297.5,-147.5 122.5,-147.5"/>
<text text-anchor="start" x="130.5" y="-165.5" font-family="Helvetica,sans-Serif" font-size="10.00">Kyoo.Models.Attributes.Serialize</text>
<text text-anchor="middle" x="210" y="-154.5" font-family="Helvetica,sans-Serif" font-size="10.00">IgnoreAttribute</text>
</a>
</g>
</g>
<!-- Node192&#45;&gt;Node199 -->
<g id="edge7" class="edge">
<title>Node192&#45;&gt;Node199</title>
<path fill="none" stroke="midnightblue" d="M79.28,-198.87C91.02,-195.1 104.01,-191.03 116,-187.5 127.39,-184.15 139.61,-180.73 151.33,-177.55"/>
<polygon fill="midnightblue" stroke="midnightblue" points="78.19,-195.54 69.75,-201.95 80.34,-202.2 78.19,-195.54"/>
</g>
<!-- Node0 -->
<g id="node9" class="node">
<title>Node0</title>
<g id="a_node9"><a xlink:href="classKyoo_1_1Models_1_1Permissions_1_1PartialPermissionAttribute.html" target="_top" xlink:title="Specify one part of a permissions needed for the API (the kind or the type).">
<polygon fill="white" stroke="black" points="138,-0.5 138,-30.5 282,-30.5 282,-0.5 138,-0.5"/>
<text text-anchor="start" x="146" y="-18.5" font-family="Helvetica,sans-Serif" font-size="10.00">Kyoo.Models.Permissions.</text>
<text text-anchor="middle" x="210" y="-7.5" font-family="Helvetica,sans-Serif" font-size="10.00">PartialPermissionAttribute</text>
</a>
</g>
</g>
<!-- Node192&#45;&gt;Node0 -->
<g id="edge8" class="edge">
<title>Node192&#45;&gt;Node0</title>
<path fill="none" stroke="midnightblue" d="M44.03,-191.49C50.53,-155.71 69.19,-80.73 116,-40.5 122.34,-35.05 129.75,-30.78 137.57,-27.43"/>
<polygon fill="midnightblue" stroke="midnightblue" points="40.53,-191.2 42.33,-201.64 47.43,-192.36 40.53,-191.2"/>
</g>
<!-- Node131 -->
<g id="node10" class="node">
<title>Node131</title>
<g id="a_node10"><a xlink:href="classKyoo_1_1Models_1_1Permissions_1_1PermissionAttribute.html" target="_top" xlink:title="Specify permissions needed for the API.">
<polygon fill="white" stroke="black" points="138,-49.5 138,-79.5 282,-79.5 282,-49.5 138,-49.5"/>
<text text-anchor="start" x="146" y="-67.5" font-family="Helvetica,sans-Serif" font-size="10.00">Kyoo.Models.Permissions.</text>
<text text-anchor="middle" x="210" y="-56.5" font-family="Helvetica,sans-Serif" font-size="10.00">PermissionAttribute</text>
</a>
</g>
</g>
<!-- Node192&#45;&gt;Node131 -->
<g id="edge9" class="edge">
<title>Node192&#45;&gt;Node131</title>
<path fill="none" stroke="midnightblue" d="M47.56,-192.35C57.82,-165.27 80.29,-116.15 116,-89.5 122.57,-84.6 130.03,-80.66 137.8,-77.49"/>
<polygon fill="midnightblue" stroke="midnightblue" points="44.23,-191.27 44.11,-201.86 50.81,-193.65 44.23,-191.27"/>
</g>
<!-- Node129 -->
<g id="node11" class="node">
<title>Node129</title>
<g id="a_node11"><a xlink:title=" ">
<polygon fill="white" stroke="#bfbfbf" points="0,-31 0,-50 80,-50 80,-31 0,-31"/>
<text text-anchor="middle" x="40" y="-38" font-family="Helvetica,sans-Serif" font-size="10.00">IFilterFactory</text>
</a>
</g>
</g>
<!-- Node129&#45;&gt;Node0 -->
<g id="edge10" class="edge">
<title>Node129&#45;&gt;Node0</title>
<path fill="none" stroke="midnightblue" d="M90.38,-33.15C105.27,-30.94 121.92,-28.46 137.92,-26.08"/>
<polygon fill="midnightblue" stroke="midnightblue" points="89.76,-29.7 80.39,-34.64 90.79,-36.63 89.76,-29.7"/>
</g>
<!-- Node129&#45;&gt;Node131 -->
<g id="edge11" class="edge">
<title>Node129&#45;&gt;Node131</title>
<path fill="none" stroke="midnightblue" d="M90.38,-47.55C105.27,-49.68 121.92,-52.06 137.92,-54.35"/>
<polygon fill="midnightblue" stroke="midnightblue" points="90.78,-44.08 80.39,-46.13 89.79,-51.01 90.78,-44.08"/>
</g>
</g>
</svg>
