<?xml version="1.0" encoding="UTF-8" standalone="no"?>
<!DOCTYPE svg PUBLIC "-//W3C//DTD SVG 1.1//EN"
 "http://www.w3.org/Graphics/SVG/1.1/DTD/svg11.dtd">
<!-- Generated by graphviz version 2.43.0 (0)
 -->
<!-- Title: Graphical Class Hierarchy Pages: 1 -->
<svg width="594pt" height="83pt"
 viewBox="0.00 0.00 594.00 83.00" xmlns="http://www.w3.org/2000/svg" xmlns:xlink="http://www.w3.org/1999/xlink">
<g id="graph0" class="graph" transform="scale(1 1) rotate(0) translate(4 79)">
<title>Graphical Class Hierarchy</title>
<polygon fill="white" stroke="transparent" points="-4,4 -4,-79 590,-79 590,4 -4,4"/>
<!-- Node88 -->
<g id="node1" class="node">
<title>Node88</title>
<g id="a_node1"><a xlink:href="interfaceKyoo_1_1Controllers_1_1IRepository.html" target="_top" xlink:title=" ">
<polygon fill="white" stroke="black" points="0,-44.5 0,-74.5 155,-74.5 155,-44.5 0,-44.5"/>
<text text-anchor="start" x="8" y="-62.5" font-family="Helvetica,sans-Serif" font-size="10.00">Kyoo.Controllers.IRepository</text>
<text text-anchor="middle" x="77.5" y="-51.5" font-family="Helvetica,sans-Serif" font-size="10.00">&lt; Track &gt;</text>
</a>
</g>
</g>
<!-- Node89 -->
<g id="node2" class="node">
<title>Node89</title>
<g id="a_node2"><a xlink:href="interfaceKyoo_1_1Controllers_1_1ITrackRepository.html" target="_top" xlink:title="A repository to handle tracks">
<polygon fill="white" stroke="black" points="191,-50 191,-69 372,-69 372,-50 191,-50"/>
<text text-anchor="middle" x="281.5" y="-57" font-family="Helvetica,sans-Serif" font-size="10.00">Kyoo.Controllers.ITrackRepository</text>
</a>
</g>
</g>
<!-- Node88&#45;&gt;Node89 -->
<g id="edge1" class="edge">
<title>Node88&#45;&gt;Node89</title>
<path fill="none" stroke="midnightblue" d="M165.32,-59.5C173.72,-59.5 182.25,-59.5 190.68,-59.5"/>
<polygon fill="midnightblue" stroke="midnightblue" points="165.16,-56 155.16,-59.5 165.16,-63 165.16,-56"/>
</g>
<!-- Node1 -->
<g id="node3" class="node">
<title>Node1</title>
<g id="a_node3"><a xlink:href="classKyoo_1_1Controllers_1_1TrackRepository.html" target="_top" xlink:title="A local repository to handle tracks.">
<polygon fill="white" stroke="black" points="408,-28 408,-47 586,-47 586,-28 408,-28"/>
<text text-anchor="middle" x="497" y="-35" font-family="Helvetica,sans-Serif" font-size="10.00">Kyoo.Controllers.TrackRepository</text>
</a>
</g>
</g>
<!-- Node89&#45;&gt;Node1 -->
<g id="edge2" class="edge">
<title>Node89&#45;&gt;Node1</title>
<path fill="none" stroke="midnightblue" d="M382.18,-49.23C390.8,-48.34 399.47,-47.45 407.98,-46.57"/>
<polygon fill="midnightblue" stroke="midnightblue" points="381.7,-45.76 372.12,-50.27 382.42,-52.72 381.7,-45.76"/>
</g>
<!-- Node0 -->
<g id="node4" class="node">
<title>Node0</title>
<g id="a_node4"><a xlink:href="classKyoo_1_1Controllers_1_1LocalRepository.html" target="_top" xlink:title=" ">
<polygon fill="white" stroke="black" points="192.5,-0.5 192.5,-30.5 370.5,-30.5 370.5,-0.5 192.5,-0.5"/>
<text text-anchor="start" x="200.5" y="-18.5" font-family="Helvetica,sans-Serif" font-size="10.00">Kyoo.Controllers.LocalRepository</text>
<text text-anchor="middle" x="281.5" y="-7.5" font-family="Helvetica,sans-Serif" font-size="10.00">&lt; Track &gt;</text>
</a>
</g>
</g>
<!-- Node0&#45;&gt;Node1 -->
<g id="edge3" class="edge">
<title>Node0&#45;&gt;Node1</title>
<path fill="none" stroke="midnightblue" d="M380.72,-25.62C389.74,-26.55 398.85,-27.49 407.79,-28.41"/>
<polygon fill="midnightblue" stroke="midnightblue" points="380.88,-22.12 370.57,-24.58 380.16,-29.08 380.88,-22.12"/>
</g>
</g>
</svg>
