<?xml version="1.0" encoding="UTF-8" standalone="no"?>
<!DOCTYPE svg PUBLIC "-//W3C//DTD SVG 1.1//EN"
 "http://www.w3.org/Graphics/SVG/1.1/DTD/svg11.dtd">
<!-- Generated by graphviz version 2.43.0 (0)
 -->
<!-- Title: Graphical Class Hierarchy Pages: 1 -->
<svg width="562pt" height="88pt"
 viewBox="0.00 0.00 562.00 88.00" xmlns="http://www.w3.org/2000/svg" xmlns:xlink="http://www.w3.org/1999/xlink">
<g id="graph0" class="graph" transform="scale(1 1) rotate(0) translate(4 84)">
<title>Graphical Class Hierarchy</title>
<polygon fill="white" stroke="transparent" points="-4,4 -4,-84 558,-84 558,4 -4,4"/>
<!-- Node108 -->
<g id="node1" class="node">
<title>Node108</title>
<g id="a_node1"><a xlink:href="interfaceKyoo_1_1Controllers_1_1IRepository.html" target="_top" xlink:title=" ">
<polygon fill="white" stroke="black" points="0,-49.5 0,-79.5 155,-79.5 155,-49.5 0,-49.5"/>
<text text-anchor="start" x="8" y="-67.5" font-family="Helvetica,sans-Serif" font-size="10.00">Kyoo.Controllers.IRepository</text>
<text text-anchor="middle" x="77.5" y="-56.5" font-family="Helvetica,sans-Serif" font-size="10.00">&lt; Collection &gt;</text>
</a>
</g>
</g>
<!-- Node109 -->
<g id="node2" class="node">
<title>Node109</title>
<g id="a_node2"><a xlink:href="interfaceKyoo_1_1Controllers_1_1ICollectionRepository.html" target="_top" xlink:title="A repository for collections">
<polygon fill="white" stroke="black" points="204,-49.5 204,-79.5 356,-79.5 356,-49.5 204,-49.5"/>
<text text-anchor="start" x="212" y="-67.5" font-family="Helvetica,sans-Serif" font-size="10.00">Kyoo.Controllers.ICollection</text>
<text text-anchor="middle" x="280" y="-56.5" font-family="Helvetica,sans-Serif" font-size="10.00">Repository</text>
</a>
</g>
</g>
<!-- Node108&#45;&gt;Node109 -->
<g id="edge1" class="edge">
<title>Node108&#45;&gt;Node109</title>
<path fill="none" stroke="midnightblue" d="M165.33,-64.5C178.11,-64.5 191.19,-64.5 203.71,-64.5"/>
<polygon fill="midnightblue" stroke="midnightblue" points="165.16,-61 155.16,-64.5 165.16,-68 165.16,-61"/>
</g>
<!-- Node1 -->
<g id="node3" class="node">
<title>Node1</title>
<g id="a_node3"><a xlink:href="classKyoo_1_1Controllers_1_1CollectionRepository.html" target="_top" xlink:title="A local repository to handle collections">
<polygon fill="white" stroke="black" points="405,-24.5 405,-54.5 554,-54.5 554,-24.5 405,-24.5"/>
<text text-anchor="start" x="413" y="-42.5" font-family="Helvetica,sans-Serif" font-size="10.00">Kyoo.Controllers.Collection</text>
<text text-anchor="middle" x="479.5" y="-31.5" font-family="Helvetica,sans-Serif" font-size="10.00">Repository</text>
</a>
</g>
</g>
<!-- Node109&#45;&gt;Node1 -->
<g id="edge2" class="edge">
<title>Node109&#45;&gt;Node1</title>
<path fill="none" stroke="midnightblue" d="M366.4,-53.69C379.18,-52.07 392.27,-50.42 404.78,-48.83"/>
<polygon fill="midnightblue" stroke="midnightblue" points="365.71,-50.25 356.23,-54.98 366.59,-57.19 365.71,-50.25"/>
</g>
<!-- Node0 -->
<g id="node4" class="node">
<title>Node0</title>
<g id="a_node4"><a xlink:href="classKyoo_1_1Controllers_1_1LocalRepository.html" target="_top" xlink:title=" ">
<polygon fill="white" stroke="black" points="191,-0.5 191,-30.5 369,-30.5 369,-0.5 191,-0.5"/>
<text text-anchor="start" x="199" y="-18.5" font-family="Helvetica,sans-Serif" font-size="10.00">Kyoo.Controllers.LocalRepository</text>
<text text-anchor="middle" x="280" y="-7.5" font-family="Helvetica,sans-Serif" font-size="10.00">&lt; Collection &gt;</text>
</a>
</g>
</g>
<!-- Node0&#45;&gt;Node1 -->
<g id="edge3" class="edge">
<title>Node0&#45;&gt;Node1</title>
<path fill="none" stroke="midnightblue" d="M379.17,-27.43C387.79,-28.48 396.41,-29.53 404.78,-30.54"/>
<polygon fill="midnightblue" stroke="midnightblue" points="379.41,-23.93 369.06,-26.2 378.57,-30.88 379.41,-23.93"/>
</g>
</g>
</svg>
