<?xml version="1.0" encoding="UTF-8" standalone="no"?>
<!DOCTYPE svg PUBLIC "-//W3C//DTD SVG 1.1//EN"
 "http://www.w3.org/Graphics/SVG/1.1/DTD/svg11.dtd">
<!-- Generated by graphviz version 2.43.0 (0)
 -->
<!-- Title: Graphical Class Hierarchy Pages: 1 -->
<svg width="601pt" height="88pt"
 viewBox="0.00 0.00 601.00 88.00" xmlns="http://www.w3.org/2000/svg" xmlns:xlink="http://www.w3.org/1999/xlink">
<g id="graph0" class="graph" transform="scale(1 1) rotate(0) translate(4 84)">
<title>Graphical Class Hierarchy</title>
<polygon fill="white" stroke="transparent" points="-4,4 -4,-84 597,-84 597,4 -4,4"/>
<!-- Node94 -->
<g id="node1" class="node">
<title>Node94</title>
<g id="a_node1"><a xlink:href="interfaceKyoo_1_1Controllers_1_1IRepository.html" target="_top" xlink:title=" ">
<polygon fill="white" stroke="black" points="0,-49.5 0,-79.5 155,-79.5 155,-49.5 0,-49.5"/>
<text text-anchor="start" x="8" y="-67.5" font-family="Helvetica,sans-Serif" font-size="10.00">Kyoo.Controllers.IRepository</text>
<text text-anchor="middle" x="77.5" y="-56.5" font-family="Helvetica,sans-Serif" font-size="10.00">&lt; Season &gt;</text>
</a>
</g>
</g>
<!-- Node95 -->
<g id="node2" class="node">
<title>Node95</title>
<g id="a_node2"><a xlink:href="interfaceKyoo_1_1Controllers_1_1ISeasonRepository.html" target="_top" xlink:title="A repository to handle seasons.">
<polygon fill="white" stroke="black" points="211,-49.5 211,-79.5 349,-79.5 349,-49.5 211,-49.5"/>
<text text-anchor="start" x="219" y="-67.5" font-family="Helvetica,sans-Serif" font-size="10.00">Kyoo.Controllers.ISeason</text>
<text text-anchor="middle" x="280" y="-56.5" font-family="Helvetica,sans-Serif" font-size="10.00">Repository</text>
</a>
</g>
</g>
<!-- Node94&#45;&gt;Node95 -->
<g id="edge1" class="edge">
<title>Node94&#45;&gt;Node95</title>
<path fill="none" stroke="midnightblue" d="M165.58,-64.5C180.76,-64.5 196.34,-64.5 210.91,-64.5"/>
<polygon fill="midnightblue" stroke="midnightblue" points="165.16,-61 155.16,-64.5 165.16,-68 165.16,-61"/>
</g>
<!-- Node1 -->
<g id="node3" class="node">
<title>Node1</title>
<g id="a_node3"><a xlink:href="classKyoo_1_1Controllers_1_1SeasonRepository.html" target="_top" xlink:title="A local repository to handle seasons.">
<polygon fill="white" stroke="black" points="405,-30 405,-49 593,-49 593,-30 405,-30"/>
<text text-anchor="middle" x="499" y="-37" font-family="Helvetica,sans-Serif" font-size="10.00">Kyoo.Controllers.SeasonRepository</text>
</a>
</g>
</g>
<!-- Node95&#45;&gt;Node1 -->
<g id="edge2" class="edge">
<title>Node95&#45;&gt;Node1</title>
<path fill="none" stroke="midnightblue" d="M359.07,-55.51C377.34,-53.4 396.85,-51.15 415.31,-49.03"/>
<polygon fill="midnightblue" stroke="midnightblue" points="358.6,-52.04 349.06,-56.66 359.4,-58.99 358.6,-52.04"/>
</g>
<!-- Node0 -->
<g id="node4" class="node">
<title>Node0</title>
<g id="a_node4"><a xlink:href="classKyoo_1_1Controllers_1_1LocalRepository.html" target="_top" xlink:title=" ">
<polygon fill="white" stroke="black" points="191,-0.5 191,-30.5 369,-30.5 369,-0.5 191,-0.5"/>
<text text-anchor="start" x="199" y="-18.5" font-family="Helvetica,sans-Serif" font-size="10.00">Kyoo.Controllers.LocalRepository</text>
<text text-anchor="middle" x="280" y="-7.5" font-family="Helvetica,sans-Serif" font-size="10.00">&lt; Season &gt;</text>
</a>
</g>
</g>
<!-- Node0&#45;&gt;Node1 -->
<g id="edge3" class="edge">
<title>Node0&#45;&gt;Node1</title>
<path fill="none" stroke="midnightblue" d="M379.23,-26.36C390.14,-27.57 401.18,-28.79 411.92,-29.98"/>
<polygon fill="midnightblue" stroke="midnightblue" points="379.59,-22.88 369.26,-25.26 378.82,-29.84 379.59,-22.88"/>
</g>
</g>
</svg>
