<?xml version="1.0" encoding="UTF-8" standalone="no"?>
<!DOCTYPE svg PUBLIC "-//W3C//DTD SVG 1.1//EN"
 "http://www.w3.org/Graphics/SVG/1.1/DTD/svg11.dtd">
<!-- Generated by graphviz version 2.43.0 (0)
 -->
<!-- Title: Graphical Class Hierarchy Pages: 1 -->
<svg width="547pt" height="88pt"
 viewBox="0.00 0.00 547.00 88.00" xmlns="http://www.w3.org/2000/svg" xmlns:xlink="http://www.w3.org/1999/xlink">
<g id="graph0" class="graph" transform="scale(1 1) rotate(0) translate(4 84)">
<title>Graphical Class Hierarchy</title>
<polygon fill="white" stroke="transparent" points="-4,4 -4,-84 543,-84 543,4 -4,4"/>
<!-- Node100 -->
<g id="node1" class="node">
<title>Node100</title>
<g id="a_node1"><a xlink:href="interfaceKyoo_1_1Controllers_1_1IRepository.html" target="_top" xlink:title=" ">
<polygon fill="white" stroke="black" points="0,-49.5 0,-79.5 155,-79.5 155,-49.5 0,-49.5"/>
<text text-anchor="start" x="8" y="-67.5" font-family="Helvetica,sans-Serif" font-size="10.00">Kyoo.Controllers.IRepository</text>
<text text-anchor="middle" x="77.5" y="-56.5" font-family="Helvetica,sans-Serif" font-size="10.00">&lt; LibraryItem &gt;</text>
</a>
</g>
</g>
<!-- Node101 -->
<g id="node2" class="node">
<title>Node101</title>
<g id="a_node2"><a xlink:href="interfaceKyoo_1_1Controllers_1_1ILibraryItemRepository.html" target="_top" xlink:title="A repository to handle library items (A wrapper around shows and collections).">
<polygon fill="white" stroke="black" points="211.5,-49.5 211.5,-79.5 348.5,-79.5 348.5,-49.5 211.5,-49.5"/>
<text text-anchor="start" x="219.5" y="-67.5" font-family="Helvetica,sans-Serif" font-size="10.00">Kyoo.Controllers.ILibrary</text>
<text text-anchor="middle" x="280" y="-56.5" font-family="Helvetica,sans-Serif" font-size="10.00">ItemRepository</text>
</a>
</g>
</g>
<!-- Node100&#45;&gt;Node101 -->
<g id="edge1" class="edge">
<title>Node100&#45;&gt;Node101</title>
<path fill="none" stroke="midnightblue" d="M165.2,-64.5C180.61,-64.5 196.45,-64.5 211.24,-64.5"/>
<polygon fill="midnightblue" stroke="midnightblue" points="165.16,-61 155.16,-64.5 165.16,-68 165.16,-61"/>
</g>
<!-- Node1 -->
<g id="node3" class="node">
<title>Node1</title>
<g id="a_node3"><a xlink:href="classKyoo_1_1Controllers_1_1LibraryItemRepository.html" target="_top" xlink:title="A local repository to handle library items.">
<polygon fill="white" stroke="black" points="405,-24.5 405,-54.5 539,-54.5 539,-24.5 405,-24.5"/>
<text text-anchor="start" x="413" y="-42.5" font-family="Helvetica,sans-Serif" font-size="10.00">Kyoo.Controllers.Library</text>
<text text-anchor="middle" x="472" y="-31.5" font-family="Helvetica,sans-Serif" font-size="10.00">ItemRepository</text>
</a>
</g>
</g>
<!-- Node101&#45;&gt;Node1 -->
<g id="edge2" class="edge">
<title>Node101&#45;&gt;Node1</title>
<path fill="none" stroke="midnightblue" d="M358.54,-54.3C373.95,-52.27 389.99,-50.16 404.97,-48.19"/>
<polygon fill="midnightblue" stroke="midnightblue" points="357.98,-50.84 348.52,-55.62 358.89,-57.78 357.98,-50.84"/>
</g>
<!-- Node0 -->
<g id="node4" class="node">
<title>Node0</title>
<g id="a_node4"><a xlink:href="classKyoo_1_1Controllers_1_1LocalRepository.html" target="_top" xlink:title=" ">
<polygon fill="white" stroke="black" points="191,-0.5 191,-30.5 369,-30.5 369,-0.5 191,-0.5"/>
<text text-anchor="start" x="199" y="-18.5" font-family="Helvetica,sans-Serif" font-size="10.00">Kyoo.Controllers.LocalRepository</text>
<text text-anchor="middle" x="280" y="-7.5" font-family="Helvetica,sans-Serif" font-size="10.00">&lt; LibraryItem &gt;</text>
</a>
</g>
</g>
<!-- Node0&#45;&gt;Node1 -->
<g id="edge3" class="edge">
<title>Node0&#45;&gt;Node1</title>
<path fill="none" stroke="midnightblue" d="M379.22,-27.91C387.89,-29 396.52,-30.09 404.83,-31.14"/>
<polygon fill="midnightblue" stroke="midnightblue" points="379.41,-24.4 369.05,-26.62 378.53,-31.35 379.41,-24.4"/>
</g>
</g>
</svg>
