<?xml version="1.0" encoding="UTF-8" standalone="no"?>
<!DOCTYPE svg PUBLIC "-//W3C//DTD SVG 1.1//EN"
 "http://www.w3.org/Graphics/SVG/1.1/DTD/svg11.dtd">
<!-- Generated by graphviz version 2.43.0 (0)
 -->
<!-- Title: Kyoo.Controllers.IUserRepository Pages: 1 -->
<svg width="186pt" height="408pt"
 viewBox="0.00 0.00 186.00 408.00" xmlns="http://www.w3.org/2000/svg" xmlns:xlink="http://www.w3.org/1999/xlink">
<g id="graph0" class="graph" transform="scale(1 1) rotate(0) translate(4 404)">
<title>Kyoo.Controllers.IUserRepository</title>
<polygon fill="white" stroke="transparent" points="-4,4 -4,-404 182,-404 182,4 -4,4"/>
<!-- Node1 -->
<g id="node1" class="node">
<title>Node1</title>
<g id="a_node1"><a xlink:title="A repository to handle users.">
<polygon fill="#bfbfbf" stroke="black" points="0,-138.5 0,-195.5 178,-195.5 178,-138.5 0,-138.5"/>
<text text-anchor="middle" x="89" y="-183.5" font-family="Helvetica,sans-Serif" font-size="10.00">Kyoo.Controllers.IUserRepository</text>
<polyline fill="none" stroke="black" points="0,-176.5 178,-176.5 "/>
<text text-anchor="middle" x="89" y="-164.5" font-family="Helvetica,sans-Serif" font-size="10.00"> </text>
<polyline fill="none" stroke="black" points="0,-157.5 178,-157.5 "/>
<text text-anchor="middle" x="89" y="-145.5" font-family="Helvetica,sans-Serif" font-size="10.00"> </text>
</a>
</g>
</g>
<!-- Node3 -->
<g id="node3" class="node">
<title>Node3</title>
<g id="a_node3"><a xlink:href="classKyoo_1_1Controllers_1_1UserRepository.html" target="_top" xlink:title="A repository for users.">
<polygon fill="white" stroke="black" points="1.5,-0.5 1.5,-101.5 176.5,-101.5 176.5,-0.5 1.5,-0.5"/>
<text text-anchor="middle" x="89" y="-89.5" font-family="Helvetica,sans-Serif" font-size="10.00">Kyoo.Controllers.UserRepository</text>
<polyline fill="none" stroke="black" points="1.5,-82.5 176.5,-82.5 "/>
<text text-anchor="start" x="9.5" y="-70.5" font-family="Helvetica,sans-Serif" font-size="10.00"># DefaultSort</text>
<text text-anchor="start" x="9.5" y="-59.5" font-family="Helvetica,sans-Serif" font-size="10.00">&#45; _database</text>
<polyline fill="none" stroke="black" points="1.5,-52.5 176.5,-52.5 "/>
<text text-anchor="start" x="9.5" y="-40.5" font-family="Helvetica,sans-Serif" font-size="10.00">+ UserRepository()</text>
<text text-anchor="start" x="9.5" y="-29.5" font-family="Helvetica,sans-Serif" font-size="10.00">+ Search()</text>
<text text-anchor="start" x="9.5" y="-18.5" font-family="Helvetica,sans-Serif" font-size="10.00">+ Create()</text>
<text text-anchor="start" x="9.5" y="-7.5" font-family="Helvetica,sans-Serif" font-size="10.00">+ Delete()</text>
</a>
</g>
</g>
<!-- Node1&#45;&gt;Node3 -->
<g id="edge2" class="edge">
<title>Node1&#45;&gt;Node3</title>
<path fill="none" stroke="midnightblue" d="M89,-128.35C89,-119.8 89,-110.58 89,-101.61"/>
<polygon fill="none" stroke="midnightblue" points="85.5,-128.4 89,-138.4 92.5,-128.4 85.5,-128.4"/>
</g>
<!-- Node2 -->
<g id="node2" class="node">
<title>Node2</title>
<g id="a_node2"><a xlink:href="interfaceKyoo_1_1Controllers_1_1IRepository.html" target="_top" xlink:title=" ">
<polygon fill="white" stroke="black" points="30.5,-232.5 30.5,-399.5 147.5,-399.5 147.5,-232.5 30.5,-232.5"/>
<text text-anchor="middle" x="89" y="-387.5" font-family="Helvetica,sans-Serif" font-size="10.00">IRepository&lt; User &gt;</text>
<polyline fill="none" stroke="black" points="30.5,-380.5 147.5,-380.5 "/>
<text text-anchor="middle" x="89" y="-368.5" font-family="Helvetica,sans-Serif" font-size="10.00"> </text>
<polyline fill="none" stroke="black" points="30.5,-361.5 147.5,-361.5 "/>
<text text-anchor="start" x="38.5" y="-349.5" font-family="Helvetica,sans-Serif" font-size="10.00">+ Get()</text>
<text text-anchor="start" x="38.5" y="-338.5" font-family="Helvetica,sans-Serif" font-size="10.00">+ Get()</text>
<text text-anchor="start" x="38.5" y="-327.5" font-family="Helvetica,sans-Serif" font-size="10.00">+ Get()</text>
<text text-anchor="start" x="38.5" y="-316.5" font-family="Helvetica,sans-Serif" font-size="10.00">+ GetOrDefault()</text>
<text text-anchor="start" x="38.5" y="-305.5" font-family="Helvetica,sans-Serif" font-size="10.00">+ GetOrDefault()</text>
<text text-anchor="start" x="38.5" y="-294.5" font-family="Helvetica,sans-Serif" font-size="10.00">+ GetOrDefault()</text>
<text text-anchor="start" x="38.5" y="-283.5" font-family="Helvetica,sans-Serif" font-size="10.00">+ Search()</text>
<text text-anchor="start" x="38.5" y="-272.5" font-family="Helvetica,sans-Serif" font-size="10.00">+ GetAll()</text>
<text text-anchor="start" x="38.5" y="-261.5" font-family="Helvetica,sans-Serif" font-size="10.00">+ GetAll()</text>
<text text-anchor="start" x="38.5" y="-250.5" font-family="Helvetica,sans-Serif" font-size="10.00">+ GetCount()</text>
<text text-anchor="start" x="38.5" y="-239.5" font-family="Helvetica,sans-Serif" font-size="10.00">and 13 more...</text>
</a>
</g>
</g>
<!-- Node2&#45;&gt;Node1 -->
<g id="edge1" class="edge">
<title>Node2&#45;&gt;Node1</title>
<path fill="none" stroke="midnightblue" d="M89,-222.36C89,-212.79 89,-203.68 89,-195.75"/>
<polygon fill="none" stroke="midnightblue" points="85.5,-222.48 89,-232.48 92.5,-222.48 85.5,-222.48"/>
</g>
</g>
</svg>
