<?xml version="1.0" encoding="UTF-8" standalone="no"?>
<!DOCTYPE svg PUBLIC "-//W3C//DTD SVG 1.1//EN"
 "http://www.w3.org/Graphics/SVG/1.1/DTD/svg11.dtd">
<!-- Generated by graphviz version 2.43.0 (0)
 -->
<!-- Title: Kyoo.Controllers.IPlugin Pages: 1 -->
<svg width="499pt" height="358pt"
 viewBox="0.00 0.00 498.50 358.00" xmlns="http://www.w3.org/2000/svg" xmlns:xlink="http://www.w3.org/1999/xlink">
<g id="graph0" class="graph" transform="scale(1 1) rotate(0) translate(4 354)">
<title>Kyoo.Controllers.IPlugin</title>
<polygon fill="white" stroke="transparent" points="-4,4 -4,-354 494.5,-354 494.5,4 -4,4"/>
<!-- Node1 -->
<g id="node1" class="node">
<title>Node1</title>
<g id="a_node1"><a xlink:title="A common interface used to discord plugins">
<polygon fill="#bfbfbf" stroke="black" points="203,-215.5 203,-349.5 336,-349.5 336,-215.5 203,-215.5"/>
<text text-anchor="middle" x="269.5" y="-337.5" font-family="Helvetica,sans-Serif" font-size="10.00">Kyoo.Controllers.IPlugin</text>
<polyline fill="none" stroke="black" points="203,-330.5 336,-330.5 "/>
<text text-anchor="start" x="211" y="-318.5" font-family="Helvetica,sans-Serif" font-size="10.00">+ Slug</text>
<text text-anchor="start" x="211" y="-307.5" font-family="Helvetica,sans-Serif" font-size="10.00">+ Name</text>
<text text-anchor="start" x="211" y="-296.5" font-family="Helvetica,sans-Serif" font-size="10.00">+ Description</text>
<text text-anchor="start" x="211" y="-285.5" font-family="Helvetica,sans-Serif" font-size="10.00">+ Provides</text>
<text text-anchor="start" x="211" y="-274.5" font-family="Helvetica,sans-Serif" font-size="10.00">+ ConditionalProvides</text>
<text text-anchor="start" x="211" y="-263.5" font-family="Helvetica,sans-Serif" font-size="10.00">+ Requires</text>
<polyline fill="none" stroke="black" points="203,-256.5 336,-256.5 "/>
<text text-anchor="start" x="211" y="-244.5" font-family="Helvetica,sans-Serif" font-size="10.00">+ Configure()</text>
<text text-anchor="start" x="211" y="-233.5" font-family="Helvetica,sans-Serif" font-size="10.00">+ ConfigureAspNet()</text>
<text text-anchor="start" x="211" y="-222.5" font-family="Helvetica,sans-Serif" font-size="10.00">+ Initialize()</text>
</a>
</g>
</g>
<!-- Node2 -->
<g id="node2" class="node">
<title>Node2</title>
<g id="a_node2"><a xlink:href="classKyoo_1_1Authentication_1_1AuthenticationModule.html" target="_top" xlink:title="A module that enable OpenID authentication for Kyoo.">
<polygon fill="white" stroke="black" points="0,-0.5 0,-178.5 189,-178.5 189,-0.5 0,-0.5"/>
<text text-anchor="start" x="8" y="-166.5" font-family="Helvetica,sans-Serif" font-size="10.00">Kyoo.Authentication.Authentication</text>
<text text-anchor="middle" x="94.5" y="-155.5" font-family="Helvetica,sans-Serif" font-size="10.00">Module</text>
<polyline fill="none" stroke="black" points="0,-148.5 189,-148.5 "/>
<text text-anchor="start" x="8" y="-136.5" font-family="Helvetica,sans-Serif" font-size="10.00">+ Slug</text>
<text text-anchor="start" x="8" y="-125.5" font-family="Helvetica,sans-Serif" font-size="10.00">+ Name</text>
<text text-anchor="start" x="8" y="-114.5" font-family="Helvetica,sans-Serif" font-size="10.00">+ Description</text>
<text text-anchor="start" x="8" y="-103.5" font-family="Helvetica,sans-Serif" font-size="10.00">+ Provides</text>
<text text-anchor="start" x="8" y="-92.5" font-family="Helvetica,sans-Serif" font-size="10.00">+ ConditionalProvides</text>
<text text-anchor="start" x="8" y="-81.5" font-family="Helvetica,sans-Serif" font-size="10.00">+ Requires</text>
<text text-anchor="start" x="8" y="-70.5" font-family="Helvetica,sans-Serif" font-size="10.00">&#45; _configuration</text>
<text text-anchor="start" x="8" y="-59.5" font-family="Helvetica,sans-Serif" font-size="10.00">&#45; _loggerFactory</text>
<text text-anchor="start" x="8" y="-48.5" font-family="Helvetica,sans-Serif" font-size="10.00">&#45; _environment</text>
<polyline fill="none" stroke="black" points="0,-41.5 189,-41.5 "/>
<text text-anchor="start" x="8" y="-29.5" font-family="Helvetica,sans-Serif" font-size="10.00">+ AuthenticationModule()</text>
<text text-anchor="start" x="8" y="-18.5" font-family="Helvetica,sans-Serif" font-size="10.00">+ Configure()</text>
<text text-anchor="start" x="8" y="-7.5" font-family="Helvetica,sans-Serif" font-size="10.00">+ ConfigureAspNet()</text>
</a>
</g>
</g>
<!-- Node1&#45;&gt;Node2 -->
<g id="edge1" class="edge">
<title>Node1&#45;&gt;Node2</title>
<path fill="none" stroke="midnightblue" d="M201.84,-207.65C193.09,-198.11 184.07,-188.26 175.14,-178.52"/>
<polygon fill="none" stroke="midnightblue" points="199.45,-210.22 208.78,-215.23 204.61,-205.5 199.45,-210.22"/>
</g>
<!-- Node3 -->
<g id="node3" class="node">
<title>Node3</title>
<g id="a_node3"><a xlink:href="classKyoo_1_1CoreModule.html" target="_top" xlink:title="The core module containing default implementations">
<polygon fill="white" stroke="black" points="207,-17 207,-162 332,-162 332,-17 207,-17"/>
<text text-anchor="middle" x="269.5" y="-150" font-family="Helvetica,sans-Serif" font-size="10.00">Kyoo.CoreModule</text>
<polyline fill="none" stroke="black" points="207,-143 332,-143 "/>
<text text-anchor="start" x="215" y="-131" font-family="Helvetica,sans-Serif" font-size="10.00">+ Slug</text>
<text text-anchor="start" x="215" y="-120" font-family="Helvetica,sans-Serif" font-size="10.00">+ Name</text>
<text text-anchor="start" x="215" y="-109" font-family="Helvetica,sans-Serif" font-size="10.00">+ Description</text>
<text text-anchor="start" x="215" y="-98" font-family="Helvetica,sans-Serif" font-size="10.00">+ Provides</text>
<text text-anchor="start" x="215" y="-87" font-family="Helvetica,sans-Serif" font-size="10.00">+ ConditionalProvides</text>
<text text-anchor="start" x="215" y="-76" font-family="Helvetica,sans-Serif" font-size="10.00">+ Requires</text>
<text text-anchor="start" x="215" y="-65" font-family="Helvetica,sans-Serif" font-size="10.00">&#45; _configuration</text>
<polyline fill="none" stroke="black" points="207,-58 332,-58 "/>
<text text-anchor="start" x="215" y="-46" font-family="Helvetica,sans-Serif" font-size="10.00">+ CoreModule()</text>
<text text-anchor="start" x="215" y="-35" font-family="Helvetica,sans-Serif" font-size="10.00">+ Configure()</text>
<text text-anchor="start" x="215" y="-24" font-family="Helvetica,sans-Serif" font-size="10.00">+ ConfigureAspNet()</text>
</a>
</g>
</g>
<!-- Node1&#45;&gt;Node3 -->
<g id="edge2" class="edge">
<title>Node1&#45;&gt;Node3</title>
<path fill="none" stroke="midnightblue" d="M269.5,-205.06C269.5,-190.91 269.5,-176.18 269.5,-162.19"/>
<polygon fill="none" stroke="midnightblue" points="266,-205.23 269.5,-215.23 273,-205.23 266,-205.23"/>
</g>
<!-- Node4 -->
<g id="node4" class="node">
<title>Node4</title>
<g id="a_node4"><a xlink:href="classKyoo_1_1Postgresql_1_1PostgresModule.html" target="_top" xlink:title="A module to add postgresql capacity to the app.">
<polygon fill="white" stroke="black" points="350.5,-6 350.5,-173 490.5,-173 490.5,-6 350.5,-6"/>
<text text-anchor="start" x="358.5" y="-161" font-family="Helvetica,sans-Serif" font-size="10.00">Kyoo.Postgresql.Postgres</text>
<text text-anchor="middle" x="420.5" y="-150" font-family="Helvetica,sans-Serif" font-size="10.00">Module</text>
<polyline fill="none" stroke="black" points="350.5,-143 490.5,-143 "/>
<text text-anchor="start" x="358.5" y="-131" font-family="Helvetica,sans-Serif" font-size="10.00">+ Slug</text>
<text text-anchor="start" x="358.5" y="-120" font-family="Helvetica,sans-Serif" font-size="10.00">+ Name</text>
<text text-anchor="start" x="358.5" y="-109" font-family="Helvetica,sans-Serif" font-size="10.00">+ Description</text>
<text text-anchor="start" x="358.5" y="-98" font-family="Helvetica,sans-Serif" font-size="10.00">+ Provides</text>
<text text-anchor="start" x="358.5" y="-87" font-family="Helvetica,sans-Serif" font-size="10.00">+ ConditionalProvides</text>
<text text-anchor="start" x="358.5" y="-76" font-family="Helvetica,sans-Serif" font-size="10.00">+ Requires</text>
<text text-anchor="start" x="358.5" y="-65" font-family="Helvetica,sans-Serif" font-size="10.00">&#45; _configuration</text>
<text text-anchor="start" x="358.5" y="-54" font-family="Helvetica,sans-Serif" font-size="10.00">&#45; _environment</text>
<polyline fill="none" stroke="black" points="350.5,-47 490.5,-47 "/>
<text text-anchor="start" x="358.5" y="-35" font-family="Helvetica,sans-Serif" font-size="10.00">+ PostgresModule()</text>
<text text-anchor="start" x="358.5" y="-24" font-family="Helvetica,sans-Serif" font-size="10.00">+ Configure()</text>
<text text-anchor="start" x="358.5" y="-13" font-family="Helvetica,sans-Serif" font-size="10.00">+ Initialize()</text>
</a>
</g>
</g>
<!-- Node1&#45;&gt;Node4 -->
<g id="edge3" class="edge">
<title>Node1&#45;&gt;Node4</title>
<path fill="none" stroke="midnightblue" d="M328.25,-207.19C337.07,-196.03 346.22,-184.46 355.17,-173.14"/>
<polygon fill="none" stroke="midnightblue" points="325.34,-205.22 321.89,-215.23 330.84,-209.56 325.34,-205.22"/>
</g>
</g>
</svg>
