<?xml version="1.0" encoding="UTF-8" standalone="no"?>
<!DOCTYPE svg PUBLIC "-//W3C//DTD SVG 1.1//EN"
 "http://www.w3.org/Graphics/SVG/1.1/DTD/svg11.dtd">
<!-- Generated by graphviz version 2.43.0 (0)
 -->
<!-- Title: Kyoo.Controllers.IRepository&lt; T &gt; Pages: 1 -->
<svg width="192pt" height="270pt"
 viewBox="0.00 0.00 192.00 270.00" xmlns="http://www.w3.org/2000/svg" xmlns:xlink="http://www.w3.org/1999/xlink">
<g id="graph0" class="graph" transform="scale(1 1) rotate(0) translate(4 266)">
<title>Kyoo.Controllers.IRepository&lt; T &gt;</title>
<polygon fill="white" stroke="transparent" points="-4,4 -4,-266 188,-266 188,4 -4,4"/>
<!-- Node1 -->
<g id="node1" class="node">
<title>Node1</title>
<g id="a_node1"><a xlink:title="A common repository for every resources.">
<polygon fill="#bfbfbf" stroke="black" points="0,-0.5 0,-167.5 184,-167.5 184,-0.5 0,-0.5"/>
<text text-anchor="middle" x="92" y="-155.5" font-family="Helvetica,sans-Serif" font-size="10.00">Kyoo.Controllers.IRepository&lt; T &gt;</text>
<polyline fill="none" stroke="black" points="0,-148.5 184,-148.5 "/>
<text text-anchor="middle" x="92" y="-136.5" font-family="Helvetica,sans-Serif" font-size="10.00"> </text>
<polyline fill="none" stroke="black" points="0,-129.5 184,-129.5 "/>
<text text-anchor="start" x="8" y="-117.5" font-family="Helvetica,sans-Serif" font-size="10.00">+ Get()</text>
<text text-anchor="start" x="8" y="-106.5" font-family="Helvetica,sans-Serif" font-size="10.00">+ Get()</text>
<text text-anchor="start" x="8" y="-95.5" font-family="Helvetica,sans-Serif" font-size="10.00">+ Get()</text>
<text text-anchor="start" x="8" y="-84.5" font-family="Helvetica,sans-Serif" font-size="10.00">+ GetOrDefault()</text>
<text text-anchor="start" x="8" y="-73.5" font-family="Helvetica,sans-Serif" font-size="10.00">+ GetOrDefault()</text>
<text text-anchor="start" x="8" y="-62.5" font-family="Helvetica,sans-Serif" font-size="10.00">+ GetOrDefault()</text>
<text text-anchor="start" x="8" y="-51.5" font-family="Helvetica,sans-Serif" font-size="10.00">+ Search()</text>
<text text-anchor="start" x="8" y="-40.5" font-family="Helvetica,sans-Serif" font-size="10.00">+ GetAll()</text>
<text text-anchor="start" x="8" y="-29.5" font-family="Helvetica,sans-Serif" font-size="10.00">+ GetAll()</text>
<text text-anchor="start" x="8" y="-18.5" font-family="Helvetica,sans-Serif" font-size="10.00">+ GetCount()</text>
<text text-anchor="start" x="8" y="-7.5" font-family="Helvetica,sans-Serif" font-size="10.00">and 13 more...</text>
</a>
</g>
</g>
<!-- Node2 -->
<g id="node2" class="node">
<title>Node2</title>
<g id="a_node2"><a xlink:href="interfaceKyoo_1_1Controllers_1_1IBaseRepository.html" target="_top" xlink:title="A base class for repositories. Every service implementing this will be handled by the LibraryManager.">
<polygon fill="white" stroke="black" points="40.5,-204.5 40.5,-261.5 143.5,-261.5 143.5,-204.5 40.5,-204.5"/>
<text text-anchor="middle" x="92" y="-249.5" font-family="Helvetica,sans-Serif" font-size="10.00">IBaseRepository</text>
<polyline fill="none" stroke="black" points="40.5,-242.5 143.5,-242.5 "/>
<text text-anchor="start" x="48.5" y="-230.5" font-family="Helvetica,sans-Serif" font-size="10.00">+ RepositoryType</text>
<polyline fill="none" stroke="black" points="40.5,-223.5 143.5,-223.5 "/>
<text text-anchor="middle" x="92" y="-211.5" font-family="Helvetica,sans-Serif" font-size="10.00"> </text>
</a>
</g>
</g>
<!-- Node2&#45;&gt;Node1 -->
<g id="edge1" class="edge">
<title>Node2&#45;&gt;Node1</title>
<path fill="none" stroke="midnightblue" d="M92,-194.35C92,-186.08 92,-177.01 92,-167.74"/>
<polygon fill="none" stroke="midnightblue" points="88.5,-194.35 92,-204.35 95.5,-194.35 88.5,-194.35"/>
</g>
</g>
</svg>
