<?xml version="1.0" encoding="UTF-8" standalone="no"?>
<!DOCTYPE svg PUBLIC "-//W3C//DTD SVG 1.1//EN"
 "http://www.w3.org/Graphics/SVG/1.1/DTD/svg11.dtd">
<!-- Generated by graphviz version 2.43.0 (0)
 -->
<!-- Title: Kyoo.Controllers.IProviderRepository Pages: 1 -->
<svg width="151pt" height="292pt"
 viewBox="0.00 0.00 151.00 292.00" xmlns="http://www.w3.org/2000/svg" xmlns:xlink="http://www.w3.org/1999/xlink">
<g id="graph0" class="graph" transform="scale(1 1) rotate(0) translate(4 288)">
<title>Kyoo.Controllers.IProviderRepository</title>
<polygon fill="white" stroke="transparent" points="-4,4 -4,-288 147,-288 147,4 -4,4"/>
<!-- Node1 -->
<g id="node1" class="node">
<title>Node1</title>
<g id="a_node1"><a xlink:title="A repository to handle providers.">
<polygon fill="#bfbfbf" stroke="black" points="0,-0.5 0,-79.5 143,-79.5 143,-0.5 0,-0.5"/>
<text text-anchor="start" x="8" y="-67.5" font-family="Helvetica,sans-Serif" font-size="10.00">Kyoo.Controllers.IProvider</text>
<text text-anchor="middle" x="71.5" y="-56.5" font-family="Helvetica,sans-Serif" font-size="10.00">Repository</text>
<polyline fill="none" stroke="black" points="0,-49.5 143,-49.5 "/>
<text text-anchor="middle" x="71.5" y="-37.5" font-family="Helvetica,sans-Serif" font-size="10.00"> </text>
<polyline fill="none" stroke="black" points="0,-30.5 143,-30.5 "/>
<text text-anchor="start" x="8" y="-18.5" font-family="Helvetica,sans-Serif" font-size="10.00">+ GetMetadataID()</text>
<text text-anchor="start" x="8" y="-7.5" font-family="Helvetica,sans-Serif" font-size="10.00">+ GetMetadataID()</text>
</a>
</g>
</g>
<!-- Node2 -->
<g id="node2" class="node">
<title>Node2</title>
<g id="a_node2"><a xlink:href="interfaceKyoo_1_1Controllers_1_1IRepository.html" target="_top" xlink:title=" ">
<polygon fill="white" stroke="black" points="4,-116.5 4,-283.5 139,-283.5 139,-116.5 4,-116.5"/>
<text text-anchor="middle" x="71.5" y="-271.5" font-family="Helvetica,sans-Serif" font-size="10.00">IRepository&lt; Provider &gt;</text>
<polyline fill="none" stroke="black" points="4,-264.5 139,-264.5 "/>
<text text-anchor="middle" x="71.5" y="-252.5" font-family="Helvetica,sans-Serif" font-size="10.00"> </text>
<polyline fill="none" stroke="black" points="4,-245.5 139,-245.5 "/>
<text text-anchor="start" x="12" y="-233.5" font-family="Helvetica,sans-Serif" font-size="10.00">+ Get()</text>
<text text-anchor="start" x="12" y="-222.5" font-family="Helvetica,sans-Serif" font-size="10.00">+ Get()</text>
<text text-anchor="start" x="12" y="-211.5" font-family="Helvetica,sans-Serif" font-size="10.00">+ Get()</text>
<text text-anchor="start" x="12" y="-200.5" font-family="Helvetica,sans-Serif" font-size="10.00">+ GetOrDefault()</text>
<text text-anchor="start" x="12" y="-189.5" font-family="Helvetica,sans-Serif" font-size="10.00">+ GetOrDefault()</text>
<text text-anchor="start" x="12" y="-178.5" font-family="Helvetica,sans-Serif" font-size="10.00">+ GetOrDefault()</text>
<text text-anchor="start" x="12" y="-167.5" font-family="Helvetica,sans-Serif" font-size="10.00">+ Search()</text>
<text text-anchor="start" x="12" y="-156.5" font-family="Helvetica,sans-Serif" font-size="10.00">+ GetAll()</text>
<text text-anchor="start" x="12" y="-145.5" font-family="Helvetica,sans-Serif" font-size="10.00">+ GetAll()</text>
<text text-anchor="start" x="12" y="-134.5" font-family="Helvetica,sans-Serif" font-size="10.00">+ GetCount()</text>
<text text-anchor="start" x="12" y="-123.5" font-family="Helvetica,sans-Serif" font-size="10.00">and 13 more...</text>
</a>
</g>
</g>
<!-- Node2&#45;&gt;Node1 -->
<g id="edge1" class="edge">
<title>Node2&#45;&gt;Node1</title>
<path fill="none" stroke="midnightblue" d="M71.5,-106.12C71.5,-96.81 71.5,-87.76 71.5,-79.52"/>
<polygon fill="none" stroke="midnightblue" points="68,-106.3 71.5,-116.3 75,-106.3 68,-106.3"/>
</g>
</g>
</svg>
