<?xml version="1.0" encoding="UTF-8" standalone="no"?>
<!DOCTYPE svg PUBLIC "-//W3C//DTD SVG 1.1//EN"
 "http://www.w3.org/Graphics/SVG/1.1/DTD/svg11.dtd">
<!-- Generated by graphviz version 2.43.0 (0)
 -->
<!-- Title: Kyoo.Models.IResource Pages: 1 -->
<svg width="1782pt" height="325pt"
 viewBox="0.00 0.00 1781.50 325.00" xmlns="http://www.w3.org/2000/svg" xmlns:xlink="http://www.w3.org/1999/xlink">
<g id="graph0" class="graph" transform="scale(1 1) rotate(0) translate(4 321)">
<title>Kyoo.Models.IResource</title>
<polygon fill="white" stroke="transparent" points="-4,4 -4,-321 1777.5,-321 1777.5,4 -4,4"/>
<!-- Node1 -->
<g id="node1" class="node">
<title>Node1</title>
<g id="a_node1"><a xlink:title="An interface to represent a resource that can be retrieved from the database.">
<polygon fill="#bfbfbf" stroke="black" points="844.5,-248.5 844.5,-316.5 974.5,-316.5 974.5,-248.5 844.5,-248.5"/>
<text text-anchor="middle" x="909.5" y="-304.5" font-family="Helvetica,sans-Serif" font-size="10.00">Kyoo.Models.IResource</text>
<polyline fill="none" stroke="black" points="844.5,-297.5 974.5,-297.5 "/>
<text text-anchor="start" x="852.5" y="-285.5" font-family="Helvetica,sans-Serif" font-size="10.00">+ ID</text>
<text text-anchor="start" x="852.5" y="-274.5" font-family="Helvetica,sans-Serif" font-size="10.00">+ Slug</text>
<polyline fill="none" stroke="black" points="844.5,-267.5 974.5,-267.5 "/>
<text text-anchor="middle" x="909.5" y="-255.5" font-family="Helvetica,sans-Serif" font-size="10.00"> </text>
</a>
</g>
</g>
<!-- Node2 -->
<g id="node2" class="node">
<title>Node2</title>
<g id="a_node2"><a xlink:href="classKyoo_1_1Models_1_1Collection.html" target="_top" xlink:title=" ">
<polygon fill="white" stroke="black" points="0,-39 0,-173 131,-173 131,-39 0,-39"/>
<text text-anchor="middle" x="65.5" y="-161" font-family="Helvetica,sans-Serif" font-size="10.00">Kyoo.Models.Collection</text>
<polyline fill="none" stroke="black" points="0,-154 131,-154 "/>
<text text-anchor="start" x="8" y="-142" font-family="Helvetica,sans-Serif" font-size="10.00">+ ID</text>
<text text-anchor="start" x="8" y="-131" font-family="Helvetica,sans-Serif" font-size="10.00">+ Slug</text>
<text text-anchor="start" x="8" y="-120" font-family="Helvetica,sans-Serif" font-size="10.00">+ Name</text>
<text text-anchor="start" x="8" y="-109" font-family="Helvetica,sans-Serif" font-size="10.00">+ Poster</text>
<text text-anchor="start" x="8" y="-98" font-family="Helvetica,sans-Serif" font-size="10.00">+ Overview</text>
<text text-anchor="start" x="8" y="-87" font-family="Helvetica,sans-Serif" font-size="10.00">+ Shows</text>
<text text-anchor="start" x="8" y="-76" font-family="Helvetica,sans-Serif" font-size="10.00">+ Libraries</text>
<polyline fill="none" stroke="black" points="0,-69 131,-69 "/>
<text text-anchor="start" x="8" y="-57" font-family="Helvetica,sans-Serif" font-size="10.00">+ Collection()</text>
<text text-anchor="start" x="8" y="-46" font-family="Helvetica,sans-Serif" font-size="10.00">+ Collection()</text>
</a>
</g>
</g>
<!-- Node1&#45;&gt;Node2 -->
<g id="edge1" class="edge">
<title>Node1&#45;&gt;Node2</title>
<path fill="none" stroke="midnightblue" d="M834.27,-278.26C652.46,-269.92 199.79,-245.97 140.5,-212 124.27,-202.7 110.65,-188.3 99.66,-173.11"/>
<polygon fill="none" stroke="midnightblue" points="834.13,-281.75 844.28,-278.71 834.45,-274.76 834.13,-281.75"/>
</g>
<!-- Node3 -->
<g id="node3" class="node">
<title>Node3</title>
<g id="a_node3"><a xlink:href="classKyoo_1_1Models_1_1Episode.html" target="_top" xlink:title=" ">
<polygon fill="white" stroke="black" points="149.5,-11.5 149.5,-200.5 269.5,-200.5 269.5,-11.5 149.5,-11.5"/>
<text text-anchor="middle" x="209.5" y="-188.5" font-family="Helvetica,sans-Serif" font-size="10.00">Kyoo.Models.Episode</text>
<polyline fill="none" stroke="black" points="149.5,-181.5 269.5,-181.5 "/>
<text text-anchor="start" x="157.5" y="-169.5" font-family="Helvetica,sans-Serif" font-size="10.00">+ Slug</text>
<text text-anchor="start" x="157.5" y="-158.5" font-family="Helvetica,sans-Serif" font-size="10.00">+ ID</text>
<text text-anchor="start" x="157.5" y="-147.5" font-family="Helvetica,sans-Serif" font-size="10.00">+ ShowSlug</text>
<text text-anchor="start" x="157.5" y="-136.5" font-family="Helvetica,sans-Serif" font-size="10.00">+ ShowID</text>
<text text-anchor="start" x="157.5" y="-125.5" font-family="Helvetica,sans-Serif" font-size="10.00">+ Show</text>
<text text-anchor="start" x="157.5" y="-114.5" font-family="Helvetica,sans-Serif" font-size="10.00">+ SeasonID</text>
<text text-anchor="start" x="157.5" y="-103.5" font-family="Helvetica,sans-Serif" font-size="10.00">+ Season</text>
<text text-anchor="start" x="157.5" y="-92.5" font-family="Helvetica,sans-Serif" font-size="10.00">+ SeasonNumber</text>
<text text-anchor="start" x="157.5" y="-81.5" font-family="Helvetica,sans-Serif" font-size="10.00">+ EpisodeNumber</text>
<text text-anchor="start" x="157.5" y="-70.5" font-family="Helvetica,sans-Serif" font-size="10.00">+ AbsoluteNumber</text>
<text text-anchor="start" x="157.5" y="-59.5" font-family="Helvetica,sans-Serif" font-size="10.00">+ Path</text>
<text text-anchor="start" x="157.5" y="-48.5" font-family="Helvetica,sans-Serif" font-size="10.00">and 7 more...</text>
<polyline fill="none" stroke="black" points="149.5,-41.5 269.5,-41.5 "/>
<text text-anchor="start" x="157.5" y="-29.5" font-family="Helvetica,sans-Serif" font-size="10.00">+ OnMerge()</text>
<text text-anchor="start" x="157.5" y="-18.5" font-family="Helvetica,sans-Serif" font-size="10.00">+ GetSlug()</text>
</a>
</g>
</g>
<!-- Node1&#45;&gt;Node3 -->
<g id="edge2" class="edge">
<title>Node1&#45;&gt;Node3</title>
<path fill="none" stroke="midnightblue" d="M834.03,-281.09C687.31,-279.04 369.99,-268.04 278.5,-212 273.29,-208.81 268.4,-205.06 263.81,-200.92"/>
<polygon fill="none" stroke="midnightblue" points="834.25,-284.6 844.29,-281.23 834.34,-277.6 834.25,-284.6"/>
</g>
<!-- Node4 -->
<g id="node4" class="node">
<title>Node4</title>
<g id="a_node4"><a xlink:href="classKyoo_1_1Models_1_1Genre.html" target="_top" xlink:title=" ">
<polygon fill="white" stroke="black" points="288,-44.5 288,-167.5 399,-167.5 399,-44.5 288,-44.5"/>
<text text-anchor="middle" x="343.5" y="-155.5" font-family="Helvetica,sans-Serif" font-size="10.00">Kyoo.Models.Genre</text>
<polyline fill="none" stroke="black" points="288,-148.5 399,-148.5 "/>
<text text-anchor="start" x="296" y="-136.5" font-family="Helvetica,sans-Serif" font-size="10.00">+ ID</text>
<text text-anchor="start" x="296" y="-125.5" font-family="Helvetica,sans-Serif" font-size="10.00">+ Slug</text>
<text text-anchor="start" x="296" y="-114.5" font-family="Helvetica,sans-Serif" font-size="10.00">+ Name</text>
<text text-anchor="start" x="296" y="-103.5" font-family="Helvetica,sans-Serif" font-size="10.00">+ Shows</text>
<polyline fill="none" stroke="black" points="288,-96.5 399,-96.5 "/>
<text text-anchor="start" x="296" y="-84.5" font-family="Helvetica,sans-Serif" font-size="10.00">+ Genre()</text>
<text text-anchor="start" x="296" y="-73.5" font-family="Helvetica,sans-Serif" font-size="10.00">+ Genre()</text>
<text text-anchor="start" x="296" y="-62.5" font-family="Helvetica,sans-Serif" font-size="10.00">+ Genre()</text>
<text text-anchor="start" x="296" y="-51.5" font-family="Helvetica,sans-Serif" font-size="10.00">+ Genre()</text>
</a>
</g>
</g>
<!-- Node1&#45;&gt;Node4 -->
<g id="edge3" class="edge">
<title>Node1&#45;&gt;Node4</title>
<path fill="none" stroke="midnightblue" d="M834.44,-278.82C712.29,-273.19 477.21,-256.74 408.5,-212 391.88,-201.18 378.79,-184.47 368.84,-167.54"/>
<polygon fill="none" stroke="midnightblue" points="834.32,-282.31 844.46,-279.27 834.63,-275.32 834.32,-282.31"/>
</g>
<!-- Node5 -->
<g id="node5" class="node">
<title>Node5</title>
<g id="a_node5"><a xlink:href="classKyoo_1_1Models_1_1Library.html" target="_top" xlink:title=" ">
<polygon fill="white" stroke="black" points="417.5,-44.5 417.5,-167.5 533.5,-167.5 533.5,-44.5 417.5,-44.5"/>
<text text-anchor="middle" x="475.5" y="-155.5" font-family="Helvetica,sans-Serif" font-size="10.00">Kyoo.Models.Library</text>
<polyline fill="none" stroke="black" points="417.5,-148.5 533.5,-148.5 "/>
<text text-anchor="start" x="425.5" y="-136.5" font-family="Helvetica,sans-Serif" font-size="10.00">+ ID</text>
<text text-anchor="start" x="425.5" y="-125.5" font-family="Helvetica,sans-Serif" font-size="10.00">+ Slug</text>
<text text-anchor="start" x="425.5" y="-114.5" font-family="Helvetica,sans-Serif" font-size="10.00">+ Name</text>
<text text-anchor="start" x="425.5" y="-103.5" font-family="Helvetica,sans-Serif" font-size="10.00">+ Paths</text>
<text text-anchor="start" x="425.5" y="-92.5" font-family="Helvetica,sans-Serif" font-size="10.00">+ Providers</text>
<text text-anchor="start" x="425.5" y="-81.5" font-family="Helvetica,sans-Serif" font-size="10.00">+ Shows</text>
<text text-anchor="start" x="425.5" y="-70.5" font-family="Helvetica,sans-Serif" font-size="10.00">+ Collections</text>
<polyline fill="none" stroke="black" points="417.5,-63.5 533.5,-63.5 "/>
<text text-anchor="middle" x="475.5" y="-51.5" font-family="Helvetica,sans-Serif" font-size="10.00"> </text>
</a>
</g>
</g>
<!-- Node1&#45;&gt;Node5 -->
<g id="edge4" class="edge">
<title>Node1&#45;&gt;Node5</title>
<path fill="none" stroke="midnightblue" d="M834.23,-274.32C741.09,-264.25 589.09,-243.53 542.5,-212 526.11,-200.91 512.88,-184.33 502.64,-167.61"/>
<polygon fill="none" stroke="midnightblue" points="834.13,-277.83 844.45,-275.41 834.88,-270.87 834.13,-277.83"/>
</g>
<!-- Node6 -->
<g id="node6" class="node">
<title>Node6</title>
<g id="a_node6"><a xlink:href="classKyoo_1_1Models_1_1LibraryItem.html" target="_top" xlink:title=" ">
<polygon fill="white" stroke="black" points="551.5,-0.5 551.5,-211.5 689.5,-211.5 689.5,-0.5 551.5,-0.5"/>
<text text-anchor="middle" x="620.5" y="-199.5" font-family="Helvetica,sans-Serif" font-size="10.00">Kyoo.Models.LibraryItem</text>
<polyline fill="none" stroke="black" points="551.5,-192.5 689.5,-192.5 "/>
<text text-anchor="start" x="559.5" y="-180.5" font-family="Helvetica,sans-Serif" font-size="10.00">+ FromShow</text>
<text text-anchor="start" x="559.5" y="-169.5" font-family="Helvetica,sans-Serif" font-size="10.00">+ FromCollection</text>
<text text-anchor="start" x="559.5" y="-158.5" font-family="Helvetica,sans-Serif" font-size="10.00">+ ID</text>
<text text-anchor="start" x="559.5" y="-147.5" font-family="Helvetica,sans-Serif" font-size="10.00">+ Slug</text>
<text text-anchor="start" x="559.5" y="-136.5" font-family="Helvetica,sans-Serif" font-size="10.00">+ Title</text>
<text text-anchor="start" x="559.5" y="-125.5" font-family="Helvetica,sans-Serif" font-size="10.00">+ Overview</text>
<text text-anchor="start" x="559.5" y="-114.5" font-family="Helvetica,sans-Serif" font-size="10.00">+ Status</text>
<text text-anchor="start" x="559.5" y="-103.5" font-family="Helvetica,sans-Serif" font-size="10.00">+ TrailerUrl</text>
<text text-anchor="start" x="559.5" y="-92.5" font-family="Helvetica,sans-Serif" font-size="10.00">+ StartYear</text>
<text text-anchor="start" x="559.5" y="-81.5" font-family="Helvetica,sans-Serif" font-size="10.00">+ EndYear</text>
<text text-anchor="start" x="559.5" y="-70.5" font-family="Helvetica,sans-Serif" font-size="10.00">+ Poster</text>
<text text-anchor="start" x="559.5" y="-59.5" font-family="Helvetica,sans-Serif" font-size="10.00">+ Type</text>
<text text-anchor="start" x="559.5" y="-48.5" font-family="Helvetica,sans-Serif" font-size="10.00">&#45; _type</text>
<polyline fill="none" stroke="black" points="551.5,-41.5 689.5,-41.5 "/>
<text text-anchor="start" x="559.5" y="-29.5" font-family="Helvetica,sans-Serif" font-size="10.00">+ LibraryItem()</text>
<text text-anchor="start" x="559.5" y="-18.5" font-family="Helvetica,sans-Serif" font-size="10.00">+ LibraryItem()</text>
<text text-anchor="start" x="559.5" y="-7.5" font-family="Helvetica,sans-Serif" font-size="10.00">+ LibraryItem()</text>
</a>
</g>
</g>
<!-- Node1&#45;&gt;Node6 -->
<g id="edge5" class="edge">
<title>Node1&#45;&gt;Node6</title>
<path fill="none" stroke="midnightblue" d="M834.52,-268.53C791.69,-258.39 738.69,-241 698.5,-212 695.46,-209.81 692.49,-207.46 689.59,-204.99"/>
<polygon fill="none" stroke="midnightblue" points="833.8,-271.96 844.33,-270.77 835.36,-265.13 833.8,-271.96"/>
</g>
<!-- Node7 -->
<g id="node7" class="node">
<title>Node7</title>
<g id="a_node7"><a xlink:href="classKyoo_1_1Models_1_1People.html" target="_top" xlink:title=" ">
<polygon fill="white" stroke="black" points="708,-50 708,-162 823,-162 823,-50 708,-50"/>
<text text-anchor="middle" x="765.5" y="-150" font-family="Helvetica,sans-Serif" font-size="10.00">Kyoo.Models.People</text>
<polyline fill="none" stroke="black" points="708,-143 823,-143 "/>
<text text-anchor="start" x="716" y="-131" font-family="Helvetica,sans-Serif" font-size="10.00">+ ID</text>
<text text-anchor="start" x="716" y="-120" font-family="Helvetica,sans-Serif" font-size="10.00">+ Slug</text>
<text text-anchor="start" x="716" y="-109" font-family="Helvetica,sans-Serif" font-size="10.00">+ Name</text>
<text text-anchor="start" x="716" y="-98" font-family="Helvetica,sans-Serif" font-size="10.00">+ Poster</text>
<text text-anchor="start" x="716" y="-87" font-family="Helvetica,sans-Serif" font-size="10.00">+ ExternalIDs</text>
<text text-anchor="start" x="716" y="-76" font-family="Helvetica,sans-Serif" font-size="10.00">+ Roles</text>
<polyline fill="none" stroke="black" points="708,-69 823,-69 "/>
<text text-anchor="middle" x="765.5" y="-57" font-family="Helvetica,sans-Serif" font-size="10.00"> </text>
</a>
</g>
</g>
<!-- Node1&#45;&gt;Node7 -->
<g id="edge6" class="edge">
<title>Node1&#45;&gt;Node7</title>
<path fill="none" stroke="midnightblue" d="M860.15,-241.35C850.15,-232.19 840.09,-222.15 831.5,-212 818.64,-196.79 806.45,-178.87 796.14,-162.17"/>
<polygon fill="none" stroke="midnightblue" points="857.97,-244.09 867.75,-248.16 862.64,-238.88 857.97,-244.09"/>
</g>
<!-- Node8 -->
<g id="node8" class="node">
<title>Node8</title>
<g id="a_node8"><a xlink:href="classKyoo_1_1Models_1_1PeopleRole.html" target="_top" xlink:title=" ">
<polygon fill="white" stroke="black" points="841,-33.5 841,-178.5 978,-178.5 978,-33.5 841,-33.5"/>
<text text-anchor="middle" x="909.5" y="-166.5" font-family="Helvetica,sans-Serif" font-size="10.00">Kyoo.Models.PeopleRole</text>
<polyline fill="none" stroke="black" points="841,-159.5 978,-159.5 "/>
<text text-anchor="start" x="849" y="-147.5" font-family="Helvetica,sans-Serif" font-size="10.00">+ Slug</text>
<text text-anchor="start" x="849" y="-136.5" font-family="Helvetica,sans-Serif" font-size="10.00">+ ForPeople</text>
<text text-anchor="start" x="849" y="-125.5" font-family="Helvetica,sans-Serif" font-size="10.00">+ ID</text>
<text text-anchor="start" x="849" y="-114.5" font-family="Helvetica,sans-Serif" font-size="10.00">+ PeopleID</text>
<text text-anchor="start" x="849" y="-103.5" font-family="Helvetica,sans-Serif" font-size="10.00">+ People</text>
<text text-anchor="start" x="849" y="-92.5" font-family="Helvetica,sans-Serif" font-size="10.00">+ ShowID</text>
<text text-anchor="start" x="849" y="-81.5" font-family="Helvetica,sans-Serif" font-size="10.00">+ Show</text>
<text text-anchor="start" x="849" y="-70.5" font-family="Helvetica,sans-Serif" font-size="10.00">+ Role</text>
<text text-anchor="start" x="849" y="-59.5" font-family="Helvetica,sans-Serif" font-size="10.00">+ Type</text>
<polyline fill="none" stroke="black" points="841,-52.5 978,-52.5 "/>
<text text-anchor="middle" x="909.5" y="-40.5" font-family="Helvetica,sans-Serif" font-size="10.00"> </text>
</a>
</g>
</g>
<!-- Node1&#45;&gt;Node8 -->
<g id="edge7" class="edge">
<title>Node1&#45;&gt;Node8</title>
<path fill="none" stroke="midnightblue" d="M909.5,-238.13C909.5,-220.19 909.5,-198.91 909.5,-178.77"/>
<polygon fill="none" stroke="midnightblue" points="906,-238.27 909.5,-248.27 913,-238.27 906,-238.27"/>
</g>
<!-- Node9 -->
<g id="node9" class="node">
<title>Node9</title>
<g id="a_node9"><a xlink:href="classKyoo_1_1Models_1_1Provider.html" target="_top" xlink:title=" ">
<polygon fill="white" stroke="black" points="996.5,-39 996.5,-173 1118.5,-173 1118.5,-39 996.5,-39"/>
<text text-anchor="middle" x="1057.5" y="-161" font-family="Helvetica,sans-Serif" font-size="10.00">Kyoo.Models.Provider</text>
<polyline fill="none" stroke="black" points="996.5,-154 1118.5,-154 "/>
<text text-anchor="start" x="1004.5" y="-142" font-family="Helvetica,sans-Serif" font-size="10.00">+ ID</text>
<text text-anchor="start" x="1004.5" y="-131" font-family="Helvetica,sans-Serif" font-size="10.00">+ Slug</text>
<text text-anchor="start" x="1004.5" y="-120" font-family="Helvetica,sans-Serif" font-size="10.00">+ Name</text>
<text text-anchor="start" x="1004.5" y="-109" font-family="Helvetica,sans-Serif" font-size="10.00">+ Logo</text>
<text text-anchor="start" x="1004.5" y="-98" font-family="Helvetica,sans-Serif" font-size="10.00">+ LogoExtension</text>
<text text-anchor="start" x="1004.5" y="-87" font-family="Helvetica,sans-Serif" font-size="10.00">+ Libraries</text>
<polyline fill="none" stroke="black" points="996.5,-80 1118.5,-80 "/>
<text text-anchor="start" x="1004.5" y="-68" font-family="Helvetica,sans-Serif" font-size="10.00">+ Provider()</text>
<text text-anchor="start" x="1004.5" y="-57" font-family="Helvetica,sans-Serif" font-size="10.00">+ Provider()</text>
<text text-anchor="start" x="1004.5" y="-46" font-family="Helvetica,sans-Serif" font-size="10.00">+ Provider()</text>
</a>
</g>
</g>
<!-- Node1&#45;&gt;Node9 -->
<g id="edge8" class="edge">
<title>Node1&#45;&gt;Node9</title>
<path fill="none" stroke="midnightblue" d="M958.32,-241.47C968.43,-232.24 978.68,-222.15 987.5,-212 997.92,-200.01 1008.05,-186.39 1017.22,-173.03"/>
<polygon fill="none" stroke="midnightblue" points="955.76,-239.06 950.64,-248.34 960.43,-244.28 955.76,-239.06"/>
</g>
<!-- Node10 -->
<g id="node10" class="node">
<title>Node10</title>
<g id="a_node10"><a xlink:href="classKyoo_1_1Models_1_1Season.html" target="_top" xlink:title=" ">
<polygon fill="white" stroke="black" points="1137,-17 1137,-195 1254,-195 1254,-17 1137,-17"/>
<text text-anchor="middle" x="1195.5" y="-183" font-family="Helvetica,sans-Serif" font-size="10.00">Kyoo.Models.Season</text>
<polyline fill="none" stroke="black" points="1137,-176 1254,-176 "/>
<text text-anchor="start" x="1145" y="-164" font-family="Helvetica,sans-Serif" font-size="10.00">+ Slug</text>
<text text-anchor="start" x="1145" y="-153" font-family="Helvetica,sans-Serif" font-size="10.00">+ ID</text>
<text text-anchor="start" x="1145" y="-142" font-family="Helvetica,sans-Serif" font-size="10.00">+ ShowID</text>
<text text-anchor="start" x="1145" y="-131" font-family="Helvetica,sans-Serif" font-size="10.00">+ ShowSlug</text>
<text text-anchor="start" x="1145" y="-120" font-family="Helvetica,sans-Serif" font-size="10.00">+ Show</text>
<text text-anchor="start" x="1145" y="-109" font-family="Helvetica,sans-Serif" font-size="10.00">+ SeasonNumber</text>
<text text-anchor="start" x="1145" y="-98" font-family="Helvetica,sans-Serif" font-size="10.00">+ Title</text>
<text text-anchor="start" x="1145" y="-87" font-family="Helvetica,sans-Serif" font-size="10.00">+ Overview</text>
<text text-anchor="start" x="1145" y="-76" font-family="Helvetica,sans-Serif" font-size="10.00">+ Year</text>
<text text-anchor="start" x="1145" y="-65" font-family="Helvetica,sans-Serif" font-size="10.00">+ Poster</text>
<text text-anchor="start" x="1145" y="-54" font-family="Helvetica,sans-Serif" font-size="10.00">+ ExternalIDs</text>
<text text-anchor="start" x="1145" y="-43" font-family="Helvetica,sans-Serif" font-size="10.00">+ Episodes</text>
<polyline fill="none" stroke="black" points="1137,-36 1254,-36 "/>
<text text-anchor="middle" x="1195.5" y="-24" font-family="Helvetica,sans-Serif" font-size="10.00"> </text>
</a>
</g>
</g>
<!-- Node1&#45;&gt;Node10 -->
<g id="edge9" class="edge">
<title>Node1&#45;&gt;Node10</title>
<path fill="none" stroke="midnightblue" d="M984.52,-270.69C1029.56,-261.2 1085.97,-243.72 1127.5,-212 1133.89,-207.12 1139.85,-201.46 1145.37,-195.34"/>
<polygon fill="none" stroke="midnightblue" points="983.62,-267.3 974.51,-272.71 985.01,-274.16 983.62,-267.3"/>
</g>
<!-- Node11 -->
<g id="node11" class="node">
<title>Node11</title>
<g id="a_node11"><a xlink:href="classKyoo_1_1Models_1_1Show.html" target="_top" xlink:title=" ">
<polygon fill="white" stroke="black" points="1272.5,-17 1272.5,-195 1380.5,-195 1380.5,-17 1272.5,-17"/>
<text text-anchor="middle" x="1326.5" y="-183" font-family="Helvetica,sans-Serif" font-size="10.00">Kyoo.Models.Show</text>
<polyline fill="none" stroke="black" points="1272.5,-176 1380.5,-176 "/>
<text text-anchor="start" x="1280.5" y="-164" font-family="Helvetica,sans-Serif" font-size="10.00">+ ID</text>
<text text-anchor="start" x="1280.5" y="-153" font-family="Helvetica,sans-Serif" font-size="10.00">+ Slug</text>
<text text-anchor="start" x="1280.5" y="-142" font-family="Helvetica,sans-Serif" font-size="10.00">+ Title</text>
<text text-anchor="start" x="1280.5" y="-131" font-family="Helvetica,sans-Serif" font-size="10.00">+ Aliases</text>
<text text-anchor="start" x="1280.5" y="-120" font-family="Helvetica,sans-Serif" font-size="10.00">+ Path</text>
<text text-anchor="start" x="1280.5" y="-109" font-family="Helvetica,sans-Serif" font-size="10.00">+ Overview</text>
<text text-anchor="start" x="1280.5" y="-98" font-family="Helvetica,sans-Serif" font-size="10.00">+ Status</text>
<text text-anchor="start" x="1280.5" y="-87" font-family="Helvetica,sans-Serif" font-size="10.00">+ TrailerUrl</text>
<text text-anchor="start" x="1280.5" y="-76" font-family="Helvetica,sans-Serif" font-size="10.00">+ StartYear</text>
<text text-anchor="start" x="1280.5" y="-65" font-family="Helvetica,sans-Serif" font-size="10.00">+ EndYear</text>
<text text-anchor="start" x="1280.5" y="-54" font-family="Helvetica,sans-Serif" font-size="10.00">and 13 more...</text>
<polyline fill="none" stroke="black" points="1272.5,-47 1380.5,-47 "/>
<text text-anchor="start" x="1280.5" y="-35" font-family="Helvetica,sans-Serif" font-size="10.00">+ GetID()</text>
<text text-anchor="start" x="1280.5" y="-24" font-family="Helvetica,sans-Serif" font-size="10.00">+ OnMerge()</text>
</a>
</g>
</g>
<!-- Node1&#45;&gt;Node11 -->
<g id="edge10" class="edge">
<title>Node1&#45;&gt;Node11</title>
<path fill="none" stroke="midnightblue" d="M984.79,-273.94C1074.98,-263.65 1219.45,-242.93 1263.5,-212 1270.29,-207.24 1276.47,-201.49 1282.07,-195.16"/>
<polygon fill="none" stroke="midnightblue" points="984.16,-270.49 974.61,-275.08 984.94,-277.44 984.16,-270.49"/>
</g>
<!-- Node12 -->
<g id="node12" class="node">
<title>Node12</title>
<g id="a_node12"><a xlink:href="classKyoo_1_1Models_1_1Studio.html" target="_top" xlink:title=" ">
<polygon fill="white" stroke="black" points="1399,-44.5 1399,-167.5 1512,-167.5 1512,-44.5 1399,-44.5"/>
<text text-anchor="middle" x="1455.5" y="-155.5" font-family="Helvetica,sans-Serif" font-size="10.00">Kyoo.Models.Studio</text>
<polyline fill="none" stroke="black" points="1399,-148.5 1512,-148.5 "/>
<text text-anchor="start" x="1407" y="-136.5" font-family="Helvetica,sans-Serif" font-size="10.00">+ ID</text>
<text text-anchor="start" x="1407" y="-125.5" font-family="Helvetica,sans-Serif" font-size="10.00">+ Slug</text>
<text text-anchor="start" x="1407" y="-114.5" font-family="Helvetica,sans-Serif" font-size="10.00">+ Name</text>
<text text-anchor="start" x="1407" y="-103.5" font-family="Helvetica,sans-Serif" font-size="10.00">+ Shows</text>
<polyline fill="none" stroke="black" points="1399,-96.5 1512,-96.5 "/>
<text text-anchor="start" x="1407" y="-84.5" font-family="Helvetica,sans-Serif" font-size="10.00">+ Studio()</text>
<text text-anchor="start" x="1407" y="-73.5" font-family="Helvetica,sans-Serif" font-size="10.00">+ Studio()</text>
<text text-anchor="start" x="1407" y="-62.5" font-family="Helvetica,sans-Serif" font-size="10.00">+ Studio()</text>
<text text-anchor="start" x="1407" y="-51.5" font-family="Helvetica,sans-Serif" font-size="10.00">+ Default()</text>
</a>
</g>
</g>
<!-- Node1&#45;&gt;Node12 -->
<g id="edge11" class="edge">
<title>Node1&#45;&gt;Node12</title>
<path fill="none" stroke="midnightblue" d="M984.98,-278.21C1102.94,-271.83 1324.26,-254.44 1389.5,-212 1406.1,-201.2 1419.3,-184.6 1429.39,-167.77"/>
<polygon fill="none" stroke="midnightblue" points="984.74,-274.72 974.94,-278.74 985.11,-281.71 984.74,-274.72"/>
</g>
<!-- Node13 -->
<g id="node13" class="node">
<title>Node13</title>
<g id="a_node13"><a xlink:href="classKyoo_1_1Models_1_1Track.html" target="_top" xlink:title=" ">
<polygon fill="white" stroke="black" points="1530,-17 1530,-195 1637,-195 1637,-17 1530,-17"/>
<text text-anchor="middle" x="1583.5" y="-183" font-family="Helvetica,sans-Serif" font-size="10.00">Kyoo.Models.Track</text>
<polyline fill="none" stroke="black" points="1530,-176 1637,-176 "/>
<text text-anchor="start" x="1538" y="-164" font-family="Helvetica,sans-Serif" font-size="10.00">+ ID</text>
<text text-anchor="start" x="1538" y="-153" font-family="Helvetica,sans-Serif" font-size="10.00">+ EpisodeID</text>
<text text-anchor="start" x="1538" y="-142" font-family="Helvetica,sans-Serif" font-size="10.00">+ TrackIndex</text>
<text text-anchor="start" x="1538" y="-131" font-family="Helvetica,sans-Serif" font-size="10.00">+ IsDefault</text>
<text text-anchor="start" x="1538" y="-120" font-family="Helvetica,sans-Serif" font-size="10.00">+ IsForced</text>
<text text-anchor="start" x="1538" y="-109" font-family="Helvetica,sans-Serif" font-size="10.00">+ DisplayName</text>
<text text-anchor="start" x="1538" y="-98" font-family="Helvetica,sans-Serif" font-size="10.00">+ Slug</text>
<text text-anchor="start" x="1538" y="-87" font-family="Helvetica,sans-Serif" font-size="10.00">+ IsExternal</text>
<text text-anchor="start" x="1538" y="-76" font-family="Helvetica,sans-Serif" font-size="10.00">+ Episode</text>
<polyline fill="none" stroke="black" points="1530,-69 1637,-69 "/>
<text text-anchor="start" x="1538" y="-57" font-family="Helvetica,sans-Serif" font-size="10.00">+ Track()</text>
<text text-anchor="start" x="1538" y="-46" font-family="Helvetica,sans-Serif" font-size="10.00">+ Track()</text>
<text text-anchor="start" x="1538" y="-35" font-family="Helvetica,sans-Serif" font-size="10.00">+ Track()</text>
<text text-anchor="start" x="1538" y="-24" font-family="Helvetica,sans-Serif" font-size="10.00">&#45; GetLanguage()</text>
</a>
</g>
</g>
<!-- Node1&#45;&gt;Node13 -->
<g id="edge12" class="edge">
<title>Node1&#45;&gt;Node13</title>
<path fill="none" stroke="midnightblue" d="M984.56,-281.17C1127.98,-279.24 1434.48,-268.42 1521.5,-212 1528.61,-207.39 1535,-201.66 1540.74,-195.27"/>
<polygon fill="none" stroke="midnightblue" points="984.47,-277.67 974.52,-281.3 984.56,-284.67 984.47,-277.67"/>
</g>
<!-- Node14 -->
<g id="node14" class="node">
<title>Node14</title>
<g id="a_node14"><a xlink:href="classKyoo_1_1Models_1_1User.html" target="_top" xlink:title="A single user of the app.">
<polygon fill="white" stroke="black" points="1655.5,-33.5 1655.5,-178.5 1773.5,-178.5 1773.5,-33.5 1655.5,-33.5"/>
<text text-anchor="middle" x="1714.5" y="-166.5" font-family="Helvetica,sans-Serif" font-size="10.00">Kyoo.Models.User</text>
<polyline fill="none" stroke="black" points="1655.5,-159.5 1773.5,-159.5 "/>
<text text-anchor="start" x="1663.5" y="-147.5" font-family="Helvetica,sans-Serif" font-size="10.00">+ ID</text>
<text text-anchor="start" x="1663.5" y="-136.5" font-family="Helvetica,sans-Serif" font-size="10.00">+ Slug</text>
<text text-anchor="start" x="1663.5" y="-125.5" font-family="Helvetica,sans-Serif" font-size="10.00">+ Username</text>
<text text-anchor="start" x="1663.5" y="-114.5" font-family="Helvetica,sans-Serif" font-size="10.00">+ Email</text>
<text text-anchor="start" x="1663.5" y="-103.5" font-family="Helvetica,sans-Serif" font-size="10.00">+ Password</text>
<text text-anchor="start" x="1663.5" y="-92.5" font-family="Helvetica,sans-Serif" font-size="10.00">+ Permissions</text>
<text text-anchor="start" x="1663.5" y="-81.5" font-family="Helvetica,sans-Serif" font-size="10.00">+ ExtraData</text>
<text text-anchor="start" x="1663.5" y="-70.5" font-family="Helvetica,sans-Serif" font-size="10.00">+ Watched</text>
<text text-anchor="start" x="1663.5" y="-59.5" font-family="Helvetica,sans-Serif" font-size="10.00">+ CurrentlyWatching</text>
<polyline fill="none" stroke="black" points="1655.5,-52.5 1773.5,-52.5 "/>
<text text-anchor="middle" x="1714.5" y="-40.5" font-family="Helvetica,sans-Serif" font-size="10.00"> </text>
</a>
</g>
</g>
<!-- Node1&#45;&gt;Node14 -->
<g id="edge13" class="edge">
<title>Node1&#45;&gt;Node14</title>
<path fill="none" stroke="midnightblue" d="M984.77,-278.11C1161.2,-269.64 1590.81,-245.77 1646.5,-212 1660.06,-203.78 1671.41,-191.71 1680.72,-178.65"/>
<polygon fill="none" stroke="midnightblue" points="984.35,-274.62 974.53,-278.6 984.68,-281.62 984.35,-274.62"/>
</g>
</g>
</svg>
