<?xml version="1.0" encoding="UTF-8" standalone="no"?>
<!DOCTYPE svg PUBLIC "-//W3C//DTD SVG 1.1//EN"
 "http://www.w3.org/Graphics/SVG/1.1/DTD/svg11.dtd">
<!-- Generated by graphviz version 2.43.0 (0)
 -->
<!-- Title: Kyoo.Models.Permissions.IPermissionValidator Pages: 1 -->
<svg width="390pt" height="215pt"
 viewBox="0.00 0.00 390.00 215.00" xmlns="http://www.w3.org/2000/svg" xmlns:xlink="http://www.w3.org/1999/xlink">
<g id="graph0" class="graph" transform="scale(1 1) rotate(0) translate(4 211)">
<title>Kyoo.Models.Permissions.IPermissionValidator</title>
<polygon fill="white" stroke="transparent" points="-4,4 -4,-211 386,-211 386,4 -4,4"/>
<!-- Node1 -->
<g id="node1" class="node">
<title>Node1</title>
<g id="a_node1"><a xlink:title="A service to validate permissions">
<polygon fill="#bfbfbf" stroke="black" points="114,-127.5 114,-206.5 258,-206.5 258,-127.5 114,-127.5"/>
<text text-anchor="start" x="122" y="-194.5" font-family="Helvetica,sans-Serif" font-size="10.00">Kyoo.Models.Permissions.</text>
<text text-anchor="middle" x="186" y="-183.5" font-family="Helvetica,sans-Serif" font-size="10.00">IPermissionValidator</text>
<polyline fill="none" stroke="black" points="114,-176.5 258,-176.5 "/>
<text text-anchor="middle" x="186" y="-164.5" font-family="Helvetica,sans-Serif" font-size="10.00"> </text>
<polyline fill="none" stroke="black" points="114,-157.5 258,-157.5 "/>
<text text-anchor="start" x="122" y="-145.5" font-family="Helvetica,sans-Serif" font-size="10.00">+ Create()</text>
<text text-anchor="start" x="122" y="-134.5" font-family="Helvetica,sans-Serif" font-size="10.00">+ Create()</text>
</a>
</g>
</g>
<!-- Node2 -->
<g id="node2" class="node">
<title>Node2</title>
<g id="a_node2"><a xlink:href="classKyoo_1_1Authentication_1_1PermissionValidatorFactory.html" target="_top" xlink:title="A permission validator to validate permission with user Permission array or the default array from th...">
<polygon fill="white" stroke="black" points="0,-0.5 0,-90.5 172,-90.5 172,-0.5 0,-0.5"/>
<text text-anchor="start" x="8" y="-78.5" font-family="Helvetica,sans-Serif" font-size="10.00">Kyoo.Authentication.Permission</text>
<text text-anchor="middle" x="86" y="-67.5" font-family="Helvetica,sans-Serif" font-size="10.00">ValidatorFactory</text>
<polyline fill="none" stroke="black" points="0,-60.5 172,-60.5 "/>
<text text-anchor="start" x="8" y="-48.5" font-family="Helvetica,sans-Serif" font-size="10.00">&#45; _options</text>
<polyline fill="none" stroke="black" points="0,-41.5 172,-41.5 "/>
<text text-anchor="start" x="8" y="-29.5" font-family="Helvetica,sans-Serif" font-size="10.00">+ PermissionValidatorFactory()</text>
<text text-anchor="start" x="8" y="-18.5" font-family="Helvetica,sans-Serif" font-size="10.00">+ Create()</text>
<text text-anchor="start" x="8" y="-7.5" font-family="Helvetica,sans-Serif" font-size="10.00">+ Create()</text>
</a>
</g>
</g>
<!-- Node1&#45;&gt;Node2 -->
<g id="edge1" class="edge">
<title>Node1&#45;&gt;Node2</title>
<path fill="none" stroke="midnightblue" d="M147.04,-119.45C139.19,-110.06 130.95,-100.22 123.16,-90.91"/>
<polygon fill="none" stroke="midnightblue" points="144.43,-121.78 153.53,-127.2 149.8,-117.29 144.43,-121.78"/>
</g>
<!-- Node3 -->
<g id="node3" class="node">
<title>Node3</title>
<g id="a_node3"><a xlink:href="classKyoo_1_1Controllers_1_1PassthroughPermissionValidator.html" target="_top" xlink:title="A permission validator that always validate permissions. This effectively disable the permission syst...">
<polygon fill="white" stroke="black" points="190,-0.5 190,-90.5 382,-90.5 382,-0.5 190,-0.5"/>
<text text-anchor="start" x="198" y="-78.5" font-family="Helvetica,sans-Serif" font-size="10.00">Kyoo.Controllers.Passthrough</text>
<text text-anchor="middle" x="286" y="-67.5" font-family="Helvetica,sans-Serif" font-size="10.00">PermissionValidator</text>
<polyline fill="none" stroke="black" points="190,-60.5 382,-60.5 "/>
<text text-anchor="middle" x="286" y="-48.5" font-family="Helvetica,sans-Serif" font-size="10.00"> </text>
<polyline fill="none" stroke="black" points="190,-41.5 382,-41.5 "/>
<text text-anchor="start" x="198" y="-29.5" font-family="Helvetica,sans-Serif" font-size="10.00">+ PassthroughPermissionValidator()</text>
<text text-anchor="start" x="198" y="-18.5" font-family="Helvetica,sans-Serif" font-size="10.00">+ Create()</text>
<text text-anchor="start" x="198" y="-7.5" font-family="Helvetica,sans-Serif" font-size="10.00">+ Create()</text>
</a>
</g>
</g>
<!-- Node1&#45;&gt;Node3 -->
<g id="edge2" class="edge">
<title>Node1&#45;&gt;Node3</title>
<path fill="none" stroke="midnightblue" d="M224.96,-119.45C232.81,-110.06 241.05,-100.22 248.84,-90.91"/>
<polygon fill="none" stroke="midnightblue" points="222.2,-117.29 218.47,-127.2 227.57,-121.78 222.2,-117.29"/>
</g>
</g>
</svg>
