<?xml version="1.0" encoding="UTF-8" standalone="no"?>
<!DOCTYPE svg PUBLIC "-//W3C//DTD SVG 1.1//EN"
 "http://www.w3.org/Graphics/SVG/1.1/DTD/svg11.dtd">
<!-- Generated by graphviz version 2.43.0 (0)
 -->
<!-- Title: Kyoo.Controllers.IPeopleRepository Pages: 1 -->
<svg width="193pt" height="584pt"
 viewBox="0.00 0.00 193.00 584.00" xmlns="http://www.w3.org/2000/svg" xmlns:xlink="http://www.w3.org/1999/xlink">
<g id="graph0" class="graph" transform="scale(1 1) rotate(0) translate(4 580)">
<title>Kyoo.Controllers.IPeopleRepository</title>
<polygon fill="white" stroke="transparent" points="-4,4 -4,-580 189,-580 189,4 -4,4"/>
<!-- Node1 -->
<g id="node1" class="node">
<title>Node1</title>
<g id="a_node1"><a xlink:title="A repository for people.">
<polygon fill="#bfbfbf" stroke="black" points="24.5,-226.5 24.5,-371.5 160.5,-371.5 160.5,-226.5 24.5,-226.5"/>
<text text-anchor="start" x="32.5" y="-359.5" font-family="Helvetica,sans-Serif" font-size="10.00">Kyoo.Controllers.IPeople</text>
<text text-anchor="middle" x="92.5" y="-348.5" font-family="Helvetica,sans-Serif" font-size="10.00">Repository</text>
<polyline fill="none" stroke="black" points="24.5,-341.5 160.5,-341.5 "/>
<text text-anchor="middle" x="92.5" y="-329.5" font-family="Helvetica,sans-Serif" font-size="10.00"> </text>
<polyline fill="none" stroke="black" points="24.5,-322.5 160.5,-322.5 "/>
<text text-anchor="start" x="32.5" y="-310.5" font-family="Helvetica,sans-Serif" font-size="10.00">+ GetFromShow()</text>
<text text-anchor="start" x="32.5" y="-299.5" font-family="Helvetica,sans-Serif" font-size="10.00">+ GetFromShow()</text>
<text text-anchor="start" x="32.5" y="-288.5" font-family="Helvetica,sans-Serif" font-size="10.00">+ GetFromShow()</text>
<text text-anchor="start" x="32.5" y="-277.5" font-family="Helvetica,sans-Serif" font-size="10.00">+ GetFromShow()</text>
<text text-anchor="start" x="32.5" y="-266.5" font-family="Helvetica,sans-Serif" font-size="10.00">+ GetFromPeople()</text>
<text text-anchor="start" x="32.5" y="-255.5" font-family="Helvetica,sans-Serif" font-size="10.00">+ GetFromPeople()</text>
<text text-anchor="start" x="32.5" y="-244.5" font-family="Helvetica,sans-Serif" font-size="10.00">+ GetFromPeople()</text>
<text text-anchor="start" x="32.5" y="-233.5" font-family="Helvetica,sans-Serif" font-size="10.00">+ GetFromPeople()</text>
</a>
</g>
</g>
<!-- Node3 -->
<g id="node3" class="node">
<title>Node3</title>
<g id="a_node3"><a xlink:href="classKyoo_1_1Controllers_1_1PeopleRepository.html" target="_top" xlink:title="A local repository to handle people.">
<polygon fill="white" stroke="black" points="0,-0.5 0,-189.5 185,-189.5 185,-0.5 0,-0.5"/>
<text text-anchor="middle" x="92.5" y="-177.5" font-family="Helvetica,sans-Serif" font-size="10.00">Kyoo.Controllers.PeopleRepository</text>
<polyline fill="none" stroke="black" points="0,-170.5 185,-170.5 "/>
<text text-anchor="start" x="8" y="-158.5" font-family="Helvetica,sans-Serif" font-size="10.00"># DefaultSort</text>
<text text-anchor="start" x="8" y="-147.5" font-family="Helvetica,sans-Serif" font-size="10.00">&#45; _database</text>
<text text-anchor="start" x="8" y="-136.5" font-family="Helvetica,sans-Serif" font-size="10.00">&#45; _providers</text>
<text text-anchor="start" x="8" y="-125.5" font-family="Helvetica,sans-Serif" font-size="10.00">&#45; _shows</text>
<polyline fill="none" stroke="black" points="0,-118.5 185,-118.5 "/>
<text text-anchor="start" x="8" y="-106.5" font-family="Helvetica,sans-Serif" font-size="10.00">+ PeopleRepository()</text>
<text text-anchor="start" x="8" y="-95.5" font-family="Helvetica,sans-Serif" font-size="10.00">+ Search()</text>
<text text-anchor="start" x="8" y="-84.5" font-family="Helvetica,sans-Serif" font-size="10.00">+ Create()</text>
<text text-anchor="start" x="8" y="-73.5" font-family="Helvetica,sans-Serif" font-size="10.00">+ Delete()</text>
<text text-anchor="start" x="8" y="-62.5" font-family="Helvetica,sans-Serif" font-size="10.00">+ GetFromShow()</text>
<text text-anchor="start" x="8" y="-51.5" font-family="Helvetica,sans-Serif" font-size="10.00">+ GetFromShow()</text>
<text text-anchor="start" x="8" y="-40.5" font-family="Helvetica,sans-Serif" font-size="10.00">+ GetFromPeople()</text>
<text text-anchor="start" x="8" y="-29.5" font-family="Helvetica,sans-Serif" font-size="10.00">+ GetFromPeople()</text>
<text text-anchor="start" x="8" y="-18.5" font-family="Helvetica,sans-Serif" font-size="10.00"># Validate()</text>
<text text-anchor="start" x="8" y="-7.5" font-family="Helvetica,sans-Serif" font-size="10.00"># EditRelations()</text>
</a>
</g>
</g>
<!-- Node1&#45;&gt;Node3 -->
<g id="edge2" class="edge">
<title>Node1&#45;&gt;Node3</title>
<path fill="none" stroke="midnightblue" d="M92.5,-216.32C92.5,-207.55 92.5,-198.58 92.5,-189.69"/>
<polygon fill="none" stroke="midnightblue" points="89,-216.5 92.5,-226.5 96,-216.5 89,-216.5"/>
</g>
<!-- Node2 -->
<g id="node2" class="node">
<title>Node2</title>
<g id="a_node2"><a xlink:href="interfaceKyoo_1_1Controllers_1_1IRepository.html" target="_top" xlink:title=" ">
<polygon fill="white" stroke="black" points="28.5,-408.5 28.5,-575.5 156.5,-575.5 156.5,-408.5 28.5,-408.5"/>
<text text-anchor="middle" x="92.5" y="-563.5" font-family="Helvetica,sans-Serif" font-size="10.00">IRepository&lt; People &gt;</text>
<polyline fill="none" stroke="black" points="28.5,-556.5 156.5,-556.5 "/>
<text text-anchor="middle" x="92.5" y="-544.5" font-family="Helvetica,sans-Serif" font-size="10.00"> </text>
<polyline fill="none" stroke="black" points="28.5,-537.5 156.5,-537.5 "/>
<text text-anchor="start" x="36.5" y="-525.5" font-family="Helvetica,sans-Serif" font-size="10.00">+ Get()</text>
<text text-anchor="start" x="36.5" y="-514.5" font-family="Helvetica,sans-Serif" font-size="10.00">+ Get()</text>
<text text-anchor="start" x="36.5" y="-503.5" font-family="Helvetica,sans-Serif" font-size="10.00">+ Get()</text>
<text text-anchor="start" x="36.5" y="-492.5" font-family="Helvetica,sans-Serif" font-size="10.00">+ GetOrDefault()</text>
<text text-anchor="start" x="36.5" y="-481.5" font-family="Helvetica,sans-Serif" font-size="10.00">+ GetOrDefault()</text>
<text text-anchor="start" x="36.5" y="-470.5" font-family="Helvetica,sans-Serif" font-size="10.00">+ GetOrDefault()</text>
<text text-anchor="start" x="36.5" y="-459.5" font-family="Helvetica,sans-Serif" font-size="10.00">+ Search()</text>
<text text-anchor="start" x="36.5" y="-448.5" font-family="Helvetica,sans-Serif" font-size="10.00">+ GetAll()</text>
<text text-anchor="start" x="36.5" y="-437.5" font-family="Helvetica,sans-Serif" font-size="10.00">+ GetAll()</text>
<text text-anchor="start" x="36.5" y="-426.5" font-family="Helvetica,sans-Serif" font-size="10.00">+ GetCount()</text>
<text text-anchor="start" x="36.5" y="-415.5" font-family="Helvetica,sans-Serif" font-size="10.00">and 13 more...</text>
</a>
</g>
</g>
<!-- Node2&#45;&gt;Node1 -->
<g id="edge1" class="edge">
<title>Node2&#45;&gt;Node1</title>
<path fill="none" stroke="midnightblue" d="M92.5,-398.28C92.5,-389.35 92.5,-380.38 92.5,-371.7"/>
<polygon fill="none" stroke="midnightblue" points="89,-398.34 92.5,-408.34 96,-398.34 89,-398.34"/>
</g>
</g>
</svg>
