<?xml version="1.0" encoding="UTF-8" standalone="no"?>
<!DOCTYPE svg PUBLIC "-//W3C//DTD SVG 1.1//EN"
 "http://www.w3.org/Graphics/SVG/1.1/DTD/svg11.dtd">
<!-- Generated by graphviz version 2.43.0 (0)
 -->
<!-- Title: Kyoo.Models.Attributes.IOnMerge Pages: 1 -->
<svg width="254pt" height="303pt"
 viewBox="0.00 0.00 254.00 303.00" xmlns="http://www.w3.org/2000/svg" xmlns:xlink="http://www.w3.org/1999/xlink">
<g id="graph0" class="graph" transform="scale(1 1) rotate(0) translate(4 299)">
<title>Kyoo.Models.Attributes.IOnMerge</title>
<polygon fill="white" stroke="transparent" points="-4,4 -4,-299 250,-299 250,4 -4,4"/>
<!-- Node1 -->
<g id="node1" class="node">
<title>Node1</title>
<g id="a_node1"><a xlink:title="An interface with a method called when this object is merged.">
<polygon fill="#bfbfbf" stroke="black" points="51.5,-226.5 51.5,-294.5 200.5,-294.5 200.5,-226.5 51.5,-226.5"/>
<text text-anchor="start" x="59.5" y="-282.5" font-family="Helvetica,sans-Serif" font-size="10.00">Kyoo.Models.Attributes.IOn</text>
<text text-anchor="middle" x="126" y="-271.5" font-family="Helvetica,sans-Serif" font-size="10.00">Merge</text>
<polyline fill="none" stroke="black" points="51.5,-264.5 200.5,-264.5 "/>
<text text-anchor="middle" x="126" y="-252.5" font-family="Helvetica,sans-Serif" font-size="10.00"> </text>
<polyline fill="none" stroke="black" points="51.5,-245.5 200.5,-245.5 "/>
<text text-anchor="start" x="59.5" y="-233.5" font-family="Helvetica,sans-Serif" font-size="10.00">+ OnMerge()</text>
</a>
</g>
</g>
<!-- Node2 -->
<g id="node2" class="node">
<title>Node2</title>
<g id="a_node2"><a xlink:href="classKyoo_1_1Models_1_1Episode.html" target="_top" xlink:title=" ">
<polygon fill="white" stroke="black" points="0,-0.5 0,-189.5 120,-189.5 120,-0.5 0,-0.5"/>
<text text-anchor="middle" x="60" y="-177.5" font-family="Helvetica,sans-Serif" font-size="10.00">Kyoo.Models.Episode</text>
<polyline fill="none" stroke="black" points="0,-170.5 120,-170.5 "/>
<text text-anchor="start" x="8" y="-158.5" font-family="Helvetica,sans-Serif" font-size="10.00">+ Slug</text>
<text text-anchor="start" x="8" y="-147.5" font-family="Helvetica,sans-Serif" font-size="10.00">+ ID</text>
<text text-anchor="start" x="8" y="-136.5" font-family="Helvetica,sans-Serif" font-size="10.00">+ ShowSlug</text>
<text text-anchor="start" x="8" y="-125.5" font-family="Helvetica,sans-Serif" font-size="10.00">+ ShowID</text>
<text text-anchor="start" x="8" y="-114.5" font-family="Helvetica,sans-Serif" font-size="10.00">+ Show</text>
<text text-anchor="start" x="8" y="-103.5" font-family="Helvetica,sans-Serif" font-size="10.00">+ SeasonID</text>
<text text-anchor="start" x="8" y="-92.5" font-family="Helvetica,sans-Serif" font-size="10.00">+ Season</text>
<text text-anchor="start" x="8" y="-81.5" font-family="Helvetica,sans-Serif" font-size="10.00">+ SeasonNumber</text>
<text text-anchor="start" x="8" y="-70.5" font-family="Helvetica,sans-Serif" font-size="10.00">+ EpisodeNumber</text>
<text text-anchor="start" x="8" y="-59.5" font-family="Helvetica,sans-Serif" font-size="10.00">+ AbsoluteNumber</text>
<text text-anchor="start" x="8" y="-48.5" font-family="Helvetica,sans-Serif" font-size="10.00">+ Path</text>
<text text-anchor="start" x="8" y="-37.5" font-family="Helvetica,sans-Serif" font-size="10.00">and 7 more...</text>
<polyline fill="none" stroke="black" points="0,-30.5 120,-30.5 "/>
<text text-anchor="start" x="8" y="-18.5" font-family="Helvetica,sans-Serif" font-size="10.00">+ OnMerge()</text>
<text text-anchor="start" x="8" y="-7.5" font-family="Helvetica,sans-Serif" font-size="10.00">+ GetSlug()</text>
</a>
</g>
</g>
<!-- Node1&#45;&gt;Node2 -->
<g id="edge1" class="edge">
<title>Node1&#45;&gt;Node2</title>
<path fill="none" stroke="midnightblue" d="M108.88,-217.08C105.41,-208.5 101.64,-199.16 97.78,-189.6"/>
<polygon fill="none" stroke="midnightblue" points="105.66,-218.45 112.64,-226.41 112.15,-215.83 105.66,-218.45"/>
</g>
<!-- Node3 -->
<g id="node3" class="node">
<title>Node3</title>
<g id="a_node3"><a xlink:href="classKyoo_1_1Models_1_1Show.html" target="_top" xlink:title=" ">
<polygon fill="white" stroke="black" points="138,-6 138,-184 246,-184 246,-6 138,-6"/>
<text text-anchor="middle" x="192" y="-172" font-family="Helvetica,sans-Serif" font-size="10.00">Kyoo.Models.Show</text>
<polyline fill="none" stroke="black" points="138,-165 246,-165 "/>
<text text-anchor="start" x="146" y="-153" font-family="Helvetica,sans-Serif" font-size="10.00">+ ID</text>
<text text-anchor="start" x="146" y="-142" font-family="Helvetica,sans-Serif" font-size="10.00">+ Slug</text>
<text text-anchor="start" x="146" y="-131" font-family="Helvetica,sans-Serif" font-size="10.00">+ Title</text>
<text text-anchor="start" x="146" y="-120" font-family="Helvetica,sans-Serif" font-size="10.00">+ Aliases</text>
<text text-anchor="start" x="146" y="-109" font-family="Helvetica,sans-Serif" font-size="10.00">+ Path</text>
<text text-anchor="start" x="146" y="-98" font-family="Helvetica,sans-Serif" font-size="10.00">+ Overview</text>
<text text-anchor="start" x="146" y="-87" font-family="Helvetica,sans-Serif" font-size="10.00">+ Status</text>
<text text-anchor="start" x="146" y="-76" font-family="Helvetica,sans-Serif" font-size="10.00">+ TrailerUrl</text>
<text text-anchor="start" x="146" y="-65" font-family="Helvetica,sans-Serif" font-size="10.00">+ StartYear</text>
<text text-anchor="start" x="146" y="-54" font-family="Helvetica,sans-Serif" font-size="10.00">+ EndYear</text>
<text text-anchor="start" x="146" y="-43" font-family="Helvetica,sans-Serif" font-size="10.00">and 13 more...</text>
<polyline fill="none" stroke="black" points="138,-36 246,-36 "/>
<text text-anchor="start" x="146" y="-24" font-family="Helvetica,sans-Serif" font-size="10.00">+ GetID()</text>
<text text-anchor="start" x="146" y="-13" font-family="Helvetica,sans-Serif" font-size="10.00">+ OnMerge()</text>
</a>
</g>
</g>
<!-- Node1&#45;&gt;Node3 -->
<g id="edge2" class="edge">
<title>Node1&#45;&gt;Node3</title>
<path fill="none" stroke="midnightblue" d="M143.15,-217.01C147.26,-206.84 151.8,-195.59 156.4,-184.18"/>
<polygon fill="none" stroke="midnightblue" points="139.85,-215.83 139.36,-226.41 146.34,-218.45 139.85,-215.83"/>
</g>
</g>
</svg>
