<?xml version="1.0" encoding="UTF-8" standalone="no"?>
<!DOCTYPE svg PUBLIC "-//W3C//DTD SVG 1.1//EN"
 "http://www.w3.org/Graphics/SVG/1.1/DTD/svg11.dtd">
<!-- Generated by graphviz version 2.43.0 (0)
 -->
<!-- Title: Kyoo.Controllers.IStudioRepository Pages: 1 -->
<svg width="191pt" height="419pt"
 viewBox="0.00 0.00 191.00 419.00" xmlns="http://www.w3.org/2000/svg" xmlns:xlink="http://www.w3.org/1999/xlink">
<g id="graph0" class="graph" transform="scale(1 1) rotate(0) translate(4 415)">
<title>Kyoo.Controllers.IStudioRepository</title>
<polygon fill="white" stroke="transparent" points="-4,4 -4,-415 187,-415 187,4 -4,4"/>
<!-- Node1 -->
<g id="node1" class="node">
<title>Node1</title>
<g id="a_node1"><a xlink:title="A repository for studios.">
<polygon fill="#bfbfbf" stroke="black" points="24.5,-138.5 24.5,-206.5 158.5,-206.5 158.5,-138.5 24.5,-138.5"/>
<text text-anchor="start" x="32.5" y="-194.5" font-family="Helvetica,sans-Serif" font-size="10.00">Kyoo.Controllers.IStudio</text>
<text text-anchor="middle" x="91.5" y="-183.5" font-family="Helvetica,sans-Serif" font-size="10.00">Repository</text>
<polyline fill="none" stroke="black" points="24.5,-176.5 158.5,-176.5 "/>
<text text-anchor="middle" x="91.5" y="-164.5" font-family="Helvetica,sans-Serif" font-size="10.00"> </text>
<polyline fill="none" stroke="black" points="24.5,-157.5 158.5,-157.5 "/>
<text text-anchor="middle" x="91.5" y="-145.5" font-family="Helvetica,sans-Serif" font-size="10.00"> </text>
</a>
</g>
</g>
<!-- Node3 -->
<g id="node3" class="node">
<title>Node3</title>
<g id="a_node3"><a xlink:href="classKyoo_1_1Controllers_1_1StudioRepository.html" target="_top" xlink:title="A local repository to handle studios">
<polygon fill="white" stroke="black" points="0,-0.5 0,-101.5 183,-101.5 183,-0.5 0,-0.5"/>
<text text-anchor="middle" x="91.5" y="-89.5" font-family="Helvetica,sans-Serif" font-size="10.00">Kyoo.Controllers.StudioRepository</text>
<polyline fill="none" stroke="black" points="0,-82.5 183,-82.5 "/>
<text text-anchor="start" x="8" y="-70.5" font-family="Helvetica,sans-Serif" font-size="10.00"># DefaultSort</text>
<text text-anchor="start" x="8" y="-59.5" font-family="Helvetica,sans-Serif" font-size="10.00">&#45; _database</text>
<polyline fill="none" stroke="black" points="0,-52.5 183,-52.5 "/>
<text text-anchor="start" x="8" y="-40.5" font-family="Helvetica,sans-Serif" font-size="10.00">+ StudioRepository()</text>
<text text-anchor="start" x="8" y="-29.5" font-family="Helvetica,sans-Serif" font-size="10.00">+ Search()</text>
<text text-anchor="start" x="8" y="-18.5" font-family="Helvetica,sans-Serif" font-size="10.00">+ Create()</text>
<text text-anchor="start" x="8" y="-7.5" font-family="Helvetica,sans-Serif" font-size="10.00">+ Delete()</text>
</a>
</g>
</g>
<!-- Node1&#45;&gt;Node3 -->
<g id="edge2" class="edge">
<title>Node1&#45;&gt;Node3</title>
<path fill="none" stroke="midnightblue" d="M91.5,-128.05C91.5,-119.47 91.5,-110.41 91.5,-101.65"/>
<polygon fill="none" stroke="midnightblue" points="88,-128.21 91.5,-138.21 95,-128.21 88,-128.21"/>
</g>
<!-- Node2 -->
<g id="node2" class="node">
<title>Node2</title>
<g id="a_node2"><a xlink:href="interfaceKyoo_1_1Controllers_1_1IRepository.html" target="_top" xlink:title=" ">
<polygon fill="white" stroke="black" points="29,-243.5 29,-410.5 154,-410.5 154,-243.5 29,-243.5"/>
<text text-anchor="middle" x="91.5" y="-398.5" font-family="Helvetica,sans-Serif" font-size="10.00">IRepository&lt; Studio &gt;</text>
<polyline fill="none" stroke="black" points="29,-391.5 154,-391.5 "/>
<text text-anchor="middle" x="91.5" y="-379.5" font-family="Helvetica,sans-Serif" font-size="10.00"> </text>
<polyline fill="none" stroke="black" points="29,-372.5 154,-372.5 "/>
<text text-anchor="start" x="37" y="-360.5" font-family="Helvetica,sans-Serif" font-size="10.00">+ Get()</text>
<text text-anchor="start" x="37" y="-349.5" font-family="Helvetica,sans-Serif" font-size="10.00">+ Get()</text>
<text text-anchor="start" x="37" y="-338.5" font-family="Helvetica,sans-Serif" font-size="10.00">+ Get()</text>
<text text-anchor="start" x="37" y="-327.5" font-family="Helvetica,sans-Serif" font-size="10.00">+ GetOrDefault()</text>
<text text-anchor="start" x="37" y="-316.5" font-family="Helvetica,sans-Serif" font-size="10.00">+ GetOrDefault()</text>
<text text-anchor="start" x="37" y="-305.5" font-family="Helvetica,sans-Serif" font-size="10.00">+ GetOrDefault()</text>
<text text-anchor="start" x="37" y="-294.5" font-family="Helvetica,sans-Serif" font-size="10.00">+ Search()</text>
<text text-anchor="start" x="37" y="-283.5" font-family="Helvetica,sans-Serif" font-size="10.00">+ GetAll()</text>
<text text-anchor="start" x="37" y="-272.5" font-family="Helvetica,sans-Serif" font-size="10.00">+ GetAll()</text>
<text text-anchor="start" x="37" y="-261.5" font-family="Helvetica,sans-Serif" font-size="10.00">+ GetCount()</text>
<text text-anchor="start" x="37" y="-250.5" font-family="Helvetica,sans-Serif" font-size="10.00">and 13 more...</text>
</a>
</g>
</g>
<!-- Node2&#45;&gt;Node1 -->
<g id="edge1" class="edge">
<title>Node2&#45;&gt;Node1</title>
<path fill="none" stroke="midnightblue" d="M91.5,-232.89C91.5,-223.63 91.5,-214.72 91.5,-206.74"/>
<polygon fill="none" stroke="midnightblue" points="88,-233.06 91.5,-243.06 95,-233.06 88,-233.06"/>
</g>
</g>
</svg>
