<?xml version="1.0" encoding="UTF-8" standalone="no"?>
<!DOCTYPE svg PUBLIC "-//W3C//DTD SVG 1.1//EN"
 "http://www.w3.org/Graphics/SVG/1.1/DTD/svg11.dtd">
<!-- Generated by graphviz version 2.43.0 (0)
 -->
<!-- Title: Kyoo.Controllers.IConfigurationManager Pages: 1 -->
<svg width="176pt" height="281pt"
 viewBox="0.00 0.00 176.00 281.00" xmlns="http://www.w3.org/2000/svg" xmlns:xlink="http://www.w3.org/1999/xlink">
<g id="graph0" class="graph" transform="scale(1 1) rotate(0) translate(4 277)">
<title>Kyoo.Controllers.IConfigurationManager</title>
<polygon fill="white" stroke="transparent" points="-4,4 -4,-277 172,-277 172,4 -4,4"/>
<!-- Node1 -->
<g id="node1" class="node">
<title>Node1</title>
<g id="a_node1"><a xlink:title="A class to ease configuration management. This work WITH Microsoft&#39;s package, you can still use IOpti...">
<polygon fill="#bfbfbf" stroke="black" points="0,-182.5 0,-272.5 168,-272.5 168,-182.5 0,-182.5"/>
<text text-anchor="start" x="8" y="-260.5" font-family="Helvetica,sans-Serif" font-size="10.00">Kyoo.Controllers.IConfiguration</text>
<text text-anchor="middle" x="84" y="-249.5" font-family="Helvetica,sans-Serif" font-size="10.00">Manager</text>
<polyline fill="none" stroke="black" points="0,-242.5 168,-242.5 "/>
<text text-anchor="middle" x="84" y="-230.5" font-family="Helvetica,sans-Serif" font-size="10.00"> </text>
<polyline fill="none" stroke="black" points="0,-223.5 168,-223.5 "/>
<text text-anchor="start" x="8" y="-211.5" font-family="Helvetica,sans-Serif" font-size="10.00">+ GetValue()</text>
<text text-anchor="start" x="8" y="-200.5" font-family="Helvetica,sans-Serif" font-size="10.00">+ GetValue&lt; T &gt;()</text>
<text text-anchor="start" x="8" y="-189.5" font-family="Helvetica,sans-Serif" font-size="10.00">+ EditValue()</text>
</a>
</g>
</g>
<!-- Node2 -->
<g id="node2" class="node">
<title>Node2</title>
<g id="a_node2"><a xlink:href="classKyoo_1_1Controllers_1_1ConfigurationManager.html" target="_top" xlink:title=" ">
<polygon fill="white" stroke="black" points="1.5,-0.5 1.5,-145.5 166.5,-145.5 166.5,-0.5 1.5,-0.5"/>
<text text-anchor="start" x="9.5" y="-133.5" font-family="Helvetica,sans-Serif" font-size="10.00">Kyoo.Controllers.Configuration</text>
<text text-anchor="middle" x="84" y="-122.5" font-family="Helvetica,sans-Serif" font-size="10.00">Manager</text>
<polyline fill="none" stroke="black" points="1.5,-115.5 166.5,-115.5 "/>
<text text-anchor="start" x="9.5" y="-103.5" font-family="Helvetica,sans-Serif" font-size="10.00">&#45; _configuration</text>
<text text-anchor="start" x="9.5" y="-92.5" font-family="Helvetica,sans-Serif" font-size="10.00">&#45; _references</text>
<polyline fill="none" stroke="black" points="1.5,-85.5 166.5,-85.5 "/>
<text text-anchor="start" x="9.5" y="-73.5" font-family="Helvetica,sans-Serif" font-size="10.00">+ ConfigurationManager()</text>
<text text-anchor="start" x="9.5" y="-62.5" font-family="Helvetica,sans-Serif" font-size="10.00">+ GetValue()</text>
<text text-anchor="start" x="9.5" y="-51.5" font-family="Helvetica,sans-Serif" font-size="10.00">+ GetValue&lt; T &gt;()</text>
<text text-anchor="start" x="9.5" y="-40.5" font-family="Helvetica,sans-Serif" font-size="10.00">+ EditValue()</text>
<text text-anchor="start" x="9.5" y="-29.5" font-family="Helvetica,sans-Serif" font-size="10.00">&#45; GetType()</text>
<text text-anchor="start" x="9.5" y="-18.5" font-family="Helvetica,sans-Serif" font-size="10.00">&#45; ToObject()</text>
<text text-anchor="start" x="9.5" y="-7.5" font-family="Helvetica,sans-Serif" font-size="10.00">&#45; ToUntyped()</text>
</a>
</g>
</g>
<!-- Node1&#45;&gt;Node2 -->
<g id="edge1" class="edge">
<title>Node1&#45;&gt;Node2</title>
<path fill="none" stroke="midnightblue" d="M84,-172.13C84,-163.53 84,-154.52 84,-145.59"/>
<polygon fill="none" stroke="midnightblue" points="80.5,-172.39 84,-182.39 87.5,-172.39 80.5,-172.39"/>
</g>
</g>
</svg>
