<?xml version="1.0" encoding="UTF-8" standalone="no"?>
<!DOCTYPE svg PUBLIC "-//W3C//DTD SVG 1.1//EN"
 "http://www.w3.org/Graphics/SVG/1.1/DTD/svg11.dtd">
<!-- Generated by graphviz version 2.43.0 (0)
 -->
<!-- Title: Kyoo.Controllers.IGenreRepository Pages: 1 -->
<svg width="193pt" height="408pt"
 viewBox="0.00 0.00 193.00 408.00" xmlns="http://www.w3.org/2000/svg" xmlns:xlink="http://www.w3.org/1999/xlink">
<g id="graph0" class="graph" transform="scale(1 1) rotate(0) translate(4 404)">
<title>Kyoo.Controllers.IGenreRepository</title>
<polygon fill="white" stroke="transparent" points="-4,4 -4,-404 189,-404 189,4 -4,4"/>
<!-- Node1 -->
<g id="node1" class="node">
<title>Node1</title>
<g id="a_node1"><a xlink:title="A repository for genres.">
<polygon fill="#bfbfbf" stroke="black" points="0,-138.5 0,-195.5 185,-195.5 185,-138.5 0,-138.5"/>
<text text-anchor="middle" x="92.5" y="-183.5" font-family="Helvetica,sans-Serif" font-size="10.00">Kyoo.Controllers.IGenreRepository</text>
<polyline fill="none" stroke="black" points="0,-176.5 185,-176.5 "/>
<text text-anchor="middle" x="92.5" y="-164.5" font-family="Helvetica,sans-Serif" font-size="10.00"> </text>
<polyline fill="none" stroke="black" points="0,-157.5 185,-157.5 "/>
<text text-anchor="middle" x="92.5" y="-145.5" font-family="Helvetica,sans-Serif" font-size="10.00"> </text>
</a>
</g>
</g>
<!-- Node3 -->
<g id="node3" class="node">
<title>Node3</title>
<g id="a_node3"><a xlink:href="classKyoo_1_1Controllers_1_1GenreRepository.html" target="_top" xlink:title="A local repository for genres.">
<polygon fill="white" stroke="black" points="1.5,-0.5 1.5,-101.5 183.5,-101.5 183.5,-0.5 1.5,-0.5"/>
<text text-anchor="middle" x="92.5" y="-89.5" font-family="Helvetica,sans-Serif" font-size="10.00">Kyoo.Controllers.GenreRepository</text>
<polyline fill="none" stroke="black" points="1.5,-82.5 183.5,-82.5 "/>
<text text-anchor="start" x="9.5" y="-70.5" font-family="Helvetica,sans-Serif" font-size="10.00"># DefaultSort</text>
<text text-anchor="start" x="9.5" y="-59.5" font-family="Helvetica,sans-Serif" font-size="10.00">&#45; _database</text>
<polyline fill="none" stroke="black" points="1.5,-52.5 183.5,-52.5 "/>
<text text-anchor="start" x="9.5" y="-40.5" font-family="Helvetica,sans-Serif" font-size="10.00">+ GenreRepository()</text>
<text text-anchor="start" x="9.5" y="-29.5" font-family="Helvetica,sans-Serif" font-size="10.00">+ Search()</text>
<text text-anchor="start" x="9.5" y="-18.5" font-family="Helvetica,sans-Serif" font-size="10.00">+ Create()</text>
<text text-anchor="start" x="9.5" y="-7.5" font-family="Helvetica,sans-Serif" font-size="10.00">+ Delete()</text>
</a>
</g>
</g>
<!-- Node1&#45;&gt;Node3 -->
<g id="edge2" class="edge">
<title>Node1&#45;&gt;Node3</title>
<path fill="none" stroke="midnightblue" d="M92.5,-128.35C92.5,-119.8 92.5,-110.58 92.5,-101.61"/>
<polygon fill="none" stroke="midnightblue" points="89,-128.4 92.5,-138.4 96,-128.4 89,-128.4"/>
</g>
<!-- Node2 -->
<g id="node2" class="node">
<title>Node2</title>
<g id="a_node2"><a xlink:href="interfaceKyoo_1_1Controllers_1_1IRepository.html" target="_top" xlink:title=" ">
<polygon fill="white" stroke="black" points="30.5,-232.5 30.5,-399.5 154.5,-399.5 154.5,-232.5 30.5,-232.5"/>
<text text-anchor="middle" x="92.5" y="-387.5" font-family="Helvetica,sans-Serif" font-size="10.00">IRepository&lt; Genre &gt;</text>
<polyline fill="none" stroke="black" points="30.5,-380.5 154.5,-380.5 "/>
<text text-anchor="middle" x="92.5" y="-368.5" font-family="Helvetica,sans-Serif" font-size="10.00"> </text>
<polyline fill="none" stroke="black" points="30.5,-361.5 154.5,-361.5 "/>
<text text-anchor="start" x="38.5" y="-349.5" font-family="Helvetica,sans-Serif" font-size="10.00">+ Get()</text>
<text text-anchor="start" x="38.5" y="-338.5" font-family="Helvetica,sans-Serif" font-size="10.00">+ Get()</text>
<text text-anchor="start" x="38.5" y="-327.5" font-family="Helvetica,sans-Serif" font-size="10.00">+ Get()</text>
<text text-anchor="start" x="38.5" y="-316.5" font-family="Helvetica,sans-Serif" font-size="10.00">+ GetOrDefault()</text>
<text text-anchor="start" x="38.5" y="-305.5" font-family="Helvetica,sans-Serif" font-size="10.00">+ GetOrDefault()</text>
<text text-anchor="start" x="38.5" y="-294.5" font-family="Helvetica,sans-Serif" font-size="10.00">+ GetOrDefault()</text>
<text text-anchor="start" x="38.5" y="-283.5" font-family="Helvetica,sans-Serif" font-size="10.00">+ Search()</text>
<text text-anchor="start" x="38.5" y="-272.5" font-family="Helvetica,sans-Serif" font-size="10.00">+ GetAll()</text>
<text text-anchor="start" x="38.5" y="-261.5" font-family="Helvetica,sans-Serif" font-size="10.00">+ GetAll()</text>
<text text-anchor="start" x="38.5" y="-250.5" font-family="Helvetica,sans-Serif" font-size="10.00">+ GetCount()</text>
<text text-anchor="start" x="38.5" y="-239.5" font-family="Helvetica,sans-Serif" font-size="10.00">and 13 more...</text>
</a>
</g>
</g>
<!-- Node2&#45;&gt;Node1 -->
<g id="edge1" class="edge">
<title>Node2&#45;&gt;Node1</title>
<path fill="none" stroke="midnightblue" d="M92.5,-222.36C92.5,-212.79 92.5,-203.68 92.5,-195.75"/>
<polygon fill="none" stroke="midnightblue" points="89,-222.48 92.5,-232.48 96,-222.48 89,-222.48"/>
</g>
</g>
</svg>
