<?xml version="1.0" encoding="UTF-8" standalone="no"?>
<!DOCTYPE svg PUBLIC "-//W3C//DTD SVG 1.1//EN"
 "http://www.w3.org/Graphics/SVG/1.1/DTD/svg11.dtd">
<!-- Generated by graphviz version 2.43.0 (0)
 -->
<!-- Title: Kyoo.Controllers.ITrackRepository Pages: 1 -->
<svg width="189pt" height="452pt"
 viewBox="0.00 0.00 189.00 452.00" xmlns="http://www.w3.org/2000/svg" xmlns:xlink="http://www.w3.org/1999/xlink">
<g id="graph0" class="graph" transform="scale(1 1) rotate(0) translate(4 448)">
<title>Kyoo.Controllers.ITrackRepository</title>
<polygon fill="white" stroke="transparent" points="-4,4 -4,-448 185,-448 185,4 -4,4"/>
<!-- Node1 -->
<g id="node1" class="node">
<title>Node1</title>
<g id="a_node1"><a xlink:title="A repository to handle tracks">
<polygon fill="#bfbfbf" stroke="black" points="0,-171.5 0,-239.5 181,-239.5 181,-171.5 0,-171.5"/>
<text text-anchor="middle" x="90.5" y="-227.5" font-family="Helvetica,sans-Serif" font-size="10.00">Kyoo.Controllers.ITrackRepository</text>
<polyline fill="none" stroke="black" points="0,-220.5 181,-220.5 "/>
<text text-anchor="middle" x="90.5" y="-208.5" font-family="Helvetica,sans-Serif" font-size="10.00"> </text>
<polyline fill="none" stroke="black" points="0,-201.5 181,-201.5 "/>
<text text-anchor="start" x="8" y="-189.5" font-family="Helvetica,sans-Serif" font-size="10.00">+ Get()</text>
<text text-anchor="start" x="8" y="-178.5" font-family="Helvetica,sans-Serif" font-size="10.00">+ GetOrDefault()</text>
</a>
</g>
</g>
<!-- Node3 -->
<g id="node3" class="node">
<title>Node3</title>
<g id="a_node3"><a xlink:href="classKyoo_1_1Controllers_1_1TrackRepository.html" target="_top" xlink:title="A local repository to handle tracks.">
<polygon fill="white" stroke="black" points="1.5,-0.5 1.5,-134.5 179.5,-134.5 179.5,-0.5 1.5,-0.5"/>
<text text-anchor="middle" x="90.5" y="-122.5" font-family="Helvetica,sans-Serif" font-size="10.00">Kyoo.Controllers.TrackRepository</text>
<polyline fill="none" stroke="black" points="1.5,-115.5 179.5,-115.5 "/>
<text text-anchor="start" x="9.5" y="-103.5" font-family="Helvetica,sans-Serif" font-size="10.00"># DefaultSort</text>
<text text-anchor="start" x="9.5" y="-92.5" font-family="Helvetica,sans-Serif" font-size="10.00">&#45; _database</text>
<polyline fill="none" stroke="black" points="1.5,-85.5 179.5,-85.5 "/>
<text text-anchor="start" x="9.5" y="-73.5" font-family="Helvetica,sans-Serif" font-size="10.00">+ TrackRepository()</text>
<text text-anchor="start" x="9.5" y="-62.5" font-family="Helvetica,sans-Serif" font-size="10.00">+ Get()</text>
<text text-anchor="start" x="9.5" y="-51.5" font-family="Helvetica,sans-Serif" font-size="10.00">+ GetOrDefault()</text>
<text text-anchor="start" x="9.5" y="-40.5" font-family="Helvetica,sans-Serif" font-size="10.00">+ Search()</text>
<text text-anchor="start" x="9.5" y="-29.5" font-family="Helvetica,sans-Serif" font-size="10.00">+ Create()</text>
<text text-anchor="start" x="9.5" y="-18.5" font-family="Helvetica,sans-Serif" font-size="10.00">+ Delete()</text>
<text text-anchor="start" x="9.5" y="-7.5" font-family="Helvetica,sans-Serif" font-size="10.00">&#45; Get()</text>
</a>
</g>
</g>
<!-- Node1&#45;&gt;Node3 -->
<g id="edge2" class="edge">
<title>Node1&#45;&gt;Node3</title>
<path fill="none" stroke="midnightblue" d="M90.5,-160.96C90.5,-152.57 90.5,-143.6 90.5,-134.68"/>
<polygon fill="none" stroke="midnightblue" points="87,-161.23 90.5,-171.23 94,-161.23 87,-161.23"/>
</g>
<!-- Node2 -->
<g id="node2" class="node">
<title>Node2</title>
<g id="a_node2"><a xlink:href="interfaceKyoo_1_1Controllers_1_1IRepository.html" target="_top" xlink:title=" ">
<polygon fill="white" stroke="black" points="30.5,-276.5 30.5,-443.5 150.5,-443.5 150.5,-276.5 30.5,-276.5"/>
<text text-anchor="middle" x="90.5" y="-431.5" font-family="Helvetica,sans-Serif" font-size="10.00">IRepository&lt; Track &gt;</text>
<polyline fill="none" stroke="black" points="30.5,-424.5 150.5,-424.5 "/>
<text text-anchor="middle" x="90.5" y="-412.5" font-family="Helvetica,sans-Serif" font-size="10.00"> </text>
<polyline fill="none" stroke="black" points="30.5,-405.5 150.5,-405.5 "/>
<text text-anchor="start" x="38.5" y="-393.5" font-family="Helvetica,sans-Serif" font-size="10.00">+ Get()</text>
<text text-anchor="start" x="38.5" y="-382.5" font-family="Helvetica,sans-Serif" font-size="10.00">+ Get()</text>
<text text-anchor="start" x="38.5" y="-371.5" font-family="Helvetica,sans-Serif" font-size="10.00">+ Get()</text>
<text text-anchor="start" x="38.5" y="-360.5" font-family="Helvetica,sans-Serif" font-size="10.00">+ GetOrDefault()</text>
<text text-anchor="start" x="38.5" y="-349.5" font-family="Helvetica,sans-Serif" font-size="10.00">+ GetOrDefault()</text>
<text text-anchor="start" x="38.5" y="-338.5" font-family="Helvetica,sans-Serif" font-size="10.00">+ GetOrDefault()</text>
<text text-anchor="start" x="38.5" y="-327.5" font-family="Helvetica,sans-Serif" font-size="10.00">+ Search()</text>
<text text-anchor="start" x="38.5" y="-316.5" font-family="Helvetica,sans-Serif" font-size="10.00">+ GetAll()</text>
<text text-anchor="start" x="38.5" y="-305.5" font-family="Helvetica,sans-Serif" font-size="10.00">+ GetAll()</text>
<text text-anchor="start" x="38.5" y="-294.5" font-family="Helvetica,sans-Serif" font-size="10.00">+ GetCount()</text>
<text text-anchor="start" x="38.5" y="-283.5" font-family="Helvetica,sans-Serif" font-size="10.00">and 13 more...</text>
</a>
</g>
</g>
<!-- Node2&#45;&gt;Node1 -->
<g id="edge1" class="edge">
<title>Node2&#45;&gt;Node1</title>
<path fill="none" stroke="midnightblue" d="M90.5,-265.89C90.5,-256.63 90.5,-247.72 90.5,-239.74"/>
<polygon fill="none" stroke="midnightblue" points="87,-266.06 90.5,-276.06 94,-266.06 87,-266.06"/>
</g>
</g>
</svg>
