<?xml version="1.0" encoding="UTF-8" standalone="no"?>
<!DOCTYPE svg PUBLIC "-//W3C//DTD SVG 1.1//EN"
 "http://www.w3.org/Graphics/SVG/1.1/DTD/svg11.dtd">
<!-- Generated by graphviz version 2.43.0 (0)
 -->
<!-- Title: Kyoo.Controllers.ILibraryRepository Pages: 1 -->
<svg width="145pt" height="463pt"
 viewBox="0.00 0.00 145.00 463.00" xmlns="http://www.w3.org/2000/svg" xmlns:xlink="http://www.w3.org/1999/xlink">
<g id="graph0" class="graph" transform="scale(1 1) rotate(0) translate(4 459)">
<title>Kyoo.Controllers.ILibraryRepository</title>
<polygon fill="white" stroke="transparent" points="-4,4 -4,-459 141,-459 141,4 -4,4"/>
<!-- Node1 -->
<g id="node1" class="node">
<title>Node1</title>
<g id="a_node1"><a xlink:title="A repository to handle libraries.">
<polygon fill="#bfbfbf" stroke="black" points="0,-182.5 0,-250.5 137,-250.5 137,-182.5 0,-182.5"/>
<text text-anchor="start" x="8" y="-238.5" font-family="Helvetica,sans-Serif" font-size="10.00">Kyoo.Controllers.ILibrary</text>
<text text-anchor="middle" x="68.5" y="-227.5" font-family="Helvetica,sans-Serif" font-size="10.00">Repository</text>
<polyline fill="none" stroke="black" points="0,-220.5 137,-220.5 "/>
<text text-anchor="middle" x="68.5" y="-208.5" font-family="Helvetica,sans-Serif" font-size="10.00"> </text>
<polyline fill="none" stroke="black" points="0,-201.5 137,-201.5 "/>
<text text-anchor="middle" x="68.5" y="-189.5" font-family="Helvetica,sans-Serif" font-size="10.00"> </text>
</a>
</g>
</g>
<!-- Node3 -->
<g id="node3" class="node">
<title>Node3</title>
<g id="a_node3"><a xlink:href="classKyoo_1_1Controllers_1_1LibraryRepository.html" target="_top" xlink:title="A local repository to handle libraries.">
<polygon fill="white" stroke="black" points="1.5,-0.5 1.5,-145.5 135.5,-145.5 135.5,-0.5 1.5,-0.5"/>
<text text-anchor="start" x="9.5" y="-133.5" font-family="Helvetica,sans-Serif" font-size="10.00">Kyoo.Controllers.Library</text>
<text text-anchor="middle" x="68.5" y="-122.5" font-family="Helvetica,sans-Serif" font-size="10.00">Repository</text>
<polyline fill="none" stroke="black" points="1.5,-115.5 135.5,-115.5 "/>
<text text-anchor="start" x="9.5" y="-103.5" font-family="Helvetica,sans-Serif" font-size="10.00"># DefaultSort</text>
<text text-anchor="start" x="9.5" y="-92.5" font-family="Helvetica,sans-Serif" font-size="10.00">&#45; _database</text>
<text text-anchor="start" x="9.5" y="-81.5" font-family="Helvetica,sans-Serif" font-size="10.00">&#45; _providers</text>
<polyline fill="none" stroke="black" points="1.5,-74.5 135.5,-74.5 "/>
<text text-anchor="start" x="9.5" y="-62.5" font-family="Helvetica,sans-Serif" font-size="10.00">+ LibraryRepository()</text>
<text text-anchor="start" x="9.5" y="-51.5" font-family="Helvetica,sans-Serif" font-size="10.00">+ Search()</text>
<text text-anchor="start" x="9.5" y="-40.5" font-family="Helvetica,sans-Serif" font-size="10.00">+ Create()</text>
<text text-anchor="start" x="9.5" y="-29.5" font-family="Helvetica,sans-Serif" font-size="10.00">+ Delete()</text>
<text text-anchor="start" x="9.5" y="-18.5" font-family="Helvetica,sans-Serif" font-size="10.00"># Validate()</text>
<text text-anchor="start" x="9.5" y="-7.5" font-family="Helvetica,sans-Serif" font-size="10.00"># EditRelations()</text>
</a>
</g>
</g>
<!-- Node1&#45;&gt;Node3 -->
<g id="edge2" class="edge">
<title>Node1&#45;&gt;Node3</title>
<path fill="none" stroke="midnightblue" d="M68.5,-172.09C68.5,-163.73 68.5,-154.76 68.5,-145.77"/>
<polygon fill="none" stroke="midnightblue" points="65,-172.32 68.5,-182.32 72,-172.32 65,-172.32"/>
</g>
<!-- Node2 -->
<g id="node2" class="node">
<title>Node2</title>
<g id="a_node2"><a xlink:href="interfaceKyoo_1_1Controllers_1_1IRepository.html" target="_top" xlink:title=" ">
<polygon fill="white" stroke="black" points="4.5,-287.5 4.5,-454.5 132.5,-454.5 132.5,-287.5 4.5,-287.5"/>
<text text-anchor="middle" x="68.5" y="-442.5" font-family="Helvetica,sans-Serif" font-size="10.00">IRepository&lt; Library &gt;</text>
<polyline fill="none" stroke="black" points="4.5,-435.5 132.5,-435.5 "/>
<text text-anchor="middle" x="68.5" y="-423.5" font-family="Helvetica,sans-Serif" font-size="10.00"> </text>
<polyline fill="none" stroke="black" points="4.5,-416.5 132.5,-416.5 "/>
<text text-anchor="start" x="12.5" y="-404.5" font-family="Helvetica,sans-Serif" font-size="10.00">+ Get()</text>
<text text-anchor="start" x="12.5" y="-393.5" font-family="Helvetica,sans-Serif" font-size="10.00">+ Get()</text>
<text text-anchor="start" x="12.5" y="-382.5" font-family="Helvetica,sans-Serif" font-size="10.00">+ Get()</text>
<text text-anchor="start" x="12.5" y="-371.5" font-family="Helvetica,sans-Serif" font-size="10.00">+ GetOrDefault()</text>
<text text-anchor="start" x="12.5" y="-360.5" font-family="Helvetica,sans-Serif" font-size="10.00">+ GetOrDefault()</text>
<text text-anchor="start" x="12.5" y="-349.5" font-family="Helvetica,sans-Serif" font-size="10.00">+ GetOrDefault()</text>
<text text-anchor="start" x="12.5" y="-338.5" font-family="Helvetica,sans-Serif" font-size="10.00">+ Search()</text>
<text text-anchor="start" x="12.5" y="-327.5" font-family="Helvetica,sans-Serif" font-size="10.00">+ GetAll()</text>
<text text-anchor="start" x="12.5" y="-316.5" font-family="Helvetica,sans-Serif" font-size="10.00">+ GetAll()</text>
<text text-anchor="start" x="12.5" y="-305.5" font-family="Helvetica,sans-Serif" font-size="10.00">+ GetCount()</text>
<text text-anchor="start" x="12.5" y="-294.5" font-family="Helvetica,sans-Serif" font-size="10.00">and 13 more...</text>
</a>
</g>
</g>
<!-- Node2&#45;&gt;Node1 -->
<g id="edge1" class="edge">
<title>Node2&#45;&gt;Node1</title>
<path fill="none" stroke="midnightblue" d="M68.5,-276.89C68.5,-267.63 68.5,-258.72 68.5,-250.74"/>
<polygon fill="none" stroke="midnightblue" points="65,-277.06 68.5,-287.06 72,-277.06 65,-277.06"/>
</g>
</g>
</svg>
